<svg width="85" height="60" viewBox="0 0 85 60" fill="none" xmlns="http://www.w3.org/2000/svg">
<path d="M0 8C0 3.58172 3.58172 0 8 0H77C81.4183 0 85 3.58172 85 8V52C85 56.4183 81.4183 60 77 60H8C3.58172 60 0 56.4183 0 52V8Z" fill="black"/>
<g clip-path="url(#clip0_128:780)">
<path d="M34.2055 26.8226C32.1765 30.3436 33.4664 35.6867 35.7101 38.9265C36.8301 40.5462 37.964 42.0002 39.5171 42.0002C39.5463 42.0002 39.5757 41.9996 39.6058 41.9984C40.3354 41.9693 40.8627 41.7447 41.3726 41.5276C41.9449 41.2836 42.5369 41.0314 43.4654 41.0314C44.3488 41.0314 44.9125 41.2754 45.4577 41.5113C45.9949 41.7438 46.5484 41.9843 47.3661 41.9689C49.1155 41.9363 50.1896 40.3675 51.1372 38.9834C52.1261 37.5383 52.6222 36.1352 52.7895 35.599L52.7963 35.5777C52.8282 35.4824 52.7832 35.3784 52.6918 35.3364C52.6893 35.3352 52.68 35.3314 52.6774 35.3303C52.3693 35.2043 49.667 34.0055 49.6386 30.738C49.6123 28.0834 51.6659 26.6776 52.0777 26.4228L52.0969 26.4109C52.1415 26.3821 52.1726 26.3366 52.1832 26.2845C52.1937 26.2325 52.1827 26.1783 52.1528 26.1346C50.7353 24.0602 48.5627 23.7476 47.688 23.71C47.5611 23.6973 47.4301 23.6909 47.2985 23.6909C46.2711 23.6909 45.287 24.0789 44.4963 24.3907C43.9505 24.6059 43.4791 24.7918 43.154 24.7918C42.7886 24.7918 42.3145 24.6036 41.7655 24.3858C41.0314 24.0944 40.1992 23.7643 39.3183 23.7643C39.2973 23.7643 39.2766 23.7645 39.2562 23.7649C37.208 23.795 35.2725 24.9669 34.2055 26.8226Z" fill="white"/>
<path d="M47.69 18.0002C46.4496 18.0507 44.9617 18.8142 44.0724 19.8559C43.3166 20.7314 42.5782 22.1913 42.7728 23.6627C42.785 23.7548 42.8599 23.8259 42.9525 23.833C43.0362 23.8395 43.1217 23.8429 43.2068 23.8429C44.4196 23.8429 45.728 23.172 46.6215 22.0916C47.5619 20.9507 48.0374 19.4867 47.8936 18.1752C47.8822 18.0725 47.7918 17.9961 47.69 18.0002Z" fill="white"/>
</g>
<defs>
<clipPath id="clip0_128:780">
<rect width="24" height="24" fill="white" transform="translate(31 18)"/>
</clipPath>
</defs>
</svg>
