<svg width="48" height="48" viewBox="0 0 48 48" fill="none" xmlns="http://www.w3.org/2000/svg">
<rect x="0.5" y="0.5" width="47" height="47" rx="7.5" stroke="white" stroke-opacity="0.25"/>
<g clip-path="url(#clip0)">
<path d="M35.7861 29.3671C35.7216 29.2591 35.3226 28.392 33.4024 26.6099C31.3923 24.7438 31.6623 25.0468 34.0835 21.82C35.5581 19.8549 36.1476 18.6548 35.9631 18.1418C35.7876 17.6527 34.703 17.7817 34.703 17.7817L31.0968 17.8028C31.0968 17.8028 30.8297 17.7667 30.6302 17.8853C30.4367 18.0023 30.3122 18.2723 30.3122 18.2723C30.3122 18.2723 29.7407 19.7934 28.9786 21.0865C27.372 23.8152 26.7284 23.9592 26.4659 23.7897C25.8554 23.3952 26.0084 22.2026 26.0084 21.3565C26.0084 18.7118 26.4089 17.6092 25.2268 17.3242C24.8338 17.2297 24.5458 17.1667 23.5422 17.1562C22.2551 17.1427 21.1645 17.1607 20.548 17.4622C20.1369 17.6632 19.8204 18.1118 20.0139 18.1373C20.2525 18.1688 20.7925 18.2828 21.079 18.6728C21.4495 19.1754 21.436 20.3064 21.436 20.3064C21.436 20.3064 21.6491 23.4192 20.9395 23.8062C20.452 24.0717 19.7844 23.5302 18.3518 21.0535C17.6183 19.7859 17.0632 18.3833 17.0632 18.3833C17.0632 18.3833 16.9567 18.1223 16.7662 17.9828C16.5352 17.8133 16.2111 17.7592 16.2111 17.7592L12.7819 17.7802C12.7819 17.7802 12.2674 17.7953 12.0783 18.0188C11.9103 18.2183 12.0648 18.6293 12.0648 18.6293C12.0648 18.6293 14.75 24.9103 17.7893 28.077C20.578 30.9797 23.7432 30.7892 23.7432 30.7892H25.1773C25.1773 30.7892 25.6109 30.7412 25.8314 30.5027C26.0354 30.2837 26.0279 29.8726 26.0279 29.8726C26.0279 29.8726 25.9994 27.948 26.8934 27.6645C27.774 27.3855 28.9051 29.5246 30.1037 30.3482C31.0098 30.9707 31.6983 30.8342 31.6983 30.8342L34.904 30.7892C34.904 30.7892 36.5812 30.6857 35.7861 29.3671Z" fill="white" fill-opacity="0.25"/>
</g>
<defs>
<clipPath id="clip0">
<rect width="24" height="24" fill="white" transform="translate(12 12)"/>
</clipPath>
</defs>
</svg>
