<svg width="48" height="48" viewBox="0 0 48 48" fill="none" xmlns="http://www.w3.org/2000/svg">
<rect x="0.5" y="0.5" width="47" height="47" rx="7.5" stroke="white" stroke-opacity="0.25"/>
<g clip-path="url(#clip0)">
<path d="M35.9765 19.0561C35.9203 17.7809 35.7141 16.9042 35.4186 16.1445C35.1139 15.3381 34.6451 14.6162 34.0308 14.016C33.4306 13.4065 32.7039 12.9329 31.9069 12.6329C31.1429 12.3375 30.2707 12.1313 28.9955 12.0751C27.7108 12.0141 27.3029 12 24.0445 12C20.786 12 20.3782 12.0141 19.0982 12.0703C17.823 12.1266 16.9463 12.333 16.1868 12.6282C15.3803 12.9329 14.6583 13.4018 14.0582 14.016C13.4487 14.6162 12.9753 15.3429 12.6751 16.1399C12.3797 16.9042 12.1735 17.7761 12.1172 19.0513C12.0563 20.336 12.0422 20.7439 12.0422 24.0023C12.0422 27.2608 12.0563 27.6686 12.1125 28.9486C12.1687 30.2238 12.3751 31.1005 12.6705 31.8602C12.9753 32.6666 13.4487 33.3885 14.0582 33.9887C14.6583 34.5982 15.385 35.0718 16.1821 35.3718C16.9463 35.6672 17.8182 35.8734 19.0936 35.9296C20.3734 35.986 20.7815 35.9999 24.0399 35.9999C27.2984 35.9999 27.7062 35.986 28.9862 35.9296C30.2614 35.8734 31.1381 35.6672 31.8976 35.3718C33.5105 34.7482 34.7857 33.4729 35.4093 31.8602C35.7045 31.096 35.9109 30.2238 35.9672 28.9486C36.0234 27.6686 36.0375 27.2608 36.0375 24.0023C36.0375 20.7439 36.0327 20.336 35.9765 19.0561ZM33.8152 28.8549C33.7636 30.027 33.5667 30.6599 33.4026 31.0819C32.9994 32.1274 32.1695 32.9572 31.124 33.3605C30.702 33.5246 30.0645 33.7215 28.897 33.7729C27.6311 33.8293 27.2515 33.8433 24.0493 33.8433C20.847 33.8433 20.4626 33.8293 19.2013 33.7729C18.0292 33.7215 17.3963 33.5246 16.9743 33.3605C16.454 33.1682 15.9804 32.8634 15.596 32.4649C15.1975 32.0758 14.8927 31.6069 14.7005 31.0866C14.5364 30.6647 14.3395 30.027 14.288 28.8596C14.2316 27.5937 14.2177 27.2139 14.2177 24.0117C14.2177 20.8095 14.2316 20.425 14.288 19.1639C14.3395 17.9918 14.5364 17.3589 14.7005 16.9369C14.8927 16.4165 15.1975 15.943 15.6008 15.5584C15.9898 15.1599 16.4586 14.8552 16.9791 14.6631C17.401 14.499 18.0387 14.3021 19.2061 14.2504C20.472 14.1942 20.8518 14.1801 24.0538 14.1801C27.2608 14.1801 27.6405 14.1942 28.9018 14.2504C30.0739 14.3021 30.7068 14.499 31.1287 14.6631C31.6491 14.8552 32.1227 15.1599 32.5071 15.5584C32.9056 15.9476 33.2103 16.4165 33.4026 16.9369C33.5667 17.3589 33.7636 17.9964 33.8152 19.1639C33.8715 20.4298 33.8856 20.8095 33.8856 24.0117C33.8856 27.2139 33.8715 27.589 33.8152 28.8549Z" fill="white" fill-opacity="0.25"/>
<path d="M24.0445 17.8369C20.6408 17.8369 17.8792 20.5983 17.8792 24.0022C17.8792 27.406 20.6408 30.1674 24.0445 30.1674C27.4484 30.1674 30.2098 27.406 30.2098 24.0022C30.2098 20.5983 27.4484 17.8369 24.0445 17.8369ZM24.0445 28.0014C21.8364 28.0014 20.0453 26.2105 20.0453 24.0022C20.0453 21.7939 21.8364 20.0029 24.0445 20.0029C26.2528 20.0029 28.0438 21.7939 28.0438 24.0022C28.0438 26.2105 26.2528 28.0014 24.0445 28.0014Z" fill="white" fill-opacity="0.25"/>
<path d="M31.893 17.5934C31.893 18.3882 31.2485 19.0327 30.4535 19.0327C29.6587 19.0327 29.0142 18.3882 29.0142 17.5934C29.0142 16.7983 29.6587 16.1541 30.4535 16.1541C31.2485 16.1541 31.893 16.7983 31.893 17.5934Z" fill="white" fill-opacity="0.25"/>
</g>
<defs>
<clipPath id="clip0">
<rect width="24" height="24" fill="white" transform="translate(12 12)"/>
</clipPath>
</defs>
</svg>
