<svg width="85" height="60" viewBox="0 0 85 60" fill="none" xmlns="http://www.w3.org/2000/svg">
<path d="M0 8C0 3.58172 3.58172 0 8 0H77C81.4183 0 85 3.58172 85 8V52C85 56.4183 81.4183 60 77 60H8C3.58172 60 0 56.4183 0 52V8Z" fill="#4568B2"/>
<g clip-path="url(#clip0_128:751)">
<path d="M46.9975 21.985H49.1885V18.169C48.8105 18.117 47.5105 18 45.9965 18C42.8375 18 40.6735 19.987 40.6735 23.639V27H37.1875V31.266H40.6735V42H44.9475V31.267H48.2925L48.8235 27.001H44.9465V24.062C44.9475 22.829 45.2795 21.985 46.9975 21.985Z" fill="white"/>
</g>
<defs>
<clipPath id="clip0_128:751">
<rect width="24" height="24" fill="white" transform="translate(31 18)"/>
</clipPath>
</defs>
</svg>
