<svg width="85" height="60" viewBox="0 0 85 60" fill="none" xmlns="http://www.w3.org/2000/svg">
<path d="M0 8C0 3.58172 3.58172 0 8 0H77C81.4183 0 85 3.58172 85 8V52C85 56.4183 81.4183 60 77 60H8C3.58172 60 0 56.4183 0 52V8Z" fill="#4A76A8"/>
<g clip-path="url(#clip0_128:756)">
<path d="M54.7861 35.3674C54.7216 35.2593 54.3226 34.3923 52.4024 32.6102C50.3923 30.744 50.6623 31.047 53.0835 27.8203C54.5581 25.8551 55.1476 24.6551 54.9631 24.142C54.7876 23.653 53.703 23.782 53.703 23.782L50.0968 23.803C50.0968 23.803 49.8297 23.767 49.6302 23.8855C49.4367 24.0025 49.3122 24.2725 49.3122 24.2725C49.3122 24.2725 48.7407 25.7936 47.9786 27.0867C46.372 29.8154 45.7284 29.9595 45.4659 29.7899C44.8554 29.3954 45.0084 28.2028 45.0084 27.3568C45.0084 24.7121 45.4089 23.6095 44.2268 23.3245C43.8338 23.23 43.5458 23.1669 42.5422 23.1564C41.2551 23.1429 40.1645 23.1609 39.548 23.4625C39.1369 23.6635 38.8204 24.112 39.0139 24.1375C39.2525 24.169 39.7925 24.283 40.079 24.6731C40.4495 25.1756 40.436 26.3067 40.436 26.3067C40.436 26.3067 40.6491 29.4194 39.9395 29.8064C39.452 30.072 38.7844 29.5304 37.3518 27.0537C36.6183 25.7861 36.0632 24.3835 36.0632 24.3835C36.0632 24.3835 35.9567 24.1225 35.7662 23.983C35.5352 23.8135 35.2112 23.7595 35.2112 23.7595L31.7819 23.7805C31.7819 23.7805 31.2674 23.7955 31.0783 24.019C30.9103 24.2185 31.0648 24.6296 31.0648 24.6296C31.0648 24.6296 33.75 30.9105 36.7893 34.0773C39.578 36.98 42.7432 36.7895 42.7432 36.7895H44.1773C44.1773 36.7895 44.6109 36.7415 44.8314 36.5029C45.0354 36.2839 45.0279 35.8729 45.0279 35.8729C45.0279 35.8729 44.9994 33.9483 45.8935 33.6647C46.774 33.3857 47.9051 35.5249 49.1037 36.3484C50.0098 36.971 50.6983 36.8345 50.6983 36.8345L53.9041 36.7895C53.9041 36.7895 55.5812 36.686 54.7861 35.3674Z" fill="white"/>
</g>
<defs>
<clipPath id="clip0_128:756">
<rect width="24" height="24" fill="white" transform="translate(31 18)"/>
</clipPath>
</defs>
</svg>
