<svg width="85" height="60" viewBox="0 0 85 60" fill="none" xmlns="http://www.w3.org/2000/svg">
<path d="M0 8C0 3.58172 3.58172 0 8 0H77C81.4183 0 85 3.58172 85 8V52C85 56.4183 81.4183 60 77 60H8C3.58172 60 0 56.4183 0 52V8Z" fill="white"/>
<path d="M0.5 8C0.5 3.85786 3.85786 0.5 8 0.5H77C81.1421 0.5 84.5 3.85786 84.5 8V52C84.5 56.1421 81.1421 59.5 77 59.5H8C3.85786 59.5 0.5 56.1421 0.5 52V8Z" stroke="black" stroke-opacity="0.25"/>
<path d="M54.52 30.2729C54.52 29.422 54.4436 28.6038 54.3018 27.8184H43V32.4602H49.4582C49.18 33.9602 48.3345 35.2311 47.0636 36.082V39.0929H50.9418C53.2109 37.0038 54.52 33.9275 54.52 30.2729Z" fill="#4285F4"/>
<path d="M43 41.9998C46.24 41.9998 48.9564 40.9252 50.9418 39.0925L47.0636 36.0816C45.9891 36.8016 44.6145 37.2271 43 37.2271C39.8745 37.2271 37.2291 35.1161 36.2855 32.2798H32.2764V35.3889C34.2509 39.3107 38.3091 41.9998 43 41.9998Z" fill="#34A853"/>
<path d="M36.2855 32.2799C36.0455 31.5599 35.9091 30.7908 35.9091 29.9999C35.9091 29.209 36.0455 28.4399 36.2855 27.7199V24.6108H32.2764C31.4636 26.2308 31 28.0636 31 29.9999C31 31.9363 31.4636 33.769 32.2764 35.389L36.2855 32.2799Z" fill="#FBBC05"/>
<path d="M43 22.7727C44.7618 22.7727 46.3436 23.3782 47.5873 24.5673L51.0291 21.1255C48.9509 19.1891 46.2345 18 43 18C38.3091 18 34.2509 20.6891 32.2764 24.6109L36.2855 27.72C37.2291 24.8836 39.8745 22.7727 43 22.7727Z" fill="#EA4335"/>
</svg>
