<svg width="21" height="19" viewBox="0 0 21 19" fill="black" xmlns="http://www.w3.org/2000/svg">
<path d="M19.3129 2.47345C17.029 0.190149 13.3135 0.190149 11.0302 2.47345L10.4998 3.00348L9.96982 2.47345C7.68652 0.18984 3.97075 0.18984 1.68744 2.47345C-0.549498 4.71039 -0.564024 8.25618 1.65376 10.7215C3.67652 12.9693 9.64222 17.8255 9.89534 18.031C10.0672 18.1707 10.2739 18.2387 10.4795 18.2387C10.4862 18.2387 10.493 18.2387 10.4995 18.2384C10.7122 18.2483 10.9263 18.1753 11.1037 18.031C11.3569 17.8255 17.3232 12.9693 19.3466 10.7212C21.564 8.25618 21.5495 4.71039 19.3129 2.47345ZM17.9682 9.48097C16.3911 11.233 12.0559 14.8465 10.4995 16.1287C8.94314 14.8468 4.60894 11.2336 3.03214 9.48128C1.48501 7.7617 1.47049 5.31274 2.99846 3.78477C3.77882 3.00472 4.80365 2.61438 5.82848 2.61438C6.8533 2.61438 7.87813 3.00441 8.6585 3.78477L9.82425 4.95053C9.96302 5.08929 10.1379 5.17212 10.3215 5.20117C10.6195 5.26515 10.9427 5.18201 11.1745 4.95084L12.3409 3.78477C13.9019 2.22435 16.4411 2.22466 18.0012 3.78477C19.5292 5.31274 19.5147 7.76169 17.9682 9.48097Z"/>
</svg>
