<svg width="20" height="20" viewBox="0 0 20 20" fill="none" xmlns="http://www.w3.org/2000/svg">
<circle cx="10" cy="10" r="10" fill="#DF7070"/>
<g clip-path="url(#clip0_242:286)">
<path d="M10.907 10.0002L13.9861 6.921C14.0708 6.83623 14.1175 6.72315 14.1176 6.60256C14.1176 6.48191 14.0709 6.36869 13.9861 6.28407L13.7163 6.01431C13.6314 5.92935 13.5183 5.88281 13.3976 5.88281C13.2771 5.88281 13.164 5.92935 13.0792 6.01431L10.0001 9.09331L6.92094 6.01431C6.83624 5.92935 6.72309 5.88281 6.60244 5.88281C6.48192 5.88281 6.36877 5.92935 6.28407 6.01431L6.01412 6.28407C5.83843 6.45975 5.83843 6.74551 6.01412 6.921L9.09325 10.0002L6.01412 13.0793C5.92935 13.1642 5.88269 13.2772 5.88269 13.3978C5.88269 13.5184 5.92935 13.6315 6.01412 13.7163L6.28401 13.9861C6.3687 14.071 6.48192 14.1176 6.60237 14.1176C6.72302 14.1176 6.83617 14.071 6.92087 13.9861L10.0001 10.907L13.0791 13.9861C13.164 14.071 13.277 14.1176 13.3976 14.1176H13.3977C13.5183 14.1176 13.6314 14.071 13.7162 13.9861L13.986 13.7163C14.0707 13.6316 14.1174 13.5184 14.1174 13.3978C14.1174 13.2772 14.0707 13.1642 13.986 13.0793L10.907 10.0002Z" fill="white"/>
</g>
<defs>
<clipPath id="clip0_242:286">
<rect width="8.23529" height="8.23529" fill="white" transform="translate(5.88235 5.88281)"/>
</clipPath>
</defs>
</svg>
