<svg width="20" height="20" viewBox="0 0 20 20" fill="none" xmlns="http://www.w3.org/2000/svg">
<g clip-path="url(#clip0_242:192)">
<path d="M14.375 19.1667H2.29167C1.0275 19.1667 0 18.1392 0 16.875V9.79167C0 8.5275 1.0275 7.5 2.29167 7.5H14.375C15.6392 7.5 16.6667 8.5275 16.6667 9.79167V16.875C16.6667 18.1392 15.6392 19.1667 14.375 19.1667ZM2.29167 8.75C1.7175 8.75 1.25 9.2175 1.25 9.79167V16.875C1.25 17.4492 1.7175 17.9167 2.29167 17.9167H14.375C14.9492 17.9167 15.4167 17.4492 15.4167 16.875V9.79167C15.4167 9.2175 14.9492 8.75 14.375 8.75H2.29167Z" fill="black" fill-opacity="0.25"/>
<path d="M5.20833 14.1667H3.95833C3.15417 14.1667 2.5 13.5125 2.5 12.7083V11.4583C2.5 10.6542 3.15417 10 3.95833 10H5.20833C6.0125 10 6.66667 10.6542 6.66667 11.4583V12.7083C6.66667 13.5125 6.0125 14.1667 5.20833 14.1667ZM3.95833 11.25C3.84333 11.25 3.75 11.3433 3.75 11.4583V12.7083C3.75 12.8233 3.84333 12.9167 3.95833 12.9167H5.20833C5.32333 12.9167 5.41667 12.8233 5.41667 12.7083V11.4583C5.41667 11.3433 5.32333 11.25 5.20833 11.25H3.95833Z" fill="black" fill-opacity="0.25"/>
<path d="M13.5417 16.667H3.125C2.78 16.667 2.5 16.387 2.5 16.042C2.5 15.697 2.78 15.417 3.125 15.417H13.5417C13.8867 15.417 14.1667 15.697 14.1667 16.042C14.1667 16.387 13.8867 16.667 13.5417 16.667Z" fill="black" fill-opacity="0.25"/>
<path d="M18.9583 5.41699H4.375C4.03 5.41699 3.75 5.13699 3.75 4.79199C3.75 4.44699 4.03 4.16699 4.375 4.16699H18.9583C19.3033 4.16699 19.5833 4.44699 19.5833 4.79199C19.5833 5.13699 19.3033 5.41699 18.9583 5.41699Z" fill="black" fill-opacity="0.25"/>
<path d="M18.5417 12.2663C18.3242 12.2663 18.1125 12.1522 17.9975 11.9497C17.8267 11.6497 17.9325 11.268 18.2325 11.098C18.5559 10.9147 18.7492 10.5813 18.7492 10.208V3.12467C18.7492 2.55051 18.2817 2.08301 17.7075 2.08301H5.62504C5.05087 2.08301 4.58337 2.55051 4.58337 3.12467V5.62467C4.58337 5.96967 4.30337 6.24967 3.95837 6.24967C3.61337 6.24967 3.33337 5.96967 3.33337 5.62467V3.12467C3.33337 1.86051 4.36087 0.833008 5.62504 0.833008H17.7084C18.9725 0.833008 20 1.86051 20 3.12467V10.208C20 11.0255 19.5592 11.783 18.85 12.1855C18.7525 12.2405 18.6467 12.2663 18.5417 12.2663Z" fill="black" fill-opacity="0.25"/>
</g>
<defs>
<clipPath id="clip0_242:192">
<rect width="20" height="20" fill="white"/>
</clipPath>
</defs>
</svg>
