<svg width="20" height="20" viewBox="0 0 20 20" fill="none" xmlns="http://www.w3.org/2000/svg">
<path d="M14.9938 6.71286C14.6859 6.38825 14.1727 6.37395 13.8476 6.68258L8.67136 11.5915L6.20245 9.05664C5.88976 8.73582 5.37706 8.72879 5.05597 9.04152C4.73515 9.35395 4.72839 9.86719 5.04081 10.188L8.06784 13.2959C8.22648 13.4588 8.4373 13.541 8.64866 13.541C8.84921 13.541 9.04976 13.4669 9.20679 13.3185L14.9635 7.8591C15.2884 7.55098 15.3021 7.03774 14.9938 6.71286Z" fill="black" fill-opacity="0.25"/>
<path d="M10 0C4.48594 0 0 4.48594 0 10C0 15.5141 4.48594 20 10 20C15.5141 20 20 15.5141 20 10C20 4.48594 15.5141 0 10 0ZM10 18.3784C5.38027 18.3784 1.6216 14.62 1.6216 10C1.6216 5.38027 5.38023 1.6216 10 1.6216C14.62 1.6216 18.3784 5.38023 18.3784 10C18.3784 14.62 14.62 18.3784 10 18.3784Z" fill="black" fill-opacity="0.25"/>
</svg>
