<svg width="9" height="9" viewBox="0 0 9 9" fill="none" xmlns="http://www.w3.org/2000/svg">
<path d="M8.97647 3.45192C8.91721 3.26968 8.75557 3.14066 8.56509 3.12342L5.96705 2.88756L4.9403 0.483708C4.86449 0.3071 4.692 0.193115 4.50001 0.193115C4.30802 0.193115 4.13547 0.3071 4.06014 0.483708L3.03338 2.88756L0.434934 3.12342C0.244455 3.141 0.0831596 3.27003 0.0235578 3.45192C-0.0357007 3.63416 0.0190258 3.83405 0.163086 3.96039L2.12699 5.68246L1.54794 8.23284C1.50557 8.42036 1.57836 8.61428 1.73395 8.72675C1.81759 8.78752 1.91585 8.81787 2.01445 8.81787C2.09918 8.81787 2.18399 8.79535 2.25972 8.75003L4.50001 7.4105L6.73989 8.75003C6.9042 8.84822 7.11082 8.83923 7.26607 8.72675C7.42167 8.61428 7.49445 8.42036 7.45209 8.23284L6.87303 5.68246L8.83694 3.96039C8.98093 3.83405 9.03572 3.63457 8.97647 3.45192Z" fill="#84BB59"/>
</svg>
