<svg width="20" height="20" viewBox="0 0 20 20" fill="none" xmlns="http://www.w3.org/2000/svg">
<path d="M16.6406 19.3748H3.35938C2.36859 19.3748 1.5625 18.5687 1.5625 17.5779V8.12402C1.5625 7.77887 1.8423 7.49902 2.1875 7.49902C2.5327 7.49902 2.8125 7.77887 2.8125 8.12402V17.5779C2.8125 17.8795 3.05781 18.1248 3.35938 18.1248H16.6406C16.9422 18.1248 17.1875 17.8795 17.1875 17.5779V8.12402C17.1875 7.77887 17.4673 7.49902 17.8125 7.49902C18.1577 7.49902 18.4375 7.77887 18.4375 8.12402V17.5779C18.4375 18.5687 17.6314 19.3748 16.6406 19.3748Z" fill="#2AA2D6"/>
<path d="M19.375 10.3112C19.215 10.3112 19.0551 10.2501 18.9331 10.1281L11.1601 2.35515C10.5204 1.71547 9.4796 1.71547 8.83991 2.35515L1.06694 10.1281C0.822881 10.3722 0.427139 10.3722 0.183076 10.1281C-0.0610254 9.88405 -0.0610254 9.48831 0.183076 9.24424L7.95605 1.47125C9.08308 0.344219 10.9169 0.344219 12.0439 1.47125L19.8169 9.24421C20.061 9.48831 20.061 9.88401 19.8169 10.1281C19.6949 10.2501 19.535 10.3112 19.375 10.3112Z" fill="#2AA2D6"/>
<path d="M12.5 19.375H7.5C7.1548 19.375 6.875 19.0952 6.875 18.75V13.2031C6.875 12.1262 7.75117 11.25 8.82812 11.25H11.1719C12.2488 11.25 13.125 12.1262 13.125 13.2031V18.75C13.125 19.0952 12.8452 19.375 12.5 19.375ZM8.125 18.125H11.875V13.2031C11.875 12.8154 11.5596 12.5 11.1719 12.5H8.82812C8.44043 12.5 8.125 12.8154 8.125 13.2031V18.125Z" fill="#2AA2D6"/>
</svg>
