<svg width="12" height="20" viewBox="0 0 12 20" fill="none" xmlns="http://www.w3.org/2000/svg">
<path d="M0.444137 10.7804L9.34439 19.6805C9.55024 19.8865 9.82504 20 10.118 20C10.411 20 10.6858 19.8865 10.8917 19.6805L11.5471 19.0252C11.9736 18.5982 11.9736 17.9042 11.5471 17.4779L4.07338 10.0041L11.5554 2.52209C11.7613 2.31608 11.8749 2.04145 11.8749 1.7486C11.8749 1.45543 11.7613 1.1808 11.5554 0.974625L10.9 0.319508C10.694 0.113495 10.4193 1.27252e-07 10.1263 1.52868e-07C9.83333 1.78483e-07 9.55853 0.113495 9.35268 0.319508L0.444137 9.22773C0.237797 9.4344 0.124465 9.71033 0.125115 10.0037C0.124465 10.2981 0.237797 10.5739 0.444137 10.7804Z" fill="black" fill-opacity="0.5"/>
</svg>
