<svg width="88" height="30" viewBox="0 0 88 30" fill="#ffffff" xmlns="http://www.w3.org/2000/svg">
<path d="M3.978 13V2.236H0.072V0.256H10.152V2.236H6.246V13H3.978ZM11.6345 13V0.256H16.0625C16.9145 0.256 17.6765 0.37 18.3485 0.598C19.0325 0.814 19.6025 1.21 20.0585 1.786C20.5265 2.35 20.7605 3.058 20.7605 3.91C20.7605 4.81 20.5025 5.56 19.9865 6.16C19.4705 6.748 18.7565 7.144 17.8445 7.348L21.2465 13H18.5105L15.5585 7.6H13.9025V13H11.6345ZM13.9025 5.746H15.7565C17.5805 5.746 18.4925 5.128 18.4925 3.892C18.4925 3.268 18.2465 2.824 17.7545 2.56C17.2625 2.296 16.6625 2.164 15.9545 2.164H13.9025V5.746ZM21.4068 13L26.9508 0.256H28.9128L34.4028 13H31.8108L30.6228 10.084H25.0968L23.9448 13H21.4068ZM25.8708 8.14H29.8308L27.8688 2.956L25.8708 8.14ZM38.5748 13L33.5348 0.256H36.0728L39.5828 10.066H39.6548L43.2008 0.256H45.6488L40.5368 13H38.5748ZM46.8786 13V0.256H55.3206V2.236H49.1466V5.476H54.9966V7.384H49.1466V10.984H55.6446V13H46.8786ZM57.8649 13V0.256H60.1329V10.984H65.5509V13H57.8649ZM67.0583 13V0.256H75.5003V2.236H69.3263V5.476H75.1763V7.384H69.3263V10.984H75.8243V13H67.0583ZM78.0446 13V0.256H82.4726C83.3246 0.256 84.0866 0.37 84.7586 0.598C85.4426 0.814 86.0126 1.21 86.4686 1.786C86.9366 2.35 87.1706 3.058 87.1706 3.91C87.1706 4.81 86.9126 5.56 86.3966 6.16C85.8806 6.748 85.1666 7.144 84.2546 7.348L87.6566 13H84.9206L81.9686 7.6H80.3126V13H78.0446ZM80.3126 5.746H82.1666C83.9906 5.746 84.9026 5.128 84.9026 3.892C84.9026 3.268 84.6566 2.824 84.1646 2.56C83.6726 2.296 83.0726 2.164 82.3646 2.164H80.3126V5.746ZM1.092 30V20.088H3.85L6.426 27.13H6.468L9.016 20.088H11.788V30H10.038V22.034H10.01L7 30H5.768L2.8 22.034H2.772V30H1.092ZM12.7669 30L17.0789 20.088H18.6049L22.8749 30H20.8589L19.9349 27.732H15.6369L14.7409 30H12.7669ZM16.2389 26.22H19.3189L17.7929 22.188L16.2389 26.22ZM23.8557 30V20.088H27.2997C27.9623 20.088 28.555 20.1767 29.0777 20.354C29.6097 20.522 30.053 20.83 30.4077 21.278C30.7717 21.7167 30.9537 22.2673 30.9537 22.93C30.9537 23.63 30.753 24.2133 30.3517 24.68C29.9503 25.1373 29.395 25.4453 28.6857 25.604L31.3317 30H29.2037L26.9077 25.8H25.6197V30H23.8557ZM25.6197 24.358H27.0617C28.4803 24.358 29.1897 23.8773 29.1897 22.916C29.1897 22.4307 28.9983 22.0853 28.6157 21.88C28.233 21.6747 27.7663 21.572 27.2157 21.572H25.6197V24.358ZM32.6604 30V20.088H34.4244V24.372H34.4664L38.6104 20.088H40.9904L36.3564 24.666L41.2984 30H38.8204L34.4664 25.03H34.4244V30H32.6604ZM42.3127 30V20.088H48.8787V21.628H44.0767V24.148H48.6267V25.632H44.0767V28.432H49.1307V30H42.3127ZM52.8596 30V21.628H49.8216V20.088H57.6616V21.628H54.6236V30H52.8596Z"/>
</svg>
