<svg width="21" height="19" viewBox="0 0 21 19" fill="none" xmlns="http://www.w3.org/2000/svg">
<path d="M18.5391 0.96875H2.46094C1.10398 0.96875 0 2.07273 0 3.42969V5.45976L9.03127 12.1773C9.47051 12.504 9.98525 12.6674 10.5 12.6674C11.0147 12.6674 11.5295 12.5041 11.9687 12.1773L21 5.45976V3.42969C21 2.07273 19.896 0.96875 18.5391 0.96875ZM19.3594 4.63538L10.9896 10.8609C10.6968 11.0787 10.3032 11.0787 10.0104 10.8609L1.64062 4.63538V3.42969C1.64062 2.97737 2.00862 2.60938 2.46094 2.60938H18.5391C18.9914 2.60938 19.3594 2.97737 19.3594 3.42969V4.63538ZM19.3594 8.72476L21 7.50447V15.5703C21 16.9273 19.896 18.0312 18.5391 18.0312H2.46094C1.10398 18.0312 0 16.9273 0 15.5703V7.50447L1.64062 8.72476V15.5703C1.64062 16.0226 2.00862 16.3906 2.46094 16.3906H18.5391C18.9914 16.3906 19.3594 16.0226 19.3594 15.5703V8.72476Z" fill="black"/>
</svg>
