<svg width="24" height="20" viewBox="0 0 24 20" fill="none" xmlns="http://www.w3.org/2000/svg">
<path d="M21.1875 0.25H2.8125C1.26169 0.25 0 1.51169 0 3.0625V5.38258L10.3215 13.0598C10.8234 13.4332 11.4117 13.6199 12 13.6199C12.5883 13.6199 13.1766 13.4332 13.6785 13.0598L24 5.38258V3.0625C24 1.51169 22.7383 0.25 21.1875 0.25ZM22.125 4.44044L12.5595 11.5553C12.2249 11.8043 11.7751 11.8043 11.4405 11.5553L1.875 4.44044V3.0625C1.875 2.54556 2.29556 2.125 2.8125 2.125H21.1875C21.7044 2.125 22.125 2.54556 22.125 3.0625V4.44044ZM22.125 9.11402L24 7.71939V16.9375C24 18.4883 22.7383 19.75 21.1875 19.75H2.8125C1.26169 19.75 0 18.4883 0 16.9375V7.71939L1.875 9.11402V16.9375C1.875 17.4544 2.29556 17.875 2.8125 17.875H21.1875C21.7044 17.875 22.125 17.4544 22.125 16.9375V9.11402Z" fill="black" fill-opacity="0.25"/>
</svg>
