<svg width="24" height="24" viewBox="0 0 24 24" fill="none" xmlns="http://www.w3.org/2000/svg">
<path d="M17.1531 0H6.84624C5.55253 0 4.5 1.05249 4.5 2.34624V21.6538C4.5 22.9475 5.55249 24 6.84624 24H17.153C18.4467 24 19.4993 22.9476 19.4993 21.6538V2.34624C19.4994 1.05249 18.4468 0 17.1531 0ZM9.30123 1.40705H14.6424V2.11664H9.30123V1.40705ZM17.1531 22.593H6.84624C6.32836 22.593 5.90705 22.1716 5.90705 21.6538V2.34624C5.90705 1.82836 6.32836 1.40705 6.84624 1.40705H7.89418V2.29318C7.89418 2.97169 8.44618 3.52369 9.12465 3.52369H14.819C15.4975 3.52369 16.0495 2.97165 16.0495 2.29318V1.40705H17.1531C17.671 1.40705 18.0923 1.82836 18.0923 2.34624V21.6538H18.0923C18.0923 22.1716 17.671 22.593 17.1531 22.593Z" fill="black" fill-opacity="0.25"/>
<path d="M13.326 20.3853H10.6176C10.229 20.3853 9.91406 20.7003 9.91406 21.0888C9.91406 21.4773 10.2291 21.7923 10.6176 21.7923H13.326C13.7146 21.7923 14.0295 21.4773 14.0295 21.0888C14.0296 20.7003 13.7146 20.3853 13.326 20.3853Z" fill="black" fill-opacity="0.25"/>
</svg>
