<svg width="25" height="25" viewBox="0 0 25 25" fill="none" xmlns="http://www.w3.org/2000/svg">
<path d="M17.7538 15.3559C17.5299 15.1554 17.1859 15.1749 16.9864 15.3983C15.8527 16.6651 14.2179 17.3912 12.5 17.3912C10.7826 17.3912 9.14728 16.6651 8.01359 15.3983C7.81305 15.1749 7.47011 15.1554 7.2462 15.3559C7.02228 15.5559 7.00381 15.8994 7.20381 16.1233C8.54348 17.62 10.4739 18.4782 12.5 18.4782C14.5266 18.4782 16.4571 17.6195 17.7962 16.1233C17.9962 15.8994 17.9772 15.5559 17.7538 15.3559Z" fill="#EF8F21"/>
<path d="M12.5 0C5.60761 0 0 5.60761 0 12.5C0 19.3924 5.60761 25 12.5 25C19.3924 25 25 19.3924 25 12.5C25 5.60761 19.3924 0 12.5 0ZM12.5 23.913C6.20652 23.913 1.08696 18.7935 1.08696 12.5C1.08696 6.20652 6.20652 1.08696 12.5 1.08696C18.7935 1.08696 23.913 6.20652 23.913 12.5C23.913 18.7935 18.7935 23.913 12.5 23.913Z" fill="#EF8F21"/>
<path d="M16.8478 8.6958C15.3495 8.6958 14.1304 9.91482 14.1304 11.4132C14.1304 11.7132 14.3739 11.9567 14.6739 11.9567C14.9739 11.9567 15.2174 11.7132 15.2174 11.4132C15.2174 10.5143 15.9489 9.78276 16.8478 9.78276C17.7467 9.78276 18.4783 10.5143 18.4783 11.4132C18.4783 11.7132 18.7217 11.9567 19.0217 11.9567C19.3217 11.9567 19.5652 11.7132 19.5652 11.4132C19.5652 9.91482 18.3462 8.6958 16.8478 8.6958Z" fill="#EF8F21"/>
<path d="M9.78261 11.4132C9.78261 11.7132 10.0261 11.9567 10.3261 11.9567C10.6261 11.9567 10.8696 11.7132 10.8696 11.4132C10.8696 9.91482 9.65054 8.6958 8.15218 8.6958C6.65381 8.6958 5.43478 9.91482 5.43478 11.4132C5.43478 11.7132 5.67826 11.9567 5.97826 11.9567C6.27826 11.9567 6.52174 11.7132 6.52174 11.4132C6.52174 10.5143 7.25326 9.78276 8.15218 9.78276C9.05109 9.78276 9.78261 10.5143 9.78261 11.4132Z" fill="#EF8F21"/>
</svg>
