<svg width="25" height="25" viewBox="0 0 25 25" fill="none" xmlns="http://www.w3.org/2000/svg">
<g clip-path="url(#clip0)">
<path d="M11.4792 22.9167H0.520832C0.360415 22.9167 0.209374 22.8427 0.110415 22.7167C0.011457 22.5896 -0.0239597 22.426 0.014582 22.2698L0.577082 20.0094C0.860416 18.8854 1.68229 18 2.77396 17.6406L6.95938 16.2458C7.58021 15.9865 7.96771 15.051 8.00729 13.6719C7.52812 13.2365 6.5 12.174 6.5 11.0844C6.5 10.7021 6.37188 10.624 6.37083 10.6229C6.2125 10.5802 6.12917 10.4823 6.06771 10.3292C6.01562 10.1979 5.5625 9.03542 5.5625 8.25C5.5625 8.20833 5.56771 8.16667 5.57812 8.12604C5.64375 7.85625 5.80208 7.58542 6.04062 7.42083C6.04687 7.29583 6.05417 7.15729 6.0625 7.00313C6.08854 6.48854 6.125 5.80208 6.125 4.94792C6.125 2.99375 8.51458 0 11.4583 0C14.1219 0 15.4115 1.41875 15.625 2.33542C16.276 2.69583 16.8438 3.29063 16.8438 4.94792V7.42396C17.1021 7.60208 17.2615 7.8875 17.3281 8.08438C17.3458 8.1375 17.3542 8.19375 17.3542 8.25C17.3542 8.5375 17.1208 8.79167 16.8333 8.79167C16.5719 8.79167 16.3563 8.61667 16.3188 8.36979C16.299 8.33333 16.274 8.29688 16.2573 8.28438C15.9708 8.28438 15.801 8.06875 15.801 7.78125V4.94792C15.801 3.58854 15.3646 3.36875 15.1042 3.23854C14.9469 3.15833 14.6146 2.99167 14.6146 2.59375C14.5958 2.28021 13.7188 1.04167 11.4583 1.04167C8.97917 1.04167 7.16667 3.61042 7.16667 4.94792C7.16667 5.825 7.13021 6.52917 7.10104 7.05729C7.08646 7.35833 7.07292 7.60104 7.07292 7.78125C7.07292 8.05104 6.86771 8.27292 6.60521 8.3C6.62187 8.72708 6.83542 9.39688 6.97187 9.77083C7.25104 9.96875 7.54167 10.3729 7.54167 11.0833C7.54167 11.6708 8.22708 12.5073 8.86458 13.0365C8.98333 13.1354 9.05208 13.2823 9.05208 13.4375C9.05208 15.4146 8.43854 16.7583 7.32396 17.2208L3.10208 18.6302C2.34792 18.8792 1.78229 19.4896 1.5875 20.2635L1.1875 21.875H11.4792C11.7667 21.875 12 22.1083 12 22.3958C12 22.6833 11.7667 22.9167 11.4792 22.9167Z" fill="#EF8F21"/>
<path d="M18.75 25.0001C18.6812 25.0001 18.6125 24.9866 18.5479 24.9584C18.3 24.8553 12.5 22.348 12.5 17.2251V12.872C12.5 12.6491 12.6427 12.4501 12.8542 12.3782L18.5833 10.4438C18.6917 10.4074 18.8094 10.4074 18.9167 10.4438L24.6458 12.3782C24.8573 12.4491 25 12.648 25 12.872V17.2251C25 22.348 19.2 24.8553 18.9521 24.9595C18.8875 24.9866 18.8187 25.0001 18.75 25.0001ZM13.5417 13.2459V17.2251C13.5417 21.1678 17.7656 23.4313 18.75 23.9063C19.7333 23.4303 23.9583 21.1584 23.9583 17.2251V13.2459L18.75 11.4876L13.5417 13.2459Z" fill="#EF8F21"/>
<path d="M18.2292 19.7918C18.2198 19.7918 18.2094 19.7918 18.201 19.7907C18.0521 19.7824 17.9156 19.7116 17.8229 19.5959L15.7396 16.9918C15.5604 16.7668 15.5958 16.4397 15.8208 16.2595C16.0469 16.0803 16.3739 16.1178 16.5531 16.3407L18.2719 18.4907L21.5062 15.2563C21.7094 15.0532 22.0396 15.0532 22.2427 15.2563C22.4458 15.4595 22.4458 15.7897 22.2427 15.9928L18.5969 19.6386C18.5 19.7376 18.3667 19.7918 18.2292 19.7918Z" fill="#EF8F21"/>
</g>
<defs>
<clipPath id="clip0">
<rect width="25" height="25" fill="white"/>
</clipPath>
</defs>
</svg>
