<svg width="20" height="20" viewBox="0 0 20 20" fill="none" xmlns="http://www.w3.org/2000/svg">
<path d="M17.0711 2.92891C15.1823 1.0402 12.6711 0 10 0C7.32891 0 4.8177 1.0402 2.92891 2.92891C1.0402 4.8177 0 7.32891 0 10C0 12.6711 1.0402 15.1823 2.92891 17.0711C4.8177 18.9598 7.32891 20 10 20C12.6711 20 15.1823 18.9598 17.0711 17.0711C18.9598 15.1823 20 12.6711 20 10C20 7.32891 18.9598 4.8177 17.0711 2.92891ZM13.0449 3.1375C12.7959 2.47352 12.512 1.90816 12.2005 1.44723C13.5375 1.78875 14.7763 2.44203 15.8291 3.3702C15.107 3.75414 14.2898 4.0625 13.4146 4.28609C13.3036 3.88273 13.1803 3.49855 13.0449 3.1375ZM11.9477 3.54898C12.063 3.8566 12.1689 4.18305 12.2653 4.52539C11.5309 4.64473 10.7695 4.70703 10 4.70703C9.23059 4.70703 8.46918 4.64473 7.7348 4.52539C7.83117 4.18305 7.93707 3.8566 8.05242 3.54898C8.61055 2.06051 9.33863 1.17188 10 1.17188C10.6614 1.17188 11.3895 2.06051 11.9477 3.54898ZM7.06273 9.41406C7.09371 8.08648 7.22965 6.81586 7.46 5.67195C8.27824 5.80828 9.12996 5.87891 10 5.87891C10.87 5.87891 11.7218 5.80828 12.54 5.67195C12.7704 6.81586 12.9063 8.08648 12.9373 9.41406H7.06273ZM12.9373 10.5859C12.9063 11.9135 12.7704 13.1841 12.54 14.328C11.7218 14.1917 10.87 14.1211 10 14.1211C9.12996 14.1211 8.27824 14.1918 7.46 14.328C7.22965 13.1841 7.09371 11.9135 7.06273 10.5859H12.9373ZM6.95508 3.1375C6.81969 3.49855 6.69641 3.88273 6.58539 4.28605C5.71027 4.06246 4.89301 3.7541 4.17098 3.37016C5.22375 2.44199 6.46254 1.78871 7.79949 1.44719C7.48801 1.90816 7.2041 2.47352 6.95508 3.1375ZM6.31359 5.43227C6.06691 6.65535 5.92219 8.00754 5.89062 9.41406H1.19148C1.31656 7.49254 2.05523 5.68988 3.31375 4.23477C4.20492 4.75172 5.21895 5.15469 6.31359 5.43227ZM5.89062 10.5859C5.92219 11.9925 6.06691 13.3447 6.31359 14.5678C5.21895 14.8453 4.20496 15.2483 3.31375 15.7652C2.05523 14.3102 1.3166 12.5075 1.19148 10.5859H5.89062ZM6.58539 15.7139C6.69641 16.1173 6.81969 16.5014 6.95508 16.8625C7.20406 17.5264 7.48801 18.0918 7.79945 18.5527C6.46254 18.2112 5.22371 17.5579 4.17098 16.6298C4.89305 16.2459 5.71027 15.9375 6.58539 15.7139ZM8.05234 16.451C7.93699 16.1434 7.83113 15.817 7.73473 15.4746C8.46914 15.3553 9.23051 15.293 9.99996 15.293C10.7694 15.293 11.5308 15.3553 12.2652 15.4746C12.1688 15.817 12.0629 16.1434 11.9476 16.451C11.3895 17.9395 10.6614 18.8281 10 18.8281C9.33863 18.8281 8.61055 17.9395 8.05234 16.451ZM13.0449 16.8625C13.1803 16.5014 13.3036 16.1173 13.4146 15.7139C14.2897 15.9375 15.107 16.2459 15.829 16.6298C14.7762 17.558 13.5375 18.2113 12.2005 18.5528C12.512 18.0918 12.7959 17.5265 13.0449 16.8625ZM13.6864 14.5678C13.9331 13.3447 14.0778 11.9925 14.1094 10.5859H18.8085C18.6834 12.5075 17.9448 14.3101 16.6863 15.7652C15.7951 15.2483 14.7811 14.8453 13.6864 14.5678ZM14.1094 9.41406C14.0778 8.00754 13.9331 6.65531 13.6864 5.43227C14.7811 5.15473 15.7951 4.75172 16.6863 4.2348C17.9448 5.68992 18.6834 7.49254 18.8085 9.4141H14.1094V9.41406Z" fill="black" fill-opacity="0.25"/>
</svg>
