<svg width="48" height="48" viewBox="0 0 48 48" fill="none" xmlns="http://www.w3.org/2000/svg">
<rect x="0.5" y="0.5" width="47" height="47" rx="7.5" stroke="white" stroke-opacity="0.25"/>
<path d="M34.7747 18.3764C34.5154 17.4125 33.7554 16.6527 32.7916 16.3931C31.0309 15.9114 23.988 15.9114 23.988 15.9114C23.988 15.9114 16.9454 15.9114 15.1847 16.3749C14.2394 16.6341 13.4609 17.4127 13.2016 18.3764C12.7383 20.137 12.7383 23.7882 12.7383 23.7882C12.7383 23.7882 12.7383 27.4577 13.2016 29.1999C13.4612 30.1637 14.2209 30.9235 15.1848 31.1831C16.9639 31.6649 23.9883 31.6649 23.9883 31.6649C23.9883 31.6649 31.0309 31.6649 32.7916 31.2015C33.7555 30.942 34.5154 30.1822 34.7749 29.2184C35.2381 27.4577 35.2381 23.8067 35.2381 23.8067C35.2381 23.8067 35.2567 20.137 34.7747 18.3764ZM21.7457 27.1612V20.4151L27.6022 23.7882L21.7457 27.1612Z" fill="white" fill-opacity="0.25"/>
</svg>
