<svg width="106" height="120" viewBox="0 0 106 120" fill="none" xmlns="http://www.w3.org/2000/svg">
<path d="M34.7463 0.661923C30.759 1.02904 28.027 1.68986 26.2549 2.71779C23.3752 4.55339 20.3479 4.77366 18.945 3.37861C18.2066 2.64437 17.9112 2.79122 17.3205 3.81915C16.8775 4.47997 16.0653 5.5079 15.4746 6.02187C12.2257 8.59171 11.4873 9.61965 11.4873 11.5287C11.4873 13.5845 8.90298 16.8152 7.27854 16.8152C6.83551 16.8152 5.28492 18.5774 3.88199 20.6332C-0.326776 27.0945 -0.474452 27.3882 0.485443 31.0594C1.07615 33.4824 1.07615 35.0243 0.485443 36.7131C-0.54829 39.7969 0.0424149 41.9262 3.06977 45.2303C4.4727 46.6987 5.72794 48.5343 6.0233 49.2686C6.24481 50.0028 6.68784 50.5902 7.05703 50.5902C7.42622 50.5902 8.90298 51.6181 10.3059 52.8663C12.8902 55.0691 12.9641 55.1425 18.6496 54.6285C21.8246 54.3348 25.6642 53.6006 27.2887 53.0866C31.1282 51.6916 32.605 51.765 34.3771 53.5272C35.1893 54.3348 36.8138 54.9956 37.9952 54.9956C41.0964 54.9956 41.9824 56.4641 41.3917 60.8696C40.9487 64.1002 41.0964 64.9079 42.3516 66.2295C44.5667 68.5791 47.0772 73.7922 47.6679 77.1697C48.111 79.5927 47.8895 80.7675 46.4127 83.5576C44.3452 87.449 44.4929 89.5049 47.2988 95.5257C48.3325 97.655 49.1447 100.151 49.1447 100.959C49.1447 101.84 50.4738 105.218 52.0982 108.448C53.7227 111.679 55.0518 115.13 55.0518 116.084C55.0518 117.993 57.4146 120.71 58.3006 119.829C58.5221 119.535 60.7373 119.095 63.1739 118.801C65.7583 118.507 68.4164 117.7 69.8194 116.672C72.5514 114.689 77.2032 107.787 77.3508 105.218C77.4985 103.969 78.2369 102.941 79.6398 102.207C81.7811 101.179 81.7811 101.032 81.3381 96.9207L80.8212 92.6621L85.1038 89.7986L89.3864 86.8616L89.608 82.6031C89.7556 79.6661 89.5341 77.9773 88.7957 77.0963C87.0236 75.1872 86.8021 71.0755 88.2789 68.212C89.0173 66.8169 91.2324 64.1002 93.226 62.2646C100.757 55.0691 102.013 53.674 104.006 50.4434C105.114 48.6078 106 46.1848 106 45.0834C106 43.3212 105.778 43.1744 104.376 43.5415C97.804 45.3771 95.6627 45.6708 94.629 44.7897C94.0382 44.2757 93.6691 43.4681 93.8167 43.0275C93.9644 42.5136 92.6353 40.9717 90.8632 39.5766C89.0173 38.1816 87.319 36.346 87.0975 35.5383C86.8021 34.7306 86.1376 33.5559 85.5469 32.8216C84.9562 32.1608 84.2916 30.5455 84.0701 29.1504C83.8486 27.8288 83.4056 26.2869 82.9625 25.8463C82.2242 24.8918 78.1631 16.962 77.0555 14.2454C76.4648 12.7769 76.4648 12.7769 77.5724 14.1719C78.1631 14.9796 78.6799 15.8607 78.6799 16.2278C78.6799 16.5215 79.0491 16.8152 79.4183 16.8152C80.3044 16.8152 80.452 11.8958 79.566 11.3818C79.1968 11.1615 77.6462 11.0147 76.0218 11.0147C67.8257 11.0147 66.4228 10.7944 63.9862 9.39937C60.7373 7.49035 58.0053 8.00432 58.0053 10.5742C58.0053 11.6755 57.5622 12.4098 56.9715 12.4098C55.3471 12.4098 50.6215 10.207 50.6215 9.4728C50.6215 9.10568 49.2924 8.51829 47.6679 8.29801C43.8284 7.6372 41.9086 6.31557 43.0162 4.99394C44.1976 3.52546 43.3853 -0.0723167 41.8347 0.00110723C41.1702 0.0745312 37.9952 0.368227 34.7463 0.661923Z" fill="#AAAAAA"/>
<path d="M102.013 83.1904C101.348 84.5121 99.5761 86.1274 98.1732 86.7882C96.7702 87.449 95.5888 88.6238 95.5888 89.2846C95.515 90.0189 95.3673 91.781 95.2196 93.1761C94.5551 98.8297 94.6289 101.326 95.7365 102.354C97.2871 103.896 100.019 102.941 100.536 100.592C100.831 99.564 101.644 96.7739 102.382 94.4977C103.194 92.1482 103.785 89.6517 103.785 88.9175C103.785 88.1833 104.08 87.3022 104.523 86.8616C105.114 86.2742 104.228 80.694 103.563 80.694C103.49 80.694 102.751 81.7954 102.013 83.1904Z" fill="#AAAAAA"/>
</svg>
