<svg width="12" height="8" viewBox="0 0 12 8" fill="none" xmlns="http://www.w3.org/2000/svg">
<path d="M5.14724 7.25667C5.08654 7.19575 5.03532 7.12968 4.99076 7.06016L0.340179 2.40936C-0.113322 1.95564 -0.113537 1.21954 0.340394 0.765608C0.79411 0.311677 1.53 0.311677 1.98414 0.765608L5.98945 4.77092L10.0156 0.744945C10.4694 0.291014 11.205 0.291014 11.6594 0.744945C11.8867 0.972018 11.9999 1.26969 11.9999 1.56671C11.9999 1.86374 11.8867 2.16162 11.6594 2.38848L6.98728 7.06016C6.94273 7.12968 6.8915 7.19618 6.83081 7.25667C6.59878 7.48869 6.29315 7.60061 5.98902 7.59501C5.6849 7.60061 5.37948 7.48869 5.14724 7.25667Z" fill="#9B9B9B"/>
</svg>
