<svg width="20" height="12" viewBox="0 0 20 12" fill="none" xmlns="http://www.w3.org/2000/svg">
<path d="M11.421 0.571939C11.5222 0.673458 11.6076 0.783587 11.6818 0.899455L19.4328 8.65079C20.1886 9.40698 20.189 10.6338 19.4324 11.3904C18.6762 12.1469 17.4498 12.1469 16.6928 11.3904L10.0173 4.71485L3.30702 11.4248C2.55083 12.1814 1.32471 12.1814 0.567438 11.4248C0.188625 11.0464 -6.34033e-05 10.5502 -6.33817e-05 10.0552C-6.33601e-05 9.56015 0.188625 9.06368 0.567438 8.68558L8.35428 0.899455C8.42854 0.783586 8.51392 0.67274 8.61508 0.571939C9.00178 0.185233 9.51117 -0.00130384 10.0181 0.00802304C10.5249 -0.00130379 11.034 0.185233 11.421 0.571939Z" fill="#84BB59"/>
</svg>
