<svg width="20" height="12" viewBox="0 0 20 12" fill="none" xmlns="http://www.w3.org/2000/svg">
<path d="M8.57898 11.4281C8.47781 11.3265 8.39244 11.2164 8.31818 11.1005L0.567209 3.34921C-0.188625 2.59302 -0.188984 1.36618 0.567567 0.60963C1.32376 -0.146921 2.55024 -0.146921 3.30715 0.609629L9.98267 7.28514L16.693 0.575192C17.4492 -0.18136 18.6753 -0.18136 19.4326 0.575192C19.8114 0.953646 20.0001 1.44976 20.0001 1.9448C20.0001 2.43984 19.8114 2.93632 19.4326 3.31442L11.6457 11.1005C11.5715 11.2164 11.4861 11.3273 11.3849 11.4281C10.9982 11.8148 10.4888 12.0013 9.98195 11.992C9.47507 12.0013 8.96604 11.8148 8.57898 11.4281Z" fill="#84BB59"/>
</svg>
