<svg width="120" height="80" viewBox="0 0 120 80" fill="none" xmlns="http://www.w3.org/2000/svg">
<path d="M55.508 0.479408C55.0447 0.826302 54.7359 1.28883 54.8517 1.48154C55.0061 1.67426 54.6973 1.82843 54.1954 1.82843C53.5777 1.82843 53.4619 1.94406 53.8093 2.17532C54.1182 2.36803 53.3847 2.44512 52.072 2.36803C48.2886 2.13678 42.8065 3.63997 43.8103 4.64209C44.5438 5.37441 44.2735 5.68276 42.8065 5.68276C39.4863 5.68276 38.7528 6.56926 40.7604 7.99536C41.4167 8.45788 41.8413 8.95894 41.7255 9.15166C41.6097 9.34438 41.6869 9.92252 41.9185 10.4621C42.4204 11.8111 42.1116 11.7341 41.3781 10.308C40.992 9.49855 40.9534 9.15166 41.2622 9.11311C41.9958 9.11311 38.3281 7.64847 37.4788 7.64847C36.8997 7.60992 36.8225 7.68701 37.2472 7.95682C37.6718 8.22662 37.6332 8.34225 37.0541 8.45788C36.4364 8.61205 36.475 8.72768 37.4016 9.07457C38.7528 9.65272 38.7142 9.84544 37.2858 9.61418C36.1662 9.46001 35.9732 9.1902 36.089 7.91827C36.1276 7.57138 35.9345 7.14741 35.7029 6.99323C35.3554 6.80051 35.3168 6.91615 35.4713 7.34013C35.6257 7.7641 35.4327 8.11099 34.9694 8.38079C34.3131 8.72768 34.2745 8.92039 34.6605 9.49855C35.008 10.0767 35.008 10.385 34.6605 10.7705C34.0814 11.5028 34.6991 12.4278 35.5871 12.0809C36.2434 11.8882 36.2434 11.9268 35.7415 12.3122C35.3941 12.582 35.201 13.0831 35.2782 13.43C35.4713 14.4706 33.3093 15.7811 32.1897 15.3571C31.3404 14.9717 31.3018 14.9717 32.1511 14.9717C33.0777 14.9332 34.8922 12.9289 34.2359 12.6976C34.0042 12.6206 33.8112 11.9268 33.8112 11.1174C33.8112 10.3465 33.6182 9.49855 33.3479 9.22874C33.0005 8.88186 33.0005 8.76623 33.3479 8.76623C34.0042 8.76623 33.927 7.22449 33.2321 6.99323C32.9232 6.83906 32.7688 6.6078 32.8846 6.41508C33.0005 6.22237 32.9232 6.06819 32.7302 6.06819C32.2669 6.06819 31.1087 7.37867 31.1087 7.87973C31.1087 8.07245 30.7613 8.57351 30.3366 8.95894C29.3328 9.88398 29.3714 11.0017 30.4138 11.8882C31.572 12.8904 31.0701 13.1602 29.3714 12.4664C28.5607 12.1195 27.7886 11.8497 27.5956 11.8497C27.4411 11.8497 27.3639 12.6591 27.4797 13.6612C27.6342 15.3186 27.5569 15.5499 26.2057 16.9374C24.6229 18.5562 24.7387 17.9395 24.4298 26.6118C24.3526 29.04 24.1596 30.5047 23.8507 30.6974C23.5805 30.8515 23.3874 31.3911 23.4261 31.9308C23.4647 32.4318 23.233 33.4339 22.9628 34.0892C22.4995 35.284 22.5381 35.3997 23.5419 36.4789L24.6229 37.5966L22.7311 37.481C21.7274 37.4039 20.1445 37.057 19.2566 36.7487C17.7123 36.2091 17.5965 36.2091 16.7471 37.0185C16.2453 37.481 15.6662 37.8664 15.4731 37.8664C15.2415 37.8664 15.0485 38.4446 14.9712 39.1769C14.8554 40.1405 15.0485 40.603 15.6276 41.027C16.0908 41.3353 16.3611 41.7593 16.2066 41.952C16.0522 42.2218 16.5927 42.2604 17.7509 42.1062C19.3338 41.8749 19.5268 41.9135 19.5268 42.5302C19.5268 42.9541 19.1407 43.4552 18.6775 43.6479C18.2142 43.8792 17.7895 44.2261 17.7123 44.4573C17.5579 44.9198 19.2952 46.9241 19.8357 46.9241C20.0673 46.9241 20.2989 47.1939 20.4534 47.5022C20.5692 47.8491 20.4534 48.0804 20.0673 48.0804C19.604 48.0804 19.5268 48.2731 19.7584 48.7356C19.9129 49.1211 20.0673 49.9305 20.0673 50.5857C20.1059 51.5107 19.9129 51.7806 19.1793 51.8576C18.0984 52.0118 16.5927 51.318 16.2453 50.4701C16.1294 50.1617 16.3225 49.5836 16.6699 49.1982C17.2104 48.62 17.2104 48.3887 16.8244 47.8877C16.5541 47.5793 16.2066 47.4252 16.0136 47.5408C15.8206 47.6564 15.0098 47.3481 14.2763 46.8856C13.5042 46.423 12.1916 45.922 11.3422 45.7678C9.9524 45.498 9.87519 45.5365 10.4543 46.1532C11.9213 47.772 10.184 48.5044 7.21134 47.5022C5.51266 46.9626 5.04938 46.9241 3.81398 47.3866C3.00324 47.6564 2.26972 48.0033 2.1539 48.1189C2.03808 48.2731 1.61341 48.4273 1.22734 48.5044C0.49382 48.6585 -0.432735 50.7784 0.223575 50.7784C0.378001 50.7784 0.648246 51.2024 0.764065 51.7035C0.957097 52.5514 1.11152 52.6285 2.1925 52.3202C2.88742 52.0889 3.65955 52.0889 4.00701 52.2816C4.35447 52.4743 5.01078 52.4743 5.55127 52.2816C6.09176 52.0889 6.59364 52.0118 6.70946 52.1274C6.82528 52.2431 6.70946 53.2452 6.43921 54.363C5.7443 57.1381 5.86012 59.1038 6.78667 60.4143C7.21134 60.9924 7.5588 61.6476 7.5588 61.8404C7.5588 62.0716 7.90626 62.5341 8.33093 62.9196C8.7556 63.305 9.10306 63.8446 9.10306 64.153C9.10306 64.4228 9.68216 65.502 10.3771 66.5041C11.1106 67.5062 11.8055 68.9709 11.9599 69.7417C12.1144 70.5511 12.3846 71.2835 12.539 71.3991C12.9637 71.6304 18.2914 69.4334 19.1793 68.6625C19.4882 68.3542 20.0673 68.1229 20.3761 68.1229C20.9552 68.1229 21.3413 67.8146 23.5805 65.3093C24.7001 64.0759 24.4298 63.3435 22.7311 62.6883C22.2293 62.4956 21.8432 62.0716 21.8432 61.7633C21.8432 61.2237 21.6888 61.2622 20.7236 61.9174C19.2566 62.9967 18.3686 62.9581 18.3686 61.8404C18.3686 61.1851 18.2914 61.108 18.0212 61.532C17.7509 61.956 17.5193 61.7633 17.0946 60.7226C16.7857 59.9517 16.3225 59.2194 16.0908 59.1038C15.8592 58.9496 15.6662 58.5642 15.6662 58.2558C15.6662 57.2922 16.9016 57.6777 18.2914 59.1038C19.3338 60.183 19.8357 60.4143 20.8394 60.3372C21.6502 60.2601 22.2293 60.4528 22.6153 60.9153C23.0786 61.4935 23.8507 61.6476 26.3988 61.6862C28.136 61.7247 29.5645 61.8404 29.5645 61.956C29.5645 62.0716 30.2594 62.9196 31.1087 63.8832C32.5372 65.4634 32.6916 65.5791 33.1935 64.9238C33.6568 64.3457 33.734 64.4613 33.9656 66.0801C34.2745 68.3927 36.8997 74.6753 37.556 74.6753C38.2895 74.6753 39.1389 73.1335 39.4477 71.2064C39.6794 69.7803 40.0654 69.1636 41.6869 67.7375C42.7293 66.7739 44.0419 65.6176 44.5438 65.1165C45.0843 64.654 45.7792 64.2686 46.1266 64.2686C46.5127 64.2686 46.976 64.0759 47.2462 63.8061C47.5551 63.4977 47.7867 63.6133 48.057 64.3457C48.25 64.9238 48.5975 65.4634 48.8291 65.5791C49.0607 65.7332 49.4082 66.5426 49.6398 67.352C50.0645 68.8938 50.6436 69.2792 51.4543 68.4698C52.1106 67.8146 53.1144 70.4741 53.1144 72.9408C53.1144 74.2898 53.3074 75.1378 53.6935 75.4461C54.0024 75.7159 54.2726 76.1399 54.2726 76.3712C54.2726 77.3733 55.2764 78.8765 56.3574 79.5317C57.4383 80.187 57.4769 80.1484 57.2067 79.4546C57.0137 79.0692 56.7434 78.1442 56.5118 77.4504C56.3188 76.7952 56.0099 76.217 55.8169 76.217C55.6238 76.217 55.0061 75.6003 54.4656 74.868C53.5005 73.6346 53.4619 73.4419 53.9252 72.17C54.1954 71.4376 54.5429 70.8209 54.6587 70.8209C54.7745 70.8209 55.2764 71.322 55.8169 71.9772C56.3574 72.5939 56.9751 73.1335 57.2453 73.1335C57.4769 73.1335 57.7472 73.4033 57.8244 73.7117C57.9016 74.1742 58.2105 74.0971 59.4073 73.2877C61.299 71.9002 61.3762 70.2043 59.6775 68.2385C59.0598 67.5448 58.5193 66.6968 58.5193 66.427C58.5193 65.7718 59.7933 64.654 60.5269 64.654C61.3762 64.654 61.6851 65.6947 60.9515 66.003C60.4883 66.1572 60.4496 66.3499 60.7199 66.6197C61.3376 67.2364 62.1097 66.6197 61.8781 65.7332C61.7237 65.1551 61.9167 64.8853 62.8046 64.5769C63.4223 64.3842 63.9242 64.0373 63.9242 63.8446C63.9242 63.6904 64.1945 63.6133 64.5033 63.729C66.1634 64.3842 70.1399 59.8361 70.0627 57.4079C69.9854 55.9818 69.2905 54.1317 68.5956 53.6306C68.1323 53.2837 68.2868 53.0525 69.4836 52.2431C70.8348 51.318 70.8734 51.2409 70.024 51.0482C69.5608 50.8941 68.9817 50.9711 68.8272 51.1253C68.6342 51.318 68.1709 51.2024 67.7463 50.8555C67.0513 50.2774 67.09 50.2003 68.2868 49.1596C69.6766 48.0033 70.2943 47.8106 69.9854 48.6585C69.6766 49.3909 70.2943 49.7378 71.1822 49.2752C72.0702 48.8127 72.9195 49.3138 72.5721 50.1232C72.4176 50.5857 72.5335 50.7784 72.9581 50.7784C73.4214 50.7784 73.5758 51.1639 73.5758 52.3587C73.5758 53.7848 73.6531 53.9004 74.4638 53.6692C74.9271 53.515 75.4676 53.2452 75.622 53.091C76.0467 52.7056 75.2359 49.7378 74.6182 49.5065C74.348 49.3909 74.541 49.0054 75.2359 48.5044C75.815 48.0033 76.2783 47.3866 76.2783 47.1168C76.2783 46.3845 77.5909 45.6907 78.363 45.9991C79.0193 46.2303 82.0693 43.301 82.0693 42.4531C82.0693 42.2218 82.4167 41.5666 82.88 40.9884C83.961 39.6394 84.6945 34.86 83.961 33.9735C83.6907 33.6267 83.1502 33.4725 82.7256 33.5881C82.3009 33.7037 81.5674 33.4725 81.1041 33.0871L80.2161 32.4318L82.0306 30.5047C82.9958 29.4254 84.1926 28.0764 84.6945 27.4983C85.3894 26.6889 85.8527 26.4961 87.0109 26.5347C87.783 26.5732 89.2887 26.4576 90.331 26.3034C91.7209 26.0722 92.1455 26.1107 91.9525 26.4576C91.7595 26.7274 92.1069 26.8816 93.0335 26.8816C94.3847 26.8816 95.2341 26.3034 94.3461 25.9951C93.9986 25.8795 94.1145 25.5326 94.7322 24.8773C95.1954 24.3763 95.5815 23.7596 95.5815 23.5283C95.5815 23.2971 95.8518 22.9887 96.1992 22.8731C97.203 22.4876 98.3226 22.6033 98.2454 23.1043C98.0909 24.4919 98.284 24.6846 99.0561 23.8752C99.5194 23.4127 100.021 23.0272 100.214 23.0272C100.446 23.0272 100.562 22.9116 100.562 22.7189C100.407 21.9095 100.678 21.4855 101.257 21.4855C101.759 21.4855 101.797 21.6011 101.45 21.948C101.179 22.2178 100.986 22.6418 100.986 22.9502C100.986 23.5283 99.8668 24.8388 97.0872 27.6524C95.0796 29.6567 94.7322 31.0828 95.3113 34.5132C95.7745 37.1341 95.8518 37.2883 96.3923 36.633C96.7397 36.2476 97.1258 35.6309 97.2416 35.2455C97.396 34.8986 97.6663 34.5902 97.8979 34.5902C98.0909 34.5902 98.284 34.3204 98.284 34.0121C98.284 33.7037 98.6314 33.2798 99.0561 33.0485C99.5194 32.7787 99.7124 32.4318 99.558 32.0078C99.4422 31.6609 99.558 31.1984 99.8668 30.9672C100.523 30.5047 100.639 28.7317 100.098 28.3848C99.5194 27.9993 100.6 25.918 101.643 25.4555C102.26 25.1471 102.531 25.1471 102.531 25.4169C102.531 25.6482 102.84 25.5711 103.226 25.2242C104.036 24.4534 105.117 24.3763 105.31 24.993C105.388 25.2628 106.044 24.9159 106.777 24.2221C108.244 22.9116 110.484 21.6782 111.487 21.6782C112.259 21.6782 112.337 21.4855 111.989 19.9438C111.835 19.3271 111.41 18.7104 110.985 18.5948C109.905 18.2479 110.098 17.5926 111.217 17.8624C112.414 18.1708 113.456 17.3999 113.147 16.4363C113.032 16.0895 113.109 15.6655 113.34 15.5113C113.572 15.3957 113.727 15.6269 113.727 16.0509C113.727 16.6676 113.958 16.8603 114.692 16.8603C115.271 16.8603 115.657 17.0916 115.657 17.3999C115.657 17.6697 115.966 18.0166 116.352 18.1708C116.699 18.2864 117.24 18.5177 117.51 18.6333C117.78 18.7489 117.973 18.5948 117.973 18.2479C117.973 17.901 118.475 17.1687 119.131 16.5905C120.174 15.6655 120.212 15.5499 119.595 15.1259C118.668 14.5092 117.201 14.1623 117.201 14.5863C117.201 14.779 117.008 14.9332 116.776 14.9332C116.583 14.9332 116.468 14.779 116.622 14.5863C116.738 14.3935 115.657 13.5841 114.228 12.8133C112.337 11.8111 110.792 11.3486 108.746 11.0788C107.163 10.8476 105.774 10.7705 105.696 10.8861C105.581 10.9632 105.735 11.3486 106.044 11.6955C106.546 12.3122 106.507 12.3508 105.619 12.1195C105.079 11.9653 104.5 11.8497 104.268 11.8497C104.075 11.8497 104.152 11.6955 104.461 11.4643C104.77 11.2715 104.886 11.0017 104.731 10.8476C104.615 10.6934 104.268 10.7705 103.998 11.0017C103.727 11.1945 102.299 11.3486 100.793 11.3101C98.477 11.2715 98.0909 11.1559 98.2067 10.6163C98.3612 9.7298 96.1992 9.15166 94.4619 9.65272C93.4582 9.92252 92.8791 9.84544 91.8753 9.30583C91.1804 8.92039 90.6785 8.45788 90.7943 8.3037C90.9101 8.14953 90.7557 7.95682 90.4855 7.95682C88.6323 7.7641 87.9374 7.80264 87.976 8.11099C88.0146 8.3037 87.8216 8.57351 87.5128 8.68914C87.2039 8.80477 87.0881 8.68914 87.2425 8.41933C87.3969 8.18807 87.3197 7.99536 87.0881 7.99536C86.8565 7.99536 86.7406 7.84119 86.8565 7.64847C86.9723 7.45575 86.4704 7.22449 85.7755 7.14741C84.4242 6.99323 83.2274 7.53284 83.2274 8.34225C83.2274 8.57351 82.9958 8.76623 82.7642 8.80477C82.4939 8.80477 81.5674 8.84332 80.718 8.92039C79.8687 8.95894 78.9035 8.88186 78.5175 8.68914C78.1314 8.49642 77.8225 8.57351 77.6681 8.95894C77.2048 10.2309 75.0043 9.03603 75.3903 7.68701C75.622 6.76197 74.8885 6.22237 72.9581 5.91402C71.7227 5.75985 71.2981 5.83694 71.105 6.26091C70.9892 6.6078 70.4101 6.83906 69.7538 6.83906C68.2481 6.83906 67.3602 6.45363 67.6691 5.9911C67.8235 5.72131 67.2444 5.64422 65.8932 5.75985C64.8122 5.87548 63.9242 5.83694 63.9242 5.72131C63.9242 5.60567 63.3065 5.4515 62.573 5.41296C61.8009 5.37441 61.299 5.52859 61.4148 5.72131C61.5692 5.91402 61.3376 6.06819 60.9515 6.06819C60.5655 6.06819 59.7933 6.338 59.2142 6.6078C58.5965 6.91615 58.1333 7.03178 58.1333 6.8776C58.1333 6.72343 59.4459 5.83694 61.0287 4.95044C65.0824 2.63784 64.8122 1.09611 60.4883 1.52008C59.6389 1.59717 59.0598 1.52008 59.137 1.36591C59.2528 1.17319 58.9826 1.05756 58.5579 1.05756C58.0947 1.05756 57.7858 0.826302 57.863 0.595039C57.9788 -0.137283 56.5118 -0.214371 55.508 0.479408ZM37.5946 13.43C37.6718 13.931 37.5946 14.2008 37.4016 14.0467C37.2472 13.8539 37.0927 13.5841 37.0927 13.4685C37.0927 13.3143 36.9383 12.9674 36.7453 12.6591C36.5136 12.3122 36.5522 12.1966 36.9383 12.3122C37.2472 12.4278 37.556 12.8904 37.5946 13.43Z" fill="#AAAAAA"/>
</svg>
