<svg width="120" height="94" viewBox="0 0 120 94" fill="none" xmlns="http://www.w3.org/2000/svg">
<path d="M86.5863 2.97475C85.8703 4.71858 85.1544 8.3088 84.9498 11.0784C84.5406 16.9253 82.9041 21.7465 81.3699 21.7465C80.7562 21.7465 78.4036 20.5156 75.9488 18.9769C73.5963 17.4382 70.7324 15.6944 69.6073 15.0789C67.2548 13.7454 67.357 10.8732 69.9141 8.10365C70.7324 7.18045 71.2438 6.15467 71.0392 5.94952C70.6301 5.5392 58.5607 2.25671 57.4356 2.25671C57.1287 2.25671 57.1287 2.97475 57.4356 3.79538C57.947 4.92374 57.3333 5.33405 55.3899 5.33405C52.0145 5.33405 48.0255 11.0784 49.8666 13.2325C51.9123 15.6944 47.7187 14.7712 45.2639 12.2068C43.3205 10.0526 42.6045 9.95005 40.3543 10.8732C37.6949 12.0016 34.3195 14.8738 34.3195 16.1047C34.3195 17.6434 31.251 19.5924 29.8191 19.0795C28.694 18.6692 28.0802 19.2846 27.5688 21.4388C26.7506 24.9264 23.2729 28.9269 21.125 28.9269C20.2044 28.9269 18.1588 29.645 16.5222 30.4656C14.8857 31.2862 13.0446 31.9017 12.4309 31.7991C11.8172 31.594 9.87382 32.5172 8.03271 33.8507C6.2939 35.0816 4.35052 36.1074 3.8391 36.1074C2.30485 36.1074 1.3843 42.7749 2.6117 45.8523C3.42997 48.0064 3.42997 49.0322 2.50942 49.8528C1.58887 50.6734 1.48658 50.5709 2.10028 49.5451C2.6117 48.6219 2.50942 48.3142 1.79343 48.827C1.07745 49.2374 0.566032 49.0322 0.566032 48.3142C0.566032 47.5961 0.361465 47.2884 0.054615 47.5961C-0.252235 47.9038 0.770598 50.2631 2.20257 53.0327C6.08933 60.008 8.95327 73.2406 6.80532 74.4715C4.86193 75.7024 5.57792 77.754 8.23728 78.9849C12.0218 80.7287 15.3971 80.5236 19.1816 78.1643C21.3295 76.9334 24.3981 76.1127 27.262 76.1127C30.535 76.1127 32.2739 75.5998 32.683 74.5741C32.9898 73.7534 34.115 73.0354 35.2401 73.0354C36.3652 73.0354 37.4903 72.6251 37.7972 72.1122C38.104 71.5993 41.6839 70.3684 45.673 69.4452C51.4009 68.0091 53.4465 67.9065 54.8785 68.8297C55.9013 69.4452 57.6401 69.9581 58.7652 69.9581C60.9132 69.9581 65.7205 75.805 65.2091 77.754C65.1068 78.472 65.6182 79.1901 66.4365 79.4978C67.357 79.9081 68.789 78.7798 70.3233 76.523C73.9032 71.189 75.5397 71.907 72.6758 77.5488C71.0392 80.7287 71.4484 82.37 73.3918 80.421C74.926 78.8823 76.5625 78.7798 75.642 80.421C75.2329 81.0365 75.642 82.0622 76.5625 82.6777C77.3808 83.3958 78.7105 85.4473 79.5288 87.2937C80.5516 89.9607 81.9836 91.0891 85.8703 92.6278C90.8822 94.4742 90.9845 94.4742 92.3142 92.5252C94.053 90.0633 96.7124 89.8582 96.7124 92.0123C96.7124 94.1664 100.19 93.9613 102.236 91.602C103.156 90.5762 105.304 89.4479 107.043 89.0375C109.089 88.6272 110.009 87.9092 110.009 86.4731C110.009 83.3958 113.282 75.5998 116.76 70.2658C119.522 66.1627 120.544 59.29 119.726 52.1095C119.215 47.9038 118.09 45.5445 115.328 41.9543C113.18 39.3899 110.725 37.1332 109.805 36.8254C108.782 36.5177 107.964 35.3893 107.964 34.261C107.964 32.0043 103.258 26.8754 101.213 26.8754C100.497 26.8754 99.5763 25.2341 99.1672 23.2852C98.8603 21.3362 98.1443 19.3872 97.6329 19.0795C97.1215 18.7717 96.7124 17.1305 96.7124 15.4893C96.7124 13.3351 95.9964 12.2068 94.3598 11.3861C93.0302 10.7707 91.1891 8.20622 89.9617 5.12889L87.8137 0L86.5863 2.97475Z" fill="#2AA2D6"/>
</svg>
