<svg width="14" height="14" viewBox="0 0 14 14" fill="none" xmlns="http://www.w3.org/2000/svg">
<path d="M7.62891 9.95312C7.62891 10.5562 8.11956 11.0469 8.72266 11.0469H10.0078C10.6109 11.0469 11.1016 10.5562 11.1016 9.95312V8.66797C11.1016 8.06488 10.6109 7.57422 10.0078 7.57422H8.72266C8.11956 7.57422 7.62891 8.06488 7.62891 8.66797V9.95312ZM8.72266 8.66797H10.0078L10.0085 9.9531C10.0085 9.9531 10.0083 9.95312 10.0078 9.95312H8.72266V8.66797Z" fill="black" fill-opacity="0.25"/>
<path d="M10.5547 6.28906C10.8567 6.28906 11.1016 6.04422 11.1016 5.74219C11.1016 5.44016 10.8567 5.19531 10.5547 5.19531C10.2527 5.19531 10.0078 5.44016 10.0078 5.74219C10.0078 6.04422 10.2527 6.28906 10.5547 6.28906Z" fill="black" fill-opacity="0.25"/>
<path d="M8.17578 6.28906C8.47781 6.28906 8.72266 6.04422 8.72266 5.74219C8.72266 5.44016 8.47781 5.19531 8.17578 5.19531C7.87375 5.19531 7.62891 5.44016 7.62891 5.74219C7.62891 6.04422 7.87375 6.28906 8.17578 6.28906Z" fill="black" fill-opacity="0.25"/>
<path d="M13.4531 9.625C13.7552 9.625 14 9.38016 14 9.07812V3.28125C14 2.07506 13.0187 1.09375 11.8125 1.09375H11.1016V0.546875C11.1016 0.244836 10.8567 0 10.5547 0C10.2526 0 10.0078 0.244836 10.0078 0.546875V1.09375H7.51953V0.546875C7.51953 0.244836 7.2747 0 6.97266 0C6.67062 0 6.42578 0.244836 6.42578 0.546875V1.09375H3.96484V0.546875C3.96484 0.244836 3.72001 0 3.41797 0C3.11593 0 2.87109 0.244836 2.87109 0.546875V1.09375H2.1875C0.981313 1.09375 0 2.07506 0 3.28125V11.8125C0 13.0187 0.981313 14 2.1875 14H11.8125C13.0187 14 14 13.0187 14 11.8125C14 11.5105 13.7552 11.2656 13.4531 11.2656C13.1511 11.2656 12.9062 11.5105 12.9062 11.8125C12.9062 12.4156 12.4156 12.9062 11.8125 12.9062H2.1875C1.58441 12.9062 1.09375 12.4156 1.09375 11.8125V3.28125C1.09375 2.67816 1.58441 2.1875 2.1875 2.1875H2.87109V2.73438C2.87109 3.03641 3.11593 3.28125 3.41797 3.28125C3.72001 3.28125 3.96484 3.03641 3.96484 2.73438V2.1875H6.42578V2.73438C6.42578 3.03641 6.67062 3.28125 6.97266 3.28125C7.2747 3.28125 7.51953 3.03641 7.51953 2.73438V2.1875H10.0078V2.73438C10.0078 3.03641 10.2526 3.28125 10.5547 3.28125C10.8567 3.28125 11.1016 3.03641 11.1016 2.73438V2.1875H11.8125C12.4156 2.1875 12.9062 2.67816 12.9062 3.28125V9.07812C12.9062 9.38016 13.1511 9.625 13.4531 9.625Z" fill="black" fill-opacity="0.25"/>
<path d="M3.41797 11.0469C3.72 11.0469 3.96484 10.802 3.96484 10.5C3.96484 10.198 3.72 9.95312 3.41797 9.95312C3.11594 9.95312 2.87109 10.198 2.87109 10.5C2.87109 10.802 3.11594 11.0469 3.41797 11.0469Z" fill="black" fill-opacity="0.25"/>
<path d="M3.41797 6.28906C3.72 6.28906 3.96484 6.04422 3.96484 5.74219C3.96484 5.44016 3.72 5.19531 3.41797 5.19531C3.11594 5.19531 2.87109 5.44016 2.87109 5.74219C2.87109 6.04422 3.11594 6.28906 3.41797 6.28906Z" fill="black" fill-opacity="0.25"/>
<path d="M3.41797 8.66797C3.72 8.66797 3.96484 8.42312 3.96484 8.12109C3.96484 7.81906 3.72 7.57422 3.41797 7.57422C3.11594 7.57422 2.87109 7.81906 2.87109 8.12109C2.87109 8.42312 3.11594 8.66797 3.41797 8.66797Z" fill="black" fill-opacity="0.25"/>
<path d="M5.79688 8.66797C6.09891 8.66797 6.34375 8.42312 6.34375 8.12109C6.34375 7.81906 6.09891 7.57422 5.79688 7.57422C5.49484 7.57422 5.25 7.81906 5.25 8.12109C5.25 8.42312 5.49484 8.66797 5.79688 8.66797Z" fill="black" fill-opacity="0.25"/>
<path d="M5.79688 6.28906C6.09891 6.28906 6.34375 6.04422 6.34375 5.74219C6.34375 5.44016 6.09891 5.19531 5.79688 5.19531C5.49484 5.19531 5.25 5.44016 5.25 5.74219C5.25 6.04422 5.49484 6.28906 5.79688 6.28906Z" fill="black" fill-opacity="0.25"/>
<path d="M5.79688 11.0469C6.09891 11.0469 6.34375 10.802 6.34375 10.5C6.34375 10.198 6.09891 9.95312 5.79688 9.95312C5.49484 9.95312 5.25 10.198 5.25 10.5C5.25 10.802 5.49484 11.0469 5.79688 11.0469Z" fill="black" fill-opacity="0.25"/>
</svg>
