<svg width="17" height="17" viewBox="0 0 17 17" fill="none" xmlns="http://www.w3.org/2000/svg">
<circle cx="8.5" cy="8.5" r="8.5" fill="#DF7070"/>
<path d="M9.27097 8.50002L11.8882 5.8827C11.9602 5.81065 11.9999 5.71453 12 5.61203C12 5.50948 11.9603 5.41324 11.8882 5.34131L11.6588 5.11202C11.5867 5.0398 11.4906 5.00024 11.388 5.00024C11.2855 5.00024 11.1894 5.0398 11.1173 5.11202L8.50011 7.72916L5.8828 5.11202C5.8108 5.0398 5.71463 5.00024 5.61207 5.00024C5.50963 5.00024 5.41346 5.0398 5.34146 5.11202L5.112 5.34131C4.96267 5.49064 4.96267 5.73354 5.112 5.8827L7.72926 8.50002L5.112 11.1172C5.03995 11.1894 5.00028 11.2855 5.00028 11.388C5.00028 11.4905 5.03995 11.5866 5.112 11.6587L5.34141 11.888C5.4134 11.9602 5.50963 11.9998 5.61202 11.9998C5.71457 11.9998 5.81075 11.9602 5.88274 11.888L8.50006 9.27081L11.1173 11.888C11.1894 11.9602 11.2855 11.9998 11.3879 11.9998H11.388C11.4905 11.9998 11.5867 11.9602 11.6588 11.888L11.8881 11.6587C11.9601 11.5867 11.9998 11.4905 11.9998 11.388C11.9998 11.2855 11.9601 11.1894 11.8881 11.1173L9.27097 8.50002Z" fill="white"/>
</svg>
