<svg width="18" height="20" viewBox="0 0 18 20" fill="none" xmlns="http://www.w3.org/2000/svg">
<path d="M15.5182 6.14761L16.3024 5.36346C16.6071 5.05875 16.6071 4.56467 16.3024 4.2601C15.9977 3.95538 15.5038 3.95538 15.199 4.2601L14.4149 5.04425C13.0993 3.94806 11.5006 3.28583 9.79529 3.1308V1.56052H10.5495C10.9804 1.56052 11.3297 1.21109 11.3297 0.780182C11.3297 0.349274 10.9804 0 10.5495 0H7.48053C7.04962 0 6.70035 0.349274 6.70035 0.780182C6.70035 1.21109 7.04962 1.56052 7.48053 1.56052H8.23477V3.1308C3.96597 3.51898 0.5625 7.1051 0.5625 11.5474C0.5625 16.219 4.34286 20 9.01511 20C13.6866 20 17.4676 16.2196 17.4676 11.5474C17.4676 9.55185 16.7803 7.66205 15.5182 6.14761ZM9.01495 18.4395C5.21475 18.4395 2.12286 15.3477 2.12286 11.5474C2.12286 7.74719 5.21475 4.65546 9.01495 4.65546C12.8153 4.65546 15.907 7.74719 15.907 11.5474C15.907 15.3477 12.8153 18.4395 9.01495 18.4395ZM12.6308 7.93167C12.9355 8.23639 12.9355 8.73047 12.6308 9.03503L9.56671 12.0992C9.26199 12.4039 8.76791 12.4039 8.46335 12.0992C8.15863 11.7944 8.15863 11.3004 8.46335 10.9958L11.5273 7.93167C11.832 7.62695 12.3261 7.62695 12.6308 7.93167Z" fill="black" fill-opacity="0.25"/>
</svg>
