<svg width="22" height="24" viewBox="0 0 22 24" fill="none" xmlns="http://www.w3.org/2000/svg">
<path d="M18.8219 7.37714L19.7629 6.43616C20.1285 6.0705 20.1285 5.4776 19.7629 5.11212C19.3972 4.74646 18.8045 4.74646 18.4388 5.11212L17.4979 6.0531C15.9191 4.73767 14.0007 3.94299 11.9543 3.75696V1.87262H12.8594C13.3765 1.87262 13.7957 1.45331 13.7957 0.936218C13.7957 0.419128 13.3765 0 12.8594 0H9.17664C8.65955 0 8.24042 0.419128 8.24042 0.936218C8.24042 1.45331 8.65955 1.87262 9.17664 1.87262H10.0817V3.75696C4.95917 4.22278 0.875 8.52612 0.875 13.8569C0.875 19.4628 5.41144 24 11.0181 24C16.6239 24 21.1611 19.4636 21.1611 13.8569C21.1611 11.4622 20.3364 9.19446 18.8219 7.37714ZM11.0179 22.1274C6.4577 22.1274 2.74744 18.4173 2.74744 13.8569C2.74744 9.29663 6.4577 5.58655 11.0179 5.58655C15.5784 5.58655 19.2885 9.29663 19.2885 13.8569C19.2885 18.4173 15.5784 22.1274 11.0179 22.1274ZM15.357 9.51801C15.7227 9.88367 15.7227 10.4766 15.357 10.842L11.6801 14.519C11.3144 14.8846 10.7215 14.8846 10.356 14.519C9.99036 14.1533 9.99036 13.5604 10.356 13.1949L14.0328 9.51801C14.3984 9.15234 14.9913 9.15234 15.357 9.51801Z" fill="black" fill-opacity="0.25"/>
</svg>
