<svg width="51" height="65" viewBox="0 0 51 65" fill="#2AA2D6" xmlns="http://www.w3.org/2000/svg">
<path d="M49.3405 8.64984C33.5234 8.64984 26.432 0.486643 26.3312 0.368525C25.9194 -0.12454 25.0795 -0.123456 24.6678 0.369608C24.5984 0.451966 17.5839 8.64876 1.65952 8.64876C1.06134 8.64876 0.575859 9.13424 0.575859 9.73242V30.414C0.575859 41.7198 5.65822 52.4643 14.1714 59.1537C17.6034 61.851 21.3106 63.8026 25.1912 64.9535C25.2919 64.9838 25.396 64.999 25.5 64.999C25.604 64.999 25.707 64.9838 25.8088 64.9535C29.6894 63.8016 33.3966 61.851 36.8286 59.1537C45.3418 52.4632 50.4242 41.7198 50.4242 30.414V9.7335C50.4242 9.13532 49.9387 8.64984 49.3405 8.64984ZM48.2568 30.4151C48.2568 41.061 43.4844 51.1683 35.4892 57.4513C32.365 59.9069 29.0056 61.6993 25.5 62.784C21.9944 61.7003 18.635 59.9069 15.5108 57.4513C7.51561 51.1693 2.74318 41.061 2.74318 30.4151V10.8052C16.0093 10.5105 23.1864 4.84837 25.5 2.62904C27.8136 4.84945 34.9907 10.5105 48.2568 10.8052V30.4151Z"/>
<path d="M24.891 8.6543C21.6238 10.8747 16.0451 13.7356 8.02493 14.7585C7.4831 14.8279 7.07781 15.2885 7.07781 15.8335V30.4163C7.07781 39.7434 11.2315 48.5763 18.1896 54.0444C20.3808 55.7663 22.7074 57.1166 25.1045 58.0572C25.2323 58.107 25.3656 58.132 25.5 58.132C25.6344 58.132 25.7688 58.107 25.8955 58.0572C28.2904 57.1177 30.6181 55.7674 32.8115 54.0444C39.7685 48.5763 43.9222 39.7434 43.9222 30.4163V15.8335C43.9222 15.2885 43.5169 14.8279 42.9751 14.7585C34.9549 13.7356 29.3763 10.8747 26.109 8.6543C25.7417 8.40397 25.2584 8.40397 24.891 8.6543ZM41.7549 16.7774V30.4152C41.7549 39.0834 37.9111 47.2791 31.472 52.3387C29.567 53.8353 27.56 55.0251 25.5 55.878C23.44 55.024 21.433 53.8353 19.529 52.3387C13.09 47.278 9.24513 39.0823 9.24513 30.4142V16.7774C16.7213 15.671 22.1136 13.0431 25.5 10.8498C28.8864 13.0431 34.2787 15.671 41.7549 16.7774Z"/>
</svg>
