<svg width="21" height="25" viewBox="0 0 21 25" fill="none" xmlns="http://www.w3.org/2000/svg">
<path d="M19.6694 3.3269C13.5859 3.3269 10.8584 0.187208 10.8197 0.141778C10.6613 -0.0478624 10.3383 -0.0474456 10.1799 0.142195C10.1532 0.173871 7.45533 3.32648 1.33058 3.32648C1.10051 3.32648 0.913788 3.51321 0.913788 3.74327V11.6977C0.913788 16.0461 2.86854 20.1786 6.14286 22.7515C7.46284 23.7889 8.88868 24.5395 10.3812 24.9821C10.42 24.9938 10.46 24.9997 10.5 24.9997C10.54 24.9997 10.5796 24.9938 10.6188 24.9821C12.1113 24.5391 13.5372 23.7889 14.8571 22.7515C18.1315 20.1782 20.0862 16.0461 20.0862 11.6977V3.74369C20.0862 3.51362 19.8995 3.3269 19.6694 3.3269ZM19.2526 11.6982C19.2526 15.7927 17.4171 19.6801 14.342 22.0967C13.1404 23.0411 11.8483 23.7305 10.5 24.1477C9.15168 23.7309 7.85962 23.0411 6.65801 22.0967C3.58292 19.6806 1.74737 15.7927 1.74737 11.6982V4.1559C6.84974 4.04253 9.61015 1.86479 10.5 1.01121C11.3898 1.86521 14.1503 4.04253 19.2526 4.1559V11.6982Z" fill="#EF8F21"/>
<path d="M10.2658 3.32856C9.00913 4.18256 6.86349 5.28289 3.77881 5.67634C3.57042 5.70302 3.41454 5.88016 3.41454 6.0898V11.6986C3.41454 15.2859 5.0121 18.6832 7.68832 20.7863C8.53107 21.4486 9.42592 21.9679 10.3479 22.3297C10.397 22.3488 10.4483 22.3584 10.5 22.3584C10.5517 22.3584 10.6034 22.3488 10.6521 22.3297C11.5732 21.9683 12.4685 21.449 13.3121 20.7863C15.9879 18.6832 17.5855 15.2859 17.5855 11.6986V6.0898C17.5855 5.88016 17.4296 5.70302 17.2212 5.67634C14.1365 5.28289 11.9909 4.18256 10.7342 3.32856C10.5929 3.23228 10.4071 3.23228 10.2658 3.32856ZM16.7519 6.45283V11.6982C16.7519 15.0321 15.2735 18.1843 12.7969 20.1303C12.0642 20.7059 11.2923 21.1635 10.5 21.4915C9.70767 21.1631 8.93578 20.7059 8.20347 20.1303C5.7269 18.1838 4.24812 15.0317 4.24812 11.6977V6.45283C7.12357 6.02728 9.19752 5.01656 10.5 4.17298C11.8025 5.01656 13.8764 6.02728 16.7519 6.45283Z" fill="#EF8F21"/>
</svg>
