<svg width="120" height="100" viewBox="0 0 120 100" fill="none" xmlns="http://www.w3.org/2000/svg">
<path d="M51.2545 0.388481C50.962 0.874081 51.1082 1.99096 51.5958 2.76792C51.8395 3.1564 51.7908 3.39921 51.4495 3.39921C51.157 3.39921 50.7182 2.81648 50.4744 2.13664C49.9869 0.971201 48.6218 0.728401 48.8656 1.84528C48.9631 2.1852 48.6706 2.28232 48.1831 2.08808C47.6468 1.89384 47.5493 1.6996 47.9393 1.55392C49.3044 1.11688 48.3781 0.679841 46.7205 0.922641C45.4529 1.11688 44.8191 1.50536 44.7216 2.13664C44.5753 2.81648 44.7216 2.96216 45.3554 2.71936C45.9404 2.52512 46.1354 2.62224 45.9404 3.10784C45.5992 3.98193 47.0617 5.34161 48.3781 5.34161C48.9631 5.34161 49.4994 5.05025 49.6457 4.66177C49.8407 4.22473 50.3282 4.07905 50.9132 4.22473C52.2296 4.56465 51.8395 5.14737 49.9869 5.48729C49.2069 5.68153 48.5243 6.07001 48.5243 6.36137C48.5243 6.70129 49.0119 6.79841 49.7919 6.65273C51.2057 6.40993 50.7182 7.08977 49.2556 7.42969C48.4268 7.62393 48.5243 7.72105 49.8894 8.30377C50.7182 8.64369 51.4495 9.12929 51.4495 9.32353C51.4495 10.3919 52.6196 9.42065 54.1797 7.08977C55.2522 5.48729 56.3735 4.32185 57.1048 4.17617C57.7874 3.98193 58.1774 3.64201 58.0311 3.39921C57.8849 3.1564 57.4461 3.05928 57.0561 3.20496C56.7148 3.35065 55.9835 3.05928 55.496 2.57368C54.3259 1.40824 52.3271 0 51.8395 0C51.6445 0 51.4008 0.19424 51.2545 0.388481Z" fill="#AAAAAA"/>
<path d="M57.9336 6.02144C58.0311 7.5268 58.1774 7.67248 59.4937 7.67248C60.3225 7.62392 61.3951 7.33256 61.9314 6.99264C62.8577 6.3128 62.8577 6.3128 61.7851 6.3128C61.2001 6.3128 60.7126 6.07 60.7126 5.8272C60.7126 5.53584 60.3713 5.3416 59.9813 5.3416C59.5912 5.3416 59.25 5.0988 59.25 4.856C59.25 4.56464 58.9575 4.3704 58.5674 4.3704C58.0799 4.3704 57.8849 4.856 57.9336 6.02144Z" fill="#AAAAAA"/>
<path d="M115.365 9.56632C114.438 9.9548 112.732 10.2947 111.562 10.2947C110.392 10.2947 109.465 10.4404 109.465 10.5861C109.465 10.7803 108.88 10.9746 108.198 10.9746C107.515 11.0231 106.589 11.4116 106.15 11.8001C105.711 12.2371 104.688 12.7227 103.956 12.8684C103.079 13.1112 102.689 13.4511 102.835 13.8882C102.981 14.2281 102.884 14.6651 102.591 14.8108C102.348 15.005 102.299 15.345 102.445 15.6363C102.64 15.9763 102.543 16.0248 102.201 15.8306C101.909 15.6363 101.324 15.7334 100.934 16.0248C100.349 16.5104 100.349 16.7047 100.885 17.2388C101.958 18.3071 104.151 18.3557 104.785 17.2388C105.419 16.1219 107.028 14.568 107.564 14.568C107.759 14.568 108.247 14.2766 108.588 13.9367C109.514 13.0141 112.634 11.8486 116.047 11.1688C119.119 10.5375 120.386 9.90624 119.899 9.17784C119.509 8.54656 117.266 8.7408 115.365 9.56632Z" fill="#AAAAAA"/>
<path d="M99.3736 18.7928C99.0323 18.8899 98.7398 19.424 98.7398 19.9582C98.7398 20.4924 98.3986 21.0265 98.0085 21.1722C96.7897 21.6578 97.1797 22.6776 98.7398 22.9689C99.7149 23.1632 100.105 23.5031 99.9099 23.9401C99.5686 24.8142 102.738 25.494 103.956 24.8628C104.639 24.4743 104.59 24.28 103.469 23.5516C102.006 22.629 101.714 20.8808 102.884 19.9096C103.274 19.5697 103.469 19.1327 103.323 18.8899C103.079 18.4528 100.397 18.3557 99.3736 18.7928Z" fill="#AAAAAA"/>
<path d="M66.0754 24.3286C66.0754 24.5714 65.8803 24.7171 65.6366 24.5714C65.3928 24.4258 64.954 24.62 64.6128 25.0085C64.2715 25.397 63.784 25.7369 63.5402 25.7369C63.2477 25.7369 63.2964 25.397 63.6377 25.0085C64.564 23.8916 63.3452 24.0858 62.0776 25.2513C61.3463 25.9311 60.6638 26.1254 59.835 25.8826C59.0062 25.6883 58.7137 25.7854 58.9574 26.1739C59.1524 26.4653 59.0062 26.7081 58.5674 26.7081C58.1286 26.7081 57.7874 26.9023 57.7874 27.1937C57.7874 27.4365 57.5436 27.6793 57.2511 27.6793C57.0073 27.6793 56.9098 27.4365 57.0561 27.1937C57.2023 26.9023 57.1536 26.7081 56.8611 26.7081C56.6173 26.7081 56.276 26.9023 56.081 27.1451C55.691 27.825 52.9121 29.1361 51.8395 29.1361C51.352 29.1361 50.962 29.3303 50.962 29.6217C50.962 29.8645 51.352 29.9616 51.8395 29.7674C52.2783 29.6217 51.4495 30.5929 49.9869 31.9526C48.5243 33.3608 47.6468 34.4777 48.0368 34.4777C48.5243 34.4777 48.5731 34.6234 48.2318 34.8662C47.9393 35.0604 47.5005 35.7403 47.3055 36.4201C46.818 37.974 42.9177 42.7329 41.4064 43.7041C40.7726 44.0926 40.0901 44.821 39.9438 45.258C39.7975 45.7436 39.505 46.1321 39.2613 46.1321C38.4812 46.1321 37.3111 47.6375 37.3111 48.6087C37.3111 49.24 37.6524 49.5313 38.4325 49.5799C39.2125 49.6284 39.31 49.677 38.6762 49.8712C38.1887 49.9684 37.7987 50.5511 37.7987 51.0852C37.7987 51.7651 38.0424 51.9593 38.5787 51.7651C39.31 51.4737 39.31 51.5708 38.5787 52.6392C37.7012 54.0474 37.5549 54.5816 38.2862 54.1445C38.5787 53.9989 38.7737 54.0474 38.7737 54.3388C38.7737 54.5816 38.4812 54.8729 38.1887 55.0186C37.7499 55.1643 37.9937 55.6985 38.92 56.5725C40.4801 58.0293 40.6751 57.9808 43.5028 54.8729C44.4778 53.8532 45.1116 53.4647 45.1116 53.9017C45.1116 54.2902 45.4041 55.1643 45.7454 55.8441C46.0867 56.524 46.6717 58.3207 47.0617 59.9232C47.403 61.4771 47.988 62.8368 48.3293 62.9825C49.1581 63.2738 51.8395 61.2343 52.2295 60.0203C52.4245 59.4376 52.5708 58.4178 52.5221 57.738C52.5221 56.9125 53.0096 55.9413 53.9359 55.0672C55.5935 53.5132 55.7397 51.9593 54.3747 50.7453C52.3758 48.9486 53.3996 45.1609 56.6173 42.4416C57.6411 41.5675 58.4699 40.4991 58.5187 39.965C58.7624 36.5172 61.2001 34.7205 63.2964 36.4201C64.2227 37.1971 64.2715 37.3913 63.6377 38.1197C63.2477 38.5567 62.7114 39.3337 62.4189 39.8193C62.1751 40.3049 61.1026 41.6646 60.1275 42.83C58.3724 44.8696 58.3724 45.0152 58.6162 47.9288C58.9574 51.668 60.0788 52.7363 62.7602 51.9108C66.5629 50.6968 67.4892 50.5996 67.733 51.2795C67.8792 51.668 68.318 51.8136 68.7568 51.668C69.1468 51.5223 69.4881 51.5708 69.4881 51.8136C69.4881 52.4449 66.6116 53.4647 64.6128 53.5618C63.6865 53.6104 62.4676 53.9017 61.9801 54.1931C61.1026 54.7272 61.1026 54.8244 61.8826 56.3297C62.3214 57.2038 62.6627 58.2236 62.6627 58.5635C62.6627 59.7289 61.5413 59.8746 60.7613 58.8549C60.3225 58.2721 59.7375 57.9808 59.4937 58.175C58.6162 58.7577 57.8849 60.9915 58.1286 62.2541C58.2749 63.1281 57.9824 63.8565 57.1048 64.8277C55.886 66.1389 55.7885 66.1389 54.9109 65.3619C54.0334 64.5364 53.8871 64.5849 51.9858 65.6533C50.3769 66.5759 49.8406 66.673 49.0606 66.1874C48.5243 65.8475 47.403 65.7018 46.4767 65.8961C43.649 66.3331 42.1864 64.1479 44.1366 62.3997C45.3066 61.3314 44.5753 60.0689 42.9665 60.4088C42.3815 60.5545 42.5277 60.4088 43.3078 60.1174C44.0391 59.7775 44.6241 59.2433 44.6241 58.9034C44.6241 58.0293 44.0878 58.1265 42.8202 59.1948C41.3576 60.4088 41.0651 62.0113 41.8939 64.3421C42.7715 66.8187 42.5277 67.3529 40.1876 67.7413C38.2862 68.0813 36.6774 69.4895 36.0923 71.3834C35.9461 71.869 35.166 72.5002 34.386 72.8402C33.5572 73.1801 32.9234 73.7142 32.9234 74.0542C32.9234 75.0254 30.5833 76.3365 29.4619 75.9966C28.5844 75.7052 28.4869 75.8023 28.7794 76.6764C29.0719 77.599 28.8769 77.6962 27.3656 77.6962C24.7329 77.6962 24.5379 79.153 27.073 79.7843C28.8281 80.2213 29.8032 82.8435 29.6082 86.3399C29.5107 87.5053 29.4619 87.5053 24.9279 87.2139C19.5651 86.874 19.1751 87.1168 19.7601 90.2732C19.9551 91.4872 19.9551 92.944 19.7114 93.6239C19.4676 94.2552 19.4188 95.6148 19.5651 96.6832C19.8576 98.3828 20.0526 98.6256 20.9302 98.3828C21.6615 98.1885 22.2953 98.4313 22.8315 99.0626C23.7578 100.131 24.4404 100.277 24.8792 99.5482C25.0254 99.2568 25.8542 99.0626 26.683 99.0626C28.5844 99.0626 31.6558 96.0519 31.217 94.6436C30.827 93.4296 32.2408 91.4387 33.7034 91.0988C34.4347 90.9045 34.8735 90.4189 34.8735 89.8848C34.8735 87.8938 35.4098 87.3596 37.1161 87.6995C38.3837 87.9423 39.2613 87.6995 41.0164 86.6798C43.2102 85.3687 43.3565 85.3687 43.9903 86.2427C44.3316 86.7283 44.6241 87.3596 44.6241 87.6995C44.6241 88.2823 47.793 91.293 48.4268 91.293C48.6218 91.293 49.4994 91.9243 50.4257 92.7012C51.7908 93.8667 52.0345 94.3523 51.742 95.372C51.5957 96.0519 51.5957 96.6346 51.7908 96.6346C52.5708 96.6346 53.3509 94.7893 53.0583 93.721C52.7658 92.7012 52.9121 92.6527 54.0334 92.944C54.7647 93.0897 55.3497 93.1383 55.3497 93.0412C55.3497 92.7012 50.962 89.8362 50.4744 89.8362C49.8894 89.8362 47.0617 85.6115 47.0617 84.7374C47.0617 83.6691 48.1343 83.2806 48.6218 84.2032C48.8656 84.6403 49.2556 84.8831 49.4994 84.7374C49.6944 84.5917 50.2307 85.0287 50.6207 85.66C51.0595 86.2913 52.5221 87.5539 53.8871 88.4279C55.8372 89.6905 56.3248 90.2732 56.3248 91.3416C56.3248 92.6527 58.0311 96.149 58.7137 96.149C58.9087 96.149 59.0549 96.6346 59.1037 97.2173C59.2012 98.1885 59.9812 99.0626 60.8588 99.0626C61.1026 99.0626 61.2001 98.7712 61.0538 98.4313C60.9563 98.14 61.2976 97.363 61.8339 96.7317C62.6627 95.8576 62.7114 95.5663 62.1751 95.0321C61.6876 94.5465 61.5901 94.5951 61.8339 95.2749C62.0289 95.8576 61.9314 96.0033 61.3951 95.8091C61.0538 95.6634 60.7125 95.3235 60.7125 94.9836C60.7125 94.6922 60.5663 93.9152 60.42 93.2354C60.1275 92.2156 60.225 92.1185 60.7613 92.6041C61.6388 93.4296 62.1751 93.3811 62.1751 92.507C62.1751 92.07 62.6139 91.7786 63.3939 91.7786C64.0765 91.7786 64.6128 91.9728 64.6128 92.2156C64.6128 92.4584 65.3441 92.4099 66.2216 92.1185C68.318 91.3901 68.2692 91.4387 67.4404 90.4675C66.7091 89.6905 66.7091 89.3991 67.3917 87.4567C68.2205 84.9802 69.9268 82.2122 70.8531 81.8723C71.1944 81.7266 72.0232 81.8238 72.7057 82.0666C73.7783 82.5036 73.8758 82.6979 73.3883 83.2806C72.9495 83.7662 72.9495 84.009 73.3395 84.009C73.6321 84.009 73.8758 84.3489 73.8758 84.7374C73.8758 85.6115 74.2658 85.66 75.9722 84.8345C77.6298 84.1061 77.6298 83.7176 76.0209 83.3291C74.3146 82.8921 74.9971 82.2123 77.9223 81.3382L80.1649 80.6583L79.6774 81.9695C79.3849 82.6979 78.8974 83.4263 78.6049 83.6691C78.1661 83.9604 78.2636 84.2032 78.9461 84.6403C79.4824 84.9802 80.2624 85.6115 80.75 86.0485C81.6763 86.9226 85.479 88.1366 85.9178 87.6995C86.2103 87.4082 90.8418 89.7391 91.2318 90.3704C91.3781 90.6132 91.9144 90.8074 92.4507 90.8074C93.4257 90.8074 93.6695 89.8848 92.9382 89.1078C92.6944 88.8164 92.1582 87.6995 91.7681 86.5341C91.0368 84.4946 91.0856 84.446 92.4507 83.1349C94.2058 81.4838 94.3033 79.8328 92.6457 79.0559C91.4756 78.5217 91.3781 78.2789 91.5244 76.0451C91.6706 73.8114 91.7681 73.5686 92.7919 73.7142C93.4745 73.8114 93.8645 73.6171 93.8645 73.1315C93.8645 72.6945 94.352 72.0632 94.9858 71.6262C96.1559 70.8492 98.301 71.1891 100.982 72.5974C101.957 73.083 102.543 73.1315 103.42 72.743C104.249 72.3546 104.931 72.4031 106.053 72.8402C108.295 73.7628 108.393 73.0344 106.394 70.9949L104.639 69.1982L105.809 66.5759C106.735 64.6335 106.882 63.808 106.492 63.3224C105.955 62.6425 106.687 60.7001 107.467 60.7001C107.857 60.7001 108.052 57.4952 108.637 43.0243L108.832 39.188L113.853 34.3806L113.707 31.0299C113.609 29.1847 113.463 27.5822 113.317 27.4851C113.219 27.3879 112.244 27.1937 111.172 27.0966C109.465 26.9509 109.222 27.0966 109.075 28.0192C108.88 29.1846 107.515 29.9616 107.028 29.1361C106.784 28.7476 106.296 28.7476 105.321 29.1361C104.59 29.4275 103.566 29.5246 103.128 29.3789C102.64 29.2332 102.104 29.3303 101.909 29.6217C101.762 29.8645 101.177 30.1073 100.69 30.1073C100.007 30.1073 99.8124 29.8645 100.056 29.2818C100.3 28.6505 100.202 28.5534 99.4223 28.8933C98.9348 29.0875 97.9597 29.3789 97.2772 29.5246C96.5947 29.6703 95.4246 30.1559 94.6445 30.6415C93.8645 31.1271 93.0357 31.4184 92.7919 31.2727C92.5969 31.1271 92.4019 31.3213 92.4019 31.7098C92.4019 32.681 91.0856 33.118 89.9155 32.5353C88.6479 31.8555 88.7455 31.0785 90.0618 31.0785C91.0368 31.0785 91.0856 30.9814 90.4518 30.3501C89.4767 29.4275 86.5516 28.7962 86.5516 29.5731C86.5516 29.8645 86.7953 30.1073 87.0879 30.1073C87.4291 30.1073 87.5266 30.5929 87.3316 31.3213C87.1366 32.0011 87.2341 32.5353 87.5266 32.5353C88.1117 32.5353 88.1604 33.0209 87.5754 33.895C87.2341 34.4291 86.9903 34.4291 86.2103 33.9921C85.3815 33.4579 85.0402 33.6036 83.4314 35.0604C81.7738 36.5658 81.6275 36.9057 82.1151 37.8284C82.9439 39.2852 81.4813 39.7708 79.5799 38.6539C78.7999 38.2168 78.0198 37.9255 77.9223 38.0711C77.5323 38.4111 78.2636 40.3049 78.7999 40.3049C79.0436 40.3049 79.2386 40.4992 79.2386 40.7905C79.2386 41.4704 78.2636 41.4218 76.6547 40.6448C75.3384 40.0621 75.0946 39.188 75.2896 36.3715C75.3384 35.4003 74.9484 34.7205 73.7783 33.7979C71.7794 32.2439 72.072 32.2439 76.1185 33.7493C79.9699 35.2061 81.0425 35.2547 82.5538 34.0407C84.6015 32.2925 84.0164 31.3699 79.5799 29.476C77.386 28.5048 75.2409 27.7764 74.8509 27.7764C73.242 27.8735 72.3645 27.6307 72.657 27.1937C72.852 26.9023 72.1695 26.7081 70.9019 26.7081C69.2443 26.7081 69.0005 26.611 69.4393 26.0282C69.8781 25.5426 69.8293 25.2513 69.293 24.7657C68.8543 24.4743 68.318 24.3286 68.0742 24.4743C67.8305 24.6686 67.4892 24.5714 67.2942 24.2801C66.9042 23.6488 66.0754 23.6488 66.0754 24.3286Z" fill="#AAAAAA"/>
<path d="M1.42905 34.7205C1.57531 35.1575 1.42905 35.4489 1.03903 35.4489C0.649006 35.4489 0.258983 35.7888 0.0639716 36.1773C-0.13104 36.7114 0.112725 36.9057 0.892771 36.9057C1.47781 36.9057 2.25785 37.3913 2.64788 37.9254C3.18416 38.7995 3.18416 38.9452 2.59912 38.751C2.25785 38.6053 1.52656 38.6538 0.990277 38.8966C0.0639717 39.2366 0.0639716 39.2851 1.13654 39.2851C2.40411 39.3337 3.1354 40.6934 2.16035 41.2761C1.62406 41.616 1.72157 41.7617 2.45286 42.0045C2.98915 42.1987 3.91545 42.5386 4.54924 42.7814C5.18303 43.0242 6.15808 43.2185 6.74312 43.1699C8.2057 43.1214 11.8622 40.839 13.081 39.2366C14.0073 37.974 14.0561 37.8283 13.276 37.0028C12.8372 36.5172 12.4472 35.7402 12.4472 35.3032C12.4472 34.2834 10.4971 33.6521 9.96081 34.5262C9.7658 34.8662 8.83949 35.2061 7.96194 35.2546C5.42679 35.4489 4.93926 35.6431 4.54924 36.5658C4.11046 37.6341 3.18416 37.197 3.18416 35.983C3.18416 35.109 2.3066 33.9921 1.57531 33.9921C1.33155 33.9921 1.23404 34.332 1.42905 34.7205Z" fill="#AAAAAA"/>
<path d="M24.3917 57.4951C24.0017 58.1264 23.7579 58.9519 23.9042 59.389C24.0992 59.7774 24.0017 60.263 23.7091 60.4573C23.4166 60.603 23.1729 60.9914 23.1729 61.2342C23.1729 61.5256 23.4166 61.5742 23.6604 61.4285C24.0017 61.2342 24.0992 61.5256 23.8554 62.3511C23.6116 63.4194 23.7091 63.5651 24.3917 63.2738C25.123 63.031 25.2205 63.1766 24.928 64.3421C24.6354 65.5075 24.733 65.6532 25.513 65.459C26.1955 65.2647 26.5856 65.6047 26.9756 66.6244C27.4631 67.9355 27.4144 68.1298 26.5856 68.324C26.0005 68.4697 25.6105 69.0039 25.6105 69.6351C25.6105 70.2179 25.3667 70.9463 25.0742 71.2376C24.733 71.5775 24.928 71.8203 25.8543 72.0631L27.1706 72.4031L25.903 73.3743C24.2454 74.6854 24.2942 75.3652 26.0005 74.7339C26.7318 74.4426 28.1944 74.1027 29.267 73.957C32.0459 73.6656 32.5822 73.4228 32.2409 72.5973C32.0946 72.2088 32.1921 71.7718 32.4359 71.6261C33.216 71.1405 33.0209 69.4409 32.1921 69.4409C31.8021 69.4409 31.3146 68.8582 31.1683 68.0812C30.9733 67.3528 30.5833 66.4302 30.1933 66.0417C29.852 65.6532 29.4132 64.7306 29.267 63.9536C29.0232 63.1281 28.5844 62.6425 27.9994 62.6425C27.1218 62.6425 27.1218 62.5454 27.8044 60.8943C28.7794 58.5149 28.7307 58.2721 27.2193 58.2721C26.1955 58.2721 26.0493 58.1264 26.4881 57.6894C27.3656 56.8153 27.2193 56.3297 26.098 56.3297C25.5618 56.3297 24.8305 56.8638 24.3917 57.4951Z" fill="#AAAAAA"/>
<path d="M20.3452 64.6821C20.0039 65.022 19.7601 65.5561 19.7601 65.8961C19.7601 66.236 19.4189 66.5273 19.0288 66.5273C18.6388 66.5273 18.2976 66.9644 18.2976 67.4985C18.2976 68.0327 18.4926 68.4697 18.7363 68.4697C18.9801 68.4697 19.0776 68.9068 18.9313 69.4409C18.7851 69.9751 18.4926 70.4121 18.2488 70.4121C17.5175 70.4121 17.7613 71.8689 18.4926 72.1603C19.2239 72.4517 22.1978 71.092 22.7828 70.2179C22.9778 69.9265 23.1728 69.101 23.1728 68.3726C23.1728 67.6442 23.4166 66.9158 23.6604 66.7701C24.3429 66.3331 24.2454 65.7504 23.3678 64.8763C22.4903 63.9537 21.174 63.8565 20.3452 64.6821Z" fill="#AAAAAA"/>
<path d="M42.4302 89.0106C42.2352 89.4962 42.1864 90.0304 42.3815 90.1761C42.869 90.6617 43.259 89.9818 43.0152 89.0106C42.8202 88.1851 42.8202 88.1851 42.4302 89.0106Z" fill="#AAAAAA"/>
<path d="M42.0402 91.5843C41.5527 92.0699 41.6014 94.6922 42.1377 94.6922C42.869 94.6922 43.7465 93.3325 43.5515 92.4584C43.4053 91.5358 42.5765 91.0987 42.0402 91.5843Z" fill="#AAAAAA"/>
<path d="M47.0618 96.586C47.0618 96.7802 47.8418 97.3144 48.7681 97.7514C50.4745 98.5284 50.4745 98.5284 50.4745 97.4601C50.4745 96.586 50.182 96.3917 48.7681 96.2946C47.8418 96.2461 47.0618 96.3917 47.0618 96.586Z" fill="#AAAAAA"/>
</svg>
