<svg width="21" height="21" viewBox="0 0 21 21" fill="none" xmlns="http://www.w3.org/2000/svg">
<path d="M20.9451 8.05407C20.8068 7.62885 20.4297 7.3278 19.9852 7.28758L13.9231 6.73723L11.5274 1.12825C11.3505 0.71616 10.948 0.450195 10.5 0.450195C10.0521 0.450195 9.64942 0.71616 9.47366 1.12825L7.07789 6.73723L1.01485 7.28758C0.570396 7.3286 0.194039 7.62965 0.0549682 8.05407C-0.0833017 8.4793 0.0443936 8.9457 0.380535 9.2405L4.96299 13.2587L3.61185 19.2095C3.513 19.6471 3.68283 20.0996 4.04589 20.362C4.24104 20.5038 4.47031 20.5746 4.70039 20.5746C4.8981 20.5746 5.09597 20.5221 5.27269 20.4163L10.5 17.2908L15.7264 20.4163C16.1098 20.6454 16.5919 20.6245 16.9542 20.362C17.3172 20.0996 17.4871 19.6471 17.3882 19.2095L16.0371 13.2587L20.6195 9.2405C20.9555 8.9457 21.0834 8.48026 20.9451 8.05407Z" fill="#84BB59"/>
</svg>
