<svg width="17" height="15" viewBox="0 0 17 15" fill="none" xmlns="http://www.w3.org/2000/svg">
<path d="M15.6342 1.81177C13.7853 -0.036616 10.7776 -0.036616 8.92917 1.81177L8.49985 2.24084L8.07078 1.81177C6.22239 -0.0368661 3.21439 -0.0368661 1.366 1.81177C-0.444856 3.62263 -0.456615 6.49303 1.33873 8.48878C2.97621 10.3084 7.80558 14.2396 8.01049 14.406C8.14959 14.5191 8.31697 14.5741 8.48334 14.5741C8.48884 14.5741 8.49435 14.5741 8.4996 14.5738C8.67173 14.5818 8.84511 14.5228 8.98872 14.406C9.19362 14.2396 14.0235 10.3084 15.6615 8.48853C17.4566 6.49303 17.4448 3.62263 15.6342 1.81177ZM14.5456 7.48452C13.2689 8.90284 9.75955 11.828 8.4996 12.8661C7.23966 11.8283 3.73103 8.90334 2.45457 7.48478C1.20213 6.09273 1.19037 4.11024 2.4273 2.87332C3.05902 2.24184 3.88864 1.92586 4.71827 1.92586C5.54789 1.92586 6.37751 2.24159 7.00923 2.87332L7.95294 3.81702C8.06528 3.92936 8.20688 3.99641 8.35549 4.01993C8.59667 4.07172 8.85837 4.00441 9.04601 3.81727L9.99022 2.87332C11.2539 1.61012 13.3095 1.61037 14.5724 2.87332C15.8093 4.11024 15.7976 6.09273 14.5456 7.48452Z" fill="black"/>
</svg>
