<svg width="20" height="18" viewBox="0 0 20 18" fill="white" xmlns="http://www.w3.org/2000/svg">
<path d="M14.6875 0.210938C12.5569 0.210938 10.9759 1.51941 10 3.37559C9.02418 1.51953 7.4432 0.210938 5.3125 0.210938C2.24184 0.210938 0 2.78965 0 5.93418C0 10.0927 3.96766 12.7034 9.61414 17.6441C9.83512 17.8374 10.1649 17.8373 10.3859 17.6441C16.0271 12.7079 20 10.0932 20 5.93418C20 2.78914 17.7578 0.210938 14.6875 0.210938ZM10 16.4258C4.79992 11.9088 1.17188 9.39957 1.17188 5.93418C1.17188 3.33949 2.95195 1.38281 5.3125 1.38281C7.58797 1.38281 8.99809 3.49012 9.43524 5.05453C9.59289 5.62523 10.4052 5.62777 10.5648 5.05453C10.9961 3.51086 12.3899 1.38281 14.6875 1.38281C17.048 1.38281 18.8281 3.33949 18.8281 5.93418C18.8281 9.40156 15.1941 11.914 10 16.4258Z"/>
</svg>
