<svg width="25" height="25" viewBox="0 0 25 25" fill="none" xmlns="http://www.w3.org/2000/svg">
<g clip-path="url(#clip0)">
<path d="M19.3891 9.00806H18.0734V5.58517C18.0734 2.50558 15.5678 0 12.4882 0C9.40866 0 6.90308 2.50558 6.90308 5.58517V9.00806H5.58737C4.3804 9.00806 3.39838 9.99008 3.39838 11.1971V22.8111C3.39838 24.0181 4.3804 25.0001 5.58737 25.0001H19.3891C20.5961 25.0001 21.5781 24.0181 21.5781 22.8111V11.1971C21.5781 9.99008 20.5961 9.00806 19.3891 9.00806ZM7.90305 5.58517C7.90305 3.05695 9.96002 0.999969 12.4882 0.999969C15.0167 0.999969 17.0735 3.05695 17.0735 5.58517V9.00806H7.90305V5.58517ZM20.5782 22.8111C20.5782 23.4665 20.0447 23.9999 19.3891 23.9999H5.58737C4.93198 23.9999 4.39835 23.4665 4.39835 22.8111V11.1971C4.39835 10.5414 4.93198 10.008 5.58737 10.008H19.3891C20.0447 10.008 20.5782 10.5414 20.5782 11.1971V22.8111Z" fill="#EF8F21"/>
<path d="M12.4883 14.5256C11.5235 14.5256 10.7383 15.3107 10.7383 16.2756C10.7383 17.0654 11.268 17.7272 11.9884 17.944V19.1322C11.9884 19.4084 12.2123 19.6323 12.4883 19.6323C12.7645 19.6323 12.9883 19.4084 12.9883 19.1322V17.944C13.7087 17.7272 14.2383 17.0654 14.2383 16.2756C14.2383 15.3107 13.4532 14.5256 12.4883 14.5256ZM12.4883 17.0255C12.0747 17.0255 11.7382 16.6892 11.7382 16.2756C11.7382 15.8621 12.0747 15.5256 12.4883 15.5256C12.9018 15.5256 13.2383 15.8621 13.2383 16.2756C13.2383 16.6892 12.9018 17.0255 12.4883 17.0255Z" fill="#EF8F21"/>
</g>
<defs>
<clipPath id="clip0">
<rect width="25" height="25" fill="white"/>
</clipPath>
</defs>
</svg>
