<svg width="65" height="65" viewBox="0 0 65 65" fill="#2AA2D6" xmlns="http://www.w3.org/2000/svg">
<g clip-path="url(#clip0)">
<path d="M50.4118 23.4209H46.9909V14.5215C46.9909 6.51452 40.4764 0 32.4695 0C24.4626 0 17.948 6.51452 17.948 14.5215V23.4209H14.5272C11.3891 23.4209 8.83582 25.9742 8.83582 29.1123V59.3088C8.83582 62.447 11.3891 65.0002 14.5272 65.0002H50.4118C53.5499 65.0002 56.1032 62.447 56.1032 59.3088V29.1123C56.1032 25.9742 53.5499 23.4209 50.4118 23.4209ZM20.548 14.5215C20.548 7.94806 25.8961 2.59992 32.4695 2.59992C39.0434 2.59992 44.391 7.94806 44.391 14.5215V23.4209H20.548V14.5215ZM53.5032 59.3088C53.5032 61.0129 52.1164 62.3998 50.4118 62.3998H14.5272C12.8232 62.3998 11.4357 61.0129 11.4357 59.3088V29.1123C11.4357 27.4077 12.8232 26.0209 14.5272 26.0209H50.4118C52.1164 26.0209 53.5032 27.4077 53.5032 29.1123V59.3088Z"/>
<path d="M32.4694 37.7668C29.9612 37.7668 27.9194 39.808 27.9194 42.3168C27.9194 44.3702 29.2969 46.0909 31.1698 46.6547V49.7439C31.1698 50.4621 31.7518 51.0442 32.4694 51.0442C33.1876 51.0442 33.7697 50.4621 33.7697 49.7439V46.6547C35.6426 46.0909 37.0195 44.3702 37.0195 42.3168C37.0195 39.808 34.9783 37.7668 32.4694 37.7668ZM32.4694 44.2664C31.3941 44.2664 30.5194 43.3921 30.5194 42.3168C30.5194 41.2416 31.3941 40.3668 32.4694 40.3668C33.5447 40.3668 34.4195 41.2416 34.4195 42.3168C34.4195 43.3921 33.5447 44.2664 32.4694 44.2664Z"/>
</g>
<defs>
<clipPath id="clip0">
<rect width="65" height="65" fill="white"/>
</clipPath>
</defs>
</svg>
