<svg width="24" height="24" viewBox="0 0 24 24" fill="white" xmlns="http://www.w3.org/2000/svg">
<path d="M9.82943 19.6686C11.8531 19.6686 13.7227 19.0519 15.2838 18.0111L20.9309 23.6582C21.3744 24.1015 22.1068 24.1015 22.5691 23.6582L23.6677 22.5596C24.111 22.1163 24.111 21.384 23.6677 20.9214L18.0014 15.2936C19.0419 13.7324 19.6589 11.8629 19.6589 9.8392C19.6589 4.42337 15.2453 0.00976562 9.82943 0.00976562C4.41361 0.00976562 0 4.42337 0 9.8392C0 15.2548 4.39433 19.6686 9.82943 19.6686ZM9.82943 3.86444C13.1252 3.86444 15.8042 6.54345 15.8042 9.8392C15.8042 13.1349 13.1252 15.8139 9.82943 15.8139C6.53368 15.8139 3.85468 13.1349 3.85468 9.8392C3.85468 6.54345 6.53368 3.86444 9.82943 3.86444Z"/>
</svg>
