<svg width="24" height="24" viewBox="0 0 24 24" fill="none" xmlns="http://www.w3.org/2000/svg">
<path d="M12 2.8125C9.28608 2.8125 7.07812 5.02045 7.07812 7.73437C7.07812 9.4192 7.92778 10.9695 9.35095 11.8813C10.8042 12.8123 12.5881 12.9113 14.2459 12.1486C14.5987 11.9863 14.7531 11.5687 14.5908 11.216C14.4285 10.8632 14.011 10.7088 13.6582 10.8711C12.446 11.4288 11.1525 11.3654 10.1096 10.6972C9.09192 10.0452 8.48438 8.93761 8.48438 7.73437C8.48438 5.79586 10.0615 4.21875 12 4.21875C13.9385 4.21875 15.5156 5.79586 15.5156 7.73437C15.5156 8.12208 15.2002 8.4375 14.8125 8.4375C14.4582 8.4375 14.1273 8.16881 14.1095 7.74506C14.1094 7.7415 14.1094 7.73794 14.1094 7.73437C14.1094 6.57127 13.1631 5.625 12 5.625C10.8369 5.625 9.89062 6.57127 9.89062 7.73437C9.89062 8.89748 10.8369 9.84375 12 9.84375C12.5398 9.84375 13.0327 9.6397 13.4062 9.30497C13.7797 9.63975 14.2726 9.84375 14.8125 9.84375C15.9756 9.84375 16.9219 8.89748 16.9219 7.73437C16.9219 5.02045 14.7139 2.8125 12 2.8125ZM12.6932 7.84716C12.639 8.18133 12.3492 8.4375 12 8.4375C11.6123 8.4375 11.2969 8.12208 11.2969 7.73437C11.2969 7.34667 11.6123 7.03125 12 7.03125C12.3605 7.03125 12.6581 7.30406 12.6982 7.65398C12.6877 7.71788 12.686 7.78289 12.6932 7.84716Z" fill="black" fill-opacity="0.25"/>
<path d="M22.5468 9.23325C22.5466 9.05142 22.4734 8.86969 22.3409 8.73717L19.7344 6.13064V0.703125C19.7344 0.314812 19.4196 0 19.0312 0H4.96875C4.58044 0 4.26562 0.314812 4.26562 0.703125V6.13064L1.65909 8.73717C1.65666 8.73961 1.65459 8.74233 1.6522 8.74481C1.52044 8.88056 1.45345 9.0593 1.45317 9.23325C1.45317 9.23372 1.45312 9.23414 1.45312 9.23461V21.8906C1.45312 23.0552 2.40075 24 3.5625 24H20.4375C21.6018 24 22.5469 23.0528 22.5469 21.8906V9.23461C22.5469 9.23414 22.5468 9.23372 22.5468 9.23325ZM19.7344 8.11936L20.8494 9.23438L19.7344 10.3494V8.11936ZM5.67188 6.42211C5.67188 6.42197 5.67188 6.42178 5.67188 6.42164V1.40625H18.3281V6.42164C18.3281 6.42178 18.3281 6.42197 18.3281 6.42211V11.7556L14.5213 15.5625H9.47873L5.67188 11.7556V6.42211ZM4.26562 8.11936V10.3494L3.15061 9.23438L4.26562 8.11936ZM2.85938 21.5994V10.9319L8.19314 16.2656L2.85938 21.5994ZM3.85378 22.5938L9.47873 16.9688H14.5213L20.1462 22.5938H3.85378ZM21.1406 21.5994L15.8069 16.2656L21.1406 10.9319V21.5994Z" fill="black" fill-opacity="0.25"/>
</svg>
