<svg width="540" height="110" viewBox="0 0 540 110" fill="none" xmlns="http://www.w3.org/2000/svg">
<path d="M77.979 31.9678L10.0077 71.1707C3.81534 74.7422 0 81.3472 0 88.4957V90C0 101.046 8.95429 110 20 110H520C531.046 110 540 101.046 540 90V71.3592C540 64.14 536.109 57.4811 529.82 53.9363L451.079 9.55328C446.37 6.89878 440.786 6.26382 435.601 7.79307L335.753 37.2409C330.946 38.6584 325.783 38.2201 321.285 36.0127L253.436 2.72022C247.427 -0.228333 240.341 0.0245752 234.558 3.39404L148.97 53.2573C142.252 57.1714 133.874 56.837 127.489 52.3998L99.3847 32.8691C93.0256 28.45 84.687 28.0989 77.979 31.9678Z" fill="url(#paint0_linear)" fill-opacity="0.5"/>
<defs>
<linearGradient id="paint0_linear" x1="270" y1="53.7533" x2="270" y2="110" gradientUnits="userSpaceOnUse">
<stop stop-color="#F5F5F5"/>
<stop offset="1" stop-color="white" stop-opacity="0"/>
</linearGradient>
</defs>
</svg>
