<svg width="120" height="92" viewBox="0 0 120 92" fill="none" xmlns="http://www.w3.org/2000/svg">
<path d="M100.627 0.182496C100.39 0.330474 99.8587 0.448857 99.4157 0.448857C98.5592 0.448857 98.323 0.863197 98.9727 1.15915C99.2385 1.30713 99.2385 1.36632 98.9432 1.5143C98.766 1.60309 98.6479 1.78066 98.7364 1.92864C98.9432 2.25419 96.8168 1.75107 96.4329 1.36632C96.049 0.98158 94.9267 0.922388 95.163 1.27754C95.2516 1.42552 94.8972 1.45511 94.3656 1.39592C93.4501 1.27754 93.4501 1.27754 94.0112 1.75107L94.6019 2.195L94.0112 2.2246C93.5092 2.2246 93.5387 2.31339 94.3065 2.96449C95.0449 3.55641 95.1039 3.67479 94.6314 3.70438C94.2179 3.70438 94.1293 3.85236 94.2475 4.32589C94.3361 4.65145 94.3065 4.88821 94.2179 4.82902C92.4165 3.91155 90.4082 3.11247 89.9652 3.11247C89.4927 3.11247 89.4632 3.20126 89.788 3.76358C89.9948 4.14832 90.1129 4.53306 90.0834 4.65145C90.0538 4.79943 90.172 4.88821 90.3787 4.88821C90.5559 4.88821 90.6445 4.9474 90.5559 5.03619C90.4673 5.12498 89.9357 4.977 89.3155 4.74023C88.3409 4.32589 88.2228 4.32589 88.0751 4.74023C87.7798 5.45053 87.4254 5.27296 87.3073 4.35549C87.2187 3.49721 87.2482 3.49721 84.6493 3.88196C83.852 4.00034 83.2318 4.14832 83.2318 4.20751C83.2318 4.2963 83.5271 4.62185 83.911 4.9474L84.5607 5.53932L83.7634 5.06579C83.3204 4.79943 82.6116 4.59226 82.2277 4.59226C81.5484 4.59226 81.4893 4.68104 81.6665 5.53932C81.8437 6.368 81.7847 6.45678 81.2235 6.30881C80.8692 6.19042 80.5738 6.24961 80.5738 6.368C80.5738 6.51598 80.3376 6.60476 80.0718 6.60476C79.7764 6.57517 78.9495 6.93032 78.2407 7.34466C77.089 7.99576 77.0299 8.11414 77.5024 8.38051C77.8273 8.55808 78.4475 8.61727 78.92 8.52848L79.7764 8.35091L79.1267 9.26838C78.6837 9.91948 78.2112 10.2154 77.6796 10.2154C77.2662 10.2154 76.3802 10.393 75.7009 10.6298C75.0512 10.8665 74.1357 11.1329 73.6927 11.2513C73.2202 11.3401 72.8953 11.5768 72.9544 11.7544C73.1611 12.3167 75.3465 12.9382 76.6755 12.7903C77.3548 12.7015 78.0045 12.7607 78.0635 12.8791C78.1521 13.027 77.3548 13.2342 76.2916 13.323C75.2284 13.4414 74.372 13.6485 74.372 13.7965C74.372 13.9445 74.6082 14.0333 74.9035 14.0037C75.1693 13.9741 75.7305 14.0037 76.1439 14.0333L76.8822 14.0925L76.1439 14.418L75.4056 14.714L76.1439 14.9508C76.7641 15.1283 79.0381 15.1283 79.3335 14.9212C79.5106 14.8028 80.5443 14.862 81.7847 15.0691C83.4976 15.3355 85.0628 16.5785 85.9488 18.4726C86.3327 19.2125 86.7462 19.9228 86.9234 20.0412C87.1301 20.1892 87.1006 20.3668 86.8938 20.4851C86.5394 20.7515 86.5394 21.9057 86.8938 22.2609C87.012 22.4089 87.3073 22.2313 87.5435 21.9057C87.9865 21.3434 88.0161 21.3434 88.9906 22.4977C89.5518 23.1192 89.9652 23.6815 89.9062 23.7407C89.8766 23.7999 89.4041 23.6815 88.9021 23.5039C88.4 23.3263 87.7503 23.2375 87.4549 23.2967C87.071 23.3855 87.2482 23.5631 88.0751 23.9182C88.6953 24.1846 89.4632 24.4214 89.7585 24.4214C90.3787 24.4214 90.4968 24.8653 89.9948 25.1613C89.8176 25.2796 89.7585 25.546 89.8471 25.7828C89.9357 26.0195 89.8176 26.1971 89.5518 26.1971C89.0202 26.1971 88.1342 27.0258 87.8684 27.7361C87.7503 28.0912 87.8389 28.2688 88.1047 28.2688C88.4886 28.2688 88.4886 28.3576 88.1933 28.8903C87.8684 29.3935 87.8979 29.5414 88.3705 29.8078C88.8135 30.0446 88.843 30.1629 88.5181 30.3701C88.2228 30.5477 88.2228 30.6365 88.4591 30.6365C88.6658 30.6365 88.9021 31.11 89.0202 31.6723C89.1974 32.6786 89.2564 32.7082 89.729 32.2642C90.4673 31.5835 90.7331 32.1754 90.0243 32.9449C89.3155 33.6848 89.286 34.0104 89.8766 34.4839C90.1129 34.6911 90.3196 35.0462 90.3196 35.283C90.3196 35.5198 90.7331 36.3484 91.2647 37.1475C92.0621 38.361 92.3279 38.5681 92.889 38.4497C93.391 38.3018 93.7749 38.4793 94.3065 39.0416C95.0449 39.8407 96.0785 40.1071 95.8422 39.4264C95.7832 39.2488 95.9604 38.6569 96.2557 38.1538C96.5215 37.6507 96.6987 36.9108 96.6101 36.4964C96.4624 35.7861 97.1417 34.3359 97.8505 33.8032C98.0277 33.6552 97.9391 33.4185 97.5847 33.1521C97.2598 32.9153 97.1712 32.7082 97.3484 32.7082C97.5551 32.7082 97.7028 32.3826 97.7028 31.9683C97.7028 31.5539 97.8505 31.2284 97.9981 31.2284C98.1753 31.2284 98.2935 31.0508 98.2935 30.814C98.2935 30.5773 98.5888 30.3405 98.9727 30.2813C99.3862 30.2221 99.652 29.9558 99.711 29.5118C99.7701 29.1567 99.9473 28.8607 100.124 28.8607C100.272 28.8607 100.361 29.0679 100.243 29.3047C100.124 29.6302 100.302 29.7486 100.833 29.7486C101.217 29.7486 101.631 29.5414 101.719 29.3047C101.837 29.0679 102.015 28.9495 102.162 29.0383C102.31 29.1271 102.694 28.7128 103.048 28.1504C103.403 27.5585 103.875 27.085 104.111 27.085C104.348 27.085 104.495 26.9074 104.407 26.7002C104.318 26.4339 104.761 26.3451 106.12 26.3451C107.596 26.3155 108.305 26.1379 109.929 25.3092C111.052 24.7469 111.967 24.2142 112.026 24.1254C112.085 24.007 111.672 23.9182 111.081 23.8887C110.49 23.8295 109.9 23.7407 109.782 23.6519C109.664 23.5927 109.486 23.6519 109.368 23.8295C109.102 24.2438 107.862 24.1846 107.478 23.7407C107.094 23.2375 107.33 22.9416 108.157 22.9416C108.512 22.9416 108.984 22.7936 109.221 22.6456C109.575 22.4385 109.457 22.3201 108.718 22.1721C108.187 22.0833 107.596 21.7874 107.39 21.521C107.065 21.1067 107.094 21.0771 107.596 21.2842C107.921 21.4322 108.63 21.6986 109.191 21.9057C109.752 22.1129 110.402 22.5273 110.609 22.8232C110.845 23.1488 111.376 23.3855 111.879 23.3855C112.587 23.4151 112.764 23.2671 112.764 22.7936C112.764 22.1425 111.14 20.8699 110.284 20.8699C109.988 20.8699 109.87 20.7515 109.988 20.5147C110.136 20.278 109.988 20.2484 109.575 20.3372C108.807 20.5443 108.689 20.1004 109.457 19.8636C109.723 19.7748 109.604 19.7453 109.161 19.8044C108.659 19.8636 108.423 19.7749 108.512 19.5381C108.6 19.3605 108.955 19.2125 109.309 19.2125C109.664 19.2421 109.929 19.0941 109.9 18.887C109.782 18.4134 110.756 18.5318 111.406 19.0646C111.672 19.3013 112.174 19.3605 112.764 19.2421C113.739 19.035 113.975 18.5022 113.089 18.5022C112.41 18.5022 112.026 17.644 112.587 17.4368C112.824 17.348 113.296 17.4072 113.621 17.5848C114.005 17.7919 114.271 17.8215 114.389 17.6144C114.477 17.4664 114.3 17.3184 114.005 17.3184C113.68 17.3184 113.326 17.1112 113.237 16.8449C113.148 16.6081 112.883 16.4897 112.705 16.5785C112.499 16.6969 112.558 16.5785 112.853 16.3417C113.148 16.105 113.65 15.957 113.946 16.0458C114.625 16.2234 114.743 15.6019 114.093 15.3651C113.857 15.2467 113.739 15.0691 113.828 14.9212C113.916 14.7732 113.65 14.6548 113.237 14.6548C112.824 14.6548 112.469 14.5364 112.469 14.3884C112.469 14.0037 113.237 13.7669 114.418 13.7669C114.979 13.7669 115.422 13.6189 115.422 13.471C115.422 13.2934 115.098 13.175 114.714 13.175C113.975 13.175 113.296 12.5831 114.005 12.5831C114.241 12.5831 114.182 12.4351 113.857 12.2575C113.473 12.0208 113.207 12.0504 112.883 12.2871C112.676 12.4943 112.469 12.5535 112.469 12.4647C112.469 12.0208 113.355 10.5706 113.71 10.4522C113.916 10.3634 114.093 10.0675 114.093 9.74191C114.093 9.41635 114.33 9.14999 114.684 9.0908C115.009 9.03161 115.511 8.70606 115.806 8.4101C116.102 8.11414 116.486 7.84778 116.692 7.84778C116.929 7.84778 116.899 7.7294 116.633 7.58142C116.279 7.34466 116.338 7.22627 116.988 6.93032C117.431 6.72315 117.785 6.45678 117.785 6.3384C117.785 6.19042 117.962 6.16083 118.169 6.22002C118.346 6.30881 118.848 6.10164 119.262 5.77608L120 5.21377L119.114 4.85862C117.756 4.32589 116.161 4.38509 115.452 5.0066C115.039 5.36174 114.625 5.48013 114.123 5.36174C113.621 5.24336 113.148 5.39134 112.558 5.86487C110.52 7.49263 110.55 7.49263 111.022 6.66395C111.258 6.27921 111.613 5.77608 111.849 5.59851C112.469 5.12498 112.026 4.2963 111.14 4.2963C110.727 4.2963 110.402 4.41468 110.402 4.56266C110.402 4.88821 108.364 5.6281 108.128 5.36174C108.039 5.27296 108.305 5.12498 108.748 5.0066C109.161 4.91781 109.516 4.71064 109.516 4.56266C109.516 4.02994 105.381 4.38509 103.846 5.03619C103.55 5.15457 103.314 5.12498 103.314 4.9474C103.314 4.44428 104.259 4.20751 107.301 4.00034C110.52 3.76358 111.879 3.52681 112.321 3.08287C112.764 2.63894 112.056 2.195 110.786 2.13581C109.9 2.10622 109.634 1.98783 109.723 1.69188C109.87 1.36632 109.516 1.33673 108.01 1.45511L106.12 1.60309L107.744 1.21835C109.457 0.804006 109.368 0.596836 107.301 0.271283C105.293 -0.0246739 101.07 -0.113461 100.627 0.182496ZM104.436 1.63269C104.23 1.75107 103.58 1.92864 103.019 2.01743C102.133 2.195 102.044 2.16541 102.487 1.81026C102.782 1.60309 103.403 1.42552 103.905 1.42552C104.436 1.42552 104.673 1.5143 104.436 1.63269ZM95.6355 2.2246C95.6355 2.37258 95.3992 2.52056 95.1335 2.52056C94.6905 2.52056 94.6609 2.46136 95.0449 2.2246C95.606 1.86945 95.6355 1.86945 95.6355 2.2246ZM97.2303 2.40217C97.4961 2.49096 97.7028 2.72773 97.7028 2.8757C97.7028 3.05328 97.4961 3.02368 97.2303 2.78692C96.8759 2.49096 96.7282 2.49096 96.551 2.78692C96.3738 3.08287 96.2557 3.05328 96.1376 2.69813C95.9308 2.195 96.4034 2.07662 97.2303 2.40217ZM115.895 7.16708C115.6 7.49263 113.355 7.49263 113.532 7.19668C113.621 7.07829 114.241 6.95991 114.891 6.95991C115.57 6.95991 116.013 7.0487 115.895 7.16708ZM114.241 8.4397C114.241 8.58768 114.123 8.73565 113.946 8.73565C113.798 8.73565 113.65 8.58768 113.65 8.4397C113.65 8.26212 113.798 8.14374 113.946 8.14374C114.123 8.14374 114.241 8.26212 114.241 8.4397ZM89.9357 26.6706C89.8471 26.7594 89.5813 26.789 89.3746 26.7002C89.1383 26.6115 89.2269 26.5227 89.5518 26.5227C89.8766 26.4931 90.0538 26.5819 89.9357 26.6706ZM90.0243 27.3809C90.0243 27.5289 89.8176 27.5881 89.5813 27.4993C89.345 27.3809 89.1383 27.2626 89.1383 27.2034C89.1383 27.1442 89.345 27.085 89.5813 27.085C89.8176 27.085 90.0243 27.2034 90.0243 27.3809Z" fill="#AAAAAA"/>
<path d="M73.9585 1.57349C73.8699 1.72147 73.4564 1.78066 73.043 1.69188C72.216 1.5439 72.0093 2.04702 72.7772 2.34298C73.043 2.46136 73.1906 2.60934 73.102 2.69813C73.0134 2.81651 72.5114 2.57975 72.0389 2.2246C71.4187 1.81026 70.7985 1.63268 70.1783 1.69188L69.2037 1.81026L70.0306 2.16541C70.4736 2.34298 70.828 2.63894 70.828 2.81651C70.828 3.26045 70.4736 3.17166 69.6467 2.52056C68.8493 1.89905 67.1069 1.69188 67.4613 2.25419C67.5794 2.49096 67.4317 2.52056 66.9592 2.37258C66.3095 2.16541 66.28 2.16541 66.6934 2.66853C67.1069 3.17166 67.0774 3.17166 66.4867 2.8757C65.6598 2.43177 65.6598 2.43177 65.6007 3.11247C65.5712 3.49721 65.7188 3.70438 66.1028 3.70438C66.3981 3.70438 66.7525 3.85236 66.8706 4.05953C67.0183 4.2963 66.8706 4.32589 66.3686 4.17792C65.9846 4.05953 65.4531 3.94115 65.2168 3.91155C64.9805 3.88196 64.4785 3.67479 64.0946 3.46762C63.5334 3.14207 63.3562 3.17166 62.9723 3.55641C62.5588 3.94115 62.5884 4.00034 63.12 4.00034C63.4744 4.00034 63.7402 4.11872 63.7402 4.2963C63.7402 4.68104 63.3858 4.68104 62.4112 4.2963C61.8501 4.08913 61.2594 4.11872 60.1372 4.50347C58.6901 4.977 58.6605 4.977 59.3398 5.36174C59.7237 5.59851 60.462 5.6873 60.9346 5.6281L61.8205 5.48013L60.9346 5.89447C60.3734 6.16083 60.2258 6.3384 60.5506 6.3384C60.8755 6.368 60.9936 6.51597 60.905 6.78234C60.6983 7.31506 62.3226 7.55182 63.0018 7.07829C63.3267 6.81193 63.3858 6.69355 63.12 6.60476C62.8542 6.51598 62.8837 6.42719 63.2086 6.30881C63.7106 6.10164 63.7697 6.51598 63.3562 7.16708C63.179 7.46304 63.622 7.52223 65.1873 7.43344C66.9888 7.34466 67.4022 7.22627 68.0519 6.54557C69.0265 5.56891 69.5286 5.53932 68.8789 6.48638C68.4654 7.16708 67.4317 7.67021 65.9846 7.90697C65.5416 7.96617 65.6598 8.14374 66.5753 8.79484C67.1955 9.26838 67.5499 9.62352 67.3431 9.62352C67.1364 9.62352 66.5162 9.29797 65.9846 8.88363C64.9215 8.08455 62.7951 7.81819 62.9428 8.49889C62.9723 8.70606 63.2086 8.97242 63.4448 9.0908C63.7697 9.23878 63.7106 9.29797 63.2381 9.29797C62.7656 9.32757 62.5293 9.1204 62.3817 8.58768C62.2931 8.17334 61.9977 7.84778 61.7615 7.84778C61.5252 7.84778 61.4366 7.96617 61.5252 8.14374C61.6138 8.29172 61.5547 8.4397 61.3775 8.4397C61.2003 8.4397 60.9936 8.23253 60.905 7.99576C60.7869 7.759 60.5802 7.55183 60.3734 7.55183C60.1962 7.55183 59.6942 7.13749 59.2512 6.66395C58.7196 6.04244 58.2175 5.77608 57.6269 5.80568C56.9181 5.80568 56.8886 5.86487 57.3906 6.04244C57.9517 6.27921 57.9517 6.27921 57.302 6.48638C56.7114 6.69355 56.6818 6.78234 57.0067 7.16708C57.3316 7.58142 57.302 7.61102 56.7704 7.43344C56.3274 7.31506 56.0912 7.37425 55.9731 7.67021C55.8549 7.96617 56.0321 8.14374 56.4456 8.23253C56.9772 8.35091 56.9476 8.3805 56.2684 8.4101C55.5301 8.4397 55.5005 8.49889 55.8254 9.03161C56.1207 9.47555 56.5342 9.62352 57.5383 9.65312C58.6015 9.68272 58.7196 9.71231 58.1289 9.88989C56.9772 10.245 57.5088 11.4585 58.9559 11.8432C59.517 11.9912 59.8418 11.9024 60.1076 11.5176C60.3144 11.2217 60.4916 11.1625 60.4916 11.3401C60.4916 11.8432 61.3775 11.784 61.5547 11.2513C61.6433 11.0145 62.1749 10.7482 62.736 10.6298C63.3267 10.5114 63.7992 10.245 63.8878 9.88989C64.0355 9.44595 64.1536 9.41636 64.4785 9.71231C64.7443 9.97867 64.7738 10.1267 64.508 10.2746C64.3308 10.4226 64.3013 10.5114 64.4785 10.541C64.6557 10.5706 64.2422 10.689 63.5925 10.7778C62.8542 10.8961 62.4112 11.1033 62.4112 11.3697C62.4112 11.8728 63.4448 12.08 63.9469 11.636C64.4194 11.2513 64.4489 11.7544 63.9764 12.2279C63.3858 12.8199 64.5671 12.9974 65.4531 12.4351L66.2504 11.9024L65.6893 12.5239C65.0396 13.2638 64.0946 13.3526 63.2676 12.7311C62.6179 12.2279 61.3775 12.1392 61.3775 12.5831C61.3775 12.7607 61.6729 12.9974 62.0273 13.1454C62.6179 13.3526 62.5588 13.4118 61.5843 13.5893C60.4325 13.7965 60.1372 14.2109 61.0232 14.418C61.2889 14.5068 62.7951 14.5068 64.3308 14.4772C65.8665 14.418 67.1955 14.5068 67.2841 14.6548C67.4022 14.8324 67.8452 14.8028 68.4063 14.5956C69.3809 14.2109 69.6762 13.7669 68.9084 13.7669C68.6721 13.7669 68.4654 13.7077 68.4654 13.6189C68.4654 13.2638 69.6762 12.2871 70.1192 12.2871C70.385 12.2871 70.8575 11.9912 71.1824 11.6064L71.7731 10.9553L70.6508 10.6298C69.5286 10.3042 69.5286 10.3042 70.1783 9.94908C70.5622 9.74191 70.9461 9.65312 71.0643 9.74191C71.1529 9.83069 71.0347 9.91948 70.7985 9.91948C70.4736 9.91948 70.4736 9.97867 70.828 10.2154C71.4777 10.6298 71.714 10.5706 71.5368 10.0675C71.4187 9.7715 71.5368 9.62352 71.9798 9.62352C72.3342 9.62352 72.6 9.47555 72.6 9.32757C72.6 9.14999 72.8953 9.0908 73.2792 9.17959C73.7813 9.32757 74.1061 9.17959 74.5491 8.61727C74.8445 8.20293 75.3465 7.84778 75.6123 7.84778C75.9076 7.84778 76.1439 7.7294 76.1439 7.58142C76.1439 7.43344 76.4097 7.19668 76.7346 7.10789C77.0889 6.98951 77.9159 6.57517 78.5951 6.16083C79.6878 5.53932 79.7174 5.45053 79.0086 5.56891C77.5024 5.80568 77.8863 5.24336 79.4516 4.88821C81.9618 4.35549 83.3794 3.11247 81.4893 3.11247C80.8691 3.11247 80.5443 2.9349 80.4261 2.52056C80.2785 2.04702 80.0718 1.98783 79.0086 2.10622C78.3293 2.2246 77.5319 2.40217 77.2661 2.55015C76.4983 2.96449 76.262 2.8757 76.8822 2.40217C77.3843 2.04702 77.3252 1.98783 76.262 1.81026C75.6418 1.69188 74.9035 1.5439 74.6082 1.45511C74.3424 1.36632 74.0471 1.42551 73.9585 1.57349ZM77.4138 5.39134C77.2071 5.45053 76.7936 5.45053 76.5278 5.39134C76.2325 5.30255 76.4097 5.24336 76.8822 5.24336C77.3843 5.24336 77.591 5.30255 77.4138 5.39134ZM65.3054 6.57517C65.0987 6.63436 64.7443 6.63436 64.5671 6.57517C64.3603 6.48638 64.508 6.42719 64.9215 6.42719C65.3349 6.42719 65.4826 6.48638 65.3054 6.57517ZM70.0306 6.87112C69.8239 6.93032 69.4695 6.93032 69.2923 6.87112C69.0856 6.78234 69.2332 6.72315 69.6467 6.72315C70.0602 6.72315 70.2078 6.78234 70.0306 6.87112ZM66.6934 10.6298C66.6934 10.8961 65.8074 11.0441 65.6598 10.8074C65.5417 10.6298 65.7484 10.5114 66.0732 10.5114C66.4276 10.5114 66.6934 10.5706 66.6934 10.6298ZM67.7271 13.175C68.2587 13.4118 68.2291 13.4414 67.5203 13.4414C67.0478 13.471 66.6934 13.323 66.6934 13.175C66.6934 12.8199 66.9297 12.8199 67.7271 13.175Z" fill="#AAAAAA"/>
<path d="M44.5439 14.5068C44.2486 14.862 44.2781 14.9507 44.662 14.9507C44.9573 14.9507 45.105 15.0691 45.0164 15.2171C44.8983 15.3651 45.0164 15.5723 45.1936 15.661C45.4003 15.7498 45.105 15.7498 44.5439 15.661C43.9828 15.5427 43.2444 15.3059 42.9196 15.0987C41.9155 14.4772 40.5274 14.3588 39.9368 14.8028C39.4347 15.1875 39.4347 15.2763 39.8186 15.5427C40.173 15.7794 40.114 15.8386 39.5233 15.8386C38.9031 15.8682 38.8736 15.8978 39.2575 16.1346C39.5233 16.2826 40.616 16.3713 41.6792 16.3417C42.7424 16.2826 43.5693 16.3417 43.4807 16.4897C43.3921 16.6081 43.0082 16.7265 42.6243 16.7265C42.2403 16.7265 41.8269 16.8745 41.7383 17.0224C41.3839 17.6144 42.5357 17.6735 43.8942 17.1408C44.662 16.8449 45.7843 16.5785 46.434 16.5489C47.4676 16.5193 48.0583 16.105 48.0878 15.4243C48.0878 15.3059 47.822 15.2467 47.4676 15.3355C47.0542 15.4539 46.6112 15.2763 46.1091 14.7732C45.2822 13.9445 45.0459 13.9149 44.5439 14.5068Z" fill="#AAAAAA"/>
<path d="M51.8089 14.566C52.3405 14.9508 52.311 14.9803 51.5431 14.8028C50.8934 14.6252 50.7753 14.6844 50.923 15.0691C51.1888 15.7498 50.6572 15.661 50.2142 14.9508C50.0074 14.6252 49.653 14.3588 49.4168 14.3588C49.0919 14.3588 49.1215 14.5364 49.6235 15.0987C50.1551 15.7202 50.4504 15.809 51.4545 15.6906C52.1338 15.6019 52.4882 15.6315 52.311 15.7202C51.6317 16.0162 51.8975 16.4305 52.7835 16.4305C53.8762 16.4305 54.3783 15.8386 54.0534 14.9508C53.8467 14.3884 53.5514 14.2405 52.5177 14.2109C51.3364 14.1517 51.2774 14.1813 51.8089 14.566Z" fill="#AAAAAA"/>
<path d="M34.0007 17.5552C33.5282 17.7031 33.41 17.8807 33.5872 18.1767C33.7349 18.4134 33.6758 18.887 33.4396 19.3605C33.2033 19.7749 33.0261 20.3076 33.0261 20.4851C33.0261 20.6923 32.908 20.8699 32.7308 20.8699C32.1992 20.8699 32.4355 21.4322 33.0261 21.6098C33.3805 21.7282 33.853 22.0537 34.1484 22.3201C34.5914 22.7936 34.7686 22.8232 35.625 22.4681C36.1271 22.2313 36.5701 21.8465 36.5701 21.6098C36.5701 21.373 36.7768 21.1658 37.013 21.1658C37.2493 21.1658 37.456 21.0475 37.456 20.8699C37.456 20.7219 38.1353 20.2484 38.9917 19.8044L40.5274 19.035L39.8186 18.5022C39.4052 18.2063 38.5783 17.8807 37.899 17.7919C37.2493 17.7031 36.2452 17.5848 35.6841 17.496C35.1229 17.4072 34.3551 17.4368 34.0007 17.5552Z" fill="#AAAAAA"/>
<path d="M56.1798 18.4134C55.7073 18.9166 55.6482 19.4789 56.0321 20.7515C56.2388 21.521 56.1798 21.7578 55.7368 22.0833C55.3824 22.3201 55.1757 22.8528 55.1757 23.4151C55.1757 24.2142 55.3233 24.4214 56.0616 24.6581C56.6818 24.8949 56.8886 25.1317 56.7704 25.4276C56.6818 25.694 56.7409 25.9012 56.9181 25.9012C57.5678 25.9012 57.243 26.4931 56.4751 26.6707C55.973 26.789 55.7959 26.9962 55.8844 27.2922C56.0026 27.5585 55.914 27.6769 55.7073 27.6177C55.5005 27.5289 55.3233 27.2922 55.3233 27.085C55.3233 26.4339 54.083 26.1675 53.5514 26.7002C53.1674 27.085 52.6654 27.1442 50.982 26.9962C49.8598 26.9074 48.7375 26.6706 48.5013 26.4635C48.1764 26.1971 47.9697 26.1971 47.7334 26.4339C47.5267 26.6411 47.1428 26.789 46.8179 26.789C46.3454 26.789 46.2863 26.937 46.4635 27.7361L46.6702 28.7128L45.9615 27.8545C45.2822 27.0554 45.1345 27.0258 43.8646 27.2034C43.1263 27.3218 42.0041 27.3218 41.4134 27.2034C40.3798 27.0258 40.3502 26.9962 40.9704 26.6707L41.6201 26.3155L40.8523 25.9012C40.4388 25.694 40.0549 25.5756 39.9663 25.6644C39.7301 25.9012 37.5151 25.398 36.1861 24.8061C35.182 24.3622 35.0639 24.3622 34.5618 24.8061C33.853 25.4572 33.6168 25.4276 33.6168 24.7173C33.6168 24.3918 33.4986 24.1254 33.3215 24.1254C33.1738 24.1254 33.0261 24.303 33.0261 24.5398C33.0261 25.398 32.465 25.3092 31.579 24.3622C30.8407 23.5631 30.6635 23.4743 30.6635 23.9478C30.6635 24.3622 30.4863 24.451 29.8957 24.3326C29.4822 24.2734 28.5076 24.3622 27.7693 24.599C27.0015 24.8061 25.9973 25.0725 25.5543 25.1613C24.9637 25.2796 24.757 25.4572 24.8751 25.7532C24.9932 26.1083 24.7274 26.0787 23.4871 25.6348C21.3312 24.8949 19.5001 24.5102 15.8972 24.1254C14.1843 23.9182 12.4714 23.6519 12.0579 23.5039C11.6444 23.3559 10.8471 23.208 10.2859 23.1784C9.72482 23.1488 9.19323 23.0008 9.0751 22.8824C8.92743 22.6456 7.71659 22.9712 5.91509 23.7111C5.38351 23.9478 4.76332 24.1254 4.52706 24.1254C4.2908 24.1254 3.90687 24.5102 3.64108 25.0133C3.25715 25.7236 2.99136 25.9012 2.19397 25.9012C0.865 25.9012 0.569673 26.6411 1.75098 27.0554C2.2235 27.2034 2.69603 27.5585 2.78463 27.8249C2.90276 28.0616 3.31622 28.2688 3.78874 28.2688C4.23173 28.2688 4.67472 28.4464 4.76332 28.6832C4.88145 28.9495 5.17678 29.0679 5.61977 28.9495C6.21042 28.8311 6.18089 28.8903 5.41304 29.423C4.49752 30.0742 3.25715 30.0446 2.87322 29.3935C2.60743 28.9791 1.07173 29.571 0.362944 30.3701C-0.139112 30.9324 -0.139112 30.962 0.481075 31.1396C0.835467 31.2284 1.07173 31.406 0.983131 31.5243C0.894533 31.6723 0.924065 31.9683 1.01266 32.2346C1.21939 32.797 3.49341 32.8857 4.43846 32.3826C4.85192 32.1459 5.11771 32.1459 5.35397 32.3826C5.59023 32.6194 5.59023 32.7082 5.32444 32.7082C5.05865 32.7082 5.02911 32.8266 5.32444 33.2705C5.8265 34.0696 5.23584 34.6911 3.78874 34.9278C2.81416 35.0758 2.54836 35.3126 2.01678 36.3484C1.48519 37.3547 1.42612 37.6507 1.75098 38.2426C1.95771 38.6273 2.01678 39.0121 1.92818 39.1304C1.63285 39.3968 2.60743 40.4031 3.19808 40.4031C3.46388 40.4031 3.81827 40.2551 4.025 40.0479C4.29079 39.7815 4.37939 39.8999 4.40893 40.551C4.43846 41.0542 4.43846 41.6165 4.40893 41.794C4.34986 42.2676 4.52706 42.2676 5.26537 41.8828C5.67883 41.6757 5.94463 41.7053 6.23995 42.0308C6.47622 42.2676 6.74201 42.3564 6.86014 42.2676C6.97827 42.1492 7.33266 42.0604 7.65752 42.0308C8.15958 41.9716 8.21865 42.09 8.07098 42.8299C7.86425 43.7474 5.67883 45.9966 4.97005 46.0262C4.40893 46.0558 2.01678 48.0979 2.54836 48.0979C2.75509 48.0979 3.37528 47.7724 3.90687 47.358C4.43846 46.9437 5.05865 46.6181 5.29491 46.6181C5.97416 46.6181 7.39173 45.6119 9.19323 43.8657C10.4927 42.5931 10.8766 42.0308 10.7289 41.6165C10.6108 41.2021 10.7289 40.9358 11.1719 40.699C11.4968 40.5214 11.7626 40.1663 11.7626 39.9295C11.7626 39.6632 12.1465 39.0712 12.619 38.5977C13.505 37.7394 14.1252 37.5027 14.1252 38.0354C14.1252 38.1834 13.948 38.3314 13.7117 38.3314C13.1211 38.3314 12.7372 38.9233 12.5304 40.1663C12.3237 41.4389 12.5304 41.5277 13.6231 40.699C14.0366 40.3735 14.5091 40.1071 14.6863 40.1071C14.8635 40.1071 15.0112 39.7815 15.0112 39.3968C15.0112 38.4793 15.2474 38.3314 16.1334 38.6569L16.8127 38.9233L15.9858 39.6632C15.5428 40.0479 15.3065 40.4031 15.4542 40.4031C15.6314 40.4031 15.9858 40.1367 16.2811 39.8111C16.8422 39.1304 17.9644 39.0121 17.9644 39.6336C17.9644 39.8999 18.5256 40.0775 19.7069 40.1959C21.4493 40.3439 21.8628 40.551 23.0441 41.794C23.6643 42.4748 24.6684 42.7707 24.314 42.1788C24.0187 41.7053 25.3181 42.0012 25.9383 42.5635C26.2631 42.8299 26.5289 43.3034 26.5289 43.629C26.5289 43.9249 26.7357 44.3393 26.9719 44.5465C27.2082 44.7536 27.4149 45.0792 27.4149 45.2863C27.4149 45.5231 27.7398 46.0558 28.0942 46.5294C28.4781 46.9733 28.8915 47.7132 29.0097 48.1571C29.0983 48.6307 29.3936 48.9858 29.6594 48.9858C29.9843 48.9858 30.0433 49.1634 29.9252 49.5777C29.7775 49.9921 29.8661 50.1696 30.2205 50.1696C30.4863 50.1696 30.7521 50.5248 30.8702 51.0871C30.9588 51.6494 31.2837 52.0934 31.6086 52.1525C31.9039 52.2413 32.1401 52.4189 32.1401 52.5669C32.1401 52.7149 32.3173 52.8332 32.5241 52.8332C33.0261 52.8332 35.0934 54.6682 35.0934 55.1121C35.0934 55.3489 34.7095 55.4969 34.1779 55.4969C33.4101 55.4969 33.2919 55.5856 33.4986 56C33.6463 56.2959 33.7644 58.338 33.7644 60.5577C33.794 64.4644 33.8235 64.6419 34.5618 65.6186C35.0048 66.2105 35.4478 67.0096 35.5364 67.4239C35.6545 67.8383 35.9203 68.3414 36.1566 68.5486C36.3929 68.7261 36.5701 69.0517 36.5701 69.2293C36.5701 69.4068 37.0721 69.7916 37.7218 70.0579C38.4897 70.4131 38.9622 70.857 39.228 71.5377C39.4347 72.0704 40.0549 73.0767 40.616 73.7574C41.6497 75.0596 41.7973 75.5036 41.2362 75.6811C41.059 75.7403 41.3839 76.0955 41.9745 76.4506C42.5947 76.8058 43.0673 77.2497 43.0673 77.4569C43.0968 77.9304 44.8097 79.8837 45.0459 79.6469C45.2527 79.4398 43.0968 75.7995 41.6792 74.0534C40.9409 73.1359 40.7637 72.1 41.3839 72.1888C42.0631 72.2776 42.4766 72.692 42.4766 73.3135C42.4766 73.639 43.1263 74.5565 43.9237 75.3556C44.7211 76.1251 45.2822 76.8354 45.1936 76.9241C45.1345 77.0129 45.4594 77.3977 45.9319 77.812C47.2609 78.9367 48.4717 80.8308 48.265 81.4523C48.0583 82.133 48.9147 82.8137 51.6908 84.1751C53.9944 85.2701 55.5891 85.6253 56.1798 85.1222C56.5046 84.8262 56.8 84.9446 57.6269 85.6845C58.188 86.158 59.3693 86.7795 60.2258 87.0755C61.8205 87.549 63.4448 88.7328 63.4448 89.4135C63.4448 89.5911 63.6811 89.8279 63.9764 89.9463C64.2422 90.035 65.1282 90.5974 65.896 91.1597C67.2545 92.1659 67.3431 92.1955 67.4908 91.6332C67.668 90.9229 68.6131 90.8045 68.8788 91.4556C69.0265 91.8996 69.942 92.1067 69.942 91.6628C69.942 91.5444 69.5876 91.1893 69.1446 90.8933C68.4949 90.4198 68.2291 90.3902 67.5203 90.6565C66.782 90.9229 66.6048 90.8637 65.9551 90.183C65.5416 89.7391 65.1873 89.1176 65.1873 88.792C65.1577 88.4665 65.1282 87.6082 65.0987 86.8683L65.0691 85.5365L63.4448 85.4477C61.0231 85.3293 61.0527 85.3885 61.8501 83.1096C62.736 80.6236 62.736 80.6532 61.791 80.6532C60.7573 80.6532 59.9009 81.1563 59.9009 81.8074C59.9009 82.6361 58.9263 83.3168 57.7155 83.3168C56.2093 83.3168 55.5891 82.9025 54.8508 81.4819C54.3192 80.4164 54.2602 79.9725 54.4373 78.1968C54.6736 75.7699 55.0871 75.0004 56.5932 74.3197C57.6269 73.8462 58.2766 73.8166 59.3988 74.2309C60.6687 74.7341 60.7869 74.7045 60.7869 74.1422C60.7869 73.8166 60.9641 73.5502 61.1708 73.5206C61.348 73.5206 61.9091 73.4614 62.4112 73.4023C62.8837 73.3431 63.4448 73.4319 63.6516 73.6094C63.8583 73.7574 64.2127 73.8462 64.4489 73.7574C65.0101 73.5206 65.6893 74.3789 65.896 75.5331C66.1028 76.569 66.9002 77.9896 67.2841 77.9896C67.7861 77.9896 67.7566 76.421 67.225 74.8524C66.9297 73.9646 66.7525 72.9583 66.8411 72.6328C67.0478 72.0113 67.1364 71.8929 69.2628 70.0579L70.7394 68.7557L70.385 67.0096C70.1783 66.0329 70.1192 65.2042 70.2374 65.1155C70.3555 65.0267 70.5327 65.3818 70.6508 65.8849C70.828 66.7728 71.4187 66.832 71.4187 65.9441C71.4187 65.7074 71.6845 65.1155 72.0388 64.6419C72.3637 64.1684 72.5409 63.7837 72.4228 63.7837C72.0684 63.7837 72.8658 63.0438 73.2792 63.0142C73.4859 63.0142 73.9289 62.955 74.3129 62.955C74.8445 62.8958 74.9626 62.7774 74.8149 62.3335C74.5196 61.3272 75.2874 60.4097 77.2366 59.4331C79.363 58.3676 80.1308 58.3972 78.8609 59.4923C78.2702 60.025 78.1521 60.2914 78.3884 60.5281C78.6542 60.7945 78.8609 60.7353 79.2744 60.2914C79.5992 59.9658 80.2785 59.6107 80.8101 59.4923C81.9028 59.2555 82.1095 58.4564 81.0759 58.4564C80.2489 58.4564 78.9495 57.1838 79.1858 56.5623C79.3039 56.2959 79.0972 56.0592 78.5656 55.9112L77.7682 55.704L78.6246 55.5265C79.5992 55.3193 79.9831 54.6978 79.2744 54.4314C78.4474 54.1059 77.3252 54.5794 75.9667 55.852C75.2579 56.5031 74.6673 56.9471 74.6673 56.8583C74.6673 56.4735 76.5869 54.313 76.9117 54.313C77.0889 54.313 77.4729 54.0763 77.7387 53.7507C78.1521 53.3068 78.7132 53.1884 80.7805 53.1588C83.0841 53.0996 83.3499 53.0404 83.8815 52.3893C84.2063 51.975 84.6789 51.6494 84.9742 51.6494C85.2695 51.6494 85.7125 51.4127 85.9488 51.1167C86.5099 50.436 86.2146 48.8082 85.5058 48.8674C85.24 48.897 85.0037 48.7194 85.0037 48.4827C85.0037 48.1275 84.797 48.1571 83.9405 48.6603C83.3499 49.0154 82.7888 49.2522 82.7297 49.1634C82.6411 49.1042 83.1431 48.749 83.8519 48.3643C85.0332 47.7724 85.0923 47.7132 84.5607 47.3284C84.2654 47.0917 83.7633 46.9141 83.468 46.9141C83.1727 46.9141 82.9364 46.7957 82.9364 46.6181C82.9364 46.4702 82.6706 46.0854 82.3162 45.7895C81.9914 45.4639 81.7551 45.02 81.7846 44.8128C81.8437 44.576 81.5484 43.6586 81.1349 42.7707C80.7215 41.8828 80.1899 40.699 79.9536 40.1663C79.7174 39.6632 79.4516 39.2192 79.363 39.2192C79.2448 39.2192 79.0086 39.8407 78.8314 40.5806C78.6246 41.3501 78.3884 41.8828 78.2998 41.7645C78.1817 41.6757 77.8568 41.794 77.5615 42.09C77.0594 42.5339 77.0003 42.5339 76.6164 42.0308C76.3802 41.6757 76.0553 41.5573 75.7009 41.7053C75.2579 41.8532 75.2284 41.8236 75.5532 41.4389C75.76 41.2021 75.7895 40.995 75.6418 40.995C75.317 40.995 75.3465 40.0183 75.7009 38.9529C75.8486 38.4201 75.7304 38.3018 74.9921 38.1538C74.4901 38.0354 74.0766 37.7986 74.0766 37.5619C74.0766 37.3547 73.7222 36.9108 73.2792 36.5852C72.6886 36.1117 72.2751 35.9933 71.5073 36.1413C70.9166 36.2597 70.3555 36.2005 70.0897 35.9637C69.2332 35.2534 68.6131 36.5852 69.4104 37.3843C69.7058 37.6802 69.7058 37.7986 69.4104 38.0058C69.1446 38.1538 69.1151 38.4497 69.3809 39.1304C69.6172 39.8999 69.5876 40.1959 69.2037 40.8174C68.7312 41.5573 68.7312 41.6165 69.4695 42.5043C70.5031 43.7178 70.5031 45.3455 69.499 46.4406C69.1151 46.8549 68.6426 47.2101 68.4654 47.2101C68.1405 47.2101 68.3473 49.3705 68.7902 50.1696C69.056 50.7615 68.5835 51.6494 67.9633 51.6494C67.3431 51.6494 66.2504 50.1992 66.2209 49.2818C66.1618 46.6181 66.1618 46.6181 65.1282 46.6181C64.5966 46.6181 63.8878 46.411 63.563 46.1742C63.2676 45.9375 62.7656 45.7303 62.4998 45.7303C62.2044 45.7303 61.9682 45.6119 61.9682 45.4639C61.9682 44.9608 59.9895 43.9545 59.0444 43.9545C58.5424 43.9545 58.1585 43.8657 58.188 43.7178C58.3357 43.2146 57.5383 41.5869 57.1544 41.5869C56.1798 41.5869 56.2979 39.308 57.3611 37.3251C57.7155 36.7036 58.0994 35.9341 58.2766 35.6381C58.4243 35.3126 58.8082 35.0758 59.133 35.0758C59.517 35.0758 59.6351 34.9278 59.517 34.4839C59.3988 34.0104 59.5465 33.8624 60.3734 33.7144C62.0273 33.4185 62.9132 31.406 61.5252 31.0508C61.1413 30.962 60.6688 30.6957 60.462 30.4589C60.019 29.9262 60.3144 29.9262 61.348 30.4885C62.1454 30.8732 62.234 30.8732 62.8837 30.1629C63.4153 29.571 63.5039 29.3639 63.179 29.1863C62.9428 29.0087 62.9132 28.8607 63.0904 28.7423C63.2676 28.6536 63.4744 28.6832 63.5925 28.8607C63.6811 29.0087 64.0355 29.1567 64.3899 29.1567C64.8919 29.1567 64.9215 29.0975 64.6261 28.7128C64.3899 28.4464 64.3603 28.2688 64.5671 28.2688C64.7443 28.2688 64.9805 28.3872 65.0691 28.5648C65.3349 29.0087 65.7484 28.9199 66.4276 28.2392C67.0183 27.6473 67.0183 27.5881 66.5162 27.0554C66.2209 26.7298 66.1618 26.4931 66.339 26.4931C66.5458 26.4931 66.6934 26.2267 66.6934 25.9012C66.6934 25.5756 66.5753 25.3092 66.4276 25.3092C66.28 25.3092 66.1028 24.9837 66.0437 24.5694C65.9256 24.0958 66.0142 23.9182 66.2209 24.0366C66.6934 24.3326 68.7607 24.3918 68.7607 24.1254C68.7607 23.9774 68.5835 23.7999 68.4063 23.7407C68.1405 23.6223 68.1701 23.5631 68.4654 23.5631C69.1446 23.5335 69.6762 23.9774 69.7353 24.6285C69.7648 25.0429 69.9125 25.1909 70.2964 25.0725C70.8871 24.9245 71.0347 25.4572 70.4736 25.7236C70.2669 25.8124 70.4441 25.842 70.9166 25.7532C71.3596 25.6644 71.714 25.7236 71.714 25.8716C71.714 26.0195 71.9798 26.2563 72.3046 26.3451C72.6295 26.4339 73.043 26.8186 73.2202 27.1442C73.4859 27.6473 73.3973 27.8841 72.6295 28.6832C71.9207 29.423 71.8026 29.719 72.0684 29.9854C72.5704 30.4885 71.4777 31.2876 70.5031 31.11C69.6467 30.962 69.056 31.3764 69.056 32.1459C69.056 32.7674 70.0897 33.1817 70.6213 32.797C71.3301 32.2346 72.3932 32.4418 73.1611 33.2705C73.6041 33.744 73.8994 34.2471 73.8403 34.4247C73.8108 34.5727 74.1652 34.8983 74.6673 35.1054C75.1398 35.3422 75.5532 35.6677 75.5532 35.8749C75.5532 36.2893 77.8273 37.0587 78.1226 36.7332C78.2407 36.6444 77.8273 36.0525 77.2366 35.431C76.646 34.8095 76.1439 34.1584 76.1439 33.9512C76.1439 33.5073 78.093 34.6615 78.5065 35.3422C78.7428 35.7565 78.8314 35.7565 79.0676 35.3718C79.2153 35.135 79.3039 34.8687 79.2153 34.7503C79.1562 34.6319 79.2153 34.4543 79.3925 34.3359C79.7173 34.1288 78.6542 31.8203 78.2407 31.8203C78.093 31.8203 77.6205 31.3172 77.148 30.7253C76.5574 29.9262 76.4688 29.6894 76.8527 29.8374C77.2661 29.9854 77.3252 29.9262 77.1775 29.4822C76.9413 28.7423 77.4433 28.4464 77.9159 29.0087C78.1226 29.2455 78.477 29.4526 78.7132 29.4526C79.0086 29.4526 79.0972 29.6302 78.979 29.9558C78.8609 30.2517 79.0381 30.6957 79.422 31.11C80.1603 31.9091 80.6033 31.8203 80.3671 30.9324C80.2489 30.5181 80.3375 30.3405 80.6033 30.3997C80.8101 30.4589 81.0463 30.2221 81.1054 29.8966C81.1645 29.571 81.3712 29.2159 81.5484 29.1271C82.0504 28.8015 81.5484 28.0616 80.6624 27.8545C80.2194 27.7361 79.5992 27.4105 79.3334 27.1738C79.0381 26.937 78.6246 26.789 78.3884 26.8778C78.1521 26.9666 77.7977 26.8482 77.6205 26.6115C77.4138 26.3747 77.0889 26.1971 76.8527 26.1971C76.646 26.1971 76.3802 26.0491 76.262 25.842C76.1439 25.6644 76.1734 25.5756 76.3211 25.694C76.4688 25.7828 76.8527 25.6644 77.1775 25.4276C77.4729 25.1909 77.591 25.0133 77.3843 25.0133C77.2071 25.0133 77.1185 24.8061 77.2366 24.5398C77.3843 24.1254 77.2957 24.0662 76.646 24.2438C75.8486 24.4214 75.4942 24.007 76.2325 23.7407C76.4688 23.6519 76.4097 23.5335 76.0258 23.3855C75.7304 23.2375 75.2579 23.2671 74.9921 23.4447C74.6377 23.6519 74.4015 23.6223 74.1357 23.3559C73.9289 23.1192 73.8994 22.9416 74.0766 22.9416C74.2243 22.9416 74.3719 22.7344 74.3719 22.4977C74.3719 22.1425 74.0766 22.0833 73.043 22.1721C71.7731 22.2905 71.714 22.2609 71.8912 21.6986C72.0093 21.2842 71.9502 21.1658 71.7435 21.2842C71.5663 21.4026 71.4187 21.2842 71.4187 21.0475C71.4187 20.6923 71.1233 20.5739 70.2078 20.5739C69.5581 20.5739 69.0856 20.6923 69.2037 20.8403C69.2923 20.9883 69.2037 21.225 69.0265 21.3434C68.8493 21.4322 68.5835 21.373 68.4654 21.1658C68.3473 20.9587 67.9929 20.8995 67.668 20.9883C67.1659 21.1658 67.0773 21.0771 67.225 20.426C67.4908 18.9166 66.1914 18.3543 64.5966 19.3013C63.622 19.8932 63.5039 20.3964 64.2717 20.8699C64.7443 21.1954 64.7443 21.1954 64.2422 21.0475C63.7697 20.8995 63.7106 20.9883 63.8878 21.8465L64.065 22.7936L63.4744 21.9057C62.7065 20.7811 62.7065 20.2188 63.4448 19.5381C64.2717 18.7982 64.1831 18.5022 63.12 18.5022C61.8796 18.5022 60.1962 20.2188 60.1962 21.4914C60.1962 22.1129 60.3439 22.3497 60.7278 22.3497C60.9936 22.3497 61.4366 22.4977 61.6729 22.6752C62.0273 22.9416 61.9977 22.9712 61.4661 22.8528C61.0822 22.764 60.7869 22.7936 60.7869 22.9416C60.7869 23.4447 61.7319 23.8887 63.1495 24.007C64.951 24.1846 66.6048 24.7469 64.951 24.6285C64.0059 24.5694 63.9174 24.6581 63.5925 25.7532C63.4153 26.4043 63.0904 26.9074 62.8837 26.8482C62.677 26.8186 62.5884 26.9074 62.677 27.0554C62.7656 27.2034 62.677 27.4697 62.4407 27.6473C61.8501 28.1208 61.1708 27.2626 61.6433 26.6707C61.9387 26.3451 61.8501 26.1675 61.3185 25.7828C60.6983 25.3388 60.6392 25.3388 60.2848 25.9899C59.9895 26.5227 59.9304 26.5523 59.9009 26.1083C59.9009 25.842 59.7828 25.6052 59.6056 25.6052C59.4579 25.6052 59.3988 25.398 59.4874 25.1613C59.6351 24.8357 59.4579 24.7173 58.8377 24.7173C58.0699 24.6877 58.0403 24.6581 58.5129 24.303C58.9854 23.9478 58.9854 23.8887 58.5424 23.5039C58.2766 23.2967 57.9517 22.8232 57.8041 22.4385C57.6564 22.0537 57.3316 21.7578 57.0658 21.7578C56.6818 21.7578 56.6523 21.669 56.9476 21.3138C57.1248 21.0771 57.2134 20.7515 57.0953 20.5739C56.9772 20.3964 57.243 20.278 57.8041 20.278C58.4243 20.278 58.8377 20.0412 59.3102 19.4197C60.019 18.4135 59.8714 18.2655 58.0108 18.1175C57.0658 18.0287 56.4751 18.1175 56.1798 18.4134ZM28.862 24.8357C28.8029 24.8949 28.2714 25.1613 27.7102 25.4276L26.6766 25.9308L27.3854 25.3092C27.7693 24.9837 28.2714 24.7173 28.5372 24.7173C28.7734 24.7173 28.9211 24.7765 28.862 24.8357Z" fill="#AAAAAA"/>
</svg>
