<svg width="20" height="18" viewBox="0 0 20 18" fill="none" xmlns="http://www.w3.org/2000/svg">
<path d="M19.9999 13.124C19.9999 11.9537 19.6495 10.8236 18.9864 9.856C18.5094 9.16002 17.8952 8.58206 17.1834 8.15257C18.0214 7.35898 18.5458 6.23731 18.5458 4.99479C18.5458 2.59554 16.5938 0.643555 14.1946 0.643555C12.7719 0.643555 11.4392 1.34716 10.6297 2.50216C10.424 2.4722 10.2139 2.45604 9.99997 2.45604C9.78606 2.45604 9.57595 2.47226 9.37025 2.50216C8.56071 1.34716 7.22803 0.643555 5.80542 0.643555C3.40617 0.643555 1.45419 2.59554 1.45419 4.99479C1.45419 6.23731 1.97851 7.35898 2.81656 8.15257C2.10474 8.58201 1.49054 9.16002 1.01363 9.85595C0.350513 10.8236 0 11.9537 0 13.124V15.5442H4.19461V17.3566H15.8054V15.5442H20V13.124H19.9999ZM14.1946 1.71748C16.0017 1.71748 17.4719 3.18767 17.4719 4.99484C17.4719 6.80201 16.0017 8.2722 14.1946 8.2722C14.1622 8.2722 14.1298 8.27172 14.0974 8.27075C14.0999 8.26388 14.1019 8.25684 14.1043 8.24997C14.1603 8.09136 14.2069 7.92845 14.2444 7.76205C14.247 7.75024 14.25 7.73854 14.2525 7.72667C14.2622 7.68178 14.2708 7.63646 14.2791 7.59104C14.283 7.56956 14.287 7.54814 14.2906 7.52661C14.2974 7.48607 14.3035 7.44537 14.3092 7.40451C14.3131 7.3761 14.3166 7.3477 14.32 7.31924C14.3243 7.28316 14.3284 7.24702 14.3318 7.21067C14.3352 7.17357 14.3378 7.13642 14.3403 7.09921C14.3422 7.06989 14.3446 7.04068 14.3459 7.0112C14.3489 6.948 14.3506 6.8847 14.3508 6.82134C14.3508 6.81667 14.3512 6.81211 14.3512 6.80738C14.3512 6.80486 14.3509 6.80233 14.3509 6.79981C14.3508 6.73511 14.349 6.67078 14.3461 6.60667C14.3452 6.58804 14.3441 6.56946 14.343 6.55088C14.3398 6.49639 14.3357 6.44215 14.3306 6.38819C14.3294 6.37595 14.3284 6.36371 14.3272 6.35152C14.1649 4.78318 13.1741 3.44078 11.7448 2.81987C12.3607 2.12792 13.2516 1.71748 14.1946 1.71748ZM8.86602 3.73218C8.87649 3.72837 8.88706 3.72477 8.89753 3.72101C8.93013 3.70936 8.96299 3.6983 8.99601 3.68761C9.02103 3.67961 9.04621 3.67188 9.07156 3.66447C9.08997 3.65905 9.10844 3.65384 9.12697 3.64868C9.16004 3.63961 9.19328 3.63075 9.22684 3.62264C9.4749 3.5624 9.7336 3.5297 9.99987 3.5297C10.2663 3.52991 10.5252 3.56267 10.7733 3.62291C10.8066 3.63097 10.8396 3.63977 10.8726 3.64879C10.8913 3.654 10.9101 3.65926 10.9288 3.66479C10.9538 3.67215 10.9787 3.67977 11.0035 3.68767C11.0369 3.69846 11.0701 3.70963 11.1031 3.72144C11.1133 3.72504 11.1234 3.72847 11.1335 3.73218C12.2296 4.13751 13.0513 5.11297 13.2373 6.29675C13.2388 6.3062 13.2402 6.31571 13.2416 6.32521C13.2475 6.36532 13.2525 6.40575 13.257 6.44629C13.2586 6.46122 13.2603 6.47609 13.2618 6.49107C13.2653 6.52806 13.2679 6.56533 13.2703 6.6027C13.2713 6.6187 13.2726 6.63465 13.2734 6.6507C13.2756 6.69843 13.2768 6.74644 13.277 6.79471C13.277 6.7989 13.2773 6.80298 13.2773 6.80716C13.2773 6.8091 13.2772 6.81108 13.2772 6.81302C13.2771 6.85973 13.2757 6.90612 13.2736 6.95235C13.273 6.9669 13.2723 6.98145 13.2715 6.99595C13.269 7.04063 13.2656 7.08508 13.2613 7.12922C13.2597 7.14629 13.2574 7.16332 13.2555 7.18034C13.2522 7.2089 13.2486 7.23741 13.2446 7.26576C13.2415 7.28783 13.2383 7.30995 13.2348 7.33191C13.2294 7.36537 13.2234 7.3986 13.2169 7.43173C13.2112 7.46121 13.2049 7.49058 13.1983 7.5199C13.1944 7.53756 13.1903 7.55523 13.1861 7.57278C13.1756 7.61633 13.1641 7.65961 13.1519 7.70272C13.147 7.71985 13.1425 7.73709 13.1373 7.75405C13.1298 7.77875 13.1218 7.80324 13.1138 7.82772C13.1073 7.84732 13.1007 7.86681 13.0939 7.88625C13.0862 7.90832 13.0786 7.93044 13.0704 7.95234C13.0565 7.98955 13.0419 8.02644 13.0267 8.06301C13.0199 8.07933 13.0127 8.09549 13.0057 8.11176C12.9924 8.14221 12.9788 8.17249 12.9646 8.20245C12.963 8.20599 12.9613 8.20954 12.9596 8.21308C12.9545 8.22371 12.9495 8.2344 12.9443 8.24503C12.9284 8.27746 12.9118 8.30952 12.8949 8.3413C12.8883 8.35365 12.8819 8.36616 12.8751 8.37846C12.8747 8.37926 12.8743 8.38002 12.8738 8.38077C12.8552 8.41459 12.8359 8.44788 12.8162 8.48096C12.8083 8.49406 12.8006 8.50722 12.7926 8.52016C12.7711 8.555 12.749 8.58947 12.7263 8.62341C12.7122 8.64451 12.6974 8.66518 12.6828 8.68596C12.6704 8.70357 12.6581 8.72124 12.6454 8.73858C12.6289 8.76103 12.6121 8.7832 12.595 8.80527C12.5834 8.82025 12.5717 8.83512 12.5599 8.84994C12.5418 8.87249 12.5236 8.89494 12.5051 8.91701C12.4935 8.9307 12.4816 8.94412 12.4699 8.9576C12.4506 8.97977 12.4313 9.002 12.4114 9.02364C12.3996 9.03647 12.3874 9.04882 12.3753 9.0615C12.343 9.09559 12.3099 9.12893 12.2762 9.16163C12.2562 9.18102 12.2363 9.20046 12.2158 9.2193C12.2016 9.23235 12.187 9.24502 12.1726 9.25785C12.1491 9.27874 12.1254 9.29941 12.1013 9.3196C12.089 9.32986 12.0767 9.34 12.0643 9.3501C12.0351 9.37383 12.0056 9.39708 11.9756 9.41985C11.9674 9.42602 11.9594 9.4323 11.9511 9.43843C11.4056 9.84398 10.7304 10.0844 9.99992 10.0844C9.26942 10.0844 8.59406 9.84392 8.04853 9.43826C8.04047 9.43225 8.03258 9.42608 8.02458 9.42001C7.99446 9.39719 7.96477 9.37378 7.9355 9.34994C7.92321 9.3399 7.91091 9.32986 7.89878 9.31966C7.87456 9.29936 7.85083 9.27858 7.8272 9.25764C7.81287 9.24486 7.79837 9.2323 7.78425 9.2193C7.76368 9.2004 7.74371 9.18091 7.72363 9.16153C7.68975 9.12872 7.65662 9.09527 7.62419 9.06107C7.61232 9.04856 7.60019 9.03637 7.58853 9.0237C7.56861 9.002 7.54934 8.97972 7.53001 8.95755C7.51825 8.94407 7.50644 8.9307 7.49489 8.91701C7.47626 8.89494 7.45811 8.87249 7.44007 8.85C7.42826 8.83518 7.4165 8.8203 7.4049 8.80527C7.38788 8.78326 7.37108 8.76108 7.35459 8.73864C7.34187 8.72124 7.32946 8.70352 7.31706 8.68585C7.30245 8.66513 7.28774 8.64451 7.27367 8.62346C7.25085 8.58937 7.22868 8.55479 7.20715 8.51983C7.19925 8.507 7.19163 8.49406 7.1839 8.48112C7.16387 8.44756 7.14427 8.41384 7.12543 8.37953C7.1185 8.36691 7.11195 8.35408 7.10513 8.34141C7.08816 8.30952 7.07157 8.27735 7.05562 8.24487C7.04993 8.23332 7.0444 8.22167 7.03887 8.21007C7.03801 8.2083 7.03721 8.20653 7.0364 8.20476C7.02153 8.1734 7.0073 8.14172 6.99339 8.10978C6.98679 8.09458 6.98008 8.07944 6.97374 8.06419C6.95817 8.02682 6.9433 7.98912 6.92907 7.95111C6.92139 7.9306 6.9143 7.90987 6.90705 7.8892C6.89959 7.86799 6.8924 7.84662 6.88536 7.8252C6.87779 7.802 6.87017 7.77881 6.86308 7.7555C6.8525 7.72066 6.84251 7.68559 6.83312 7.65032C6.82651 7.62556 6.82055 7.6006 6.81449 7.57568C6.80976 7.55608 6.8052 7.53649 6.80085 7.51678C6.79548 7.49262 6.79006 7.46851 6.78522 7.44424C6.77776 7.40644 6.77094 7.36843 6.76482 7.3302C6.76149 7.30958 6.75859 7.28891 6.75564 7.26829C6.75129 7.23774 6.74737 7.20702 6.74388 7.1762C6.74216 7.16101 6.74017 7.14581 6.73862 7.13062C6.73416 7.08535 6.73078 7.03977 6.7282 6.99402C6.72745 6.98086 6.72686 6.96771 6.72627 6.95455C6.72407 6.90564 6.72251 6.85656 6.72251 6.80716C6.72251 6.75422 6.72401 6.70166 6.72654 6.64931C6.72723 6.63508 6.72841 6.62095 6.72922 6.60678C6.73158 6.56748 6.73443 6.52828 6.73819 6.4893C6.73948 6.47571 6.74103 6.46218 6.74248 6.44865C6.7471 6.40645 6.75231 6.36446 6.75854 6.32274C6.75972 6.31463 6.7609 6.30647 6.76219 6.29836C6.94759 5.11388 7.76954 4.13778 8.86602 3.73218ZM2.52806 4.99484C2.52806 3.18772 3.99825 1.71748 5.80542 1.71748C6.74844 1.71748 7.63928 2.12797 8.2552 2.81976C6.82539 3.44089 5.83436 4.78393 5.67258 6.35292C5.67145 6.36355 5.67065 6.37423 5.66963 6.38492C5.66426 6.44081 5.66002 6.49692 5.6568 6.55335C5.65583 6.57054 5.65476 6.58766 5.65395 6.6049C5.65089 6.67207 5.6488 6.73946 5.6488 6.80733C5.6488 6.87584 5.65078 6.94419 5.654 7.01249C5.65529 7.03998 5.65755 7.0672 5.65932 7.09453C5.66195 7.13384 5.66463 7.17314 5.66829 7.21234C5.67151 7.24718 5.67548 7.28182 5.67956 7.31645C5.6831 7.34663 5.68686 7.37669 5.69105 7.40676C5.69653 7.44623 5.70243 7.48553 5.70893 7.52467C5.71285 7.54792 5.71715 7.57112 5.72139 7.59431C5.72944 7.63813 5.73766 7.68184 5.747 7.72517C5.75011 7.73945 5.75366 7.75362 5.75688 7.76785C5.79334 7.9291 5.8386 8.08696 5.89251 8.24089C5.89595 8.25083 5.89895 8.26087 5.90244 8.27075C5.87007 8.27172 5.83764 8.2722 5.80531 8.2722C3.99825 8.27214 2.52806 6.80196 2.52806 4.99484ZM5.09489 11.8408C5.08308 11.8595 5.0718 11.8784 5.0602 11.8972C5.03567 11.9368 5.01134 11.9765 4.98782 12.0166C4.97467 12.039 4.962 12.0616 4.94922 12.0841C4.92806 12.1213 4.90718 12.1587 4.88688 12.1963C4.8741 12.22 4.86154 12.2438 4.84908 12.2675C4.82954 12.305 4.81047 12.3426 4.79179 12.3804C4.78003 12.4041 4.76833 12.4278 4.75694 12.4516C4.73793 12.4914 4.71962 12.5315 4.70153 12.5717C4.6917 12.5935 4.68161 12.6152 4.67211 12.6372C4.65117 12.6853 4.63119 12.7338 4.61159 12.7824C4.60585 12.7966 4.59973 12.8107 4.59414 12.8249C4.56928 12.8881 4.5455 12.9518 4.52294 13.0157C4.51779 13.0304 4.51317 13.0452 4.50807 13.0599C4.4911 13.1091 4.47457 13.1586 4.45894 13.2083C4.4518 13.2311 4.4452 13.254 4.43832 13.2769C4.42571 13.319 4.4133 13.3611 4.40165 13.4035C4.39472 13.4288 4.38812 13.4541 4.38152 13.4794C4.37088 13.5201 4.36068 13.5609 4.35102 13.6019C4.34484 13.6278 4.33883 13.6538 4.33308 13.6797C4.32385 13.7213 4.3152 13.7629 4.30688 13.8046C4.30189 13.8297 4.29673 13.8548 4.29206 13.88C4.28363 13.9254 4.27606 13.971 4.2687 14.0167C4.26527 14.0382 4.26146 14.0596 4.25823 14.0811C4.24825 14.1482 4.23917 14.2154 4.23155 14.283C4.23144 14.2839 4.23139 14.2847 4.23133 14.2855C4.22441 14.3469 4.21845 14.4085 4.21345 14.4703H1.07387V13.124C1.07387 11.2845 2.13132 9.63317 3.78798 8.84828C4.3915 9.1655 5.07755 9.34607 5.80537 9.34607C6.01585 9.34607 6.22697 9.3305 6.43648 9.29968C6.46913 9.34623 6.50231 9.3923 6.53667 9.43751C6.54827 9.45271 6.5603 9.46753 6.57211 9.48256C6.60605 9.52595 6.64046 9.56885 6.67601 9.61089C6.69056 9.62813 6.70549 9.64499 6.72031 9.66201C6.7536 9.70024 6.78742 9.73798 6.822 9.77498C6.84015 9.79447 6.85862 9.81364 6.87709 9.83281C6.90872 9.8654 6.94077 9.89751 6.97337 9.92913C6.98561 9.941 6.99715 9.95356 7.0095 9.96532C6.96284 9.99351 6.91661 10.0224 6.87081 10.0519C6.86335 10.0567 6.85604 10.0617 6.84864 10.0665C6.80283 10.0963 6.75752 10.1267 6.71263 10.1577C6.69711 10.1684 6.68165 10.1792 6.66618 10.1901C6.62618 10.2183 6.58661 10.2469 6.54736 10.2761C6.53496 10.2853 6.52239 10.2944 6.5101 10.3037C6.46016 10.3414 6.41082 10.3799 6.36212 10.4192C6.35148 10.4278 6.34107 10.4366 6.33044 10.4453C6.29167 10.4771 6.25328 10.5093 6.21537 10.5421C6.20066 10.5548 6.18605 10.5676 6.17145 10.5804C6.13349 10.6138 6.09601 10.6478 6.05891 10.6822C6.04924 10.6912 6.03936 10.7 6.02975 10.709C5.98422 10.7519 5.93939 10.7955 5.8952 10.8399C5.8837 10.8515 5.87248 10.8632 5.8611 10.8748C5.82727 10.9094 5.79382 10.9443 5.7608 10.9797C5.7477 10.9937 5.7346 11.0078 5.7216 11.022C5.68445 11.0626 5.64783 11.1037 5.6118 11.1455C5.60616 11.152 5.60031 11.1583 5.59467 11.1649C5.5536 11.2129 5.51343 11.2618 5.47381 11.3111C5.46275 11.3248 5.45195 11.3388 5.44105 11.3527C5.41125 11.3906 5.38188 11.4288 5.353 11.4674C5.34183 11.4823 5.33061 11.4972 5.3196 11.5122C5.2818 11.5637 5.24448 11.6157 5.20824 11.6686C5.16931 11.7254 5.13162 11.7829 5.09489 11.8408ZM5.26848 16.2828V15.5443V14.9364C5.26848 14.8768 5.26961 14.8175 5.27181 14.7582C5.27251 14.7387 5.27407 14.7194 5.27503 14.7C5.27697 14.6605 5.27879 14.6209 5.28169 14.5815C5.28346 14.5576 5.28615 14.534 5.28829 14.5101C5.29141 14.4754 5.2942 14.4407 5.29807 14.4062C5.30091 14.381 5.30462 14.3559 5.30784 14.3307C5.31203 14.2979 5.31595 14.2651 5.32078 14.2324C5.3247 14.2064 5.32942 14.1807 5.33372 14.1548C5.33898 14.1233 5.34387 14.0917 5.34977 14.0604C5.35477 14.034 5.36057 14.0078 5.36599 13.9814C5.37222 13.951 5.37818 13.9205 5.385 13.8903C5.39101 13.8637 5.39788 13.8373 5.40433 13.8108C5.41158 13.7813 5.4185 13.7516 5.42629 13.7222C5.43338 13.6955 5.44121 13.6691 5.44873 13.6426C5.45689 13.6138 5.46484 13.5849 5.47354 13.5563C5.48165 13.5297 5.49056 13.5033 5.4991 13.4768C5.50822 13.4487 5.51708 13.4206 5.5267 13.3927C5.53582 13.3663 5.54565 13.3402 5.55521 13.314C5.5653 13.2864 5.57518 13.2587 5.58576 13.2314C5.59585 13.2053 5.60659 13.1796 5.61706 13.1537C5.62807 13.1267 5.63892 13.0995 5.65041 13.0727C5.66152 13.0469 5.67323 13.0214 5.68477 12.9958C5.69664 12.9694 5.7084 12.943 5.72074 12.9169C5.73283 12.8914 5.7455 12.8662 5.75801 12.8409C5.77079 12.8151 5.7834 12.7893 5.79661 12.7638C5.80966 12.7387 5.82325 12.7139 5.83672 12.689C5.85036 12.6638 5.86384 12.6386 5.87791 12.6137C5.89187 12.589 5.90636 12.5647 5.9207 12.5403C5.9352 12.5157 5.94959 12.491 5.96457 12.4666C5.97944 12.4424 5.9948 12.4186 6.0101 12.3946C6.02546 12.3706 6.04071 12.3466 6.05649 12.3229C6.07228 12.2992 6.08849 12.2758 6.10471 12.2524C6.12087 12.229 6.13698 12.2056 6.15352 12.1826C6.17016 12.1594 6.18729 12.1365 6.20442 12.1136C6.22139 12.0908 6.2383 12.0681 6.25564 12.0457C6.27315 12.0231 6.29108 12.0009 6.30901 11.9785C6.32679 11.9564 6.34461 11.9343 6.36276 11.9125C6.38107 11.8906 6.39976 11.869 6.41844 11.8474C6.43707 11.8259 6.45576 11.8043 6.47482 11.7831C6.49388 11.7618 6.51337 11.7409 6.53281 11.7199C6.55225 11.699 6.57168 11.6783 6.5915 11.6577C6.61136 11.6371 6.6316 11.6168 6.6519 11.5966C6.67214 11.5763 6.69249 11.5562 6.71311 11.5363C6.73368 11.5165 6.75456 11.4969 6.77556 11.4774C6.79661 11.4579 6.81776 11.4384 6.83918 11.4192C6.86055 11.4001 6.88214 11.3812 6.90389 11.3625C6.92568 11.3436 6.94765 11.3249 6.96982 11.3064C6.99189 11.2881 7.01417 11.27 7.03662 11.252C7.05922 11.2338 7.08199 11.2158 7.10497 11.1981C7.12768 11.1806 7.15061 11.1633 7.17364 11.1461C7.19705 11.1287 7.22062 11.1114 7.24446 11.0944C7.26777 11.0777 7.29129 11.0613 7.31496 11.0449C7.33923 11.0282 7.36361 11.0118 7.3882 10.9955C7.4121 10.9797 7.43621 10.9641 7.46042 10.9487C7.4855 10.9327 7.51073 10.917 7.53613 10.9015C7.56061 10.8866 7.58526 10.8718 7.61007 10.8573C7.63584 10.8422 7.66183 10.8274 7.68798 10.8127C7.71305 10.7986 7.73829 10.7847 7.76368 10.7711C7.79026 10.7568 7.81705 10.7428 7.84401 10.729C7.86957 10.7158 7.89523 10.7029 7.92111 10.6901C7.94146 10.6801 7.96203 10.6705 7.98259 10.6608C8.58606 10.978 9.27221 11.1585 9.99997 11.1585C10.7278 11.1585 11.4139 10.978 12.0174 10.6608C12.0378 10.6704 12.0582 10.68 12.0784 10.6899C12.1046 10.7028 12.1305 10.7159 12.1564 10.7292C12.183 10.7429 12.2095 10.7567 12.2358 10.7708C12.2615 10.7846 12.287 10.7987 12.3123 10.8129C12.3382 10.8274 12.3638 10.8421 12.3893 10.857C12.4145 10.8717 12.4394 10.8867 12.4642 10.9018C12.4893 10.9172 12.5142 10.9326 12.5389 10.9483C12.5635 10.964 12.5879 10.9798 12.6121 10.9958C12.6364 11.0119 12.6605 11.0282 12.6844 11.0447C12.7083 11.0612 12.7321 11.0777 12.7557 11.0946C12.7793 11.1115 12.8026 11.1285 12.8258 11.1458C12.8491 11.1631 12.8722 11.1806 12.8951 11.1983C12.9179 11.2159 12.9405 11.2337 12.9629 11.2517C12.9855 11.2698 13.0079 11.288 13.0301 11.3065C13.0522 11.3248 13.074 11.3435 13.0957 11.3622C13.1175 11.3811 13.1393 11.4 13.1608 11.4193C13.182 11.4384 13.203 11.4577 13.2239 11.4771C13.2451 11.4967 13.2662 11.5165 13.2869 11.5365C13.3074 11.5562 13.3275 11.5762 13.3476 11.5962C13.368 11.6166 13.3884 11.6371 13.4084 11.6578C13.428 11.6782 13.4474 11.6988 13.4667 11.7196C13.4864 11.7407 13.506 11.7618 13.5252 11.7832C13.5441 11.8043 13.5626 11.8256 13.5811 11.847C13.5999 11.8687 13.6188 11.8905 13.6372 11.9126C13.6553 11.9343 13.6729 11.9562 13.6906 11.9782C13.7087 12.0006 13.7267 12.023 13.7443 12.0458C13.7616 12.0681 13.7784 12.0907 13.7953 12.1133C13.8124 12.1363 13.8296 12.1593 13.8464 12.1826C13.8629 12.2055 13.8789 12.2288 13.895 12.2521C13.9112 12.2756 13.9276 12.2991 13.9434 12.323C13.9591 12.3465 13.9742 12.3704 13.9895 12.3942C14.0049 12.4183 14.0203 12.4424 14.0353 12.4668C14.0501 12.4909 14.0644 12.5153 14.0788 12.5397C14.0933 12.5643 14.1079 12.5889 14.1219 12.6137C14.1359 12.6385 14.1494 12.6636 14.163 12.6887C14.1765 12.7136 14.1901 12.7385 14.2032 12.7637C14.2164 12.7892 14.2289 12.815 14.2417 12.8407C14.2542 12.866 14.267 12.8913 14.279 12.9168C14.2914 12.9429 14.3031 12.9693 14.3149 12.9956C14.3265 13.0213 14.3383 13.0469 14.3494 13.0728C14.3608 13.0994 14.3715 13.1263 14.3825 13.1531C14.3931 13.1792 14.4039 13.2052 14.4141 13.2315C14.4246 13.2587 14.4344 13.2863 14.4445 13.3138C14.4541 13.34 14.4639 13.3662 14.473 13.3926C14.4827 13.4206 14.4916 13.4489 14.5007 13.4771C14.5093 13.5035 14.5181 13.5297 14.5262 13.5563C14.5349 13.5849 14.5428 13.6139 14.5511 13.6427C14.5586 13.6692 14.5664 13.6955 14.5735 13.7222C14.5813 13.7516 14.5882 13.7812 14.5955 13.8108C14.602 13.8373 14.6088 13.8637 14.6148 13.8903C14.6216 13.9205 14.6275 13.951 14.6338 13.9813C14.6392 14.0077 14.645 14.0339 14.65 14.0604C14.6559 14.0915 14.6607 14.1228 14.666 14.154C14.6703 14.1802 14.6751 14.2062 14.6791 14.2325C14.6839 14.2648 14.6878 14.2975 14.6919 14.33C14.6952 14.3554 14.699 14.3807 14.7018 14.4062C14.7057 14.4406 14.7085 14.4754 14.7116 14.5101C14.7137 14.5339 14.7164 14.5576 14.7182 14.5815C14.7212 14.6208 14.7229 14.6605 14.7249 14.7C14.7258 14.7194 14.7274 14.7387 14.7281 14.7582C14.7303 14.8174 14.7314 14.8768 14.7314 14.9364V15.5442V16.2828H5.26848ZM15.7868 14.4703C15.7762 14.3395 15.7611 14.2095 15.7419 14.0804C15.7388 14.0599 15.7352 14.0396 15.7319 14.0192C15.7244 13.9724 15.7166 13.9258 15.708 13.8793C15.7034 13.8548 15.6984 13.8304 15.6935 13.806C15.6851 13.7635 15.6763 13.7211 15.6669 13.6789C15.6612 13.6535 15.6553 13.628 15.6493 13.6027C15.6395 13.5612 15.6292 13.52 15.6184 13.4788C15.6119 13.4538 15.6054 13.4289 15.5986 13.404C15.5868 13.3611 15.5742 13.3185 15.5615 13.2759C15.5547 13.2535 15.5483 13.231 15.5412 13.2086C15.5254 13.1582 15.5086 13.108 15.4914 13.058C15.4866 13.044 15.4822 13.0299 15.4772 13.0159C15.4546 12.9518 15.4308 12.888 15.4058 12.8246C15.4004 12.811 15.3946 12.7976 15.3891 12.784C15.3693 12.7347 15.349 12.6856 15.3278 12.6369C15.3184 12.6152 15.3085 12.5938 15.2988 12.5723C15.2805 12.5317 15.2621 12.4913 15.2428 12.4511C15.2316 12.4276 15.22 12.4043 15.2085 12.3809C15.1896 12.3428 15.1704 12.3048 15.1507 12.2671C15.1383 12.2434 15.1259 12.2199 15.1132 12.1965C15.0928 12.1587 15.0719 12.1212 15.0506 12.0839C15.0378 12.0614 15.0252 12.039 15.0122 12.0167C14.9885 11.9764 14.9641 11.9365 14.9394 11.8966C14.9279 11.8781 14.9168 11.8593 14.9051 11.8409C14.8683 11.783 14.8306 11.7255 14.7916 11.6686C14.7553 11.6157 14.718 11.5637 14.6802 11.5121C14.6692 11.4972 14.6581 11.4824 14.647 11.4676C14.618 11.4288 14.5885 11.3905 14.5586 11.3524C14.5478 11.3388 14.5371 11.3249 14.5261 11.3113C14.4865 11.2618 14.4461 11.2128 14.405 11.1648C14.3996 11.1586 14.3941 11.1525 14.3887 11.1463C14.3524 11.1042 14.3154 11.0628 14.278 11.0219C14.2651 11.0078 14.2522 10.9939 14.2392 10.9799C14.206 10.9443 14.1724 10.9092 14.1383 10.8745C14.1271 10.863 14.1161 10.8515 14.1048 10.8402C14.0605 10.7957 14.0155 10.7519 13.9698 10.7089C13.9604 10.7001 13.9508 10.6915 13.9413 10.6827C13.904 10.648 13.8663 10.6139 13.8282 10.5803C13.8137 10.5676 13.7991 10.5549 13.7845 10.5422C13.7465 10.5094 13.7081 10.4771 13.6692 10.4453C13.6587 10.4367 13.6483 10.4278 13.6377 10.4192C13.589 10.3799 13.5397 10.3415 13.4898 10.3038C13.4773 10.2944 13.4647 10.2853 13.4522 10.276C13.4131 10.247 13.3737 10.2184 13.3339 10.1904C13.3182 10.1794 13.3026 10.1684 13.2869 10.1576C13.2425 10.1269 13.1976 10.0969 13.1523 10.0674C13.1444 10.0623 13.1366 10.0569 13.1287 10.0518C13.0829 10.0225 13.0368 9.99362 12.9902 9.96548C13.0023 9.95405 13.0135 9.94186 13.0254 9.93026C13.0587 9.89804 13.0914 9.86529 13.1236 9.832C13.1416 9.81342 13.1595 9.79479 13.1771 9.77589C13.2123 9.73831 13.2465 9.69997 13.2803 9.66115C13.2947 9.64466 13.3092 9.62829 13.3233 9.61153C13.3593 9.5689 13.3943 9.52536 13.4287 9.48127C13.44 9.46688 13.4516 9.45271 13.4626 9.43816C13.4972 9.39279 13.5305 9.3465 13.5633 9.29979C13.7728 9.33055 13.9839 9.34613 14.1944 9.34613C14.9222 9.34613 15.6083 9.16561 16.2118 8.84833C17.8685 9.63323 18.9259 11.2846 18.9259 13.124V14.4703H15.7868Z" fill="black" fill-opacity="0.25"/>
</svg>
