<svg width="14" height="14" viewBox="0 0 14 14" fill="none" xmlns="http://www.w3.org/2000/svg">
<g clip-path="url(#clip0)">
<path d="M6.99999 0C3.26897 0 0.860074 3.9538 2.53413 7.26002L5.10365 12.7901C5.85375 14.4045 8.14737 14.4021 8.89636 12.7901L11.4659 7.25996C13.1393 3.95506 10.7327 0 6.99999 0V0ZM10.6781 6.86838C10.6729 6.87849 10.7944 6.61736 8.09854 12.4193C7.66338 13.3558 6.33708 13.3566 5.9015 12.4193C3.21583 6.63925 3.32737 6.87899 3.32203 6.86843C1.94968 4.16868 3.89925 0.879782 6.99999 0.879782C10.099 0.879782 12.0513 4.16654 10.6781 6.86838Z" fill="black" fill-opacity="0.25"/>
<path d="M7.00001 2.55859C5.65227 2.55859 4.55579 3.65507 4.55579 5.00282C4.55579 6.35056 5.65227 7.44704 7.00001 7.44704C8.34775 7.44704 9.44423 6.35056 9.44423 5.00282C9.44423 3.65507 8.34778 2.55859 7.00001 2.55859ZM7.00001 6.56729C6.13736 6.56729 5.43557 5.8655 5.43557 5.00284C5.43557 4.14019 6.13736 3.4384 7.00001 3.4384C7.86266 3.4384 8.56445 4.14019 8.56445 5.00284C8.56445 5.8655 7.86266 6.56729 7.00001 6.56729Z" fill="black" fill-opacity="0.25"/>
</g>
<defs>
<clipPath id="clip0">
<rect width="14" height="14" fill="white"/>
</clipPath>
</defs>
</svg>
