<svg width="64" height="64" viewBox="0 0 64 64" fill="none" xmlns="http://www.w3.org/2000/svg">
<path d="M32 0C14.3271 0 0 14.3269 0 32C0 49.6731 14.3271 64 32 64C49.6729 64 64 49.6731 64 32C64 14.3269 49.6729 0 32 0ZM43.06 33.6963L27.06 43.6963C26.7362 43.8984 26.3681 44 26 44C25.6665 44 25.3325 43.917 25.0303 43.749C24.3945 43.3965 24 42.7275 24 42V22C24 21.2725 24.3945 20.6035 25.0303 20.251C25.666 19.8965 26.4434 19.918 27.06 20.3037L43.06 30.3037C43.6445 30.67 44 31.3106 44 32C44 32.6894 43.6445 33.3301 43.06 33.6963Z" fill="white"/>
</svg>
