<svg width="12" height="20" viewBox="0 0 12 20" fill="none" xmlns="http://www.w3.org/2000/svg">
<path d="M11.5559 9.2196L2.65561 0.319509C2.44976 0.113495 2.17496 -3.58416e-07 1.88196 -3.07185e-07C1.58895 -2.55955e-07 1.31416 0.113495 1.10831 0.319509L0.452864 0.974789C0.026363 1.40178 0.0263632 2.09576 0.452864 2.52209L7.92663 9.99585L0.444574 17.4779C0.238722 17.6839 0.125064 17.9586 0.125064 18.2514C0.125064 18.5446 0.238722 18.8192 0.444574 19.0254L1.10002 19.6805C1.30603 19.8865 1.58066 20 1.87367 20C2.16667 20 2.44147 19.8865 2.64732 19.6805L11.5559 10.7723C11.7622 10.5656 11.8755 10.2897 11.8749 9.99634C11.8755 9.70187 11.7622 9.4261 11.5559 9.2196Z" fill="black" fill-opacity="0.5"/>
</svg>
