<svg width="65" height="65" viewBox="0 0 65 65" fill="#2AA2D6" xmlns="http://www.w3.org/2000/svg">
<path d="M46.1599 39.9256C45.5777 39.4042 44.6833 39.4551 44.1647 40.0358C41.2171 43.3296 36.9666 45.2174 32.5 45.2174C28.0348 45.2174 23.7829 43.3296 20.8353 40.0358C20.3139 39.4551 19.4223 39.4042 18.8401 39.9256C18.2579 40.4456 18.2099 41.3386 18.7299 41.9208C22.2131 45.8123 27.2322 48.0435 32.5 48.0435C37.7692 48.0435 42.7884 45.8109 46.2701 41.9208C46.7901 41.3386 46.7407 40.4456 46.1599 39.9256Z"/>
<path d="M32.5 0C14.5798 0 0 14.5798 0 32.5C0 50.4202 14.5798 65 32.5 65C50.4202 65 65 50.4202 65 32.5C65 14.5798 50.4202 0 32.5 0ZM32.5 62.1739C16.137 62.1739 2.82609 48.863 2.82609 32.5C2.82609 16.137 16.137 2.82609 32.5 2.82609C48.863 2.82609 62.1739 16.137 62.1739 32.5C62.1739 48.863 48.863 62.1739 32.5 62.1739Z"/>
<path d="M43.8044 22.6086C39.9086 22.6086 36.7391 25.7781 36.7391 29.6739C36.7391 30.4539 37.3722 31.0869 38.1522 31.0869C38.9322 31.0869 39.5652 30.4539 39.5652 29.6739C39.5652 27.3367 41.4672 25.4347 43.8044 25.4347C46.1415 25.4347 48.0435 27.3367 48.0435 29.6739C48.0435 30.4539 48.6765 31.0869 49.4565 31.0869C50.2365 31.0869 50.8696 30.4539 50.8696 29.6739C50.8696 25.7781 47.7001 22.6086 43.8044 22.6086Z"/>
<path d="M25.4348 29.6739C25.4348 30.4539 26.0678 31.0869 26.8478 31.0869C27.6278 31.0869 28.2609 30.4539 28.2609 29.6739C28.2609 25.7781 25.0914 22.6086 21.1956 22.6086C17.2999 22.6086 14.1304 25.7781 14.1304 29.6739C14.1304 30.4539 14.7635 31.0869 15.5435 31.0869C16.3235 31.0869 16.9565 30.4539 16.9565 29.6739C16.9565 27.3367 18.8585 25.4347 21.1956 25.4347C23.5328 25.4347 25.4348 27.3367 25.4348 29.6739Z"/>
</svg>
