<svg width="76" height="120" viewBox="0 0 76 120" fill="none" xmlns="http://www.w3.org/2000/svg">
<path d="M14.4667 0.470787C14.2828 0.773849 13.057 1.31937 11.7087 1.80428C9.68619 2.41041 8.95073 3.13776 7.90883 5.25922C7.23466 6.65333 6.37663 7.86559 6.0089 7.86559C5.57988 7.86559 5.51859 9.01724 5.76375 11.1387C6.19276 14.2906 6.13148 14.4118 3.74124 16.897C0.921981 19.8064 -0.426359 24.2312 1.47357 24.2312C2.82191 24.2312 2.69934 25.0191 1.22842 25.9283C-0.242494 26.7769 -0.426359 29.9894 0.860693 30.7168C1.8413 31.2623 7.35724 41.6271 7.35724 42.9C7.35724 43.688 9.68619 45.9913 10.5442 46.0519C11.0958 46.0519 16.4279 49.6281 16.7956 50.2342C17.5924 51.5071 16.9795 62.2356 15.8763 66.2361C15.5086 67.5696 15.2634 70.3578 15.2634 72.358C15.2634 75.8736 14.0377 80.4802 12.628 82.3592C12.2603 82.8441 11.9539 84.7231 11.8926 86.6021C11.8926 88.4811 11.6474 90.7844 11.341 91.6936C10.9732 93.1484 11.0958 93.4514 12.199 93.7545C13.3635 94.0576 13.4861 94.3606 13.057 96.3002C12.8119 97.5125 12.628 99.1491 12.5667 99.9976C12.3216 103.15 10.912 105.392 10.2991 103.574C10.1765 103.15 9.74748 103.271 9.25717 103.877C8.583 104.725 8.583 104.847 9.50233 104.847C10.1765 104.847 10.4216 105.15 10.1765 105.756C9.99263 106.301 10.1765 106.665 10.7281 106.665C11.2184 106.665 11.6474 106.968 11.6474 107.332C11.6474 107.635 11.4023 107.756 11.0345 107.574C10.1765 107.089 10.2378 111.454 11.0958 113.878C11.4635 114.908 12.0764 115.757 12.3829 115.757C12.8119 115.757 12.8119 116 12.3829 116.484C11.9539 117.03 12.0151 117.515 12.5667 118C13.057 118.424 13.5473 118.545 13.7925 118.242C13.9764 117.939 13.7312 117.515 13.3635 117.394C12.8732 117.151 12.9345 117.03 13.6086 117.03C14.8344 116.969 15.8763 118.303 14.8344 118.667C13.7925 118.97 13.9151 120 15.0183 120C15.5086 120 16.0602 119.333 16.3053 118.545C16.4892 117.697 17.2246 116.909 18.144 116.727C19.3697 116.424 19.5536 116.06 19.2471 114.605C18.9407 113.211 19.1246 112.666 20.1665 111.999C20.9019 111.575 21.4535 110.908 21.4535 110.544C21.4535 110.181 22.1277 109.271 22.9857 108.483C24.7018 106.908 25.0082 105.453 23.5986 105.453C23.1083 105.453 22.4341 104.907 22.0664 104.241C21.5148 103.15 21.6374 102.846 23.2309 101.937C24.3954 101.331 25.1308 100.422 25.1308 99.634C25.1308 98.9672 25.6824 97.8156 26.3566 97.0882C27.8275 95.5729 27.8888 95.1486 26.663 95.1486C26.1114 95.1486 25.7437 94.6031 25.7437 93.6333C25.7437 92.1785 25.8663 92.1179 27.8888 92.4816C29.85 92.8453 30.0339 92.7241 30.0339 91.33C30.0339 89.451 30.9532 88.7236 33.895 88.1781C36.7143 87.6326 40.2077 84.4807 39.2271 83.329C38.8594 82.9047 38.7368 82.1774 38.9819 81.6318C39.1658 81.0257 38.8594 80.4196 38.0013 79.9953C35.795 78.8436 36.9594 78.7224 40.1464 79.8135L43.0883 80.7833L44.4979 79.0861C45.2333 78.1163 46.1527 76.7222 46.5204 75.9342C46.8881 75.2069 47.501 73.8734 47.93 73.0248C48.2977 72.1762 48.9106 71.5094 49.2171 71.5094C49.5235 71.5094 49.3396 72.2368 48.7268 73.0854C48.1752 73.9946 47.9913 74.4795 48.4203 74.237C48.8493 73.9946 49.5848 72.7823 50.0751 71.5701C50.5654 70.4184 51.546 69.0243 52.1589 68.6C52.9557 68.0545 53.3234 67.0847 53.3234 65.3875C53.3234 63.5085 53.6911 62.6599 55.0394 61.5083C55.9588 60.7203 57.1232 59.9929 57.6748 59.9929C58.2264 59.9929 58.8393 59.8111 59.0845 59.508C59.3296 59.2656 60.678 58.7807 62.0876 58.4776C64.8456 57.7503 66.1939 55.9925 67.4197 51.5677C67.7874 50.1736 68.2777 49.0826 68.5841 49.0826C68.8293 49.0826 69.0131 47.3854 69.0131 45.3852C69.0131 42.1727 69.197 41.5059 70.3615 40.7179C71.0969 40.233 71.7098 39.5663 71.7098 39.2632C71.7098 38.9602 72.6904 37.8085 73.8549 36.5962C75.571 34.9597 76 33.9899 76 32.2321C76 29.3833 75.571 28.8378 72.813 27.9286C71.526 27.5043 70.3615 26.8981 70.1163 26.5951C69.4422 25.4434 65.8262 24.413 62.7005 24.4736C60.2489 24.5342 59.5135 24.3524 59.6361 23.6856C59.6973 23.2007 58.7167 22.4734 57.1845 21.9279C54.7943 21.0187 54.4879 21.0793 53.446 21.9885C52.8331 22.534 52.0363 23.0189 51.7299 23.0189C51.4234 23.0189 51.6686 22.7158 52.2815 22.3521C53.7524 21.5036 53.5685 20.655 51.7912 20.2307C50.1977 19.867 49.83 19.1396 50.8718 18.4729C51.4847 18.1092 49.2784 14.4118 47.1333 12.351C45.8462 11.0175 43.456 10.2901 40.6367 10.2901C39.84 10.2901 38.4304 9.62337 37.511 8.77479C34.5692 6.10781 31.9951 4.22881 31.2596 4.22881C30.8919 4.22881 30.1564 3.80451 29.6661 3.3196C28.9307 2.65286 28.4404 2.59225 27.5823 3.01654C25.9888 3.86512 21.5148 3.07715 19.6762 1.68304C18.8181 1.07692 18.0214 0.773849 17.8375 1.07692C17.6537 1.37998 16.9795 1.74366 16.3666 1.98611C15.5699 2.28918 15.386 2.77409 15.6924 3.92574C15.9376 4.83493 15.815 5.44106 15.386 5.44106C14.528 5.44106 14.4667 1.98611 15.3247 1.50121C15.6924 1.31937 15.9376 0.895073 15.9376 0.531395C15.9376 -0.135345 14.8957 -0.195961 14.4667 0.470787Z" fill="#AAAAAA"/>
</svg>
