<svg width="9" height="9" viewBox="0 0 9 9" fill="none" xmlns="http://www.w3.org/2000/svg">
<path d="M8.97645 3.45192C8.9172 3.26968 8.75556 3.14066 8.56508 3.12342L5.96704 2.88756L4.94029 0.483708C4.86448 0.3071 4.69199 0.193115 4.5 0.193115C4.30801 0.193115 4.13545 0.3071 4.06013 0.483708L3.03337 2.88756L0.434923 3.12342C0.244444 3.141 0.0831482 3.27003 0.0235463 3.45192C-0.0357122 3.63416 0.0190144 3.83405 0.163075 3.96039L2.12698 5.68246L1.54792 8.23284C1.50556 8.42036 1.57834 8.61428 1.73394 8.72675C1.81758 8.78752 1.91584 8.81787 2.01444 8.81787C2.09917 8.81787 2.18398 8.79535 2.25971 8.75003L4.5 7.4105L6.73988 8.75003C6.90419 8.84822 7.11081 8.83923 7.26606 8.72675C7.42166 8.61428 7.49444 8.42036 7.45208 8.23284L6.87302 5.68246L8.83693 3.96039C8.98092 3.83405 9.03571 3.63457 8.97645 3.45192Z" fill="#84BB59"/>
</svg>
