<svg width="12" height="12" viewBox="0 0 12 12" fill="none" xmlns="http://www.w3.org/2000/svg">
<path d="M11.9686 4.60255C11.8896 4.35957 11.6741 4.18754 11.4201 4.16456L7.95607 3.85007L6.58706 0.644935C6.48599 0.409457 6.256 0.257477 6.00002 0.257477C5.74403 0.257477 5.51395 0.409457 5.41352 0.644935L4.04451 3.85007L0.579912 4.16456C0.32594 4.18799 0.110879 4.36002 0.0314104 4.60255C-0.047601 4.84554 0.0253678 5.11205 0.217449 5.28051L2.83599 7.5766L2.06392 10.9771C2.00743 11.2271 2.10447 11.4857 2.31194 11.6357C2.42345 11.7167 2.55446 11.7572 2.68593 11.7572C2.79891 11.7572 2.91198 11.7271 3.01297 11.6667L6.00002 9.88066L8.98652 11.6667C9.20561 11.7976 9.48109 11.7856 9.6881 11.6357C9.89556 11.4857 9.99261 11.2271 9.93612 10.9771L9.16404 7.5766L11.7826 5.28051C11.9746 5.11205 12.0476 4.84609 11.9686 4.60255Z" fill="#84BB59"/>
</svg>
