<svg width="16" height="24" viewBox="0 0 16 24" fill="none" xmlns="http://www.w3.org/2000/svg">
<path d="M13.1536 0H2.84673C1.55302 0 0.500488 1.05249 0.500488 2.34624V21.6538C0.500488 22.9475 1.55297 24 2.84673 24H13.1535C14.4472 24 15.4998 22.9476 15.4998 21.6538V2.34624C15.4999 1.05249 14.4473 0 13.1536 0ZM5.30172 1.40705H10.6429V2.11664H5.30172V1.40705ZM13.1536 22.593H2.84673C2.32885 22.593 1.90754 22.1716 1.90754 21.6538V2.34624C1.90754 1.82836 2.32885 1.40705 2.84673 1.40705H3.89467V2.29318C3.89467 2.97169 4.44667 3.52369 5.12514 3.52369H10.8195C11.4979 3.52369 12.05 2.97165 12.05 2.29318V1.40705H13.1536C13.6715 1.40705 14.0928 1.82836 14.0928 2.34624V21.6538H14.0928C14.0928 22.1716 13.6715 22.593 13.1536 22.593Z" fill="#84BB59"/>
</svg>
