<svg width="65" height="65" viewBox="0 0 65 65" fill="#2AA2D6" xmlns="http://www.w3.org/2000/svg">
<g clip-path="url(#clip0)">
<path d="M29.8458 59.5833H1.35417C0.937086 59.5833 0.544378 59.391 0.287086 59.0633C0.0297943 58.7329 -0.0622891 58.3077 0.0379192 57.9015L1.50042 52.0244C2.23709 49.1021 4.37396 46.8 7.2123 45.8656L18.0944 42.2392C19.7085 41.5648 20.716 39.1327 20.819 35.5469C19.5731 34.4148 16.9 31.6523 16.9 28.8194C16.9 27.8254 16.5669 27.6223 16.5642 27.6196C16.1525 27.5085 15.9358 27.254 15.776 26.8558C15.6406 26.5146 14.4625 23.4921 14.4625 21.45C14.4625 21.3417 14.476 21.2333 14.5031 21.1277C14.6738 20.4263 15.0854 19.7221 15.7056 19.2942C15.7219 18.9692 15.7408 18.609 15.7625 18.2081C15.8302 16.8702 15.925 15.0854 15.925 12.8646C15.925 7.78375 22.1379 0 29.7917 0C36.7169 0 40.0698 3.68875 40.625 6.07208C42.3177 7.00917 43.7938 8.55563 43.7938 12.8646V19.3023C44.4654 19.7654 44.8798 20.5075 45.0531 21.0194C45.0992 21.1575 45.1208 21.3038 45.1208 21.45C45.1208 22.1975 44.5142 22.8583 43.7667 22.8583C43.0869 22.8583 42.5263 22.4033 42.4288 21.7615C42.3773 21.6667 42.3123 21.5719 42.269 21.5394C41.5242 21.5394 41.0827 20.9788 41.0827 20.2313V12.8646C41.0827 9.33021 39.9479 8.75875 39.2708 8.42021C38.8619 8.21167 37.9979 7.77833 37.9979 6.74375C37.9492 5.92854 35.6688 2.70833 29.7917 2.70833C23.3458 2.70833 18.6333 9.38708 18.6333 12.8646C18.6333 15.145 18.5385 16.9758 18.4627 18.349C18.4248 19.1317 18.3896 19.7627 18.3896 20.2313C18.3896 20.9327 17.856 21.5096 17.1735 21.58C17.2169 22.6904 17.7721 24.4319 18.1269 25.4042C18.8527 25.9188 19.6083 26.9696 19.6083 28.8167C19.6083 30.3442 21.3904 32.519 23.0479 33.8948C23.3567 34.1521 23.5354 34.534 23.5354 34.9375C23.5354 40.0779 21.9402 43.5717 19.0423 44.7742L8.06542 48.4385C6.10459 49.0858 4.63396 50.6729 4.1275 52.6852L3.0875 56.875H29.8458C30.5933 56.875 31.2 57.4817 31.2 58.2292C31.2 58.9767 30.5933 59.5833 29.8458 59.5833Z"/>
<path d="M48.75 64.9999C48.5712 64.9999 48.3925 64.9646 48.2246 64.8915C47.58 64.6234 32.5 58.1044 32.5 44.7849V33.4667C32.5 32.8872 32.871 32.3699 33.4208 32.183L48.3167 27.1536C48.5983 27.0588 48.9044 27.0588 49.1833 27.1536L64.0792 32.183C64.629 32.3672 65 32.8844 65 33.4667V44.7849C65 58.1044 49.92 64.6234 49.2754 64.8942C49.1075 64.9647 48.9287 64.9999 48.75 64.9999ZM35.2083 34.439V44.7849C35.2083 55.0359 46.1906 60.9211 48.75 62.1561C51.3067 60.9184 62.2917 55.0115 62.2917 44.7849V34.439L48.75 29.8674L35.2083 34.439Z"/>
<path d="M47.3958 51.4582C47.3715 51.4582 47.3444 51.4582 47.3227 51.4555C46.9354 51.4338 46.5806 51.2497 46.3396 50.949L40.9229 44.1782C40.4571 43.5932 40.5492 42.7428 41.1342 42.2742C41.7219 41.8084 42.5723 41.9059 43.0381 42.4855L47.5069 48.0755L55.9163 39.6661C56.4444 39.138 57.3029 39.138 57.831 39.6661C58.3592 40.1942 58.3592 41.0528 57.831 41.5809L48.3519 51.0601C48.1 51.3174 47.7533 51.4582 47.3958 51.4582Z"/>
</g>
<defs>
<clipPath id="clip0">
<rect width="65" height="65" fill="white"/>
</clipPath>
</defs>
</svg>
