<?xml version="1.0" standalone="no"?>
  <!DOCTYPE svg PUBLIC "-//W3C//DTD SVG 1.1//EN" "http://www.w3.org/Graphics/SVG/1.1/DTD/svg11.dtd" >
  <svg>
  <metadata>
  Created by font-carrier
  </metadata>
  <defs>
  <font id="AvenirNextCyr-DemiItalic" horiz-adv-x="1200" vert-adv-y="1200" >
    <font-face
      
      font-family="Avenir Next Cyr"
      
      font-weight="400"
      
      font-stretch="normal"
      
      units-per-em="1000"
      
      ascent="971"
      
      descent="-254"
      
    />
      <missing-glyph />

      

      
      <glyph glyph-name="uni21" unicode="&#x21;" d="M191 221L74 221L160 708L277 708L191 221M186 72Q186 41 164.50 18.50Q143-4 112-4Q81-4 60 15.50Q39 35 39 68Q39 100 61.50 122Q84 144 115 144Q146 144 166 124Q186 104 186 72Z"  horiz-adv-x="295" vert-adv-y="1000"  />

      
      <glyph glyph-name="uni22" unicode="&#x22;" d="M377 445L277 445L323 708L423 708L377 445M201 445L101 445L148 708L248 708L201 445Z"  horiz-adv-x="450" vert-adv-y="1000"  />

      
      <glyph glyph-name="uni23" unicode="&#x23;" d="M563 416L461 416L422 292L512 292L498 209L398 209L330 0L244 0L311 209L206 209L139 0L53 0L120 209L29 209L44 292L145 292L185 416L95 416L109 499L211 499L278 708L364 708L298 499L402 499L469 708L555 708L488 499L578 499L563 416M376 416L271 416L232 292L336 292L376 416Z"  horiz-adv-x="590" vert-adv-y="1000"  />

      
      <glyph glyph-name="uni24" unicode="&#x24;" d="M340 618Q293 615 263.50 588.50Q234 562 234 515Q234 453 307 428L340 618M335 298L297 91Q348 94 378.50 123.50Q409 153 409 201Q409 238 390.50 260.50Q372 283 335 298M358 720L371 792L421 792L408 719Q530 708 581 637L492 566Q453 618 391 619L354 412Q444 377 486.50 332.50Q529 288 529 214Q529 121 462 59.50Q395-2 280-10L267-84L217-84L230-10Q164-7 107.50 20.50Q51 48 21 99L117 167Q136 134 172.50 112.50Q209 91 248 91L287 316Q118 369 118 500Q118 594 183 655Q248 716 358 720Z"  horiz-adv-x="610" vert-adv-y="1000"  />

      
      <glyph glyph-name="uni25" unicode="&#x25;" d="M233 354Q163 354 117 398.50Q71 443 71 510Q71 598 130 659Q189 720 278 720Q349 720 393.50 676.50Q438 633 438 566Q438 476 380 415Q322 354 233 354M342 552Q342 585 321.50 608Q301 631 268 631Q223 631 195 600Q167 569 167 522Q167 489 187 466Q207 443 240 443Q286 443 314 474Q342 505 342 552M642-11Q572-11 526 33.50Q480 78 480 145Q480 233 539 294Q598 355 687 355Q758 355 802.50 311.50Q847 268 847 201Q847 111 789 50Q731-11 642-11M751 187Q751 220 730.50 243Q710 266 677 266Q632 266 604 235Q576 204 576 157Q576 124 596 101Q616 78 649 78Q695 78 723 109Q751 140 751 187M764 701L217-33L155 6L702 740L764 701Z"  horiz-adv-x="903" vert-adv-y="1000"  />

      
      <glyph glyph-name="uni26" unicode="&#x26;" d="M399 170L275 321Q148 277 148 186Q148 144 179.50 117Q211 90 255 90Q333 90 399 170M442 558Q442 591 422.50 611Q403 631 370 631Q331 631 306 605Q281 579 281 540Q281 485 321 439Q375 458 408.50 489Q442 520 442 558M375 366L469 252L555 374L697 374L539 173L686 0L540 0L470 89Q367-14 245-14Q146-14 86 35Q26 84 26 176Q26 328 216 399Q171 462 171 534Q171 620 227.50 673Q284 726 368 726Q448 726 500.50 682Q553 638 553 563Q553 444 375 366Z"  horiz-adv-x="739" vert-adv-y="1000"  />

      
      <glyph glyph-name="uni27" unicode="&#x27;" d="M201 445L101 445L147 708L247 708L201 445Z"  horiz-adv-x="274" vert-adv-y="1000"  />

      
      <glyph glyph-name="uni28" unicode="&#x28;" d="M191-112L101-155Q22-10 22 175Q22 474 257 732L330 678Q228 565 176 433Q124 301 124 176Q124 16 191-112Z"  horiz-adv-x="320" vert-adv-y="1000"  />

      
      <glyph glyph-name="uni29" unicode="&#x29;" d="M122 690L212 733Q291 588 291 403Q291 104 56-154L-17-100Q85 13 137 145Q189 277 189 402Q189 562 122 690Z"  horiz-adv-x="320" vert-adv-y="1000"  />

      
      <glyph glyph-name="uni2a" unicode="&#x2a;" d="M312 708L312 563L449 608L474 533L335 488L422 369L357 322L270 442L185 325L122 372L209 488L69 536L94 611L233 563L233 708L312 708Z"  horiz-adv-x="462" vert-adv-y="1000"  />

      
      <glyph glyph-name="uni2b" unicode="&#x2b;" d="M62 354L282 354L282 574L384 574L384 354L604 354L604 252L384 252L384 32L282 32L282 252L62 252L62 354Z"  horiz-adv-x="666" vert-adv-y="1000"  />

      
      <glyph glyph-name="uni2c" unicode="&#x2c;" d="M179 136L48-127L-51-127L65 136L179 136Z"  horiz-adv-x="260" vert-adv-y="1000"  />

      
      <glyph glyph-name="uni2d" unicode="&#x2d;" d="M260 196L21 196L39 296L278 296L260 196Z"  horiz-adv-x="320" vert-adv-y="1000"  />

      
      <glyph glyph-name="uni2e" unicode="&#x2e;" d="M159 72Q159 41 137.50 18.50Q116-4 85-4Q54-4 33 15.50Q12 35 12 68Q12 100 34.50 122Q57 144 88 144Q119 144 139 124Q159 104 159 72Z"  horiz-adv-x="260" vert-adv-y="1000"  />

      
      <glyph glyph-name="uni2f" unicode="&#x2f;" d="M459 725L11-47L-65-17L383 756L459 725Z"  horiz-adv-x="388" vert-adv-y="1000"  />

      
      <glyph glyph-name="uni30" unicode="&#x30;" d="M367 726Q472 726 523 658Q574 590 574 482Q574 399 557.50 316.50Q541 234 507 156.50Q473 79 410 30.50Q347-18 263-18Q156-18 104 48.50Q52 115 52 221Q52 286 62 353Q72 420 96 488Q120 556 155 608Q190 660 245 693Q300 726 367 726M357 627Q304 627 261 570Q218 513 195.50 425.50Q173 338 173 243Q173 83 271 83Q322 83 364 140Q406 197 428.50 284.50Q451 372 451 467Q451 627 357 627Z"  horiz-adv-x="610" vert-adv-y="1000"  />

      
      <glyph glyph-name="uni31" unicode="&#x31;" d="M343 0L225 0L325 565L165 450L109 540L354 708L468 708L343 0Z"  horiz-adv-x="610" vert-adv-y="1000"  />

      
      <glyph glyph-name="uni32" unicode="&#x32;" d="M191 108L503 108L484 0L14 0L33 108L349 373Q406 421 429.50 457.50Q453 494 453 531Q453 576 425.50 601Q398 626 348 626Q301 626 265 596.50Q229 567 213 513L105 544Q137 632 204 679Q271 726 356 726Q458 726 516.50 674.50Q575 623 575 540Q575 489 553.50 445Q532 401 501 369.50Q470 338 410 288L191 108Z"  horiz-adv-x="610" vert-adv-y="1000"  />

      
      <glyph glyph-name="uni33" unicode="&#x33;" d="M265 416Q428 416 428 541Q428 579 402 603.50Q376 628 332 628Q249 628 205 548L117 601Q188 726 342 726Q428 726 486.50 676.50Q545 627 545 545Q545 471 503.50 427Q462 383 402 369L402 367Q454 355 486 313.50Q518 272 518 218Q518 109 444.50 45.50Q371-18 254-18Q168-18 108 23Q48 64 25 138L136 173Q159 84 261 84Q326 84 361 117Q396 150 396 206Q396 266 352.50 294Q309 322 245 322L215 322L231 416L265 416Z"  horiz-adv-x="610" vert-adv-y="1000"  />

      
      <glyph glyph-name="uni34" unicode="&#x34;" d="M536 148L439 148L414 0L300 0L325 148L-5 148L14 257L385 708L535 708L454 249L554 249L536 148M341 249L401 583L397 583L134 249L341 249Z"  horiz-adv-x="610" vert-adv-y="1000"  />

      
      <glyph glyph-name="uni35" unicode="&#x35;" d="M262 603L228 448Q262 457 303 457Q357 457 404 437.50Q451 418 485.50 369Q520 320 520 248Q520 121 442 51.50Q364-18 255-18Q169-18 105.50 22Q42 62 20 124L127 168Q140 130 173 107Q206 84 251 84Q320 84 359.50 126Q399 168 399 235Q399 297 358 329Q317 361 259 361Q179 361 100 318L177 708L555 708L534 603L262 603Z"  horiz-adv-x="610" vert-adv-y="1000"  />

      
      <glyph glyph-name="uni36" unicode="&#x36;" d="M140 197Q140 144 176 112.50Q212 81 262 81Q331 81 372 124Q413 167 413 238Q413 292 378.50 323.50Q344 355 297 355Q226 355 183 310Q140 265 140 197M270 438Q291 445 318 445Q418 445 475 387.50Q532 330 532 246Q532 135 458 58.50Q384-18 257-18Q154-18 87.50 40.50Q21 99 21 197Q21 300 122 424L354 708L497 708L269 440L270 438Z"  horiz-adv-x="610" vert-adv-y="1000"  />

      
      <glyph glyph-name="uni37" unicode="&#x37;" d="M582 600L177 0L30 0L453 602L113 602L131 708L601 708L582 600Z"  horiz-adv-x="610" vert-adv-y="1000"  />

      
      <glyph glyph-name="uni38" unicode="&#x38;" d="M165 189Q165 136 197.50 109Q230 82 276 82Q343 82 380.50 119.50Q418 157 418 216Q418 265 388 293.50Q358 322 309 322Q246 322 205.50 284.50Q165 247 165 189M425 367L427 364Q473 349 502.50 308.50Q532 268 532 216Q532 111 457.50 46.50Q383-18 268-18Q229-18 193-8Q157 2 124 23.50Q91 45 71 84.50Q51 124 51 177Q51 255 100 311Q149 367 219 380L219 383Q181 402 158 437Q135 472 135 516Q135 617 203.50 671.50Q272 726 368 726Q450 726 508.50 681.50Q567 637 567 552Q567 477 526 431.50Q485 386 425 367M245 513Q245 473 270.50 449Q296 425 338 425Q387 425 421 455Q455 485 455 537Q455 578 428 601.50Q401 625 358 625Q307 625 276 593.50Q245 562 245 513Z"  horiz-adv-x="610" vert-adv-y="1000"  />

      
      <glyph glyph-name="uni39" unicode="&#x39;" d="M476 511Q476 564 440 595.50Q404 627 354 627Q285 627 244 584Q203 541 203 470Q203 416 237.50 384.50Q272 353 319 353Q390 353 433 398Q476 443 476 511M346 270Q325 263 298 263Q198 263 141 320.50Q84 378 84 462Q84 573 158 649.50Q232 726 359 726Q462 726 528.50 667.50Q595 609 595 511Q595 408 494 284L262 0L119 0L347 268L346 270Z"  horiz-adv-x="610" vert-adv-y="1000"  />

      
      <glyph glyph-name="uni3a" unicode="&#x3a;" d="M182 72Q182 41 160.50 18.50Q139-4 108-4Q77-4 56 15.50Q35 35 35 68Q35 100 57.50 122Q80 144 111 144Q142 144 162 124Q182 104 182 72M239 413Q239 382 217.50 359.50Q196 337 165 337Q134 337 113 356.50Q92 376 92 409Q92 441 114.50 463Q137 485 168 485Q199 485 219 465Q239 445 239 413Z"  horiz-adv-x="300" vert-adv-y="1000"  />

      
      <glyph glyph-name="uni3b" unicode="&#x3b;" d="M198 136L67-127L-37-127L79 136L198 136M239 413Q239 382 217.50 359.50Q196 337 165 337Q134 337 113 356.50Q92 376 92 409Q92 441 114.50 463Q137 485 168 485Q199 485 219 465Q239 445 239 413Z"  horiz-adv-x="300" vert-adv-y="1000"  />

      
      <glyph glyph-name="uni3c" unicode="&#x3c;" d="M586 42L80 267L80 339L586 564L586 454L248 303L586 152L586 42Z"  horiz-adv-x="666" vert-adv-y="1000"  />

      
      <glyph glyph-name="uni3d" unicode="&#x3d;" d="M80 444L586 444L586 342L80 342L80 444M80 264L586 264L586 162L80 162L80 264Z"  horiz-adv-x="666" vert-adv-y="1000"  />

      
      <glyph glyph-name="uni3e" unicode="&#x3e;" d="M80 564L586 339L586 267L80 42L80 152L418 303L80 454L80 564Z"  horiz-adv-x="666" vert-adv-y="1000"  />

      
      <glyph glyph-name="uni3f" unicode="&#x3f;" d="M402 355Q353 320 335 298Q317 276 311 234L307 208L192 208L198 247Q205 295 225.50 326.50Q246 358 291 394L343 435Q363 450 375 461.50Q387 473 398.50 494Q410 515 410 539Q410 619 321 619Q275 619 244.50 589Q214 559 204 514L91 533Q109 616 175 671Q241 726 335 726Q422 726 477.50 683.50Q533 641 533 548Q533 489 502 446Q471 403 402 355M309 72Q309 41 287.50 18.50Q266-4 235-4Q204-4 183 15.50Q162 35 162 68Q162 100 184.50 122Q207 144 238 144Q269 144 289 124Q309 104 309 72Z"  horiz-adv-x="517" vert-adv-y="1000"  />

      
      <glyph glyph-name="uni40" unicode="&#x40;" d="M545 160Q505 160 484.50 179Q464 198 468 227L464 227Q417 160 339 160Q281 160 247.50 191.50Q214 223 214 278Q214 340 243 401.50Q272 463 326.50 506Q381 549 445 549Q483 549 510 533Q537 517 541 494L542 494L557 534L645 534L572 345Q551 291 551 271Q551 253 556.50 247Q562 241 578 241Q629 241 665 302.50Q701 364 701 446Q701 539 636.50 592.50Q572 646 467 646Q316 646 223.50 542.50Q131 439 131 298Q131 187 202.50 124.50Q274 62 395 62Q529 62 637 154L680 95Q565-18 382-18Q218-18 125.50 67Q33 152 33 292Q33 470 157 598Q281 726 466 726Q617 726 704.50 652Q792 578 792 449Q792 324 719.50 242Q647 160 545 160M494 405Q494 468 437 468Q393 468 353 413.50Q313 359 313 300Q313 242 368 242Q418 242 456 296Q494 350 494 405Z"  horiz-adv-x="800" vert-adv-y="1000"  />

      
      <glyph glyph-name="uni41" unicode="&#x41;" d="M623 0L492 0L463 163L160 163L59 0L-87 0L375 708L482 708L623 0M446 269L399 566L220 269L446 269Z"  horiz-adv-x="668" vert-adv-y="1000"  />

      
      <glyph glyph-name="uni42" unicode="&#x42;" d="M396 708Q480 708 541 670Q602 632 602 553Q602 484 560 437Q518 390 446 372L446 370Q505 361 541.50 320.50Q578 280 578 219Q578 114 495.50 57Q413 0 276 0L25 0L150 708L396 708M365 606L253 606L219 417L347 417Q398 417 438.50 444Q479 471 479 526Q479 606 365 606M334 314L200 314L164 104L287 104Q360 104 407 133.50Q454 163 454 225Q454 267 422.50 290.50Q391 314 334 314Z"  horiz-adv-x="646" vert-adv-y="1000"  />

      
      <glyph glyph-name="uni43" unicode="&#x43;" d="M566 181L645 111Q543-18 364-18Q222-18 135 66Q48 150 48 286Q48 470 168.50 598Q289 726 465 726Q542 726 607.50 696Q673 666 706 618L609 545Q590 575 551.50 597.50Q513 620 461 620Q339 620 257.50 523.50Q176 427 176 302Q176 211 230 150.50Q284 90 379 90Q493 90 566 181Z"  horiz-adv-x="681" vert-adv-y="1000"  />

      
      <glyph glyph-name="uni44" unicode="&#x44;" d="M25 0L150 708L392 708Q454 708 511 691Q568 674 616 640Q664 606 693 547Q722 488 722 412Q722 227 600 113.50Q478 0 290 0L25 0M253 603L166 108L295 108Q435 108 514.50 192.50Q594 277 594 396Q594 486 535 544.50Q476 603 362 603L253 603Z"  horiz-adv-x="757" vert-adv-y="1000"  />

      
      <glyph glyph-name="uni45" unicode="&#x45;" d="M500 0L25 0L150 708L596 708L577 600L251 600L219 417L530 417L511 313L201 313L165 110L519 110L500 0Z"  horiz-adv-x="584" vert-adv-y="1000"  />

      
      <glyph glyph-name="uni46" unicode="&#x46;" d="M569 600L254 600L219 404L515 404L497 300L201 300L148 0L25 0L150 708L588 708L569 600Z"  horiz-adv-x="556" vert-adv-y="1000"  />

      
      <glyph glyph-name="uni47" unicode="&#x47;" d="M393 90Q471 92 522 117L553 297L401 297L421 404L692 404L629 38Q517-18 375-18Q228-18 138 66Q48 150 48 286Q48 470 168.50 598Q289 726 465 726Q545 726 611 698.50Q677 671 716 618L619 545Q564 620 461 620Q339 620 257.50 523.50Q176 427 176 302Q176 208 234 149Q292 90 393 90Z"  horiz-adv-x="740" vert-adv-y="1000"  />

      
      <glyph glyph-name="uni48" unicode="&#x48;" d="M596 0L473 0L528 315L204 315L148 0L25 0L150 708L273 708L222 421L547 421L598 708L721 708L596 0Z"  horiz-adv-x="729" vert-adv-y="1000"  />

      
      <glyph glyph-name="uni49" unicode="&#x49;" d="M148 0L25 0L150 708L273 708L148 0Z"  horiz-adv-x="291" vert-adv-y="1000"  />

      
      <glyph glyph-name="uni4a" unicode="&#x4a;" d="M411 228Q404 190 395.50 160Q387 130 369 95Q351 60 327 36.50Q303 13 263.50-2.50Q224-18 174-18Q91-18 38 24.50Q-15 67-24 137L91 170Q95 136 116.50 113.50Q138 91 171 91Q225 91 250.50 127Q276 163 288 232L372 708L496 708L411 228Z"  horiz-adv-x="500" vert-adv-y="1000"  />

      
      <glyph glyph-name="uni4b" unicode="&#x4b;" d="M612 0L451 0L212 356L209 356L147 0L25 0L150 708L272 708L216 394L219 394L538 708L704 708L337 374L612 0Z"  horiz-adv-x="646" vert-adv-y="1000"  />

      
      <glyph glyph-name="uni4c" unicode="&#x4c;" d="M451 0L25 0L150 708L273 708L167 110L470 110L451 0Z"  horiz-adv-x="511" vert-adv-y="1000"  />

      
      <glyph glyph-name="uni4d" unicode="&#x4d;" d="M788 0L666 0L768 571L765 571L446 0L360 0L245 571L243 571L142 0L25 0L150 708L342 708L438 201L440 201L717 708L912 708L788 0Z"  horiz-adv-x="920" vert-adv-y="1000"  />

      
      <glyph glyph-name="uni4e" unicode="&#x4e;" d="M632 0L479 0L247 550L245 550L148 0L25 0L150 708L310 708L538 175L540 175L634 708L757 708L632 0Z"  horiz-adv-x="788" vert-adv-y="1000"  />

      
      <glyph glyph-name="uni4f" unicode="&#x4f;" d="M459 726Q611 726 702.50 643.50Q794 561 794 419Q794 300 742 200Q690 100 597 41Q504-18 389-18Q232-18 140 64.50Q48 147 48 289Q48 471 166.50 598.50Q285 726 459 726M389 90Q516 90 591.50 185Q667 280 667 408Q667 499 610 559.50Q553 620 453 620Q330 620 252.50 524Q175 428 175 302Q175 211 232 150.50Q289 90 389 90Z"  horiz-adv-x="829" vert-adv-y="1000"  />

      
      <glyph glyph-name="uni50" unicode="&#x50;" d="M363 708Q478 708 541 659Q604 610 604 522Q604 406 524.50 350Q445 294 306 294L199 294L147 0L25 0L150 708L363 708M311 398Q480 398 480 509Q480 562 444.50 583Q409 604 344 604L254 604L217 398L311 398Z"  horiz-adv-x="609" vert-adv-y="1000"  />

      
      <glyph glyph-name="uni51" unicode="&#x51;" d="M776 429Q776 211 609 102L609 100L781 100L763 0L373 0Q227 0 137.50 81Q48 162 48 300Q48 479 165 602.50Q282 726 451 726Q598 726 687 646Q776 566 776 429M650 416Q650 505 597 562.50Q544 620 450 620Q329 620 251.50 527.50Q174 435 174 313Q174 225 228 166.50Q282 108 376 108Q493 108 571.50 200.50Q650 293 650 416Z"  horiz-adv-x="819" vert-adv-y="1000"  />

      
      <glyph glyph-name="uni52" unicode="&#x52;" d="M418 316L565 0L426 0L292 302L198 302L146 0L25 0L150 708L360 708Q476 708 540 659.50Q604 611 604 525Q604 442 554.50 388.50Q505 335 418 316M308 403Q477 403 477 512Q477 562 442 583Q407 604 341 604L252 604L216 403L308 403Z"  horiz-adv-x="624" vert-adv-y="1000"  />

      
      <glyph glyph-name="uni53" unicode="&#x53;" d="M561 634L471 562Q431 624 348 624Q301 624 259.50 596.50Q218 569 218 515Q218 480 242.50 458Q267 436 316 418Q414 382 461.50 333.50Q509 285 509 208Q509 131 467 78Q425 25 365.50 3.50Q306-18 235-18Q161-18 94 11.50Q27 41-9 97L91 166Q111 130 152 108Q193 86 241 86Q298 86 338.50 114Q379 142 379 200Q379 244 346 271Q313 298 251 320Q176 347 134.50 388.50Q93 430 93 506Q93 608 171.50 667Q250 726 361 726Q418 726 474 702Q530 678 561 634Z"  horiz-adv-x="574" vert-adv-y="1000"  />

      
      <glyph glyph-name="uni54" unicode="&#x54;" d="M588 600L380 600L274 0L151 0L256 600L46 600L65 708L607 708L588 600Z"  horiz-adv-x="533" vert-adv-y="1000"  />

      
      <glyph glyph-name="uni55" unicode="&#x55;" d="M633 260Q610 129 532.50 55.50Q455-18 323-18Q201-18 130.50 41.50Q60 101 60 203Q60 235 65 260L144 708L267 708L189 265Q185 246 185 219Q185 163 219.50 126.50Q254 90 325 90Q478 90 510 265L588 708L712 708L633 260Z"  horiz-adv-x="714" vert-adv-y="1000"  />

      
      <glyph glyph-name="uni56" unicode="&#x56;" d="M727 708L297 0L183 0L68 708L198 708L269 160L273 160L588 708L727 708Z"  horiz-adv-x="641" vert-adv-y="1000"  />

      
      <glyph glyph-name="uni57" unicode="&#x57;" d="M1055 708L712 0L592 0L527 535L525 535L257 0L137 0L71 708L201 708L236 184L238 184L494 708L622 708L677 184L679 184L924 708L1055 708Z"  horiz-adv-x="985" vert-adv-y="1000"  />

      
      <glyph glyph-name="uni58" unicode="&#x58;" d="M568 0L428 0L313 281L81 0L-73 0L259 378L115 708L251 708L349 460L551 708L699 708L403 368L568 0Z"  horiz-adv-x="631" vert-adv-y="1000"  />

      
      <glyph glyph-name="uni59" unicode="&#x59;" d="M685 708L343 307L288 0L165 0L219 307L42 708L180 708L298 408L535 708L685 708Z"  horiz-adv-x="575" vert-adv-y="1000"  />

      
      <glyph glyph-name="uni5a" unicode="&#x5a;" d="M510 0L-40 0L-21 111L445 600L109 600L128 708L625 708L605 597L142 110L530 110L510 0Z"  horiz-adv-x="588" vert-adv-y="1000"  />

      
      <glyph glyph-name="uni5b" unicode="&#x5b;" d="M159-156L-31-156L125 732L316 732L302 655L212 655L83-79L173-79L159-156Z"  horiz-adv-x="320" vert-adv-y="1000"  />

      
      <glyph glyph-name="uni5c" unicode="&#x5c;" d="M3 726L86 758L398-18L315-48L3 726Z"  horiz-adv-x="389" vert-adv-y="1000"  />

      
      <glyph glyph-name="uni5d" unicode="&#x5d;" d="M187-156L-3-156L10-79L100-79L230 655L140 655L153 732L344 732L187-156Z"  horiz-adv-x="320" vert-adv-y="1000"  />

      
      <glyph glyph-name="uni5e" unicode="&#x5e;" d="M187 343L69 343L292 708L374 708L597 343L479 343L332 582L187 343Z"  horiz-adv-x="666" vert-adv-y="1000"  />

      
      <glyph glyph-name="uni5f" unicode="&#x5f;" d="M500-75L500-150L0-150L0-75L500-75Z"  horiz-adv-x="500" vert-adv-y="1000"  />

      
      <glyph glyph-name="uni60" unicode="&#x60;" d="M147 708L246 564L156 564L15 708L147 708Z"  horiz-adv-x="260" vert-adv-y="1000"  />

      
      <glyph glyph-name="uni61" unicode="&#x61;" d="M357 304Q360 320 360 335Q360 400 271 400Q199 400 132 352L87 431Q173 493 288 493Q338 493 377.50 480Q417 467 445.50 433.50Q474 400 474 348Q474 329 470 303L435 108Q423 34 423 0L315 0Q315 27 321 57L319 57Q263-10 163-10Q102-10 57 20Q12 50 12 117Q12 304 357 304M346 220L332 220Q125 220 125 136Q125 76 203 76Q256 76 293.50 108.50Q331 141 340 190L346 220Z"  horiz-adv-x="539" vert-adv-y="1000"  />

      
      <glyph glyph-name="uni62" unicode="&#x62;" d="M206 403L208 403Q237 445 282.50 469Q328 493 381 493Q473 493 528.50 436Q584 379 584 286Q584 161 509 74.50Q434-12 320-12Q265-12 218 12.50Q171 37 148 81L146 81L132 0L21 0L154 756L272 756L206 403M464 272Q464 326 432.50 361.50Q401 397 346 397Q276 397 227 341Q178 285 178 208Q178 153 211.50 118Q245 83 300 83Q373 83 418.50 137.50Q464 192 464 272Z"  horiz-adv-x="638" vert-adv-y="1000"  />

      
      <glyph glyph-name="uni63" unicode="&#x63;" d="M497 412L413 344Q400 366 372.50 381.50Q345 397 314 397Q241 397 192 341.50Q143 286 143 210Q143 156 174 120Q205 84 265 84Q336 84 388 138L455 70Q370-13 258-13Q154-13 90.50 44.50Q27 102 27 195Q27 316 109 404.50Q191 493 320 493Q446 493 497 412Z"  horiz-adv-x="492" vert-adv-y="1000"  />

      
      <glyph glyph-name="uni64" unicode="&#x64;" d="M461 403L521 756L639 756L505 0L394 0L406 76L403 76Q343-12 230-12Q138-12 82.50 45Q27 102 27 195Q27 320 102 406.50Q177 493 291 493Q413 493 459 403L461 403M147 209Q147 155 178.50 119.50Q210 84 265 84Q335 84 384 140Q433 196 433 273Q433 328 399.50 363Q366 398 311 398Q238 398 192.50 343.50Q147 289 147 209Z"  horiz-adv-x="634" vert-adv-y="1000"  />

      
      <glyph glyph-name="uni65" unicode="&#x65;" d="M496 203L140 203Q139 198 139 192Q139 145 175.50 113.50Q212 82 265 82Q346 82 402 145L469 82Q380-14 252-14Q152-14 89.50 43Q27 100 27 199Q27 324 107 408.50Q187 493 308 493Q397 493 452.50 443Q508 393 508 301Q508 252 496 203M400 287Q402 305 402 312Q402 352 373.50 378.50Q345 405 297 405Q240 405 200 368Q160 331 151 287L400 287Z"  horiz-adv-x="564" vert-adv-y="1000"  />

      
      <glyph glyph-name="uni66" unicode="&#x66;" d="M410 761L385 661Q364 668 344 668Q269 668 249 559L235 480L348 480L331 386L220 386L152 0L38 0L106 386L15 386L31 480L120 480L134 553Q175 768 351 768Q386 768 410 761Z"  horiz-adv-x="323" vert-adv-y="1000"  />

      
      <glyph glyph-name="uni67" unicode="&#x67;" d="M463 407L466 407L478 480L590 480L514 41Q491-96 421.50-168Q352-240 214-240Q151-240 86-217Q21-194-17-154L61-69Q119-138 217-138Q299-138 339-95Q379-52 396 28L404 66L402 66Q345-9 237-9Q145-9 89.50 47.50Q34 104 34 197Q34 322 109 407.50Q184 493 298 493Q421 493 463 407M154 211Q154 157 185.50 121.50Q217 86 272 86Q342 86 391 142Q440 198 440 274Q440 329 406.50 364Q373 399 318 399Q245 399 199.50 345Q154 291 154 211Z"  horiz-adv-x="632" vert-adv-y="1000"  />

      
      <glyph glyph-name="uni68" unicode="&#x68;" d="M461 0L344 0L390 264Q395 291 395 312Q395 393 316 393Q263 393 228.50 354.50Q194 316 184 261L138 0L21 0L154 756L272 756L211 412L213 412Q235 447 273 470Q311 493 361 493Q437 493 477.50 450.50Q518 408 518 344Q518 319 514 299L461 0Z"  horiz-adv-x="584" vert-adv-y="1000"  />

      
      <glyph glyph-name="uni69" unicode="&#x69;" d="M138 0L21 0L105 480L223 480L138 0M262 645Q262 615 241.50 593.50Q221 572 191 572Q161 572 141 590.50Q121 609 121 641Q121 672 143 693Q165 714 194 714Q223 714 242.50 695Q262 676 262 645Z"  horiz-adv-x="267" vert-adv-y="1000"  />

      
      <glyph glyph-name="uni6a" unicode="&#x6a;" d="M133-32Q125-79 112.50-113Q100-147 78-177.50Q56-208 19-224Q-18-240-69-240Q-98-240-122-234L-99-134Q-86-138-67-138Q-28-138-11.50-112Q5-86 14-36L105 480L223 480L133-32M262 645Q262 615 241.50 593.50Q221 572 191 572Q161 572 141 590.50Q121 609 121 641Q121 672 143 693Q165 714 194 714Q223 714 242.50 695Q262 676 262 645Z"  horiz-adv-x="267" vert-adv-y="1000"  />

      
      <glyph glyph-name="uni6b" unicode="&#x6b;" d="M481 0L336 0L185 246L182 246L138 0L21 0L154 756L272 756L187 277L190 277L407 480L561 480L306 257L481 0Z"  horiz-adv-x="521" vert-adv-y="1000"  />

      
      <glyph glyph-name="uni6c" unicode="&#x6c;" d="M138 0L21 0L154 756L272 756L138 0Z"  horiz-adv-x="267" vert-adv-y="1000"  />

      
      <glyph glyph-name="uni6d" unicode="&#x6d;" d="M87 377Q97 427 102 480L212 480Q210 456 203 405L205 405Q262 493 353 493Q410 493 447.50 467Q485 441 497 399Q563 493 667 493Q746 493 787 451Q828 409 828 344Q828 319 824 299L771 0L654 0L700 264Q705 291 705 312Q705 394 625 394Q573 394 539 354.50Q505 315 496 262L450 0L332 0L383 290Q386 305 386 317Q386 352 367.50 373Q349 394 312 394Q261 394 227.50 355.50Q194 317 185 264L138 0L21 0L87 377Z"  horiz-adv-x="894" vert-adv-y="1000"  />

      
      <glyph glyph-name="uni6e" unicode="&#x6e;" d="M203 405L205 405Q261 493 361 493Q437 493 477.50 450.50Q518 408 518 344Q518 319 514 299L461 0L344 0L390 264Q395 291 395 312Q395 393 316 393Q263 393 228.50 355Q194 317 185 264L138 0L21 0L87 377Q97 427 102 480L212 480Q211 461 203 405Z"  horiz-adv-x="584" vert-adv-y="1000"  />

      
      <glyph glyph-name="uni6f" unicode="&#x6f;" d="M259-13Q158-13 92.50 45.50Q27 104 27 196Q27 318 108 405.50Q189 493 317 493Q419 493 484.50 435Q550 377 550 285Q550 161 469 74Q388-13 259-13M432 273Q432 327 398.50 362Q365 397 309 397Q236 397 189.50 341.50Q143 286 143 208Q143 153 175.50 118.50Q208 84 265 84Q339 84 385.50 139Q432 194 432 273Z"  horiz-adv-x="604" vert-adv-y="1000"  />

      
      <glyph glyph-name="uni70" unicode="&#x70;" d="M147 76L94-240L-24-240L103 480L214 480L202 403L205 403Q265 491 378 491Q470 491 525.50 434Q581 377 581 284Q581 159 506 72.50Q431-14 317-14Q195-14 149 76L147 76M461 270Q461 324 429.50 359.50Q398 395 343 395Q273 395 224 339Q175 283 175 206Q175 151 208.50 116Q242 81 297 81Q370 81 415.50 135.50Q461 190 461 270Z"  horiz-adv-x="635" vert-adv-y="1000"  />

      
      <glyph glyph-name="uni71" unicode="&#x71;" d="M405 76L403 76Q343-12 230-12Q138-12 82.50 45Q27 102 27 195Q27 320 102 406.50Q177 493 291 493Q345 493 392 467.50Q439 442 463 398L465 398L479 480L590 480L464-240L346-240L405 76M147 209Q147 155 178.50 119.50Q210 84 265 84Q335 84 384 140Q433 196 433 273Q433 328 399.50 363Q366 398 311 398Q238 398 192.50 343.50Q147 289 147 209Z"  horiz-adv-x="632" vert-adv-y="1000"  />

      
      <glyph glyph-name="uni72" unicode="&#x72;" d="M201 400L203 400Q259 493 344 493Q361 493 373 490L357 381Q338 386 321 386Q283 386 254.50 371.50Q226 357 211.50 334Q197 311 190 293Q183 275 180 257L135 0L18 0L85 377Q95 427 100 480L210 480Q208 451 201 400Z"  horiz-adv-x="339" vert-adv-y="1000"  />

      
      <glyph glyph-name="uni73" unicode="&#x73;" d="M-24 78L67 138Q98 78 177 78Q218 78 242.50 94Q267 110 267 138Q267 162 249 175.50Q231 189 185 203Q112 226 80.50 254.50Q49 283 49 335Q49 404 108.50 448.50Q168 493 258 493Q381 493 431 410L340 356Q310 403 249 403Q214 403 189 389.50Q164 376 164 346Q164 325 182 313.50Q200 302 241 290Q312 270 347 236.50Q382 203 382 146Q382 70 322 26Q262-18 174-18Q35-18-24 78Z"  horiz-adv-x="444" vert-adv-y="1000"  />

      
      <glyph glyph-name="uni74" unicode="&#x74;" d="M104 385L19 385L36 480L119 480L143 620L259 620L235 480L343 480L326 385L220 385L178 159Q175 144 175 131Q175 85 232 85Q254 85 277 92L270 3Q238-10 197-10Q57-10 57 101Q57 134 63 162L104 385Z"  horiz-adv-x="340" vert-adv-y="1000"  />

      
      <glyph glyph-name="uni75" unicode="&#x75;" d="M350 75L348 75Q292-13 192-13Q116-13 75.50 29.50Q35 72 35 136Q35 161 39 181L92 480L209 480L163 216Q158 189 158 168Q158 87 237 87Q290 87 324.50 125Q359 163 368 216L415 480L532 480L466 103Q456 53 451 0L341 0Q342 19 350 75Z"  horiz-adv-x="584" vert-adv-y="1000"  />

      
      <glyph glyph-name="uni76" unicode="&#x76;" d="M534 480L249 0L123 0L29 480L152 480L208 128L210 128L410 480L534 480Z"  horiz-adv-x="502" vert-adv-y="1000"  />

      
      <glyph glyph-name="uni77" unicode="&#x77;" d="M820 480L559 0L439 0L396 339L394 339L215 0L95 0L29 480L152 480L185 135L187 135L359 480L482 480L521 135L523 135L697 480L820 480Z"  horiz-adv-x="785" vert-adv-y="1000"  />

      
      <glyph glyph-name="uni78" unicode="&#x78;" d="M451 0L318 0L229 172L76 0L-73 0L174 255L45 480L174 480L252 330L385 480L529 480L309 249L451 0Z"  horiz-adv-x="513" vert-adv-y="1000"  />

      
      <glyph glyph-name="uni79" unicode="&#x79;" d="M543 480L203-104Q162-176 123-208Q84-240 19-240Q-14-240-42-233L-27-131Q-6-138 17-138Q48-138 66.50-121.50Q85-105 109-63L145-1L37 480L163 480L225 128L227 128L419 480L543 480Z"  horiz-adv-x="506" vert-adv-y="1000"  />

      
      <glyph glyph-name="uni7a" unicode="&#x7a;" d="M392 0L-20 0L-2 103L311 386L67 386L83 480L470 480L452 377L141 96L409 96L392 0Z"  horiz-adv-x="480" vert-adv-y="1000"  />

      
      <glyph glyph-name="uni7b" unicode="&#x7b;" d="M187-156L115-156Q68-156 38-130Q8-104 8-55Q8-40 11-24L45 166Q52 208 34 226.50Q16 245-11 245L4 331Q32 331 56 347.50Q80 364 87 403L121 600Q132 665 175 698.50Q218 732 272 732L344 732L330 649L275 649Q229 649 219 588L186 401Q177 349 140 321Q103 293 69 289L69 287Q99 284 124 264Q149 244 149 198Q149 184 146 169L114-12Q109-40 115-56.50Q121-73 147-73L202-73L187-156Z"  horiz-adv-x="320" vert-adv-y="1000"  />

      
      <glyph glyph-name="uni7c" unicode="&#x7c;" d="M60 750L162 750L162-250L60-250L60 750Z"  horiz-adv-x="222" vert-adv-y="1000"  />

      
      <glyph glyph-name="uni7d" unicode="&#x7d;" d="M308 245Q281 245 256.50 227Q232 209 225 166L191-24Q180-88 137.50-122Q95-156 41-156L-32-156L-17-73L38-73Q83-73 93-12L125 169Q131 202 145.50 226Q160 250 179 262.50Q198 275 213 280.50Q228 286 243 287L244 289Q211 293 184 321Q157 349 166 401L199 588Q204 616 198 632.50Q192 649 165 649L111 649L125 732L198 732Q244 732 274 706Q304 680 304 631Q304 616 301 600L267 403Q260 365 278 348Q296 331 323 331L308 245Z"  horiz-adv-x="320" vert-adv-y="1000"  />

      
      <glyph glyph-name="uni7e" unicode="&#x7e;" d="M345 354Q385 329 400.50 323Q416 317 439 317Q484 317 517 380L594 315Q532 213 441 213Q383 213 320 253Q262 289 227 289Q183 289 149 226L72 291Q134 394 225 394Q284 394 345 354Z"  horiz-adv-x="666" vert-adv-y="1000"  />

      
      <glyph glyph-name="unia1" unicode="&#xa1;" d="M78 273L195 273L109-214L-8-214L78 273M83 422Q83 453 104.50 475.50Q126 498 157 498Q188 498 209 478.50Q230 459 230 426Q230 394 207.50 372Q185 350 154 350Q123 350 103 370Q83 390 83 422Z"  horiz-adv-x="295" vert-adv-y="1000"  />

      
      <glyph glyph-name="unia2" unicode="&#xa2;" d="M391 491Q494 481 537 412L453 344Q429 385 374 395L319 84Q379 89 428 138L495 70Q412-12 302-13L290-83L236-83L250-9Q166 4 116.50 58.50Q67 113 67 195Q67 310 142.50 396.50Q218 483 338 492L349 558L403 558L391 491M321 394Q261 384 222 331Q183 278 183 210Q183 164 203 130Q223 96 266 88L321 394Z"  horiz-adv-x="610" vert-adv-y="1000"  />

      
      <glyph glyph-name="unia3" unicode="&#xa3;" d="M624 666L552 585Q519 628 452 628Q338 628 312 477L298 399L464 399L449 316L285 316L248 105L513 105L494 0L12 0L30 105L128 105L166 316L68 316L82 399L178 399L193 482Q199 515 210 546Q221 577 242 611Q263 645 291.50 669.50Q320 694 363 710Q406 726 459 726Q566 726 624 666Z"  horiz-adv-x="610" vert-adv-y="1000"  />

      
      <glyph glyph-name="unia4" unicode="&#xa4;" d="M687 462Q732 396 732 309Q732 216 684 151L777 58Q769 50 755 36Q741 22 729.50 10Q718-2 707-12L611 83Q546 40 461 40Q380 40 310 85Q278 52 212-12Q204-4 190 10Q176 24 164.50 36Q153 48 142 58L237 154Q192 216 192 309Q192 396 235 459L142 552L213 622L307 529Q375 575 461 575Q549 575 614 530L706 622L777 552L687 462M565.50 415Q565.50 415 545.25 437Q525 459 461 459Q397 459 356.50 415Q316 371 316 309Q316 245 356.50 201Q397 157 461 157Q526 157 566 201Q606 245 606 309Q606 371 565.50 415Z"  horiz-adv-x="920" vert-adv-y="1000"  />

      
      <glyph glyph-name="unia5" unicode="&#xa5;" d="M657 708L413 388L553 388L539 311L362 311L348 233L525 233L512 156L337 156L310 0L195 0L222 156L44 156L57 233L233 233L246 311L71 311L84 388L232 388L90 708L220 708L326 419L525 708L657 708Z"  horiz-adv-x="610" vert-adv-y="1000"  />

      
      <glyph glyph-name="unia6" unicode="&#xa6;" d="M60 675L162 675L162 325L60 325L60 675M60 175L162 175L162-175L60-175L60 175Z"  horiz-adv-x="222" vert-adv-y="1000"  />

      
      <glyph glyph-name="unia7" unicode="&#xa7;" d="M589 642L500 573Q461 630 385 630Q348 630 316.50 611.50Q285 593 285 553Q285 522 308 504.50Q331 487 398 458Q464 429 499 393Q534 357 534 293Q534 188 422 145Q468 106 468 50Q468 0 448-39Q428-78 394.50-100Q361-122 322.50-133Q284-144 243-144Q173-144 104.50-114.50Q36-85 12-31L112 26Q126-5 164-23.50Q202-42 241-42Q343-42 343 29Q343 68 315.50 89Q288 110 209 143Q150 168 118 202Q86 236 86 295Q86 351 121.50 391.50Q157 432 206 447Q163 479 163 541Q163 588 184.50 625Q206 662 240.50 683.50Q275 705 314 715.50Q353 726 392 726Q454 726 507 704Q560 682 589 642M262 234L359 191Q426 211 426 273Q426 327 356 361L272 402Q236 394 215.50 369.50Q195 345 195 315Q195 284 212.50 266Q230 248 262 234Z"  horiz-adv-x="610" vert-adv-y="1000"  />

      
      <glyph glyph-name="unia8" unicode="&#xa8;" d="M158 646Q158 616 138.50 595.50Q119 575 89 575Q59 575 40 593Q21 611 21 642Q21 673 42 693Q63 713 92 713Q121 713 139.50 695Q158 677 158 646M356 646Q356 616 336.50 595.50Q317 575 287 575Q257 575 238 593Q219 611 219 642Q219 673 240 693Q261 713 290 713Q319 713 337.50 695Q356 677 356 646Z"  horiz-adv-x="260" vert-adv-y="1000"  />

      
      <glyph glyph-name="unia9" unicode="&#xa9;" d="M577 506L514 443Q499 461 473 473Q447 485 418 485Q360 485 327 446Q294 407 294 353Q294 298 329 258Q364 218 425 218Q485 218 518 256L576 188Q522 128 418 128Q319 128 253.50 187.50Q188 247 188 351Q188 453 254 514Q320 575 418 575Q466 575 509 556.50Q552 538 577 506M20 353Q20 510 131.50 620Q243 730 401 730Q558 730 669 620Q780 510 780 353Q780 197 669 87.50Q558-22 401-22Q243-22 131.50 87.50Q20 197 20 353M80 353Q80 221 174 127.50Q268 34 401 34Q533 34 626.50 127.50Q720 221 720 353Q720 486 626.50 580Q533 674 401 674Q268 674 174 580Q80 486 80 353Z"  horiz-adv-x="800" vert-adv-y="1000"  />

      
      <glyph glyph-name="uniaa" unicode="&#xaa;" d="M280 559L273 559Q161 559 161 515Q161 482 203 482Q231 482 251 499.50Q271 517 276 543L280 559M268 461L266 461Q237 424 182 424Q138 424 113.50 445.50Q89 467 89 502Q89 561 137.50 587.50Q186 614 285 614Q287 620 287 626Q287 645 276 652.50Q265 660 240 660Q201 660 163 633L133 684Q188 723 250 723Q305 723 332.50 698Q360 673 360 634Q360 624 356 602L338 496Q333 470 333 431L265 431Q265 442 268 461Z"  horiz-adv-x="380" vert-adv-y="1000"  />

      
      <glyph glyph-name="uniab" unicode="&#xab;" d="M21 247L212 471L279 417L130 240L215 65L135 19L21 247M240 247L431 471L498 417L349 240L434 65L354 19L240 247Z"  horiz-adv-x="518" vert-adv-y="1000"  />

      
      <glyph glyph-name="uniac" unicode="&#xac;" d="M502 147L502 342L62 342L62 444L604 444L604 147L502 147Z"  horiz-adv-x="666" vert-adv-y="1000"  />

      
      <glyph glyph-name="uniad" unicode="&#xad;" d="M260 196L21 196L39 296L278 296L260 196Z"  horiz-adv-x="320" vert-adv-y="1000"  />

      
      <glyph glyph-name="uniae" unicode="&#xae;" d="M568 493Q568 400 501.50 334.50Q435 269 341 269Q246 269 179 334.50Q112 400 112 493Q112 587 179 653.50Q246 720 341 720Q435 720 501.50 653.50Q568 587 568 493M532 493Q532 573 476 629.50Q420 686 341 686Q261 686 204.50 629.50Q148 573 148 493Q148 414 204.50 358Q261 302 341 302Q420 302 476 358Q532 414 532 493M472 368L389 368L339 464L310 464L310 368L239 368L239 628L351 628Q395 628 426.50 608.50Q458 589 458 546Q458 520 443.50 501.50Q429 483 406 475L472 368M372.50 524.50Q372.50 524.50 377.75 528.75Q383 533 383 545Q383 557 372 563.50Q361 570 348 570L310 570L310 516L348 516Q362 516 372.50 524.50Z"  horiz-adv-x="600" vert-adv-y="1000"  />

      
      <glyph glyph-name="uniaf" unicode="&#xaf;" d="M339 595L22 595L35 672L353 672L339 595Z"  horiz-adv-x="260" vert-adv-y="1000"  />

      
      <glyph glyph-name="unib0" unicode="&#xb0;" d="M121 447Q121 447 97.50 470.50Q74 494 74 560Q74 626 121 673Q168 720 234 720Q300 720 347 673Q394 626 394 560Q394 494 347 447Q300 400 234 400Q168 400 121 447M176 618Q176 618 164 606Q152 594 152 560Q152 526 176 502Q200 478 234 478Q268 478 292 502Q316 526 316 560Q316 594 292 618Q268 642 234 642Q200 642 176 618Z"  horiz-adv-x="400" vert-adv-y="1000"  />

      
      <glyph glyph-name="unib1" unicode="&#xb1;" d="M286 431L286 574L382 574L382 431L586 431L586 329L382 329L382 186L286 186L286 329L80 329L80 431L286 431M80 32L80 134L586 134L586 32L80 32Z"  horiz-adv-x="666" vert-adv-y="1000"  />

      
      <glyph glyph-name="unib2" unicode="&#xb2;" d="M362 448L83 448L97 526L281 677Q338 724 338 764Q338 810 284 810Q234 810 215 752L136 774Q156 828 196 856Q236 884 288 884Q348 884 385 853Q422 822 422 769Q422 722 401 691Q380 660 325 617L210 527L377 527L362 448Z"  horiz-adv-x="400" vert-adv-y="1000"  />

      
      <glyph glyph-name="unib3" unicode="&#xb3;" d="M382 584Q382 515 337.50 478Q293 441 225 441Q114 441 81 538L162 562Q175 517 226 517Q259 517 277 533.50Q295 550 295 577Q295 606 274 621Q253 636 217 636L194 636L205 703L228 703Q313 703 313 769Q313 788 300 799.50Q287 811 268 811Q225 811 200 767L134 805Q181 884 273 884Q332 884 365 851Q398 818 398 772Q398 733 375.50 705.50Q353 678 318 670Q348 662 365 638Q382 614 382 584Z"  horiz-adv-x="400" vert-adv-y="1000"  />

      
      <glyph glyph-name="unib4" unicode="&#xb4;" d="M385 708L220 564L127 564L252 708L385 708Z"  horiz-adv-x="260" vert-adv-y="1000"  />

      
      <glyph glyph-name="unib5" unicode="&#xb5;" d="M537 89L530-1Q499-10 463-10Q369-10 369 75L367 75Q345 38 305.50 12.50Q266-13 223-13Q159-13 142 24L140 24L93-240L-24-240L103 480L221 480L178 235Q170 189 170 164Q170 131 189 109Q208 87 247 87Q302 87 336 124Q370 161 380 216L427 480L545 480L482 125Q475 85 510 85Q519 85 537 89Z"  horiz-adv-x="600" vert-adv-y="1000"  />

      
      <glyph glyph-name="unib6" unicode="&#xb6;" d="M456-126L367-126L502 637L394 637L259-126L170-126L252 337Q166 337 116 378.50Q66 420 66 488Q66 516 72 543Q78 570 96.50 601Q115 632 143.50 655Q172 678 221.50 693Q271 708 335 708L603 708L456-126Z"  horiz-adv-x="600" vert-adv-y="1000"  />

      
      <glyph glyph-name="unib7" unicode="&#xb7;" d="M201 297Q201 266 179.50 243.50Q158 221 127 221Q96 221 75 240.50Q54 260 54 293Q54 325 76.50 347Q99 369 130 369Q161 369 181 349Q201 329 201 297Z"  horiz-adv-x="260" vert-adv-y="1000"  />

      
      <glyph glyph-name="unib8" unicode="&#xb8;" d="M176-138Q176-191 131.50-215.50Q87-240 32-240Q-32-240-77-214L-50-166Q-15-186 28-186Q93-186 93-145Q93-109 46-109Q26-109 6-115L-12-90L66 0L123 0L66-65Q75-63 86-63Q120-63 148-81Q176-99 176-138Z"  horiz-adv-x="260" vert-adv-y="1000"  />

      
      <glyph glyph-name="unib9" unicode="&#xb9;" d="M286 448L194 448L251 767L166 706L125 767L280 877L361 877L286 448Z"  horiz-adv-x="400" vert-adv-y="1000"  />

      
      <glyph glyph-name="uniba" unicode="&#xba;" d="M302 591Q302 618 285.50 634.50Q269 651 241 651Q206 651 183.50 624Q161 597 161 558Q161 531 176.50 514.50Q192 498 220 498Q256 498 279 525.50Q302 553 302 591M215 426Q153 426 116 461.50Q79 497 79 549Q79 626 128 674Q177 722 248 722Q308 722 345.50 688Q383 654 383 599Q383 520 334 473Q285 426 215 426Z"  horiz-adv-x="380" vert-adv-y="1000"  />

      
      <glyph glyph-name="unibb" unicode="&#xbb;" d="M478 243L287 19L220 73L369 250L284 425L364 471L478 243M257 243L66 19L-1 73L148 250L63 425L143 471L257 243Z"  horiz-adv-x="518" vert-adv-y="1000"  />

      
      <glyph glyph-name="unibc" unicode="&#xbc;" d="M256 279L164 279L221 598L136 537L95 598L250 708L331 708L256 279M743 701L196-33L134 6L681 740L743 701M785 89L729 89L713 0L630 0L645 89L453 89L465 159L687 429L787 429L741 162L799 162L785 89M658 162L686 319L681 319L557 162L658 162Z"  horiz-adv-x="900" vert-adv-y="1000"  />

      
      <glyph glyph-name="unibd" unicode="&#xbd;" d="M256 279L164 279L221 598L136 537L95 598L250 708L331 708L256 279M743 701L196-33L134 6L681 740L743 701M774 0L495 0L509 78L693 229Q750 276 750 316Q750 362 696 362Q646 362 627 304L548 326Q568 380 608 408Q648 436 700 436Q760 436 797 405Q834 374 834 321Q834 274 813 243Q792 212 737 169L622 79L789 79L774 0Z"  horiz-adv-x="900" vert-adv-y="1000"  />

      
      <glyph glyph-name="unibe" unicode="&#xbe;" d="M743 701L196-33L134 6L681 740L743 701M785 89L729 89L713 0L630 0L645 89L453 89L465 159L687 429L787 429L741 162L799 162L785 89M658 162L686 319L681 319L557 162L658 162M352 421Q352 352 307.50 315Q263 278 195 278Q84 278 51 375L132 399Q145 354 196 354Q229 354 247 370.50Q265 387 265 414Q265 443 244 458Q223 473 187 473L164 473L175 540L198 540Q283 540 283 606Q283 625 270 636.50Q257 648 238 648Q195 648 170 604L104 642Q151 721 243 721Q302 721 335 688Q368 655 368 609Q368 570 345.50 542.50Q323 515 288 507Q318 499 335 475Q352 451 352 421Z"  horiz-adv-x="900" vert-adv-y="1000"  />

      
      <glyph glyph-name="unibf" unicode="&#xbf;" d="M107 140Q156 175 174 197Q192 219 198 261L202 287L317 287L311 248Q304 200 283.50 168.50Q263 137 218 101L166 60Q146 45 134 33.50Q122 22 110.50 1Q99-20 99-44Q99-124 188-124Q234-124 264.50-94Q295-64 305-19L418-38Q400-121 334-176Q268-231 174-231Q87-231 31.50-188.50Q-24-146-24-53Q-24 6 7 49Q38 92 107 140M200 423Q200 454 221.50 476.50Q243 499 274 499Q305 499 326 479.50Q347 460 347 427Q347 395 324.50 373Q302 351 271 351Q240 351 220 371Q200 391 200 423Z"  horiz-adv-x="517" vert-adv-y="1000"  />

      
      <glyph glyph-name="unic0" unicode="&#xc0;" d="M623 0L492 0L463 163L160 163L59 0L-87 0L375 708L482 708L623 0M446 269L399 566L220 269L446 269M375 908L474 764L384 764L243 908L375 908Z"  horiz-adv-x="668" vert-adv-y="1000"  />

      
      <glyph glyph-name="unic1" unicode="&#xc1;" d="M623 0L492 0L463 163L160 163L59 0L-87 0L375 708L482 708L623 0M446 269L399 566L220 269L446 269M650 908L485 764L392 764L517 908L650 908Z"  horiz-adv-x="668" vert-adv-y="1000"  />

      
      <glyph glyph-name="unic2" unicode="&#xc2;" d="M623 0L492 0L463 163L160 163L59 0L-87 0L375 708L482 708L623 0M446 269L399 566L220 269L446 269M615 764L507 764L453 855L367 764L255 764L395 908L527 908L615 764Z"  horiz-adv-x="668" vert-adv-y="1000"  />

      
      <glyph glyph-name="unic3" unicode="&#xc3;" d="M623 0L492 0L463 163L160 163L59 0L-87 0L375 708L482 708L623 0M446 269L399 566L220 269L446 269M317 768L251 768Q294 893 386 893Q425 893 461 875Q501 856 523 856Q556 856 576 900L642 900Q599 775 508 775Q475 775 439 792Q395 813 371 813Q340 813 317 768Z"  horiz-adv-x="668" vert-adv-y="1000"  />

      
      <glyph glyph-name="unic4" unicode="&#xc4;" d="M623 0L492 0L463 163L160 163L59 0L-87 0L375 708L482 708L623 0M446 269L399 566L220 269L446 269M416 846Q416 816 396.50 795.50Q377 775 347 775Q317 775 298 793Q279 811 279 842Q279 873 300 893Q321 913 350 913Q379 913 397.50 895Q416 877 416 846M614 846Q614 816 594.50 795.50Q575 775 545 775Q515 775 496 793Q477 811 477 842Q477 873 498 893Q519 913 548 913Q577 913 595.50 895Q614 877 614 846Z"  horiz-adv-x="668" vert-adv-y="1000"  />

      
      <glyph glyph-name="unic5" unicode="&#xc5;" d="M623 0L492 0L463 163L160 163L59 0L-87 0L375 708L482 708L623 0M446 269L399 566L220 269L446 269M437 753Q398 753 372.50 777.50Q347 802 347 839Q347 888 379.50 922Q412 956 462 956Q501 956 526 932Q551 908 551 871Q551 821 518.50 787Q486 753 437 753M502 862Q502 882 489.50 897Q477 912 457 912Q430 912 413 893Q396 874 396 845Q396 825 408 811Q420 797 440 797Q467 797 484.50 815.50Q502 834 502 862Z"  horiz-adv-x="668" vert-adv-y="1000"  />

      
      <glyph glyph-name="unic6" unicode="&#xc6;" d="M1045 708L1026 600L700 600L668 417L979 417L960 313L650 313L614 110L968 110L949 0L475 0L507 187L252 187L110 0L-32 0L521 708L1045 708M525 289L580 600L565 600L330 289L525 289Z"  horiz-adv-x="1033" vert-adv-y="1000"  />

      
      <glyph glyph-name="unic7" unicode="&#xc7;" d="M448-138Q448-191 403.50-215.50Q359-240 304-240Q240-240 195-214L222-166Q257-186 300-186Q365-186 365-145Q365-109 318-109Q298-109 278-115L260-90L324-16Q199-4 123.50 78Q48 160 48 286Q48 470 168.50 598Q289 726 465 726Q542 726 607.50 696Q673 666 706 618L609 545Q590 575 551.50 597.50Q513 620 461 620Q339 620 257.50 523.50Q176 427 176 302Q176 211 230 150.50Q284 90 379 90Q493 90 566 181L645 111Q548-12 379-17L338-65Q347-63 358-63Q392-63 420-81Q448-99 448-138Z"  horiz-adv-x="681" vert-adv-y="1000"  />

      
      <glyph glyph-name="unic8" unicode="&#xc8;" d="M500 0L25 0L150 708L596 708L577 600L251 600L219 417L530 417L511 313L201 313L165 110L519 110L500 0M361 908L460 764L370 764L229 908L361 908Z"  horiz-adv-x="584" vert-adv-y="1000"  />

      
      <glyph glyph-name="unic9" unicode="&#xc9;" d="M500 0L25 0L150 708L596 708L577 600L251 600L219 417L530 417L511 313L201 313L165 110L519 110L500 0M574 908L409 764L316 764L441 908L574 908Z"  horiz-adv-x="584" vert-adv-y="1000"  />

      
      <glyph glyph-name="unica" unicode="&#xca;" d="M500 0L25 0L150 708L596 708L577 600L251 600L219 417L530 417L511 313L201 313L165 110L519 110L500 0M564 764L456 764L402 855L316 764L204 764L344 908L476 908L564 764Z"  horiz-adv-x="584" vert-adv-y="1000"  />

      
      <glyph glyph-name="unicb" unicode="&#xcb;" d="M500 0L25 0L150 708L596 708L577 600L251 600L219 417L530 417L511 313L201 313L165 110L519 110L500 0M360 846Q360 816 340.50 795.50Q321 775 291 775Q261 775 242 793Q223 811 223 842Q223 873 244 893Q265 913 294 913Q323 913 341.50 895Q360 877 360 846M558 846Q558 816 538.50 795.50Q519 775 489 775Q459 775 440 793Q421 811 421 842Q421 873 442 893Q463 913 492 913Q521 913 539.50 895Q558 877 558 846Z"  horiz-adv-x="584" vert-adv-y="1000"  />

      
      <glyph glyph-name="unicc" unicode="&#xcc;" d="M148 0L25 0L150 708L273 708L148 0M178 908L277 764L187 764L46 908L178 908Z"  horiz-adv-x="291" vert-adv-y="1000"  />

      
      <glyph glyph-name="unicd" unicode="&#xcd;" d="M148 0L25 0L150 708L273 708L148 0M415 908L250 764L157 764L282 908L415 908Z"  horiz-adv-x="291" vert-adv-y="1000"  />

      
      <glyph glyph-name="unice" unicode="&#xce;" d="M148 0L25 0L150 708L273 708L148 0M400 764L292 764L238 855L152 764L40 764L180 908L312 908L400 764Z"  horiz-adv-x="291" vert-adv-y="1000"  />

      
      <glyph glyph-name="unicf" unicode="&#xcf;" d="M148 0L25 0L150 708L273 708L148 0M201 846Q201 816 181.50 795.50Q162 775 132 775Q102 775 83 793Q64 811 64 842Q64 873 85 893Q106 913 135 913Q164 913 182.50 895Q201 877 201 846M399 846Q399 816 379.50 795.50Q360 775 330 775Q300 775 281 793Q262 811 262 842Q262 873 283 893Q304 913 333 913Q362 913 380.50 895Q399 877 399 846Z"  horiz-adv-x="291" vert-adv-y="1000"  />

      
      <glyph glyph-name="unid0" unicode="&#xd0;" d="M82 325L18 325L33 408L97 408L150 708L392 708Q454 708 511 691Q568 674 616 640Q664 606 693 547Q722 488 722 412Q722 227 600 113.50Q478 0 290 0L25 0L82 325M219 408L429 408L414 325L204 325L166 108L295 108Q435 108 514.50 192.50Q594 277 594 396Q594 486 535 544.50Q476 603 362 603L253 603L219 408Z"  horiz-adv-x="757" vert-adv-y="1000"  />

      
      <glyph glyph-name="unid1" unicode="&#xd1;" d="M632 0L479 0L247 550L245 550L148 0L25 0L150 708L310 708L538 175L540 175L634 708L757 708L632 0M345 768L279 768Q322 893 414 893Q453 893 489 875Q529 856 551 856Q584 856 604 900L670 900Q627 775 536 775Q503 775 467 792Q423 813 399 813Q368 813 345 768Z"  horiz-adv-x="788" vert-adv-y="1000"  />

      
      <glyph glyph-name="unid2" unicode="&#xd2;" d="M459 726Q611 726 702.50 643.50Q794 561 794 419Q794 300 742 200Q690 100 597 41Q504-18 389-18Q232-18 140 64.50Q48 147 48 289Q48 471 166.50 598.50Q285 726 459 726M389 90Q516 90 591.50 185Q667 280 667 408Q667 499 610 559.50Q553 620 453 620Q330 620 252.50 524Q175 428 175 302Q175 211 232 150.50Q289 90 389 90M478 908L577 764L487 764L346 908L478 908Z"  horiz-adv-x="829" vert-adv-y="1000"  />

      
      <glyph glyph-name="unid3" unicode="&#xd3;" d="M459 726Q611 726 702.50 643.50Q794 561 794 419Q794 300 742 200Q690 100 597 41Q504-18 389-18Q232-18 140 64.50Q48 147 48 289Q48 471 166.50 598.50Q285 726 459 726M389 90Q516 90 591.50 185Q667 280 667 408Q667 499 610 559.50Q553 620 453 620Q330 620 252.50 524Q175 428 175 302Q175 211 232 150.50Q289 90 389 90M654 908L489 764L396 764L521 908L654 908Z"  horiz-adv-x="829" vert-adv-y="1000"  />

      
      <glyph glyph-name="unid4" unicode="&#xd4;" d="M459 726Q611 726 702.50 643.50Q794 561 794 419Q794 300 742 200Q690 100 597 41Q504-18 389-18Q232-18 140 64.50Q48 147 48 289Q48 471 166.50 598.50Q285 726 459 726M389 90Q516 90 591.50 185Q667 280 667 408Q667 499 610 559.50Q553 620 453 620Q330 620 252.50 524Q175 428 175 302Q175 211 232 150.50Q289 90 389 90M681 764L573 764L519 855L433 764L321 764L461 908L593 908L681 764Z"  horiz-adv-x="829" vert-adv-y="1000"  />

      
      <glyph glyph-name="unid5" unicode="&#xd5;" d="M459 726Q611 726 702.50 643.50Q794 561 794 419Q794 300 742 200Q690 100 597 41Q504-18 389-18Q232-18 140 64.50Q48 147 48 289Q48 471 166.50 598.50Q285 726 459 726M389 90Q516 90 591.50 185Q667 280 667 408Q667 499 610 559.50Q553 620 453 620Q330 620 252.50 524Q175 428 175 302Q175 211 232 150.50Q289 90 389 90M369 768L303 768Q346 893 438 893Q477 893 513 875Q553 856 575 856Q608 856 628 900L694 900Q651 775 560 775Q527 775 491 792Q447 813 423 813Q392 813 369 768Z"  horiz-adv-x="829" vert-adv-y="1000"  />

      
      <glyph glyph-name="unid6" unicode="&#xd6;" d="M459 726Q611 726 702.50 643.50Q794 561 794 419Q794 300 742 200Q690 100 597 41Q504-18 389-18Q232-18 140 64.50Q48 147 48 289Q48 471 166.50 598.50Q285 726 459 726M389 90Q516 90 591.50 185Q667 280 667 408Q667 499 610 559.50Q553 620 453 620Q330 620 252.50 524Q175 428 175 302Q175 211 232 150.50Q289 90 389 90M470 846Q470 816 450.50 795.50Q431 775 401 775Q371 775 352 793Q333 811 333 842Q333 873 354 893Q375 913 404 913Q433 913 451.50 895Q470 877 470 846M668 846Q668 816 648.50 795.50Q629 775 599 775Q569 775 550 793Q531 811 531 842Q531 873 552 893Q573 913 602 913Q631 913 649.50 895Q668 877 668 846Z"  horiz-adv-x="829" vert-adv-y="1000"  />

      
      <glyph glyph-name="unid7" unicode="&#xd7;" d="M150 557L333 374L515 556L585 486L404 305L589 119L515 45L332 226L151 45L77 118L262 300L78 486L150 557Z"  horiz-adv-x="666" vert-adv-y="1000"  />

      
      <glyph glyph-name="unid8" unicode="&#xd8;" d="M688 656L783 744L825 701L730 614Q794 536 794 419Q794 300 742 200Q690 100 597 41Q504-18 389-18Q231-18 137 68L42-18L0 25L97 114Q48 186 48 289Q48 471 166.50 598.50Q285 726 459 726Q596 726 688 656M640 528L227 150Q285 86 388 86Q517 86 593.50 182.50Q670 279 670 409Q670 476 640 528M602 575Q542 625 454 625Q370 625 303.50 577.50Q237 530 203.50 456.50Q170 383 170 300Q170 243 191 200L602 575Z"  horiz-adv-x="829" vert-adv-y="1000"  />

      
      <glyph glyph-name="unid9" unicode="&#xd9;" d="M633 260Q610 129 532.50 55.50Q455-18 323-18Q201-18 130.50 41.50Q60 101 60 203Q60 235 65 260L144 708L267 708L189 265Q185 246 185 219Q185 163 219.50 126.50Q254 90 325 90Q478 90 510 265L588 708L712 708L633 260M397 908L496 764L406 764L265 908L397 908Z"  horiz-adv-x="714" vert-adv-y="1000"  />

      
      <glyph glyph-name="unida" unicode="&#xda;" d="M633 260Q610 129 532.50 55.50Q455-18 323-18Q201-18 130.50 41.50Q60 101 60 203Q60 235 65 260L144 708L267 708L189 265Q185 246 185 219Q185 163 219.50 126.50Q254 90 325 90Q478 90 510 265L588 708L712 708L633 260M620 908L455 764L362 764L487 908L620 908Z"  horiz-adv-x="714" vert-adv-y="1000"  />

      
      <glyph glyph-name="unidb" unicode="&#xdb;" d="M633 260Q610 129 532.50 55.50Q455-18 323-18Q201-18 130.50 41.50Q60 101 60 203Q60 235 65 260L144 708L267 708L189 265Q185 246 185 219Q185 163 219.50 126.50Q254 90 325 90Q478 90 510 265L588 708L712 708L633 260M614 764L506 764L452 855L366 764L254 764L394 908L526 908L614 764Z"  horiz-adv-x="714" vert-adv-y="1000"  />

      
      <glyph glyph-name="unidc" unicode="&#xdc;" d="M633 260Q610 129 532.50 55.50Q455-18 323-18Q201-18 130.50 41.50Q60 101 60 203Q60 235 65 260L144 708L267 708L189 265Q185 246 185 219Q185 163 219.50 126.50Q254 90 325 90Q478 90 510 265L588 708L712 708L633 260M411 846Q411 816 391.50 795.50Q372 775 342 775Q312 775 293 793Q274 811 274 842Q274 873 295 893Q316 913 345 913Q374 913 392.50 895Q411 877 411 846M609 846Q609 816 589.50 795.50Q570 775 540 775Q510 775 491 793Q472 811 472 842Q472 873 493 893Q514 913 543 913Q572 913 590.50 895Q609 877 609 846Z"  horiz-adv-x="714" vert-adv-y="1000"  />

      
      <glyph glyph-name="unidd" unicode="&#xdd;" d="M685 708L343 307L288 0L165 0L219 307L42 708L180 708L298 408L535 708L685 708M566 908L401 764L308 764L433 908L566 908Z"  horiz-adv-x="575" vert-adv-y="1000"  />

      
      <glyph glyph-name="unide" unicode="&#xde;" d="M339 570Q454 570 517 521Q580 472 580 384Q580 274 499.50 215.50Q419 157 282 157L175 157L147 0L25 0L150 708L272 708L248 570L339 570M287 261Q456 261 456 372Q456 466 320 466L230 466L193 261L287 261Z"  horiz-adv-x="609" vert-adv-y="1000"  />

      
      <glyph glyph-name="unidf" unicode="&#xdf;" d="M292-12Q240-12 200-1L218 98Q245 88 287 88Q361 88 408 130.50Q455 173 455 246Q455 300 415.50 333Q376 366 321 366L308 366L326 466L340 466Q388 466 423.50 494.50Q459 523 459 578Q459 613 434 639Q409 665 366 665Q256 665 227 503L138 0L20 0L110 509Q156 768 373 768Q460 768 518 719.50Q576 671 576 590Q576 525 538.50 482Q501 439 443 424L443 422Q503 406 539.50 358.50Q576 311 576 248Q576 135 497 61.50Q418-12 292-12Z"  horiz-adv-x="627" vert-adv-y="1000"  />

      
      <glyph glyph-name="unie0" unicode="&#xe0;" d="M357 304Q360 320 360 335Q360 400 271 400Q199 400 132 352L87 431Q173 493 288 493Q338 493 377.50 480Q417 467 445.50 433.50Q474 400 474 348Q474 329 470 303L435 108Q423 34 423 0L315 0Q315 27 321 57L319 57Q263-10 163-10Q102-10 57 20Q12 50 12 117Q12 304 357 304M346 220L332 220Q125 220 125 136Q125 76 203 76Q256 76 293.50 108.50Q331 141 340 190L346 220M256 708L355 564L265 564L124 708L256 708Z"  horiz-adv-x="539" vert-adv-y="1000"  />

      
      <glyph glyph-name="unie1" unicode="&#xe1;" d="M357 304Q360 320 360 335Q360 400 271 400Q199 400 132 352L87 431Q173 493 288 493Q338 493 377.50 480Q417 467 445.50 433.50Q474 400 474 348Q474 329 470 303L435 108Q423 34 423 0L315 0Q315 27 321 57L319 57Q263-10 163-10Q102-10 57 20Q12 50 12 117Q12 304 357 304M346 220L332 220Q125 220 125 136Q125 76 203 76Q256 76 293.50 108.50Q331 141 340 190L346 220M504 708L339 564L246 564L371 708L504 708Z"  horiz-adv-x="539" vert-adv-y="1000"  />

      
      <glyph glyph-name="unie2" unicode="&#xe2;" d="M357 304Q360 320 360 335Q360 400 271 400Q199 400 132 352L87 431Q173 493 288 493Q338 493 377.50 480Q417 467 445.50 433.50Q474 400 474 348Q474 329 470 303L435 108Q423 34 423 0L315 0Q315 27 321 57L319 57Q263-10 163-10Q102-10 57 20Q12 50 12 117Q12 304 357 304M346 220L332 220Q125 220 125 136Q125 76 203 76Q256 76 293.50 108.50Q331 141 340 190L346 220M489 564L381 564L327 655L241 564L129 564L269 708L401 708L489 564Z"  horiz-adv-x="539" vert-adv-y="1000"  />

      
      <glyph glyph-name="unie3" unicode="&#xe3;" d="M357 304Q360 320 360 335Q360 400 271 400Q199 400 132 352L87 431Q173 493 288 493Q338 493 377.50 480Q417 467 445.50 433.50Q474 400 474 348Q474 329 470 303L435 108Q423 34 423 0L315 0Q315 27 321 57L319 57Q263-10 163-10Q102-10 57 20Q12 50 12 117Q12 304 357 304M346 220L332 220Q125 220 125 136Q125 76 203 76Q256 76 293.50 108.50Q331 141 340 190L346 220M184 568L118 568Q161 693 253 693Q292 693 328 675Q368 656 390 656Q423 656 443 700L509 700Q466 575 375 575Q342 575 306 592Q262 613 238 613Q206 613 184 568Z"  horiz-adv-x="539" vert-adv-y="1000"  />

      
      <glyph glyph-name="unie4" unicode="&#xe4;" d="M357 304Q360 320 360 335Q360 400 271 400Q199 400 132 352L87 431Q173 493 288 493Q338 493 377.50 480Q417 467 445.50 433.50Q474 400 474 348Q474 329 470 303L435 108Q423 34 423 0L315 0Q315 27 321 57L319 57Q263-10 163-10Q102-10 57 20Q12 50 12 117Q12 304 357 304M346 220L332 220Q125 220 125 136Q125 76 203 76Q256 76 293.50 108.50Q331 141 340 190L346 220M284 646Q284 616 264.50 595.50Q245 575 215 575Q185 575 166 593Q147 611 147 642Q147 673 168 693Q189 713 218 713Q247 713 265.50 695Q284 677 284 646M482 646Q482 616 462.50 595.50Q443 575 413 575Q383 575 364 593Q345 611 345 642Q345 673 366 693Q387 713 416 713Q445 713 463.50 695Q482 677 482 646Z"  horiz-adv-x="539" vert-adv-y="1000"  />

      
      <glyph glyph-name="unie5" unicode="&#xe5;" d="M357 304Q360 320 360 335Q360 400 271 400Q199 400 132 352L87 431Q173 493 288 493Q338 493 377.50 480Q417 467 445.50 433.50Q474 400 474 348Q474 329 470 303L435 108Q423 34 423 0L315 0Q315 27 321 57L319 57Q263-10 163-10Q102-10 57 20Q12 50 12 117Q12 304 357 304M346 220L332 220Q125 220 125 136Q125 76 203 76Q256 76 293.50 108.50Q331 141 340 190L346 220M304 553Q265 553 239.50 577.50Q214 602 214 639Q214 688 246.50 722Q279 756 329 756Q368 756 393 732Q418 708 418 671Q418 621 385.50 587Q353 553 304 553M369 662Q369 682 356.50 697Q344 712 324 712Q297 712 280 693Q263 674 263 645Q263 625 275 611Q287 597 307 597Q334 597 351.50 615.50Q369 634 369 662Z"  horiz-adv-x="539" vert-adv-y="1000"  />

      
      <glyph glyph-name="unie6" unicode="&#xe6;" d="M629 493Q718 493 773.50 443Q829 393 829 301Q829 252 817 203L461 203Q460 198 460 192Q460 145 496.50 113.50Q533 82 586 82Q667 82 723 145L790 82Q702-14 573-14Q507-14 457 11.50Q407 37 386 85Q325-10 183-10Q154-10 126.50-4Q99 2 72 15.50Q45 29 28.50 56Q12 83 12 120Q12 165 33.50 197Q55 229 86.50 246Q118 263 168.50 272.50Q219 282 261.50 284.50Q304 287 364 287Q370 311 370 333Q370 400 281 400Q209 400 142 352L97 431Q183 493 298 493Q423 493 450 411Q515 493 629 493M348 186L351 203L318 203Q223 203 174.50 188.50Q126 174 126 135Q126 77 206 77Q329 77 348 186M721 287Q723 305 723 312Q723 352 694.50 378.50Q666 405 618 405Q561 405 521 368Q481 331 472 287L721 287Z"  horiz-adv-x="885" vert-adv-y="1000"  />

      
      <glyph glyph-name="unie7" unicode="&#xe7;" d="M354-138Q354-191 309.50-215.50Q265-240 210-240Q146-240 101-214L128-166Q163-186 206-186Q271-186 271-145Q271-109 224-109Q204-109 184-115L166-90L233-12Q139-4 83 52Q27 108 27 195Q27 316 109 404.50Q191 493 320 493Q446 493 497 412L413 344Q400 366 372.50 381.50Q345 397 314 397Q241 397 192 341.50Q143 286 143 210Q143 156 174 120Q205 84 265 84Q336 84 388 138L455 70Q383 0 291-11L244-65Q253-63 264-63Q298-63 326-81Q354-99 354-138Z"  horiz-adv-x="492" vert-adv-y="1000"  />

      
      <glyph glyph-name="unie8" unicode="&#xe8;" d="M496 203L140 203Q139 198 139 192Q139 145 175.50 113.50Q212 82 265 82Q346 82 402 145L469 82Q380-14 252-14Q152-14 89.50 43Q27 100 27 199Q27 324 107 408.50Q187 493 308 493Q397 493 452.50 443Q508 393 508 301Q508 252 496 203M400 287Q402 305 402 312Q402 352 373.50 378.50Q345 405 297 405Q240 405 200 368Q160 331 151 287L400 287M266 708L365 564L275 564L134 708L266 708Z"  horiz-adv-x="564" vert-adv-y="1000"  />

      
      <glyph glyph-name="unie9" unicode="&#xe9;" d="M496 203L140 203Q139 198 139 192Q139 145 175.50 113.50Q212 82 265 82Q346 82 402 145L469 82Q380-14 252-14Q152-14 89.50 43Q27 100 27 199Q27 324 107 408.50Q187 493 308 493Q397 493 452.50 443Q508 393 508 301Q508 252 496 203M400 287Q402 305 402 312Q402 352 373.50 378.50Q345 405 297 405Q240 405 200 368Q160 331 151 287L400 287M504 708L339 564L246 564L371 708L504 708Z"  horiz-adv-x="564" vert-adv-y="1000"  />

      
      <glyph glyph-name="uniea" unicode="&#xea;" d="M496 203L140 203Q139 198 139 192Q139 145 175.50 113.50Q212 82 265 82Q346 82 402 145L469 82Q380-14 252-14Q152-14 89.50 43Q27 100 27 199Q27 324 107 408.50Q187 493 308 493Q397 493 452.50 443Q508 393 508 301Q508 252 496 203M400 287Q402 305 402 312Q402 352 373.50 378.50Q345 405 297 405Q240 405 200 368Q160 331 151 287L400 287M520 564L412 564L358 655L272 564L160 564L300 708L432 708L520 564Z"  horiz-adv-x="564" vert-adv-y="1000"  />

      
      <glyph glyph-name="unieb" unicode="&#xeb;" d="M496 203L140 203Q139 198 139 192Q139 145 175.50 113.50Q212 82 265 82Q346 82 402 145L469 82Q380-14 252-14Q152-14 89.50 43Q27 100 27 199Q27 324 107 408.50Q187 493 308 493Q397 493 452.50 443Q508 393 508 301Q508 252 496 203M400 287Q402 305 402 312Q402 352 373.50 378.50Q345 405 297 405Q240 405 200 368Q160 331 151 287L400 287M313 646Q313 616 293.50 595.50Q274 575 244 575Q214 575 195 593Q176 611 176 642Q176 673 197 693Q218 713 247 713Q276 713 294.50 695Q313 677 313 646M511 646Q511 616 491.50 595.50Q472 575 442 575Q412 575 393 593Q374 611 374 642Q374 673 395 693Q416 713 445 713Q474 713 492.50 695Q511 677 511 646Z"  horiz-adv-x="564" vert-adv-y="1000"  />

      
      <glyph glyph-name="uniec" unicode="&#xec;" d="M138 0L21 0L105 480L223 480L138 0M129 708L228 564L138 564L-3 708L129 708Z"  horiz-adv-x="267" vert-adv-y="1000"  />

      
      <glyph glyph-name="unied" unicode="&#xed;" d="M138 0L21 0L105 480L223 480L138 0M373 708L208 564L115 564L240 708L373 708Z"  horiz-adv-x="267" vert-adv-y="1000"  />

      
      <glyph glyph-name="uniee" unicode="&#xee;" d="M138 0L21 0L105 480L223 480L138 0M355 564L247 564L193 655L107 564L-5 564L135 708L267 708L355 564Z"  horiz-adv-x="267" vert-adv-y="1000"  />

      
      <glyph glyph-name="unief" unicode="&#xef;" d="M138 0L21 0L105 480L223 480L138 0M158 646Q158 616 138.50 595.50Q119 575 89 575Q59 575 40 593Q21 611 21 642Q21 673 42 693Q63 713 92 713Q121 713 139.50 695Q158 677 158 646M356 646Q356 616 336.50 595.50Q317 575 287 575Q257 575 238 593Q219 611 219 642Q219 673 240 693Q261 713 290 713Q319 713 337.50 695Q356 677 356 646Z"  horiz-adv-x="267" vert-adv-y="1000"  />

      
      <glyph glyph-name="unif0" unicode="&#xf0;" d="M553 312Q553 250 535.50 193.50Q518 137 483.50 90Q449 43 391 15Q333-13 259-13Q158-13 92.50 45.50Q27 104 27 196Q27 315 105 404Q183 493 309 493Q388 493 423 460L425 462Q383 558 327 613L210 562L161 618L280 669Q263 690 213 734L309 786Q349 751 383 712L505 765L558 710L432 656Q553 509 553 312M432 273Q432 327 398.50 362Q365 397 309 397Q236 397 189.50 341.50Q143 286 143 208Q143 153 175.50 118.50Q208 84 265 84Q339 84 385.50 139Q432 194 432 273Z"  horiz-adv-x="604" vert-adv-y="1000"  />

      
      <glyph glyph-name="unif1" unicode="&#xf1;" d="M203 405L205 405Q261 493 361 493Q437 493 477.50 450.50Q518 408 518 344Q518 319 514 299L461 0L344 0L390 264Q395 291 395 312Q395 393 316 393Q263 393 228.50 355Q194 317 185 264L138 0L21 0L87 377Q97 427 102 480L212 480Q211 461 203 405M220 568L154 568Q197 693 289 693Q328 693 364 675Q404 656 426 656Q459 656 479 700L545 700Q502 575 411 575Q378 575 342 592Q298 613 274 613Q242 613 220 568Z"  horiz-adv-x="584" vert-adv-y="1000"  />

      
      <glyph glyph-name="unif2" unicode="&#xf2;" d="M259-13Q158-13 92.50 45.50Q27 104 27 196Q27 318 108 405.50Q189 493 317 493Q419 493 484.50 435Q550 377 550 285Q550 161 469 74Q388-13 259-13M432 273Q432 327 398.50 362Q365 397 309 397Q236 397 189.50 341.50Q143 286 143 208Q143 153 175.50 118.50Q208 84 265 84Q339 84 385.50 139Q432 194 432 273M276 708L375 564L285 564L144 708L276 708Z"  horiz-adv-x="604" vert-adv-y="1000"  />

      
      <glyph glyph-name="unif3" unicode="&#xf3;" d="M259-13Q158-13 92.50 45.50Q27 104 27 196Q27 318 108 405.50Q189 493 317 493Q419 493 484.50 435Q550 377 550 285Q550 161 469 74Q388-13 259-13M432 273Q432 327 398.50 362Q365 397 309 397Q236 397 189.50 341.50Q143 286 143 208Q143 153 175.50 118.50Q208 84 265 84Q339 84 385.50 139Q432 194 432 273M528 708L363 564L270 564L395 708L528 708Z"  horiz-adv-x="604" vert-adv-y="1000"  />

      
      <glyph glyph-name="unif4" unicode="&#xf4;" d="M259-13Q158-13 92.50 45.50Q27 104 27 196Q27 318 108 405.50Q189 493 317 493Q419 493 484.50 435Q550 377 550 285Q550 161 469 74Q388-13 259-13M432 273Q432 327 398.50 362Q365 397 309 397Q236 397 189.50 341.50Q143 286 143 208Q143 153 175.50 118.50Q208 84 265 84Q339 84 385.50 139Q432 194 432 273M527 564L419 564L365 655L279 564L167 564L307 708L439 708L527 564Z"  horiz-adv-x="604" vert-adv-y="1000"  />

      
      <glyph glyph-name="unif5" unicode="&#xf5;" d="M259-13Q158-13 92.50 45.50Q27 104 27 196Q27 318 108 405.50Q189 493 317 493Q419 493 484.50 435Q550 377 550 285Q550 161 469 74Q388-13 259-13M432 273Q432 327 398.50 362Q365 397 309 397Q236 397 189.50 341.50Q143 286 143 208Q143 153 175.50 118.50Q208 84 265 84Q339 84 385.50 139Q432 194 432 273M224 568L158 568Q201 693 293 693Q332 693 368 675Q408 656 430 656Q463 656 483 700L549 700Q506 575 415 575Q382 575 346 592Q302 613 278 613Q246 613 224 568Z"  horiz-adv-x="604" vert-adv-y="1000"  />

      
      <glyph glyph-name="unif6" unicode="&#xf6;" d="M259-13Q158-13 92.50 45.50Q27 104 27 196Q27 318 108 405.50Q189 493 317 493Q419 493 484.50 435Q550 377 550 285Q550 161 469 74Q388-13 259-13M432 273Q432 327 398.50 362Q365 397 309 397Q236 397 189.50 341.50Q143 286 143 208Q143 153 175.50 118.50Q208 84 265 84Q339 84 385.50 139Q432 194 432 273M324 646Q324 616 304.50 595.50Q285 575 255 575Q225 575 206 593Q187 611 187 642Q187 673 208 693Q229 713 258 713Q287 713 305.50 695Q324 677 324 646M522 646Q522 616 502.50 595.50Q483 575 453 575Q423 575 404 593Q385 611 385 642Q385 673 406 693Q427 713 456 713Q485 713 503.50 695Q522 677 522 646Z"  horiz-adv-x="604" vert-adv-y="1000"  />

      
      <glyph glyph-name="unif7" unicode="&#xf7;" d="M280 430Q280 430 269 441Q258 452 258 483Q258 514 280 536Q302 558 333 558Q364 558 386 536Q408 514 408 483Q408 452 386 430Q364 408 333 408Q302 408 280 430M280 70Q280 70 269 81Q258 92 258 123Q258 154 280 176Q302 198 333 198Q364 198 386 176Q408 154 408 123Q408 92 386 70Q364 48 333 48Q302 48 280 70M586 250L80 250L80 357L586 357L586 250Z"  horiz-adv-x="666" vert-adv-y="1000"  />

      
      <glyph glyph-name="unif8" unicode="&#xf8;" d="M98 40L19-27L-14 14L62 80Q27 131 27 196Q27 318 108 405.50Q189 493 317 493Q410 493 477 442L556 510L591 470L514 403Q550 351 550 285Q550 161 469 74Q388-13 259-13Q162-13 98 40M152 157L393 367Q360 397 309 397Q236 397 189.50 341.50Q143 286 143 208Q143 180 152 157M179 115Q213 84 265 84Q339 84 385.50 139Q432 194 432 273Q432 304 422 325L179 115Z"  horiz-adv-x="604" vert-adv-y="1000"  />

      
      <glyph glyph-name="unif9" unicode="&#xf9;" d="M350 75L348 75Q292-13 192-13Q116-13 75.50 29.50Q35 72 35 136Q35 161 39 181L92 480L209 480L163 216Q158 189 158 168Q158 87 237 87Q290 87 324.50 125Q359 163 368 216L415 480L532 480L466 103Q456 53 451 0L341 0Q342 19 350 75M258 708L357 564L267 564L126 708L258 708Z"  horiz-adv-x="584" vert-adv-y="1000"  />

      
      <glyph glyph-name="unifa" unicode="&#xfa;" d="M350 75L348 75Q292-13 192-13Q116-13 75.50 29.50Q35 72 35 136Q35 161 39 181L92 480L209 480L163 216Q158 189 158 168Q158 87 237 87Q290 87 324.50 125Q359 163 368 216L415 480L532 480L466 103Q456 53 451 0L341 0Q342 19 350 75M524 708L359 564L266 564L391 708L524 708Z"  horiz-adv-x="584" vert-adv-y="1000"  />

      
      <glyph glyph-name="unifb" unicode="&#xfb;" d="M350 75L348 75Q292-13 192-13Q116-13 75.50 29.50Q35 72 35 136Q35 161 39 181L92 480L209 480L163 216Q158 189 158 168Q158 87 237 87Q290 87 324.50 125Q359 163 368 216L415 480L532 480L466 103Q456 53 451 0L341 0Q342 19 350 75M507 564L399 564L345 655L259 564L147 564L287 708L419 708L507 564Z"  horiz-adv-x="584" vert-adv-y="1000"  />

      
      <glyph glyph-name="unifc" unicode="&#xfc;" d="M350 75L348 75Q292-13 192-13Q116-13 75.50 29.50Q35 72 35 136Q35 161 39 181L92 480L209 480L163 216Q158 189 158 168Q158 87 237 87Q290 87 324.50 125Q359 163 368 216L415 480L532 480L466 103Q456 53 451 0L341 0Q342 19 350 75M307 646Q307 616 287.50 595.50Q268 575 238 575Q208 575 189 593Q170 611 170 642Q170 673 191 693Q212 713 241 713Q270 713 288.50 695Q307 677 307 646M505 646Q505 616 485.50 595.50Q466 575 436 575Q406 575 387 593Q368 611 368 642Q368 673 389 693Q410 713 439 713Q468 713 486.50 695Q505 677 505 646Z"  horiz-adv-x="584" vert-adv-y="1000"  />

      
      <glyph glyph-name="unifd" unicode="&#xfd;" d="M543 480L203-104Q162-176 123-208Q84-240 19-240Q-14-240-42-233L-27-131Q-6-138 17-138Q48-138 66.50-121.50Q85-105 109-63L145-1L37 480L163 480L225 128L227 128L419 480L543 480M504 708L339 564L246 564L371 708L504 708Z"  horiz-adv-x="506" vert-adv-y="1000"  />

      
      <glyph glyph-name="unife" unicode="&#xfe;" d="M147 76L94-240L-24-240L152 756L269 756L204 403L207 403Q234 445 279 468Q324 491 378 491Q470 491 525.50 434Q581 377 581 284Q581 159 506 72.50Q431-14 317-14Q195-14 149 76L147 76M461 270Q461 324 429.50 359.50Q398 395 343 395Q273 395 224 339Q175 283 175 206Q175 151 208.50 116Q242 81 297 81Q370 81 415.50 135.50Q461 190 461 270Z"  horiz-adv-x="629" vert-adv-y="1000"  />

      
      <glyph glyph-name="uniff" unicode="&#xff;" d="M543 480L203-104Q162-176 123-208Q84-240 19-240Q-14-240-42-233L-27-131Q-6-138 17-138Q48-138 66.50-121.50Q85-105 109-63L145-1L37 480L163 480L225 128L227 128L419 480L543 480M286 646Q286 616 266.50 595.50Q247 575 217 575Q187 575 168 593Q149 611 149 642Q149 673 170 693Q191 713 220 713Q249 713 267.50 695Q286 677 286 646M484 646Q484 616 464.50 595.50Q445 575 415 575Q385 575 366 593Q347 611 347 642Q347 673 368 693Q389 713 418 713Q447 713 465.50 695Q484 677 484 646Z"  horiz-adv-x="506" vert-adv-y="1000"  />

      
      <glyph glyph-name="uni0100" unicode="&#x0100;" d="M623 0L492 0L463 163L160 163L59 0L-87 0L375 708L482 708L623 0M446 269L399 566L220 269L446 269M600 795L283 795L296 872L614 872L600 795Z"  horiz-adv-x="668" vert-adv-y="1000"  />

      
      <glyph glyph-name="uni0101" unicode="&#x0101;" d="M357 304Q360 320 360 335Q360 400 271 400Q199 400 132 352L87 431Q173 493 288 493Q338 493 377.50 480Q417 467 445.50 433.50Q474 400 474 348Q474 329 470 303L435 108Q423 34 423 0L315 0Q315 27 321 57L319 57Q263-10 163-10Q102-10 57 20Q12 50 12 117Q12 304 357 304M346 220L332 220Q125 220 125 136Q125 76 203 76Q256 76 293.50 108.50Q331 141 340 190L346 220M467 595L150 595L163 672L481 672L467 595Z"  horiz-adv-x="539" vert-adv-y="1000"  />

      
      <glyph glyph-name="uni0102" unicode="&#x0102;" d="M623 0L492 0L463 163L160 163L59 0L-87 0L375 708L482 708L623 0M446 269L399 566L220 269L446 269M615 908Q597 837 548.50 801Q500 765 428 765Q277 765 277 908L343 908Q343 841 435 841Q482 841 509.50 855Q537 869 550 908L615 908Z"  horiz-adv-x="668" vert-adv-y="1000"  />

      
      <glyph glyph-name="uni0103" unicode="&#x0103;" d="M357 304Q360 320 360 335Q360 400 271 400Q199 400 132 352L87 431Q173 493 288 493Q338 493 377.50 480Q417 467 445.50 433.50Q474 400 474 348Q474 329 470 303L435 108Q423 34 423 0L315 0Q315 27 321 57L319 57Q263-10 163-10Q102-10 57 20Q12 50 12 117Q12 304 357 304M346 220L332 220Q125 220 125 136Q125 76 203 76Q256 76 293.50 108.50Q331 141 340 190L346 220M485 708Q467 637 418.50 601Q370 565 298 565Q147 565 147 708L213 708Q213 641 305 641Q352 641 379.50 655Q407 669 420 708L485 708Z"  horiz-adv-x="539" vert-adv-y="1000"  />

      
      <glyph glyph-name="uni0104" unicode="&#x0104;" d="M567-195Q512-233 461-233Q420-233 397-213Q374-193 374-153Q374-82 492 0L463 163L160 163L59 0L-87 0L375 708L482 708L623 0L553 0Q455-79 455-133Q455-168 495-168Q523-168 551-147L567-195M446 269L399 566L220 269L446 269Z"  horiz-adv-x="668" vert-adv-y="1000"  />

      
      <glyph glyph-name="uni0105" unicode="&#x0105;" d="M387-195Q332-233 281-233Q240-233 217-213Q194-193 194-153Q194-82 315 2Q315 28 321 57L319 57Q263-10 163-10Q102-10 57 20Q12 50 12 117Q12 304 357 304Q360 320 360 335Q360 400 271 400Q199 400 132 352L87 431Q173 493 288 493Q338 493 377.50 480Q417 467 445.50 433.50Q474 400 474 348Q474 329 470 303L435 108Q423 34 423 0L373 0Q275-79 275-133Q275-168 315-168Q343-168 371-147L387-195M346 220L332 220Q125 220 125 136Q125 76 203 76Q256 76 293.50 108.50Q331 141 340 190L346 220Z"  horiz-adv-x="539" vert-adv-y="1000"  />

      
      <glyph glyph-name="uni0106" unicode="&#x0106;" d="M566 181L645 111Q543-18 364-18Q222-18 135 66Q48 150 48 286Q48 470 168.50 598Q289 726 465 726Q542 726 607.50 696Q673 666 706 618L609 545Q590 575 551.50 597.50Q513 620 461 620Q339 620 257.50 523.50Q176 427 176 302Q176 211 230 150.50Q284 90 379 90Q493 90 566 181M648 908L483 764L390 764L515 908L648 908Z"  horiz-adv-x="681" vert-adv-y="1000"  />

      
      <glyph glyph-name="uni0107" unicode="&#x0107;" d="M497 412L413 344Q400 366 372.50 381.50Q345 397 314 397Q241 397 192 341.50Q143 286 143 210Q143 156 174 120Q205 84 265 84Q336 84 388 138L455 70Q370-13 258-13Q154-13 90.50 44.50Q27 102 27 195Q27 316 109 404.50Q191 493 320 493Q446 493 497 412M518 708L353 564L260 564L385 708L518 708Z"  horiz-adv-x="492" vert-adv-y="1000"  />

      
      <glyph glyph-name="uni0108" unicode="&#x0108;" d="M566 181L645 111Q543-18 364-18Q222-18 135 66Q48 150 48 286Q48 470 168.50 598Q289 726 465 726Q542 726 607.50 696Q673 666 706 618L609 545Q590 575 551.50 597.50Q513 620 461 620Q339 620 257.50 523.50Q176 427 176 302Q176 211 230 150.50Q284 90 379 90Q493 90 566 181M663 764L555 764L501 855L415 764L303 764L443 908L575 908L663 764Z"  horiz-adv-x="681" vert-adv-y="1000"  />

      
      <glyph glyph-name="uni0109" unicode="&#x0109;" d="M497 412L413 344Q400 366 372.50 381.50Q345 397 314 397Q241 397 192 341.50Q143 286 143 210Q143 156 174 120Q205 84 265 84Q336 84 388 138L455 70Q370-13 258-13Q154-13 90.50 44.50Q27 102 27 195Q27 316 109 404.50Q191 493 320 493Q446 493 497 412M514 564L406 564L352 655L266 564L154 564L294 708L426 708L514 564Z"  horiz-adv-x="492" vert-adv-y="1000"  />

      
      <glyph glyph-name="uni010A" unicode="&#x010A;" d="M566 181L645 111Q543-18 364-18Q222-18 135 66Q48 150 48 286Q48 470 168.50 598Q289 726 465 726Q542 726 607.50 696Q673 666 706 618L609 545Q590 575 551.50 597.50Q513 620 461 620Q339 620 257.50 523.50Q176 427 176 302Q176 211 230 150.50Q284 90 379 90Q493 90 566 181M568 845Q568 815 547.50 793.50Q527 772 497 772Q467 772 447 790.50Q427 809 427 841Q427 872 449 893Q471 914 500 914Q529 914 548.50 895Q568 876 568 845Z"  horiz-adv-x="681" vert-adv-y="1000"  />

      
      <glyph glyph-name="uni010B" unicode="&#x010B;" d="M497 412L413 344Q400 366 372.50 381.50Q345 397 314 397Q241 397 192 341.50Q143 286 143 210Q143 156 174 120Q205 84 265 84Q336 84 388 138L455 70Q370-13 258-13Q154-13 90.50 44.50Q27 102 27 195Q27 316 109 404.50Q191 493 320 493Q446 493 497 412M425 645Q425 615 404.50 593.50Q384 572 354 572Q324 572 304 590.50Q284 609 284 641Q284 672 306 693Q328 714 357 714Q386 714 405.50 695Q425 676 425 645Z"  horiz-adv-x="492" vert-adv-y="1000"  />

      
      <glyph glyph-name="uni010C" unicode="&#x010C;" d="M566 181L645 111Q543-18 364-18Q222-18 135 66Q48 150 48 286Q48 470 168.50 598Q289 726 465 726Q542 726 607.50 696Q673 666 706 618L609 545Q590 575 551.50 597.50Q513 620 461 620Q339 620 257.50 523.50Q176 427 176 302Q176 211 230 150.50Q284 90 379 90Q493 90 566 181M689 908L549 764L418 764L330 908L439 908L492 817L578 908L689 908Z"  horiz-adv-x="681" vert-adv-y="1000"  />

      
      <glyph glyph-name="uni010D" unicode="&#x010D;" d="M497 412L413 344Q400 366 372.50 381.50Q345 397 314 397Q241 397 192 341.50Q143 286 143 210Q143 156 174 120Q205 84 265 84Q336 84 388 138L455 70Q370-13 258-13Q154-13 90.50 44.50Q27 102 27 195Q27 316 109 404.50Q191 493 320 493Q446 493 497 412M532 708L392 564L261 564L173 708L282 708L335 617L421 708L532 708Z"  horiz-adv-x="492" vert-adv-y="1000"  />

      
      <glyph glyph-name="uni010E" unicode="&#x010E;" d="M25 0L150 708L392 708Q454 708 511 691Q568 674 616 640Q664 606 693 547Q722 488 722 412Q722 227 600 113.50Q478 0 290 0L25 0M253 603L166 108L295 108Q435 108 514.50 192.50Q594 277 594 396Q594 486 535 544.50Q476 603 362 603L253 603M617 908L477 764L346 764L258 908L367 908L420 817L506 908L617 908Z"  horiz-adv-x="757" vert-adv-y="1000"  />

      
      <glyph glyph-name="uni010F" unicode="&#x010F;" d="M461 403L521 756L639 756L505 0L394 0L406 76L403 76Q343-12 230-12Q138-12 82.50 45Q27 102 27 195Q27 320 102 406.50Q177 493 291 493Q413 493 459 403L461 403M147 209Q147 155 178.50 119.50Q210 84 265 84Q335 84 384 140Q433 196 433 273Q433 328 399.50 363Q366 398 311 398Q238 398 192.50 343.50Q147 289 147 209M845 708L722 513L624 513L731 708L845 708Z"  horiz-adv-x="720" vert-adv-y="1000"  />

      
      <glyph glyph-name="uni0110" unicode="&#x0110;" d="M82 325L18 325L33 408L97 408L150 708L392 708Q454 708 511 691Q568 674 616 640Q664 606 693 547Q722 488 722 412Q722 227 600 113.50Q478 0 290 0L25 0L82 325M219 408L429 408L414 325L204 325L166 108L295 108Q435 108 514.50 192.50Q594 277 594 396Q594 486 535 544.50Q476 603 362 603L253 603L219 408Z"  horiz-adv-x="757" vert-adv-y="1000"  />

      
      <glyph glyph-name="uni0111" unicode="&#x0111;" d="M685 645L671 570L606 570L505 0L394 0L406 76L403 76Q343-12 230-12Q138-12 82.50 45Q27 102 27 195Q27 320 102 406.50Q177 493 291 493Q413 493 459 403L461 403L489 570L327 570L341 645L502 645L521 756L639 756L619 645L685 645M147 209Q147 155 178.50 119.50Q210 84 265 84Q335 84 384 140Q433 196 433 273Q433 328 399.50 363Q366 398 311 398Q238 398 192.50 343.50Q147 289 147 209Z"  horiz-adv-x="634" vert-adv-y="1000"  />

      
      <glyph glyph-name="uni0112" unicode="&#x0112;" d="M500 0L25 0L150 708L596 708L577 600L251 600L219 417L530 417L511 313L201 313L165 110L519 110L500 0M539 795L222 795L235 872L553 872L539 795Z"  horiz-adv-x="584" vert-adv-y="1000"  />

      
      <glyph glyph-name="uni0113" unicode="&#x0113;" d="M496 203L140 203Q139 198 139 192Q139 145 175.50 113.50Q212 82 265 82Q346 82 402 145L469 82Q380-14 252-14Q152-14 89.50 43Q27 100 27 199Q27 324 107 408.50Q187 493 308 493Q397 493 452.50 443Q508 393 508 301Q508 252 496 203M400 287Q402 305 402 312Q402 352 373.50 378.50Q345 405 297 405Q240 405 200 368Q160 331 151 287L400 287M493 595L176 595L189 672L507 672L493 595Z"  horiz-adv-x="564" vert-adv-y="1000"  />

      
      <glyph glyph-name="uni0114" unicode="&#x0114;" d="M500 0L25 0L150 708L596 708L577 600L251 600L219 417L530 417L511 313L201 313L165 110L519 110L500 0M563 908Q545 837 496.50 801Q448 765 376 765Q225 765 225 908L291 908Q291 841 383 841Q430 841 457.50 855Q485 869 498 908L563 908Z"  horiz-adv-x="584" vert-adv-y="1000"  />

      
      <glyph glyph-name="uni0115" unicode="&#x0115;" d="M496 203L140 203Q139 198 139 192Q139 145 175.50 113.50Q212 82 265 82Q346 82 402 145L469 82Q380-14 252-14Q152-14 89.50 43Q27 100 27 199Q27 324 107 408.50Q187 493 308 493Q397 493 452.50 443Q508 393 508 301Q508 252 496 203M400 287Q402 305 402 312Q402 352 373.50 378.50Q345 405 297 405Q240 405 200 368Q160 331 151 287L400 287M520 708Q502 637 453.50 601Q405 565 333 565Q182 565 182 708L248 708Q248 641 340 641Q387 641 414.50 655Q442 669 455 708L520 708Z"  horiz-adv-x="564" vert-adv-y="1000"  />

      
      <glyph glyph-name="uni0116" unicode="&#x0116;" d="M500 0L25 0L150 708L596 708L577 600L251 600L219 417L530 417L511 313L201 313L165 110L519 110L500 0M468 845Q468 815 447.50 793.50Q427 772 397 772Q367 772 347 790.50Q327 809 327 841Q327 872 349 893Q371 914 400 914Q429 914 448.50 895Q468 876 468 845Z"  horiz-adv-x="584" vert-adv-y="1000"  />

      
      <glyph glyph-name="uni0117" unicode="&#x0117;" d="M496 203L140 203Q139 198 139 192Q139 145 175.50 113.50Q212 82 265 82Q346 82 402 145L469 82Q380-14 252-14Q152-14 89.50 43Q27 100 27 199Q27 324 107 408.50Q187 493 308 493Q397 493 452.50 443Q508 393 508 301Q508 252 496 203M400 287Q402 305 402 312Q402 352 373.50 378.50Q345 405 297 405Q240 405 200 368Q160 331 151 287L400 287M412 645Q412 615 391.50 593.50Q371 572 341 572Q311 572 291 590.50Q271 609 271 641Q271 672 293 693Q315 714 344 714Q373 714 392.50 695Q412 676 412 645Z"  horiz-adv-x="564" vert-adv-y="1000"  />

      
      <glyph glyph-name="uni0118" unicode="&#x0118;" d="M483-195Q428-233 377-233Q336-233 313-213Q290-193 290-153Q290-84 407 0L25 0L150 708L596 708L577 600L251 600L219 417L530 417L511 313L201 313L165 110L519 110L500 0L469 0Q371-79 371-133Q371-168 411-168Q439-168 467-147L483-195Z"  horiz-adv-x="584" vert-adv-y="1000"  />

      
      <glyph glyph-name="uni0119" unicode="&#x0119;" d="M336-195Q281-233 230-233Q189-233 166-213Q143-193 143-153Q143-88 241-14Q146-11 86.50 45.50Q27 102 27 199Q27 324 107 408.50Q187 493 308 493Q397 493 452.50 443Q508 393 508 301Q508 252 496 203L140 203Q139 198 139 192Q139 145 175.50 113.50Q212 82 265 82Q346 82 402 145L469 82Q401 8 311-8Q224-81 224-133Q224-168 264-168Q292-168 320-147L336-195M400 287Q402 305 402 312Q402 352 373.50 378.50Q345 405 297 405Q240 405 200 368Q160 331 151 287L400 287Z"  horiz-adv-x="564" vert-adv-y="1000"  />

      
      <glyph glyph-name="uni011A" unicode="&#x011A;" d="M500 0L25 0L150 708L596 708L577 600L251 600L219 417L530 417L511 313L201 313L165 110L519 110L500 0M583 908L443 764L312 764L224 908L333 908L386 817L472 908L583 908Z"  horiz-adv-x="584" vert-adv-y="1000"  />

      
      <glyph glyph-name="uni011B" unicode="&#x011B;" d="M496 203L140 203Q139 198 139 192Q139 145 175.50 113.50Q212 82 265 82Q346 82 402 145L469 82Q380-14 252-14Q152-14 89.50 43Q27 100 27 199Q27 324 107 408.50Q187 493 308 493Q397 493 452.50 443Q508 393 508 301Q508 252 496 203M400 287Q402 305 402 312Q402 352 373.50 378.50Q345 405 297 405Q240 405 200 368Q160 331 151 287L400 287M531 708L391 564L260 564L172 708L281 708L334 617L420 708L531 708Z"  horiz-adv-x="564" vert-adv-y="1000"  />

      
      <glyph glyph-name="uni011C" unicode="&#x011C;" d="M393 90Q471 92 522 117L553 297L401 297L421 404L692 404L629 38Q517-18 375-18Q228-18 138 66Q48 150 48 286Q48 470 168.50 598Q289 726 465 726Q545 726 611 698.50Q677 671 716 618L619 545Q564 620 461 620Q339 620 257.50 523.50Q176 427 176 302Q176 208 234 149Q292 90 393 90M658 764L550 764L496 855L410 764L298 764L438 908L570 908L658 764Z"  horiz-adv-x="740" vert-adv-y="1000"  />

      
      <glyph glyph-name="uni011D" unicode="&#x011D;" d="M463 407L466 407L478 480L590 480L514 41Q491-96 421.50-168Q352-240 214-240Q151-240 86-217Q21-194-17-154L61-69Q119-138 217-138Q299-138 339-95Q379-52 396 28L404 66L402 66Q345-9 237-9Q145-9 89.50 47.50Q34 104 34 197Q34 322 109 407.50Q184 493 298 493Q421 493 463 407M154 211Q154 157 185.50 121.50Q217 86 272 86Q342 86 391 142Q440 198 440 274Q440 329 406.50 364Q373 399 318 399Q245 399 199.50 345Q154 291 154 211M547 564L439 564L385 655L299 564L187 564L327 708L459 708L547 564Z"  horiz-adv-x="632" vert-adv-y="1000"  />

      
      <glyph glyph-name="uni011E" unicode="&#x011E;" d="M393 90Q471 92 522 117L553 297L401 297L421 404L692 404L629 38Q517-18 375-18Q228-18 138 66Q48 150 48 286Q48 470 168.50 598Q289 726 465 726Q545 726 611 698.50Q677 671 716 618L619 545Q564 620 461 620Q339 620 257.50 523.50Q176 427 176 302Q176 208 234 149Q292 90 393 90M671 908Q653 837 604.50 801Q556 765 484 765Q333 765 333 908L399 908Q399 841 491 841Q538 841 565.50 855Q593 869 606 908L671 908Z"  horiz-adv-x="740" vert-adv-y="1000"  />

      
      <glyph glyph-name="uni011F" unicode="&#x011F;" d="M463 407L466 407L478 480L590 480L514 41Q491-96 421.50-168Q352-240 214-240Q151-240 86-217Q21-194-17-154L61-69Q119-138 217-138Q299-138 339-95Q379-52 396 28L404 66L402 66Q345-9 237-9Q145-9 89.50 47.50Q34 104 34 197Q34 322 109 407.50Q184 493 298 493Q421 493 463 407M154 211Q154 157 185.50 121.50Q217 86 272 86Q342 86 391 142Q440 198 440 274Q440 329 406.50 364Q373 399 318 399Q245 399 199.50 345Q154 291 154 211M547 708Q529 637 480.50 601Q432 565 360 565Q209 565 209 708L275 708Q275 641 367 641Q414 641 441.50 655Q469 669 482 708L547 708Z"  horiz-adv-x="632" vert-adv-y="1000"  />

      
      <glyph glyph-name="uni0120" unicode="&#x0120;" d="M393 90Q471 92 522 117L553 297L401 297L421 404L692 404L629 38Q517-18 375-18Q228-18 138 66Q48 150 48 286Q48 470 168.50 598Q289 726 465 726Q545 726 611 698.50Q677 671 716 618L619 545Q564 620 461 620Q339 620 257.50 523.50Q176 427 176 302Q176 208 234 149Q292 90 393 90M557 845Q557 815 536.50 793.50Q516 772 486 772Q456 772 436 790.50Q416 809 416 841Q416 872 438 893Q460 914 489 914Q518 914 537.50 895Q557 876 557 845Z"  horiz-adv-x="740" vert-adv-y="1000"  />

      
      <glyph glyph-name="uni0121" unicode="&#x0121;" d="M463 407L466 407L478 480L590 480L514 41Q491-96 421.50-168Q352-240 214-240Q151-240 86-217Q21-194-17-154L61-69Q119-138 217-138Q299-138 339-95Q379-52 396 28L404 66L402 66Q345-9 237-9Q145-9 89.50 47.50Q34 104 34 197Q34 322 109 407.50Q184 493 298 493Q421 493 463 407M154 211Q154 157 185.50 121.50Q217 86 272 86Q342 86 391 142Q440 198 440 274Q440 329 406.50 364Q373 399 318 399Q245 399 199.50 345Q154 291 154 211M447 645Q447 615 426.50 593.50Q406 572 376 572Q346 572 326 590.50Q306 609 306 641Q306 672 328 693Q350 714 379 714Q408 714 427.50 695Q447 676 447 645Z"  horiz-adv-x="632" vert-adv-y="1000"  />

      
      <glyph glyph-name="uni0122" unicode="&#x0122;" d="M393 90Q471 92 522 117L553 297L401 297L421 404L692 404L629 38Q517-18 375-18Q228-18 138 66Q48 150 48 286Q48 470 168.50 598Q289 726 465 726Q545 726 611 698.50Q677 671 716 618L619 545Q564 620 461 620Q339 620 257.50 523.50Q176 427 176 302Q176 208 234 149Q292 90 393 90M405-45L282-240L184-240L291-45L405-45Z"  horiz-adv-x="740" vert-adv-y="1000"  />

      
      <glyph glyph-name="uni0123" unicode="&#x0123;" d="M463 407L466 407L478 480L590 480L514 41Q491-96 421.50-168Q352-240 214-240Q151-240 86-217Q21-194-17-154L61-69Q119-138 217-138Q299-138 339-95Q379-52 396 28L404 66L402 66Q345-9 237-9Q145-9 89.50 47.50Q34 104 34 197Q34 322 109 407.50Q184 493 298 493Q421 493 463 407M154 211Q154 157 185.50 121.50Q217 86 272 86Q342 86 391 142Q440 198 440 274Q440 329 406.50 364Q373 399 318 399Q245 399 199.50 345Q154 291 154 211M271 564L394 759L492 759L385 564L271 564Z"  horiz-adv-x="632" vert-adv-y="1000"  />

      
      <glyph glyph-name="uni0124" unicode="&#x0124;" d="M596 0L473 0L528 315L204 315L148 0L25 0L150 708L273 708L222 421L547 421L598 708L721 708L596 0M619 764L511 764L457 855L371 764L259 764L399 908L531 908L619 764Z"  horiz-adv-x="729" vert-adv-y="1000"  />

      
      <glyph glyph-name="uni0125" unicode="&#x0125;" d="M461 0L344 0L390 264Q395 291 395 312Q395 393 316 393Q263 393 228.50 354.50Q194 316 184 261L138 0L21 0L154 756L272 756L211 412L213 412Q235 447 273 470Q311 493 361 493Q437 493 477.50 450.50Q518 408 518 344Q518 319 514 299L461 0M564 796L456 796L402 887L316 796L204 796L344 940L476 940L564 796Z"  horiz-adv-x="584" vert-adv-y="1000"  />

      
      <glyph glyph-name="uni0126" unicode="&#x0126;" d="M596 0L473 0L528 315L204 315L148 0L25 0L150 708L273 708L249 575L574 575L598 708L721 708L596 0M222 421L547 421L561 500L236 500L222 421Z"  horiz-adv-x="729" vert-adv-y="1000"  />

      
      <glyph glyph-name="uni0127" unicode="&#x0127;" d="M405 645L391 570L239 570L211 412L213 412Q235 447 273 470Q311 493 361 493Q437 493 477.50 450.50Q518 408 518 344Q518 319 514 299L461 0L344 0L390 264Q395 291 395 312Q395 393 316 393Q263 393 228.50 354.50Q194 316 184 261L138 0L21 0L121 570L47 570L61 645L134 645L154 756L272 756L252 645L405 645Z"  horiz-adv-x="584" vert-adv-y="1000"  />

      
      <glyph glyph-name="uni0128" unicode="&#x0128;" d="M148 0L25 0L150 708L273 708L148 0M100 768L34 768Q77 893 169 893Q208 893 244 875Q284 856 306 856Q339 856 359 900L425 900Q382 775 291 775Q258 775 222 792Q178 813 154 813Q122 813 100 768Z"  horiz-adv-x="291" vert-adv-y="1000"  />

      
      <glyph glyph-name="uni0129" unicode="&#x0129;" d="M138 0L21 0L105 480L223 480L138 0M55 568L-11 568Q32 693 124 693Q163 693 199 675Q239 656 261 656Q294 656 314 700L380 700Q337 575 246 575Q213 575 177 592Q133 613 109 613Q78 613 55 568Z"  horiz-adv-x="267" vert-adv-y="1000"  />

      
      <glyph glyph-name="uni012A" unicode="&#x012A;" d="M148 0L25 0L150 708L273 708L148 0M381 795L64 795L77 872L395 872L381 795Z"  horiz-adv-x="291" vert-adv-y="1000"  />

      
      <glyph glyph-name="uni012B" unicode="&#x012B;" d="M138 0L21 0L105 480L223 480L138 0M337 595L20 595L33 672L351 672L337 595Z"  horiz-adv-x="267" vert-adv-y="1000"  />

      
      <glyph glyph-name="uni012C" unicode="&#x012C;" d="M148 0L25 0L150 708L273 708L148 0M416 908Q398 837 349.50 801Q301 765 229 765Q78 765 78 908L144 908Q144 841 236 841Q283 841 310.50 855Q338 869 351 908L416 908Z"  horiz-adv-x="291" vert-adv-y="1000"  />

      
      <glyph glyph-name="uni012D" unicode="&#x012D;" d="M138 0L21 0L105 480L223 480L138 0M371 708Q353 637 304.50 601Q256 565 184 565Q33 565 33 708L99 708Q99 641 191 641Q238 641 265.50 655Q293 669 306 708L371 708Z"  horiz-adv-x="267" vert-adv-y="1000"  />

      
      <glyph glyph-name="uni012E" unicode="&#x012E;" d="M153-195Q98-233 47-233Q6-233-17-213Q-40-193-40-153Q-40-84 77 0L25 0L150 708L273 708L148 0L139 0Q41-79 41-133Q41-168 81-168Q109-168 137-147L153-195Z"  horiz-adv-x="281" vert-adv-y="1000"  />

      
      <glyph glyph-name="uni012F" unicode="&#x012F;" d="M144-195Q89-233 38-233Q-3-233-26-213Q-49-193-49-153Q-49-84 68 0L21 0L105 480L223 480L138 0L130 0Q32-79 32-133Q32-168 72-168Q100-168 128-147L144-195M262 645Q262 615 241.50 593.50Q221 572 191 572Q161 572 141 590.50Q121 609 121 641Q121 672 143 693Q165 714 194 714Q223 714 242.50 695Q262 676 262 645Z"  horiz-adv-x="267" vert-adv-y="1000"  />

      
      <glyph glyph-name="uni0130" unicode="&#x0130;" d="M148 0L25 0L150 708L273 708L148 0M300 845Q300 815 279.50 793.50Q259 772 229 772Q199 772 179 790.50Q159 809 159 841Q159 872 181 893Q203 914 232 914Q261 914 280.50 895Q300 876 300 845Z"  horiz-adv-x="291" vert-adv-y="1000"  />

      
      <glyph glyph-name="uni0131" unicode="&#x0131;" d="M138 0L21 0L105 480L223 480L138 0Z"  horiz-adv-x="267" vert-adv-y="1000"  />

      
      <glyph glyph-name="uni0132" unicode="&#x0132;" d="M148 0L25 0L150 708L273 708L148 0M693 228Q686 190 677.50 160Q669 130 651 95Q633 60 609 36.50Q585 13 545.50-2.50Q506-18 456-18Q373-18 320 24.50Q267 67 258 137L373 170Q377 136 398.50 113.50Q420 91 453 91Q507 91 532.50 127Q558 163 570 232L654 708L778 708L693 228Z"  horiz-adv-x="782" vert-adv-y="1000"  />

      
      <glyph glyph-name="uni0133" unicode="&#x0133;" d="M138 0L21 0L105 480L223 480L138 0M262 645Q262 615 241.50 593.50Q221 572 191 572Q161 572 141 590.50Q121 609 121 641Q121 672 143 693Q165 714 194 714Q223 714 242.50 695Q262 676 262 645M405-32Q397-79 384.50-113Q372-147 350-177.50Q328-208 291-224Q254-240 203-240Q174-240 150-234L173-134Q186-138 205-138Q244-138 260.50-112Q277-86 286-36L377 480L495 480L405-32M534 645Q534 615 513.50 593.50Q493 572 463 572Q433 572 413 590.50Q393 609 393 641Q393 672 415 693Q437 714 466 714Q495 714 514.50 695Q534 676 534 645Z"  horiz-adv-x="539" vert-adv-y="1000"  />

      
      <glyph glyph-name="uni0134" unicode="&#x0134;" d="M411 228Q404 190 395.50 160Q387 130 369 95Q351 60 327 36.50Q303 13 263.50-2.50Q224-18 174-18Q91-18 38 24.50Q-15 67-24 137L91 170Q95 136 116.50 113.50Q138 91 171 91Q225 91 250.50 127Q276 163 288 232L372 708L496 708L411 228M620 764L512 764L458 855L372 764L260 764L400 908L532 908L620 764Z"  horiz-adv-x="500" vert-adv-y="1000"  />

      
      <glyph glyph-name="uni0135" unicode="&#x0135;" d="M133-32Q125-79 112.50-113Q100-147 78-177.50Q56-208 19-224Q-18-240-69-240Q-98-240-122-234L-99-134Q-86-138-67-138Q-28-138-11.50-112Q5-86 14-36L105 480L223 480L133-32M355 564L247 564L193 655L107 564L-5 564L135 708L267 708L355 564Z"  horiz-adv-x="267" vert-adv-y="1000"  />

      
      <glyph glyph-name="uni0136" unicode="&#x0136;" d="M612 0L451 0L212 356L209 356L147 0L25 0L150 708L272 708L216 394L219 394L538 708L704 708L337 374L612 0M346-45L223-240L125-240L232-45L346-45Z"  horiz-adv-x="646" vert-adv-y="1000"  />

      
      <glyph glyph-name="uni0137" unicode="&#x0137;" d="M481 0L336 0L185 246L182 246L138 0L21 0L154 756L272 756L187 277L190 277L407 480L561 480L306 257L481 0M279-45L156-240L58-240L165-45L279-45Z"  horiz-adv-x="521" vert-adv-y="1000"  />

      
      <glyph glyph-name="uni0138" unicode="&#x0138;" d="M481 0L336 0L185 246L182 246L138 0L21 0L105 480L223 480L187 277L190 277L407 480L561 480L306 257L481 0Z"  horiz-adv-x="521" vert-adv-y="1000"  />

      
      <glyph glyph-name="uni0139" unicode="&#x0139;" d="M451 0L25 0L150 708L273 708L167 110L470 110L451 0M426 908L261 764L168 764L293 908L426 908Z"  horiz-adv-x="511" vert-adv-y="1000"  />

      
      <glyph glyph-name="uni013A" unicode="&#x013A;" d="M138 0L21 0L154 756L272 756L138 0M417 936L252 792L159 792L284 936L417 936Z"  horiz-adv-x="267" vert-adv-y="1000"  />

      
      <glyph glyph-name="uni013B" unicode="&#x013B;" d="M451 0L25 0L150 708L273 708L167 110L470 110L451 0M289-45L166-240L68-240L175-45L289-45Z"  horiz-adv-x="511" vert-adv-y="1000"  />

      
      <glyph glyph-name="uni013C" unicode="&#x013C;" d="M138 0L21 0L154 756L272 756L138 0M137-45L14-240L-84-240L23-45L137-45Z"  horiz-adv-x="267" vert-adv-y="1000"  />

      
      <glyph glyph-name="uni013D" unicode="&#x013D;" d="M451 0L25 0L150 708L273 708L167 110L470 110L451 0M524 708L401 513L303 513L410 708L524 708Z"  horiz-adv-x="511" vert-adv-y="1000"  />

      
      <glyph glyph-name="uni013E" unicode="&#x013E;" d="M138 0L21 0L154 756L272 756L138 0M483 708L360 513L262 513L369 708L483 708Z"  horiz-adv-x="348" vert-adv-y="1000"  />

      
      <glyph glyph-name="uni013F" unicode="&#x013F;" d="M451 0L25 0L150 708L273 708L167 110L470 110L451 0M444 425Q444 395 423.50 373.50Q403 352 373 352Q343 352 323 370.50Q303 389 303 421Q303 452 325 473Q347 494 376 494Q405 494 424.50 475Q444 456 444 425Z"  horiz-adv-x="511" vert-adv-y="1000"  />

      
      <glyph glyph-name="uni0140" unicode="&#x0140;" d="M138 0L21 0L154 756L272 756L138 0M405 455Q405 425 384.50 403.50Q364 382 334 382Q304 382 284 400.50Q264 419 264 451Q264 482 286 503Q308 524 337 524Q366 524 385.50 505Q405 486 405 455Z"  horiz-adv-x="391" vert-adv-y="1000"  />

      
      <glyph glyph-name="uni0141" unicode="&#x0141;" d="M451 0L25 0L61 203L-21 141L-2 249L80 311L150 708L273 708L220 406L458 587L439 480L201 298L167 110L470 110L451 0Z"  horiz-adv-x="518" vert-adv-y="1000"  />

      
      <glyph glyph-name="uni0142" unicode="&#x0142;" d="M289 463L208 395L138 0L21 0L74 300L-8 230L11 337L93 407L154 756L272 756L226 499L308 569L289 463Z"  horiz-adv-x="259" vert-adv-y="1000"  />

      
      <glyph glyph-name="uni0143" unicode="&#x0143;" d="M632 0L479 0L247 550L245 550L148 0L25 0L150 708L310 708L538 175L540 175L634 708L757 708L632 0M643 908L478 764L385 764L510 908L643 908Z"  horiz-adv-x="788" vert-adv-y="1000"  />

      
      <glyph glyph-name="uni0144" unicode="&#x0144;" d="M203 405L205 405Q261 493 361 493Q437 493 477.50 450.50Q518 408 518 344Q518 319 514 299L461 0L344 0L390 264Q395 291 395 312Q395 393 316 393Q263 393 228.50 355Q194 317 185 264L138 0L21 0L87 377Q97 427 102 480L212 480Q211 461 203 405M511 708L346 564L253 564L378 708L511 708Z"  horiz-adv-x="584" vert-adv-y="1000"  />

      
      <glyph glyph-name="uni0145" unicode="&#x0145;" d="M632 0L479 0L247 550L245 550L148 0L25 0L150 708L310 708L538 175L540 175L634 708L757 708L632 0M380-45L257-240L159-240L266-45L380-45Z"  horiz-adv-x="788" vert-adv-y="1000"  />

      
      <glyph glyph-name="uni0146" unicode="&#x0146;" d="M203 405L205 405Q261 493 361 493Q437 493 477.50 450.50Q518 408 518 344Q518 319 514 299L461 0L344 0L390 264Q395 291 395 312Q395 393 316 393Q263 393 228.50 355Q194 317 185 264L138 0L21 0L87 377Q97 427 102 480L212 480Q211 461 203 405M296-45L173-240L75-240L182-45L296-45Z"  horiz-adv-x="584" vert-adv-y="1000"  />

      
      <glyph glyph-name="uni0147" unicode="&#x0147;" d="M632 0L479 0L247 550L245 550L148 0L25 0L150 708L310 708L538 175L540 175L634 708L757 708L632 0M660 908L520 764L389 764L301 908L410 908L463 817L549 908L660 908Z"  horiz-adv-x="788" vert-adv-y="1000"  />

      
      <glyph glyph-name="uni0148" unicode="&#x0148;" d="M203 405L205 405Q261 493 361 493Q437 493 477.50 450.50Q518 408 518 344Q518 319 514 299L461 0L344 0L390 264Q395 291 395 312Q395 393 316 393Q263 393 228.50 355Q194 317 185 264L138 0L21 0L87 377Q97 427 102 480L212 480Q211 461 203 405M535 708L395 564L264 564L176 708L285 708L338 617L424 708L535 708Z"  horiz-adv-x="584" vert-adv-y="1000"  />

      
      <glyph glyph-name="uni0149" unicode="&#x0149;" d="M238 405L240 405Q296 493 396 493Q472 493 512.50 450.50Q553 408 553 344Q553 319 549 299L496 0L379 0L425 264Q430 291 430 312Q430 393 351 393Q298 393 263.50 355Q229 317 220 264L173 0L56 0L122 377Q132 427 137 480L247 480Q246 461 238 405M249 708L126 513L28 513L135 708L249 708Z"  horiz-adv-x="619" vert-adv-y="1000"  />

      
      <glyph glyph-name="uni014A" unicode="&#x014A;" d="M25 0L150 708L310 708L543 207L545 207L634 708L757 708L627-32Q619-79 606.50-113Q594-147 572-177.50Q550-208 513-224Q476-240 425-240Q396-240 372-234L395-134Q408-138 427-138Q466-138 482.50-112Q499-86 508-36L512-10L247 550L245 550L148 0L25 0Z"  horiz-adv-x="788" vert-adv-y="1000"  />

      
      <glyph glyph-name="uni014B" unicode="&#x014B;" d="M456-32Q448-79 435.50-113Q423-147 401-177.50Q379-208 342-224Q305-240 254-240Q225-240 201-234L224-134Q237-138 256-138Q295-138 311.50-112Q328-86 337-36L390 264Q395 291 395 312Q395 393 316 393Q263 393 228.50 355Q194 317 185 264L138 0L21 0L87 377Q97 427 102 480L212 480Q211 461 203 405L205 405Q261 493 361 493Q437 493 477.50 450.50Q518 408 518 344Q518 319 514 299L456-32Z"  horiz-adv-x="584" vert-adv-y="1000"  />

      
      <glyph glyph-name="uni014C" unicode="&#x014C;" d="M459 726Q611 726 702.50 643.50Q794 561 794 419Q794 300 742 200Q690 100 597 41Q504-18 389-18Q232-18 140 64.50Q48 147 48 289Q48 471 166.50 598.50Q285 726 459 726M389 90Q516 90 591.50 185Q667 280 667 408Q667 499 610 559.50Q553 620 453 620Q330 620 252.50 524Q175 428 175 302Q175 211 232 150.50Q289 90 389 90M652 795L335 795L348 872L666 872L652 795Z"  horiz-adv-x="829" vert-adv-y="1000"  />

      
      <glyph glyph-name="uni014D" unicode="&#x014D;" d="M259-13Q158-13 92.50 45.50Q27 104 27 196Q27 318 108 405.50Q189 493 317 493Q419 493 484.50 435Q550 377 550 285Q550 161 469 74Q388-13 259-13M432 273Q432 327 398.50 362Q365 397 309 397Q236 397 189.50 341.50Q143 286 143 208Q143 153 175.50 118.50Q208 84 265 84Q339 84 385.50 139Q432 194 432 273M508 595L191 595L204 672L522 672L508 595Z"  horiz-adv-x="604" vert-adv-y="1000"  />

      
      <glyph glyph-name="uni014E" unicode="&#x014E;" d="M459 726Q611 726 702.50 643.50Q794 561 794 419Q794 300 742 200Q690 100 597 41Q504-18 389-18Q232-18 140 64.50Q48 147 48 289Q48 471 166.50 598.50Q285 726 459 726M389 90Q516 90 591.50 185Q667 280 667 408Q667 499 610 559.50Q553 620 453 620Q330 620 252.50 524Q175 428 175 302Q175 211 232 150.50Q289 90 389 90M670 908Q652 837 603.50 801Q555 765 483 765Q332 765 332 908L398 908Q398 841 490 841Q537 841 564.50 855Q592 869 605 908L670 908Z"  horiz-adv-x="829" vert-adv-y="1000"  />

      
      <glyph glyph-name="uni014F" unicode="&#x014F;" d="M259-13Q158-13 92.50 45.50Q27 104 27 196Q27 318 108 405.50Q189 493 317 493Q419 493 484.50 435Q550 377 550 285Q550 161 469 74Q388-13 259-13M432 273Q432 327 398.50 362Q365 397 309 397Q236 397 189.50 341.50Q143 286 143 208Q143 153 175.50 118.50Q208 84 265 84Q339 84 385.50 139Q432 194 432 273M530 708Q512 637 463.50 601Q415 565 343 565Q192 565 192 708L258 708Q258 641 350 641Q397 641 424.50 655Q452 669 465 708L530 708Z"  horiz-adv-x="604" vert-adv-y="1000"  />

      
      <glyph glyph-name="uni0150" unicode="&#x0150;" d="M459 726Q611 726 702.50 643.50Q794 561 794 419Q794 300 742 200Q690 100 597 41Q504-18 389-18Q232-18 140 64.50Q48 147 48 289Q48 471 166.50 598.50Q285 726 459 726M389 90Q516 90 591.50 185Q667 280 667 408Q667 499 610 559.50Q553 620 453 620Q330 620 252.50 524Q175 428 175 302Q175 211 232 150.50Q289 90 389 90M798 908L632 764L539 764L664 908L798 908M593 908L427 764L335 764L459 908L593 908Z"  horiz-adv-x="829" vert-adv-y="1000"  />

      
      <glyph glyph-name="uni0151" unicode="&#x0151;" d="M259-13Q158-13 92.50 45.50Q27 104 27 196Q27 318 108 405.50Q189 493 317 493Q419 493 484.50 435Q550 377 550 285Q550 161 469 74Q388-13 259-13M432 273Q432 327 398.50 362Q365 397 309 397Q236 397 189.50 341.50Q143 286 143 208Q143 153 175.50 118.50Q208 84 265 84Q339 84 385.50 139Q432 194 432 273M652 708L486 564L393 564L518 708L652 708M447 708L281 564L189 564L313 708L447 708Z"  horiz-adv-x="604" vert-adv-y="1000"  />

      
      <glyph glyph-name="uni0152" unicode="&#x0152;" d="M467 108L554 603L475 603Q335 603 255.50 518.50Q176 434 176 315Q176 225 235 166.50Q294 108 408 108L467 108M480 708L1018 708L999 600L673 600L641 417L952 417L933 313L623 313L587 110L941 110L922 0L378 0Q316 0 259 17Q202 34 154 68Q106 102 77 161Q48 220 48 296Q48 481 170 594.50Q292 708 480 708Z"  horiz-adv-x="1006" vert-adv-y="1000"  />

      
      <glyph glyph-name="uni0153" unicode="&#x0153;" d="M457 78Q391-13 255-13Q154-13 90.50 45Q27 103 27 196Q27 319 110.50 406Q194 493 321 493Q454 493 502 398Q576 493 703 493Q792 493 847.50 443Q903 393 903 301Q903 252 891 203L535 203Q534 198 534 192Q534 145 570.50 113.50Q607 82 660 82Q741 82 797 145L864 82Q776-14 647-14Q510-14 457 78M795 287Q797 305 797 312Q797 352 768.50 378.50Q740 405 692 405Q635 405 595 368Q555 331 546 287L795 287M432 273Q432 327 398.50 362Q365 397 309 397Q238 397 190.50 341Q143 285 143 208Q143 153 175.50 118.50Q208 84 265 84Q337 84 384.50 139.50Q432 195 432 273Z"  horiz-adv-x="959" vert-adv-y="1000"  />

      
      <glyph glyph-name="uni0154" unicode="&#x0154;" d="M418 316L565 0L426 0L292 302L198 302L146 0L25 0L150 708L360 708Q476 708 540 659.50Q604 611 604 525Q604 442 554.50 388.50Q505 335 418 316M308 403Q477 403 477 512Q477 562 442 583Q407 604 341 604L252 604L216 403L308 403M552 908L387 764L294 764L419 908L552 908Z"  horiz-adv-x="624" vert-adv-y="1000"  />

      
      </font>
</defs>
</svg>
