<?xml version="1.0" standalone="no"?>
  <!DOCTYPE svg PUBLIC "-//W3C//DTD SVG 1.1//EN" "http://www.w3.org/Graphics/SVG/1.1/DTD/svg11.dtd" >
  <svg>
  <metadata>
  Created by font-carrier
  </metadata>
  <defs>
  <font id="AvenirNextCyr-BoldItalic" horiz-adv-x="1250" vert-adv-y="1250" >
    <font-face
      
      font-family="Avenir Next Cyr Medium"
      
      font-weight="400"
      
      font-stretch="normal"
      
      units-per-em="1000"
      
      ascent="971"
      
      descent="-254"
      
    />
      <missing-glyph />

      

      
      <glyph glyph-name="uni21" unicode="&#x21;" d="M243 236L80 236L163 708L327 708L243 236M236 92Q236 50 208.50 21Q181-8 139-8Q99-8 74 15.50Q49 39 49 76Q49 118 77.50 147Q106 176 147 176Q186 176 211 152Q236 128 236 92Z"  horiz-adv-x="353" vert-adv-y="1000"  />

      
      <glyph glyph-name="uni22" unicode="&#x22;" d="M418 438L291 438L339 708L466 708L418 438M225 438L98 438L146 708L274 708L225 438Z"  horiz-adv-x="490" vert-adv-y="1000"  />

      
      <glyph glyph-name="uni23" unicode="&#x23;" d="M571 405L471 405L439 303L524 303L506 201L408 201L343 0L235 0L299 201L218 201L154 0L46 0L110 201L25 201L43 303L141 303L175 405L90 405L107 507L207 507L271 708L379 708L316 507L396 507L460 708L568 708L504 507L589 507L571 405M364 405L283 405L250 303L331 303L364 405Z"  horiz-adv-x="601" vert-adv-y="1000"  />

      
      <glyph glyph-name="uni24" unicode="&#x24;" d="M615 638L508 540Q469 588 401 590L372 423Q465 392 514.50 347Q564 302 564 219Q564 118 487 56.50Q410-5 296-10L283-84L213-84L225-10Q161-7 99 19.50Q37 46 2 91L121 191Q141 162 177.50 142Q214 122 249 121L280 300Q196 324 146 367Q96 410 96 490Q96 590 171.50 652.50Q247 715 351 718L364 790L435 790L422 718Q552 708 615 638M330 589Q293 587 269.50 566.50Q246 546 246 510Q246 461 304 443L330 589M408 206Q408 258 348 281L319 121Q358 123 383 146Q408 169 408 206Z"  horiz-adv-x="644" vert-adv-y="1000"  />

      
      <glyph glyph-name="uni25" unicode="&#x25;" d="M865 202Q865 112 806 50.50Q747-11 656-11Q582-11 534 32.50Q486 76 486 147Q486 236 545.50 297.50Q605 359 695 359Q770 359 817.50 315.50Q865 272 865 202M751 189Q751 217 733.50 236.50Q716 256 687 256Q649 256 624.50 228.50Q600 201 600 160Q600 131 617.50 111.50Q635 92 663 92Q703 92 727 119.50Q751 147 751 189M442 563Q442 473 382.50 411.50Q323 350 233 350Q159 350 111 393.50Q63 437 63 508Q63 597 122.50 658.50Q182 720 273 720Q348 720 395 676.50Q442 633 442 563M329 550Q329 578 311.50 597.50Q294 617 264 617Q226 617 201.50 589.50Q177 562 177 521Q177 492 194.50 472.50Q212 453 241 453Q280 453 304.50 480.50Q329 508 329 550M771 694L224-35L153 11L699 740L771 694Z"  horiz-adv-x="908" vert-adv-y="1000"  />

      
      <glyph glyph-name="uni26" unicode="&#x26;" d="M741 379L574 177L725 0L527 0L470 72Q374-14 257-14Q153-14 86.50 35Q20 84 20 179Q20 257 70.50 312.50Q121 368 207 399Q161 457 161 529Q161 614 223 670.50Q285 727 380 727Q470 727 526 681.50Q582 636 582 556Q582 434 409 361L482 274L558 379L741 379M441 549Q441 577 424.50 594Q408 611 380 611Q347 611 325.50 589Q304 567 304 534Q304 485 340 449Q385 465 413 491Q441 517 441 549M384 174L279 303Q180 270 180 194Q180 160 206 138Q232 116 269 116Q334 116 384 174Z"  horiz-adv-x="777" vert-adv-y="1000"  />

      
      <glyph glyph-name="uni27" unicode="&#x27;" d="M225 438L98 438L145 708L272 708L225 438Z"  horiz-adv-x="296" vert-adv-y="1000"  />

      
      <glyph glyph-name="uni28" unicode="&#x28;" d="M208-121L94-165Q12-20 12 170Q12 322 73 469Q134 616 250 742L348 681Q245 566 191.50 433Q138 300 138 171Q138 5 208-121Z"  horiz-adv-x="342" vert-adv-y="1000"  />

      
      <glyph glyph-name="uni29" unicode="&#x29;" d="M125 698L239 742Q321 598 321 407Q321 255 260 108Q199-39 83-164L-15-104Q88 12 141.50 144.50Q195 277 195 406Q195 572 125 698Z"  horiz-adv-x="342" vert-adv-y="1000"  />

      
      <glyph glyph-name="uni2a" unicode="&#x2a;" d="M338 708L338 576L467 617L500 520L371 480L452 371L364 310L282 420L203 313L117 375L199 480L68 524L102 621L231 577L231 708L338 708Z"  horiz-adv-x="486" vert-adv-y="1000"  />

      
      <glyph glyph-name="uni2b" unicode="&#x2b;" d="M611 240L399 240L399 31L269 31L269 240L56 240L56 366L268 366L268 575L398 575L398 366L611 366L611 240Z"  horiz-adv-x="666" vert-adv-y="1000"  />

      
      <glyph glyph-name="uni2c" unicode="&#x2c;" d="M220 158L74-124L-57-124L67 158L220 158Z"  horiz-adv-x="300" vert-adv-y="1000"  />

      
      <glyph glyph-name="uni2d" unicode="&#x2d;" d="M268 197L15 197L38 324L290 324L268 197Z"  horiz-adv-x="326" vert-adv-y="1000"  />

      
      <glyph glyph-name="uni2e" unicode="&#x2e;" d="M203 94Q203 52 174.50 22.50Q146-7 104-7Q63-7 37.50 17Q12 41 12 78Q12 121 41 150.50Q70 180 113 180Q152 180 177.50 155.50Q203 131 203 94Z"  horiz-adv-x="300" vert-adv-y="1000"  />

      
      <glyph glyph-name="uni2f" unicode="&#x2f;" d="M484 723L38-51L-65-15L380 760L484 723Z"  horiz-adv-x="413" vert-adv-y="1000"  />

      
      <glyph glyph-name="uni30" unicode="&#x30;" d="M379 726Q442 726 489.50 705Q537 684 564 647.50Q591 611 604 567Q617 523 617 471Q617 407 606.50 342.50Q596 278 571 212Q546 146 509 95.50Q472 45 413.50 13.50Q355-18 283-18Q160-18 101 53.50Q42 125 42 234Q42 316 60.50 398Q79 480 116.50 555.50Q154 631 222 678.50Q290 726 379 726M366 590Q320 590 282 539Q244 488 225 413Q206 338 206 259Q206 197 227 159Q248 121 292 121Q359 121 404 223.50Q449 326 449 452Q449 590 366 590Z"  horiz-adv-x="644" vert-adv-y="1000"  />

      
      <glyph glyph-name="uni31" unicode="&#x31;" d="M390 0L226 0L319 525L169 427L108 551L361 708L515 708L390 0Z"  horiz-adv-x="644" vert-adv-y="1000"  />

      
      <glyph glyph-name="uni32" unicode="&#x32;" d="M263 142L551 142L526 0L11 0L35 138L354 387Q439 457 439 510Q439 545 417 565.50Q395 586 354 586Q312 586 282.50 559.50Q253 533 239 485L89 516Q119 616 193 671.50Q267 727 368 727Q473 727 541 674Q609 621 609 530Q609 488 597.50 454Q586 420 559.50 388.50Q533 357 510 337Q487 317 443 283L263 142Z"  horiz-adv-x="644" vert-adv-y="1000"  />

      
      <glyph glyph-name="uni33" unicode="&#x33;" d="M290 426Q357 426 393 451Q429 476 429 523Q429 555 407.50 574Q386 593 349 593Q272 593 239 523L105 577Q140 652 208.50 689.50Q277 727 362 727Q458 727 525 679Q592 631 592 539Q592 471 550.50 428Q509 385 452 371L452 369Q502 355 531.50 315Q561 275 561 222Q561 108 479 44.50Q397-19 279-19Q180-19 111 27.50Q42 74 19 161L171 202Q193 120 285 120Q334 120 364.50 145.50Q395 171 395 214Q395 306 263 306L219 306L239 426L290 426Z"  horiz-adv-x="644" vert-adv-y="1000"  />

      
      <glyph glyph-name="uni34" unicode="&#x34;" d="M579 139L482 139L458 0L306 0L329 139L-3 139L22 280L374 708L579 708L502 272L602 272L579 139M351 272L401 548L397 548L178 272L351 272Z"  horiz-adv-x="644" vert-adv-y="1000"  />

      
      <glyph glyph-name="uni35" unicode="&#x35;" d="M298 568L272 452Q304 459 339 459Q381 459 419 448Q457 437 490 413.50Q523 390 543 348.50Q563 307 563 251Q563 184 538 131Q513 78 472.50 46Q432 14 383-2.50Q334-19 282-19Q183-19 112.50 27.50Q42 74 18 151L168 200Q179 164 209 142.50Q239 121 279 121Q332 121 364.50 152Q397 183 397 235Q397 287 361.50 312Q326 337 270 337Q191 337 96 302L182 708L600 708L574 568L298 568Z"  horiz-adv-x="644" vert-adv-y="1000"  />

      
      <glyph glyph-name="uni36" unicode="&#x36;" d="M578 258Q578 142 497 62Q416-18 279-18Q166-18 93.50 41.50Q21 101 21 209Q21 319 128 446L350 708L556 708L337 462L331 454Q346 459 367 459Q465 459 521.50 400Q578 341 578 258M412 247Q412 292 383 318.50Q354 345 315 345Q256 345 220 307.50Q184 270 184 213Q184 169 214 142Q244 115 286 115Q344 115 378 151Q412 187 412 247Z"  horiz-adv-x="644" vert-adv-y="1000"  />

      
      <glyph glyph-name="uni37" unicode="&#x37;" d="M619 577L234 0L35 0L435 567L112 567L136 708L642 708L619 577Z"  horiz-adv-x="644" vert-adv-y="1000"  />

      
      <glyph glyph-name="uni38" unicode="&#x38;" d="M201 199Q201 156 227 134Q253 112 290 112Q346 112 376.50 142Q407 172 407 220Q407 259 382 283Q357 307 318 307Q266 307 233.50 276.50Q201 246 201 199M457 369L458 366Q502 350 533 309Q564 268 564 216Q564 107 486.50 44.50Q409-18 283-18Q240-18 200.50-8Q161 2 125 23.50Q89 45 67 85Q45 125 45 179Q45 256 93.50 310Q142 364 209 379L209 382Q171 400 147.50 435.50Q124 471 124 514Q124 615 200.50 670.50Q277 726 381 726Q473 726 536.50 681Q600 636 600 549Q600 476 558 431.50Q516 387 457 369M271 506Q271 473 292.50 452Q314 431 349 431Q390 431 418 456.50Q446 482 446 524Q446 559 424 579Q402 599 366 599Q324 599 297.50 572.50Q271 546 271 506Z"  horiz-adv-x="644" vert-adv-y="1000"  />

      
      <glyph glyph-name="uni39" unicode="&#x39;" d="M625 499Q625 389 518 262L296 0L90 0L309 246L315 254Q300 249 279 249Q181 249 124.50 308Q68 367 68 450Q68 566 149 646Q230 726 367 726Q480 726 552.50 666.50Q625 607 625 499M462 495Q462 539 432 566Q402 593 360 593Q302 593 268 557Q234 521 234 461Q234 416 263 389.50Q292 363 331 363Q390 363 426 400.50Q462 438 462 495Z"  horiz-adv-x="644" vert-adv-y="1000"  />

      
      <glyph glyph-name="uni3a" unicode="&#x3a;" d="M216 94Q216 54 188 25Q160-4 119-4Q80-4 55 19.50Q30 43 30 79Q30 120 58.50 148.50Q87 177 128 177Q166 177 191 153Q216 129 216 94M272 419Q272 378 244.50 349Q217 320 176 320Q137 320 112 343.50Q87 367 87 403Q87 445 115 473Q143 501 184 501Q222 501 247 477.50Q272 454 272 419Z"  horiz-adv-x="330" vert-adv-y="1000"  />

      
      <glyph glyph-name="uni3b" unicode="&#x3b;" d="M240 158L95-124L-40-124L84 158L240 158M272 419Q272 378 244.50 349Q217 320 176 320Q137 320 112 343.50Q87 367 87 403Q87 445 115 473Q143 501 184 501Q222 501 247 477.50Q272 454 272 419Z"  horiz-adv-x="330" vert-adv-y="1000"  />

      
      <glyph glyph-name="uni3c" unicode="&#x3c;" d="M587 37L79 251L79 354L587 568L587 432L281 301L587 174L587 37Z"  horiz-adv-x="666" vert-adv-y="1000"  />

      
      <glyph glyph-name="uni3d" unicode="&#x3d;" d="M598 335L68 335L68 458L598 458L598 335M598 150L68 150L68 273L598 273L598 150Z"  horiz-adv-x="666" vert-adv-y="1000"  />

      
      <glyph glyph-name="uni3e" unicode="&#x3e;" d="M587 251L79 37L79 174L385 301L79 432L79 568L587 354L587 251Z"  horiz-adv-x="666" vert-adv-y="1000"  />

      
      <glyph glyph-name="uni3f" unicode="&#x3f;" d="M418 345Q379 319 364 300.50Q349 282 344 250L340 224L188 224L194 263Q203 313 226.50 345.50Q250 378 299 414L339 444Q367 465 381.50 483.50Q396 502 396 528Q396 589 327 589Q287 589 260.50 562Q234 535 226 494L78 520Q99 616 172.50 671.50Q246 727 346 727Q442 727 502.50 683.50Q563 640 563 546Q563 481 529 437.50Q495 394 418 345M345 92Q345 50 317.50 21Q290-8 248-8Q208-8 183 15.50Q158 39 158 76Q158 118 186.50 147Q215 176 256 176Q295 176 320 152Q345 128 345 92Z"  horiz-adv-x="543" vert-adv-y="1000"  />

      
      <glyph glyph-name="uni40" unicode="&#x40;" d="M545 160Q505 160 481 177.50Q457 195 457 224L454 224Q436 198 404 179Q372 160 334 160Q273 160 239.50 194Q206 228 206 286Q206 348 233.50 409Q261 470 315.50 512Q370 554 436 554Q474 554 498.50 538Q523 522 527 500L528 500L541 534L647 534L587 375Q560 299 560 281Q560 267 565.50 262Q571 257 585 257Q630 257 661.50 309.50Q693 362 693 438Q693 535 630.50 585.50Q568 636 463 636Q321 636 229.50 541Q138 446 138 307Q138 197 209 135Q280 73 401 73Q524 73 628 156L678 88Q562-18 389-18Q223-18 125.50 67.50Q28 153 28 299Q28 481 154.50 603.50Q281 726 465 726Q610 726 702 651.50Q794 577 794 447Q794 327 725 243.50Q656 160 545 160M479 405Q479 459 429 459Q392 459 358 409.50Q324 360 324 309Q324 258 372 258Q415 258 447 307Q479 356 479 405Z"  horiz-adv-x="800" vert-adv-y="1000"  />

      
      <glyph glyph-name="uni41" unicode="&#x41;" d="M664 0L489 0L465 141L192 141L107 0L-83 0L368 708L530 708L664 0M448 275L411 526L263 275L448 275Z"  horiz-adv-x="710" vert-adv-y="1000"  />

      
      <glyph glyph-name="uni42" unicode="&#x42;" d="M420 708Q505 708 566 670Q627 632 627 553Q627 484 586 437Q545 390 476 372L476 370Q532 361 567.50 320.50Q603 280 603 219Q603 114 520 57Q437 0 300 0L18 0L143 708L420 708M368 575L277 575L251 423L353 423Q396 423 429.50 443.50Q463 464 463 510Q463 575 368 575M337 303L229 303L200 134L297 134Q359 134 398 157Q437 180 437 231Q437 265 411 284Q385 303 337 303Z"  horiz-adv-x="664" vert-adv-y="1000"  />

      
      <glyph glyph-name="uni43" unicode="&#x43;" d="M556 209L649 99Q542-19 366-19Q217-19 129 65.50Q41 150 41 289Q41 473 162 600Q283 727 462 727Q544 727 611.50 698Q679 669 714 622L591 512Q548 578 457 578Q354 578 286.50 497.50Q219 417 219 309Q219 233 265 182.50Q311 132 393 132Q488 132 556 209Z"  horiz-adv-x="684" vert-adv-y="1000"  />

      
      <glyph glyph-name="uni44" unicode="&#x44;" d="M18 0L143 708L405 708Q467 708 524.50 691Q582 674 631 640Q680 606 709.50 546.50Q739 487 739 410Q739 226 617.50 113Q496 0 307 0L18 0M281 567L207 144L314 144Q432 144 499 216.50Q566 289 566 390Q566 468 517 517.50Q468 567 372 567L281 567Z"  horiz-adv-x="769" vert-adv-y="1000"  />

      
      <glyph glyph-name="uni45" unicode="&#x45;" d="M500 0L18 0L143 708L596 708L571 566L277 566L253 429L533 429L509 295L229 295L203 143L525 143L500 0Z"  horiz-adv-x="587" vert-adv-y="1000"  />

      
      <glyph glyph-name="uni46" unicode="&#x46;" d="M563 566L282 566L255 415L520 415L496 278L231 278L182 0L18 0L143 708L588 708L563 566Z"  horiz-adv-x="561" vert-adv-y="1000"  />

      
      <glyph glyph-name="uni47" unicode="&#x47;" d="M401 126Q464 128 504 147L527 280L389 280L414 417L705 417L640 43Q521-19 379-19Q226-19 133.50 64.50Q41 148 41 289Q41 473 161 600Q281 727 460 727Q545 727 613.50 700Q682 673 720 622L599 513Q552 581 457 581Q355 581 284.50 500.50Q214 420 214 308Q214 227 263.50 176.50Q313 126 401 126Z"  horiz-adv-x="749" vert-adv-y="1000"  />

      
      <glyph glyph-name="uni48" unicode="&#x48;" d="M626 0L460 0L512 298L237 298L184 0L18 0L143 708L309 708L261 439L537 439L584 708L751 708L626 0Z"  horiz-adv-x="757" vert-adv-y="1000"  />

      
      <glyph glyph-name="uni49" unicode="&#x49;" d="M185 0L18 0L143 708L310 708L185 0Z"  horiz-adv-x="315" vert-adv-y="1000"  />

      
      <glyph glyph-name="uni4a" unicode="&#x4a;" d="M442 239Q435 199 426 167.50Q417 136 398 99Q379 62 353 38Q327 14 284-2.50Q241-19 187-19Q98-19 40 25Q-18 69-34 146L120 196Q124 168 141.50 149.50Q159 131 186 131Q227 131 247 159Q267 187 276 240L358 708L526 708L442 239Z"  horiz-adv-x="525" vert-adv-y="1000"  />

      
      <glyph glyph-name="uni4b" unicode="&#x4b;" d="M654 0L447 0L242 333L239 333L181 0L18 0L143 708L306 708L253 411L256 411L537 708L749 708L402 371L654 0Z"  horiz-adv-x="679" vert-adv-y="1000"  />

      
      <glyph glyph-name="uni4c" unicode="&#x4c;" d="M462 0L18 0L143 708L310 708L210 145L488 145L462 0Z"  horiz-adv-x="525" vert-adv-y="1000"  />

      
      <glyph glyph-name="uni4d" unicode="&#x4d;" d="M823 0L660 0L753 507L749 507L474 0L357 0L263 507L259 507L174 0L18 0L143 708L376 708L458 249L462 249L701 708L948 708L823 0Z"  horiz-adv-x="953" vert-adv-y="1000"  />

      
      <glyph glyph-name="uni4e" unicode="&#x4e;" d="M645 0L460 0L265 470L262 470L182 0L18 0L143 708L330 708L524 241L526 241L606 708L770 708L645 0Z"  horiz-adv-x="789" vert-adv-y="1000"  />

      
      <glyph glyph-name="uni4f" unicode="&#x4f;" d="M460 726Q619 726 710.50 641Q802 556 802 413Q802 231 684.50 106.50Q567-18 386-18Q226-18 133.50 67Q41 152 41 295Q41 476 160 601Q279 726 460 726M395 132Q501 132 565 212Q629 292 629 400Q629 477 581 527.50Q533 578 449 578Q345 578 279.50 497.50Q214 417 214 310Q214 233 262 182.50Q310 132 395 132Z"  horiz-adv-x="831" vert-adv-y="1000"  />

      
      <glyph glyph-name="uni50" unicode="&#x50;" d="M376 708Q500 708 567 656Q634 604 634 511Q634 388 551.50 328.50Q469 269 322 269L231 269L183 0L18 0L143 708L376 708M325 401Q467 401 467 494Q467 538 437.50 555.50Q408 573 353 573L285 573L254 401L325 401Z"  horiz-adv-x="637" vert-adv-y="1000"  />

      
      <glyph glyph-name="uni51" unicode="&#x51;" d="M791 427Q791 316 747.50 242.50Q704 169 649 133L648 130L798 133L774 0L377 0Q225 0 133 81Q41 162 41 300Q41 479 159.50 602.50Q278 726 455 726Q607 726 699 645Q791 564 791 427M619 406Q619 481 573.50 530Q528 579 447 579Q344 579 278.50 501Q213 423 213 319Q213 244 259 194Q305 144 387 144Q488 144 553.50 222.50Q619 301 619 406Z"  horiz-adv-x="837" vert-adv-y="1000"  />

      
      <glyph glyph-name="uni52" unicode="&#x52;" d="M459 305L603 0L415 0L296 285L228 285L180 0L18 0L143 708L385 708Q501 708 567 658Q633 608 633 520Q633 436 586.50 380.50Q540 325 459 305M324 404Q465 404 465 496Q465 572 351 572L280 572L250 404L324 404Z"  horiz-adv-x="656" vert-adv-y="1000"  />

      
      <glyph glyph-name="uni53" unicode="&#x53;" d="M585 636L472 536Q432 591 355 591Q315 591 281.50 569.50Q248 548 248 506Q248 478 269.50 460Q291 442 337 426Q434 392 482.50 343.50Q531 295 531 218Q531 157 505 109.50Q479 62 435.50 35Q392 8 342-5.50Q292-19 239-19Q160-19 87.50 9.50Q15 38-26 91L97 191Q118 159 159 139Q200 119 242 119Q290 119 323 140.50Q356 162 356 205Q356 239 328.50 261Q301 283 246 302Q166 329 122 371.50Q78 414 78 492Q78 598 160 662.50Q242 727 364 727Q428 727 489.50 702.50Q551 678 585 636Z"  horiz-adv-x="585" vert-adv-y="1000"  />

      
      <glyph glyph-name="uni54" unicode="&#x54;" d="M598 565L404 565L304 0L138 0L237 565L39 565L65 708L623 708L598 565Z"  horiz-adv-x="553" vert-adv-y="1000"  />

      
      <glyph glyph-name="uni55" unicode="&#x55;" d="M658 260Q635 129 553.50 55.50Q472-18 331-18Q203-18 127.50 41.50Q52 101 52 203Q52 231 57 264L135 708L300 708L224 279Q221 260 221 238Q221 190 250 158.50Q279 127 340 127Q415 127 449 169Q483 211 495 277L572 708L736 708L658 260Z"  horiz-adv-x="737" vert-adv-y="1000"  />

      
      <glyph glyph-name="uni56" unicode="&#x56;" d="M767 708L345 0L170 0L62 708L239 708L294 202L298 202L574 708L767 708Z"  horiz-adv-x="674" vert-adv-y="1000"  />

      
      <glyph glyph-name="uni57" unicode="&#x57;" d="M1090 708L750 0L584 0L536 484L533 484L298 0L133 0L71 708L247 708L268 232L271 232L491 708L663 708L701 232L704 232L915 708L1090 708Z"  horiz-adv-x="1014" vert-adv-y="1000"  />

      
      <glyph glyph-name="uni58" unicode="&#x58;" d="M630 0L439 0L334 253L128 0L-78 0L254 374L98 708L285 708L374 484L554 708L755 708L455 370L630 0Z"  horiz-adv-x="687" vert-adv-y="1000"  />

      
      <glyph glyph-name="uni59" unicode="&#x59;" d="M727 708L383 301L329 0L163 0L216 301L35 708L221 708L322 440L525 708L727 708Z"  horiz-adv-x="613" vert-adv-y="1000"  />

      
      <glyph glyph-name="uni5a" unicode="&#x5a;" d="M532 0L-31 0L-6 144L406 566L99 566L124 708L648 708L624 574L207 145L558 145L532 0Z"  horiz-adv-x="620" vert-adv-y="1000"  />

      
      <glyph glyph-name="uni5b" unicode="&#x5b;" d="M177-156L-37-156L119 732L334 732L316 633L227 633L106-57L195-57L177-156Z"  horiz-adv-x="342" vert-adv-y="1000"  />

      
      <glyph glyph-name="uni5c" unicode="&#x5c;" d="M422-15L309-52L1 723L114 762L422-15Z"  horiz-adv-x="415" vert-adv-y="1000"  />

      
      <glyph glyph-name="uni5d" unicode="&#x5d;" d="M203-156L-10-156L7-57L96-57L218 633L129 633L146 732L360 732L203-156Z"  horiz-adv-x="342" vert-adv-y="1000"  />

      
      <glyph glyph-name="uni5e" unicode="&#x5e;" d="M616 343L468 343L344 556L221 343L73 343L286 708L404 708L616 343Z"  horiz-adv-x="690" vert-adv-y="1000"  />

      
      <glyph glyph-name="uni5f" unicode="&#x5f;" d="M500-164L0-164L0-75L500-75L500-164Z"  horiz-adv-x="500" vert-adv-y="1000"  />

      
      <glyph glyph-name="uni60" unicode="&#x60;" d="M173 716L282 572L162 572L10 716L173 716Z"  horiz-adv-x="300" vert-adv-y="1000"  />

      
      <glyph glyph-name="uni61" unicode="&#x61;" d="M503 352Q503 321 497 291L463 97Q453 40 453 0L311 0Q311 19 315 53L313 53Q258-12 161-12Q99-12 53 20Q7 52 7 120Q7 314 349 314Q351 326 351 337Q351 393 273 393Q204 393 142 346L76 438Q120 473 178.50 493Q237 513 295 513Q389 513 446 472.50Q503 432 503 352M340 218L326 218Q153 218 153 146Q153 95 219 95Q264 95 295.50 123Q327 151 335 194L340 218Z"  horiz-adv-x="559" vert-adv-y="1000"  />

      
      <glyph glyph-name="uni62" unicode="&#x62;" d="M245 434L247 434Q273 470 315.50 490.50Q358 511 406 511Q501 511 556.50 451.50Q612 392 612 297Q612 167 533.50 77.50Q455-12 337-12Q284-12 239 10Q194 32 172 71L170 71L158 0L10 0L143 756L304 756L245 434M453 276Q453 323 426 352.50Q399 382 350 382Q291 382 250 334.50Q209 287 209 222Q209 176 237.50 146.50Q266 117 314 117Q376 117 414.50 162.50Q453 208 453 276Z"  horiz-adv-x="659" vert-adv-y="1000"  />

      
      <glyph glyph-name="uni63" unicode="&#x63;" d="M510 436L409 340Q398 358 374 370.50Q350 383 322 383Q259 383 217 336.50Q175 290 175 226Q175 180 202.50 149.50Q230 119 283 119Q344 119 387 164L463 62Q377-14 262-14Q153-14 86.50 46Q20 106 20 205Q20 331 106 422Q192 513 326 513Q385 513 434 493.50Q483 474 510 436Z"  horiz-adv-x="500" vert-adv-y="1000"  />

      
      <glyph glyph-name="uni64" unicode="&#x64;" d="M452 434L507 756L667 756L533 0L386 0L398 68L395 68Q339-12 226-12Q131-12 75.50 47.50Q20 107 20 202Q20 331 98.50 421Q177 511 295 511Q406 511 450 434L452 434M179 223Q179 177 206 147.50Q233 118 282 118Q342 118 382.50 165Q423 212 423 277Q423 323 394.50 352.50Q366 382 319 382Q257 382 218 336.50Q179 291 179 223Z"  horiz-adv-x="656" vert-adv-y="1000"  />

      
      <glyph glyph-name="uni65" unicode="&#x65;" d="M527 206L170 206Q169 202 169 197Q169 157 202 132.50Q235 108 279 108Q349 108 398 160L499 81Q409-15 265-15Q158-15 89 44.50Q20 104 20 209Q20 338 105 425.50Q190 513 320 513Q420 513 480 457.50Q540 402 540 303Q540 258 527 206M397 304Q398 311 398 324Q398 358 373.50 379.50Q349 401 307 401Q258 401 224 370.50Q190 340 181 304L397 304Z"  horiz-adv-x="587" vert-adv-y="1000"  />

      
      <glyph glyph-name="uni66" unicode="&#x66;" d="M443 765L414 637Q395 645 372 645Q305 645 287 551L278 498L390 498L369 378L259 378L192 0L35 0L102 378L11 378L32 498L120 498L130 549Q139 597 154 634Q169 671 195.50 704.50Q222 738 265.50 756.50Q309 775 368 775Q414 775 443 765Z"  horiz-adv-x="361" vert-adv-y="1000"  />

      
      <glyph glyph-name="uni67" unicode="&#x67;" d="M456 432L459 432L470 498L621 498L542 46Q517-97 441.50-168.50Q366-240 223-240Q154-240 85-218Q16-196-25-156L65-43Q126-110 222-110Q296-110 333-73.50Q370-37 383 29L390 62L387 62Q365 33 324 14Q283-5 234-5Q137-5 80.50 52.50Q24 110 24 203Q24 332 102 421.50Q180 511 300 511Q412 511 456 432M182 223Q182 178 208.50 148Q235 118 285 118Q346 118 387 165.50Q428 213 428 278Q428 325 399.50 354Q371 383 323 383Q260 383 221 336Q182 289 182 223Z"  horiz-adv-x="656" vert-adv-y="1000"  />

      
      <glyph glyph-name="uni68" unicode="&#x68;" d="M497 0L337 0L384 270Q389 293 389 312Q389 379 323 379Q281 379 253.50 347.50Q226 316 218 268L170 0L10 0L143 756L304 756L247 433L249 433Q272 466 311 488.50Q350 511 397 511Q476 511 516 468Q556 425 556 360Q556 327 551 306L497 0Z"  horiz-adv-x="615" vert-adv-y="1000"  />

      
      <glyph glyph-name="uni69" unicode="&#x69;" d="M170 0L11 0L98 498L259 498L170 0M293 665Q293 625 266.50 597Q240 569 200 569Q162 569 137.50 592Q113 615 113 649Q113 689 140.50 717Q168 745 208 745Q245 745 269 722Q293 699 293 665Z"  horiz-adv-x="294" vert-adv-y="1000"  />

      
      <glyph glyph-name="uni6a" unicode="&#x6a;" d="M171-19Q162-70 148-106.50Q134-143 109-176Q84-209 41.50-226.50Q-1-244-59-244Q-96-244-128-235L-99-102Q-84-107-65-107Q-31-107-14-84.50Q3-62 10-19L101 498L262 498L171-19M296 665Q296 625 269.50 597Q243 569 203 569Q165 569 140.50 592Q116 615 116 649Q116 689 143.50 717Q171 745 211 745Q248 745 272 722Q296 699 296 665Z"  horiz-adv-x="297" vert-adv-y="1000"  />

      
      <glyph glyph-name="uni6b" unicode="&#x6b;" d="M533 0L342 0L215 239L212 239L170 0L10 0L143 756L304 756L222 296L225 296L414 498L616 498L376 265L533 0Z"  horiz-adv-x="572" vert-adv-y="1000"  />

      
      <glyph glyph-name="uni6c" unicode="&#x6c;" d="M172 0L10 0L143 756L306 756L172 0Z"  horiz-adv-x="295" vert-adv-y="1000"  />

      
      <glyph glyph-name="uni6d" unicode="&#x6d;" d="M79 395Q89 445 94 498L247 498Q246 489 243 461Q240 433 239 426L241 426Q298 511 392 511Q449 511 485.50 487.50Q522 464 536 423Q600 511 701 511Q782 511 824 465.50Q866 420 866 354Q866 327 862 307L807 0L647 0L694 270Q699 293 699 312Q699 380 634 380Q594 380 567.50 347.50Q541 315 533 268L486 0L325 0L375 285Q378 300 378 313Q378 344 363 362Q348 380 318 380Q279 380 252.50 348.50Q226 317 218 270L170 0L10 0L79 395Z"  horiz-adv-x="925" vert-adv-y="1000"  />

      
      <glyph glyph-name="uni6e" unicode="&#x6e;" d="M239 426L241 426Q297 511 397 511Q476 511 516 468Q556 425 556 360Q556 327 551 306L497 0L337 0L384 270Q389 293 389 312Q389 379 323 379Q281 379 253.50 348Q226 317 218 270L170 0L10 0L79 395Q89 445 94 498L247 498Q246 489 243 462Q240 435 239 426Z"  horiz-adv-x="615" vert-adv-y="1000"  />

      
      <glyph glyph-name="uni6f" unicode="&#x6f;" d="M273-14Q163-14 91.50 46Q20 106 20 205Q20 333 103.50 423Q187 513 324 513Q436 513 508 453.50Q580 394 580 294Q580 164 496 75Q412-14 273-14M422 277Q422 323 393.50 352.50Q365 382 317 382Q255 382 216 335Q177 288 177 222Q177 176 205 147Q233 118 281 118Q344 118 383 164.50Q422 211 422 277Z"  horiz-adv-x="626" vert-adv-y="1000"  />

      
      <glyph glyph-name="uni70" unicode="&#x70;" d="M178 62L126-240L-34-240L96 498L248 498L236 429L239 429Q298 510 402 510Q498 510 554.50 450Q611 390 611 296Q611 166 532.50 76Q454-14 335-14Q224-14 180 62L178 62M451 275Q451 321 424 351Q397 381 349 381Q289 381 248 333.50Q207 286 207 221Q207 175 235.50 145.50Q264 116 312 116Q374 116 412.50 161.50Q451 207 451 275Z"  horiz-adv-x="657" vert-adv-y="1000"  />

      
      <glyph glyph-name="uni71" unicode="&#x71;" d="M387 62L385 62Q330-12 227-12Q132-12 75.50 47.50Q19 107 19 202Q19 331 97.50 421Q176 511 295 511Q346 511 389.50 488.50Q433 466 455 426L457 426L470 498L621 498L492-240L332-240L387 62M178 223Q178 177 205.50 147.50Q233 118 281 118Q341 118 382 165Q423 212 423 277Q423 323 394 352.50Q365 382 318 382Q256 382 217 336.50Q178 291 178 223Z"  horiz-adv-x="655" vert-adv-y="1000"  />

      
      <glyph glyph-name="uni72" unicode="&#x72;" d="M237 425L239 425Q294 511 377 511Q395 511 411 507L385 365Q368 370 345 370Q283 370 251.50 334Q220 298 213 256L168 0L8 0L79 395Q89 445 94 498L246 498Q244 467 237 425Z"  horiz-adv-x="379" vert-adv-y="1000"  />

      
      <glyph glyph-name="uni73" unicode="&#x73;" d="M-32 68L68 159Q107 102 183 102Q215 102 234.50 114Q254 126 254 147Q254 166 237.50 177.50Q221 189 183 200Q109 222 75 253Q41 284 41 340Q41 419 106.50 466Q172 513 266 513Q325 513 375.50 493Q426 473 455 436L354 351Q320 397 257 397Q228 397 208 386Q188 375 188 353Q188 337 203 327.50Q218 318 253 308Q328 288 366 253.50Q404 219 404 158Q404 73 337.50 27.50Q271-18 179-18Q41-18-32 68Z"  horiz-adv-x="464" vert-adv-y="1000"  />

      
      <glyph glyph-name="uni74" unicode="&#x74;" d="M92 377L10 377L32 498L111 498L134 630L290 630L267 498L373 498L351 377L248 377L212 182Q210 164 210 155Q210 112 262 112Q282 112 306 118L291 3Q255-12 203-12Q48-12 48 109Q48 139 54 166L92 377Z"  horiz-adv-x="364" vert-adv-y="1000"  />

      
      <glyph glyph-name="uni75" unicode="&#x75;" d="M345 72L342 72Q318 34 277 10.50Q236-13 186-13Q108-13 68 30Q28 73 28 139Q28 170 33 193L86 498L247 498L199 228Q195 200 195 186Q195 119 261 119Q302 119 329.50 150.50Q357 182 366 229L414 498L574 498L504 103Q494 53 489 0L337 0Q338 9 341 37Q344 65 345 72Z"  horiz-adv-x="614" vert-adv-y="1000"  />

      
      <glyph glyph-name="uni76" unicode="&#x76;" d="M587 498L293 0L119 0L27 498L196 498L237 171L240 171L413 498L587 498Z"  horiz-adv-x="554" vert-adv-y="1000"  />

      
      <glyph glyph-name="uni77" unicode="&#x77;" d="M892 498L620 0L459 0L422 313L420 313L258 0L97 0L29 498L196 498L220 180L223 180L377 498L538 498L568 180L571 180L724 498L892 498Z"  horiz-adv-x="856" vert-adv-y="1000"  />

      
      <glyph glyph-name="uni78" unicode="&#x78;" d="M507 0L330 0L252 153L116 0L-77 0L175 261L42 498L217 498L286 362L405 498L592 498L363 258L507 0Z"  horiz-adv-x="562" vert-adv-y="1000"  />

      
      <glyph glyph-name="uni79" unicode="&#x79;" d="M594 498L268-75Q220-162 172.50-201Q125-240 42-240Q-5-240-40-229L-16-97Q6-106 31-106Q63-106 83-90Q103-74 123-39L147 2L32 498L207 498L257 172L259 172L424 498L594 498Z"  horiz-adv-x="556" vert-adv-y="1000"  />

      
      <glyph glyph-name="uni7a" unicode="&#x7a;" d="M418 0L-23 0L-1 125L282 376L57 376L78 498L500 498L479 378L191 124L440 124L418 0Z"  horiz-adv-x="509" vert-adv-y="1000"  />

      
      <glyph glyph-name="uni7b" unicode="&#x7b;" d="M214-156L132-156Q79-156 48.50-126.50Q18-97 18-45Q18-28 21-8L50 159Q63 233-4 233L16 343Q83 343 95 413L125 584Q137 651 181.50 691.50Q226 732 288 732L370 732L352 627L305 627Q258 627 248 567L219 400Q210 348 174.50 320.50Q139 293 106 289L106 287Q134 284 157.50 263Q181 242 181 198Q181 181 179 172L150 9Q148-9 148-16Q148-51 185-51L232-51L214-156Z"  horiz-adv-x="342" vert-adv-y="1000"  />

      
      <glyph glyph-name="uni7c" unicode="&#x7c;" d="M186-250L56-250L55 750L186 750L186-250Z"  horiz-adv-x="241" vert-adv-y="1000"  />

      
      <glyph glyph-name="uni7d" unicode="&#x7d;" d="M122 732L204 732Q257 732 287.50 702.50Q318 673 318 621Q318 604 315 584L286 417Q273 343 340 343L320 233Q253 233 241 163L211-8Q199-75 154.50-115.50Q110-156 48-156L-34-156L-16-51L31-51Q78-51 88 9L117 176Q126 228 161.50 255.50Q197 283 230 287L230 289Q202 292 178.50 313Q155 334 155 378Q155 395 157 404L186 567Q188 585 188 592Q188 627 151 627L104 627L122 732Z"  horiz-adv-x="342" vert-adv-y="1000"  />

      
      <glyph glyph-name="uni7e" unicode="&#x7e;" d="M593 287L593 285Q566 239 534 212Q502 185 454 185Q402 185 342 223Q281 261 235 261Q185 261 151 191L85 295Q136 394 222 394Q280 394 342 357Q411 317 441 317Q466 317 485.50 335.50Q505 354 528 388L593 287Z"  horiz-adv-x="666" vert-adv-y="1000"  />

      
      <glyph glyph-name="unia1" unicode="&#xa1;" d="M88 272L252 272L168-200L5-200L88 272M95 416Q95 458 123 487Q151 516 192 516Q232 516 257.50 492.50Q283 469 283 432Q283 390 254 361Q225 332 184 332Q145 332 120 356Q95 380 95 416Z"  horiz-adv-x="353" vert-adv-y="1000"  />

      
      <glyph glyph-name="unia2" unicode="&#xa2;" d="M424 509Q514 499 559 443L463 342Q446 373 401 381L355 116Q403 122 440 158L510 59Q434-8 332-14L320-79L246-79L258-12Q169 2 118 58Q67 114 67 203Q67 325 146 414Q225 503 350 510L361 574L436 574L424 509M328 379Q280 371 247.50 327Q215 283 215 222Q215 184 231.50 155.50Q248 127 281 120L328 379Z"  horiz-adv-x="644" vert-adv-y="1000"  />

      
      <glyph glyph-name="unia3" unicode="&#xa3;" d="M654 661L559 553Q529 590 472 590Q374 590 352 467L342 415L501 415L481 302L325 302L296 138L555 138L531 0L15 0L39 138L134 138L164 302L68 302L88 415L181 415L193 479Q202 524 220 563.50Q238 603 268.50 642Q299 681 351 704Q403 727 470 727Q527 727 576 709Q625 691 654 661Z"  horiz-adv-x="644" vert-adv-y="1000"  />

      
      <glyph glyph-name="unia4" unicode="&#xa4;" d="M713 459Q755 394 755 309Q755 219 710 154L803 61L719-23L622 73Q558 34 476 34Q398 34 329 75L230-23L146 61L242 157Q200 219 200 309Q200 392 239 456L146 549L231 633L326 539Q394 580 476 580Q559 580 626 541L718 633L803 549L713 459M567 402Q567 402 549 421.50Q531 441 476 441Q421 441 385.50 402.50Q350 364 350 309Q350 252 385.50 213.50Q421 175 476 175Q532 175 567.50 213.50Q603 252 603 309Q603 363 567 402Z"  horiz-adv-x="950" vert-adv-y="1000"  />

      
      <glyph glyph-name="unia5" unicode="&#xa5;" d="M699 708L471 414L595 414L577 313L397 313L385 247L565 247L548 146L369 146L344 0L191 0L216 146L37 146L54 247L232 247L244 313L66 313L84 414L217 414L88 708L258 708L346 446L521 708L699 708Z"  horiz-adv-x="644" vert-adv-y="1000"  />

      
      <glyph glyph-name="unia6" unicode="&#xa6;" d="M186 313L55 313L55 675L186 675L186 313M186-175L55-175L55 187L186 187L186-175Z"  horiz-adv-x="241" vert-adv-y="1000"  />

      
      <glyph glyph-name="unia7" unicode="&#xa7;" d="M596 630L476 545Q443 597 370 597Q340 597 316 583.50Q292 570 292 541Q292 516 312 502.50Q332 489 396 463Q468 434 506.50 398Q545 362 545 296Q545 196 442 149Q483 114 483 57Q483 1 459.50-41Q436-83 398-105Q360-127 319.50-137.50Q279-148 237-148Q161-148 88.50-117Q16-86-17-30L105 54Q123 21 161.50 3.50Q200-14 239-14Q318-14 318 39Q318 68 293.50 85.50Q269 103 199 129Q129 156 91.50 191Q54 226 54 290Q54 343 87 383Q120 423 166 440Q130 472 130 527Q130 596 172 643Q214 690 267.50 708Q321 726 378 726Q452 726 510 700Q568 674 596 630M265 245L354 208Q402 223 402 268Q402 295 385 312Q368 329 335 344L253 380Q228 374 213 356Q198 338 198 315Q198 289 214 274Q230 259 265 245Z"  horiz-adv-x="616" vert-adv-y="1000"  />

      
      <glyph glyph-name="unia8" unicode="&#xa8;" d="M179 664Q179 628 155 603Q131 578 95 578Q61 578 39 598.50Q17 619 17 651Q17 688 41.50 712.50Q66 737 102 737Q136 737 157.50 716.50Q179 696 179 664M398 664Q398 628 374 603Q350 578 314 578Q280 578 258 598.50Q236 619 236 651Q236 688 260.50 712.50Q285 737 322 737Q355 737 376.50 716.50Q398 696 398 664Z"  horiz-adv-x="300" vert-adv-y="1000"  />

      
      <glyph glyph-name="unia9" unicode="&#xa9;" d="M780 353Q780 197 669 87.50Q558-22 401-22Q243-22 131.50 87.50Q20 197 20 353Q20 510 131.50 620Q243 730 401 730Q558 730 669 620Q780 510 780 353M720 353Q720 486 626.50 580Q533 674 401 674Q268 674 174 580Q80 486 80 353Q80 221 173 127.50Q266 34 399 34Q531 34 625.50 127.50Q720 221 720 353M585 510L508 440Q477 479 418 479Q365 479 334.50 441.50Q304 404 304 353Q304 301 336 263Q368 225 424 225Q481 225 512 261L584 185Q524 122 419 122Q318 122 250 183.50Q182 245 182 352Q182 456 250.50 518.50Q319 581 419 581Q469 581 513.50 562Q558 543 585 510Z"  horiz-adv-x="800" vert-adv-y="1000"  />

      
      <glyph glyph-name="uniaa" unicode="&#xaa;" d="M274 554L267 554Q173 554 173 516Q173 488 208 488Q232 488 249 503Q266 518 270 541L274 554M261 459L260 459Q230 424 177 424Q137 424 112 444.50Q87 465 87 500Q87 612 278 612Q279 615 279 622Q279 651 238 651Q200 651 166 625L127 680Q182 723 250 723Q309 723 338.50 697.50Q368 672 368 630Q368 619 364 593L346 487Q341 455 341 431L259 431Q259 437 261 459Z"  horiz-adv-x="380" vert-adv-y="1000"  />

      
      <glyph glyph-name="uniab" unicode="&#xab;" d="M17 257L218 487L302 423L152 249L238 79L137 23L17 257M241 252L443 482L528 418L378 244L462 79L361 23L241 252Z"  horiz-adv-x="544" vert-adv-y="1000"  />

      
      <glyph glyph-name="uniac" unicode="&#xac;" d="M606 145L476 145L476 328L51 328L51 451L606 451L606 145Z"  horiz-adv-x="666" vert-adv-y="1000"  />

      
      <glyph glyph-name="uniad" unicode="&#xad;" d="M268 197L15 197L38 324L290 324L268 197Z"  horiz-adv-x="326" vert-adv-y="1000"  />

      
      <glyph glyph-name="uniae" unicode="&#xae;" d="M319 521L345 521Q357 521 365 527.50Q373 534 373 544Q373 552 364.50 557Q356 562 345 562L319 562L319 521M479 365L379 365L335 459L319 459L319 365L231 365L231 631L345 631Q395 631 430.50 611Q466 591 466 545Q466 490 418 471L479 365M179 332.50Q179 332.50 145.50 365.25Q112 398 112 492Q112 586 179 652.50Q246 719 341 719Q435 719 501.50 652.50Q568 586 568 492Q568 398 501.50 332.50Q435 267 341 267Q246 267 179 332.50M148 492Q148 413 204.50 356.50Q261 300 341 300Q420 300 476 356.50Q532 413 532 492Q532 572 476 628Q420 684 341 684Q261 684 204.50 628Q148 572 148 492Z"  horiz-adv-x="600" vert-adv-y="1000"  />

      
      <glyph glyph-name="uniaf" unicode="&#xaf;" d="M365 601L32 601L46 685L380 685L365 601Z"  horiz-adv-x="300" vert-adv-y="1000"  />

      
      <glyph glyph-name="unib0" unicode="&#xb0;" d="M359.50 676.50Q359.50 676.50 383.75 652.25Q408 628 408 558Q408 488 359 439Q310 390 240 390Q170 390 121 439Q72 488 72 558Q72 628 120.50 676.50Q169 725 240 725Q311 725 359.50 676.50M328 558Q328 594 302.50 620Q277 646 240 646Q203 646 177.50 620Q152 594 152 558Q152 521 177.50 495.50Q203 470 240 470Q277 470 302.50 495.50Q328 521 328 558Z"  horiz-adv-x="416" vert-adv-y="1000"  />

      
      <glyph glyph-name="unib1" unicode="&#xb1;" d="M616 331L404 331L404 199L274 199L274 331L61 331L61 458L274 458L274 590L404 590L404 458L616 458L616 331M616 31L61 31L61 158L616 158L616 31Z"  horiz-adv-x="666" vert-adv-y="1000"  />

      
      <glyph glyph-name="unib2" unicode="&#xb2;" d="M120 760Q139 821 185.50 855Q232 889 295 889Q359 889 400.50 857Q442 825 442 768Q442 719 418 687.50Q394 656 340 616L239 543L405 543L388 446L74 446L90 538L281 685Q331 722 331 754Q331 795 285 795Q237 795 221 738L120 760Z"  horiz-adv-x="420" vert-adv-y="1000"  />

      
      <glyph glyph-name="unib3" unicode="&#xb3;" d="M241 710Q317 710 317 764Q317 799 276 799Q233 799 214 759L124 795Q171 889 283 889Q345 889 385.50 857.50Q426 826 426 773Q426 735 402.50 708Q379 681 345 672Q407 650 407 585Q407 514 356.50 476Q306 438 236 438Q174 438 131.50 467Q89 496 74 550L175 577Q186 531 238 531Q265 531 281 544.50Q297 558 297 581Q297 630 225 630L195 630L208 710L241 710Z"  horiz-adv-x="420" vert-adv-y="1000"  />

      
      <glyph glyph-name="unib4" unicode="&#xb4;" d="M416 716L246 572L124 572L253 716L416 716Z"  horiz-adv-x="300" vert-adv-y="1000"  />

      
      <glyph glyph-name="unib5" unicode="&#xb5;" d="M584 116L569 3Q526-12 484-12Q385-12 378 72L375 72Q357 39 322.50 13Q288-13 248-13Q193-13 176 19L174 19L128-240L-34-240L96 498L259 498L212 234Q207 199 207 189Q207 119 274 119Q315 119 342.50 151Q370 183 379 234L426 498L586 498L526 159Q524 147 524 140Q524 112 556 112Q571 112 584 116Z"  horiz-adv-x="651" vert-adv-y="1000"  />

      
      <glyph glyph-name="unib6" unicode="&#xb6;" d="M474-129L360-129L491 610L404 610L273-129L160-129L241 334Q154 336 105 376.50Q56 417 56 484Q56 579 124.50 643.50Q193 708 336 708L621 708L474-129Z"  horiz-adv-x="617" vert-adv-y="1000"  />

      
      <glyph glyph-name="unib7" unicode="&#xb7;" d="M245 301Q245 259 216.50 229.50Q188 200 146 200Q105 200 79.50 224Q54 248 54 285Q54 328 83 357.50Q112 387 155 387Q194 387 219.50 362.50Q245 338 245 301Z"  horiz-adv-x="300" vert-adv-y="1000"  />

      
      <glyph glyph-name="unib8" unicode="&#xb8;" d="M200-135Q200-189 154-214.50Q108-240 48-240Q-22-240-72-215L-40-156Q-6-174 41-174Q96-174 96-141Q96-112 54-112Q32-112 13-118L-12-89L70 0L150 0L92-61Q100-59 111-59Q144-59 172-77Q200-95 200-135Z"  horiz-adv-x="300" vert-adv-y="1000"  />

      
      <glyph glyph-name="unib9" unicode="&#xb9;" d="M316 446L202 446L257 754L173 699L131 780L291 881L393 881L316 446Z"  horiz-adv-x="420" vert-adv-y="1000"  />

      
      <glyph glyph-name="uniba" unicode="&#xba;" d="M390 599Q390 522 341.50 473.50Q293 425 217 425Q153 425 113.50 459.50Q74 494 74 550Q74 626 122 675Q170 724 246 724Q309 724 349.50 690Q390 656 390 599M294 589Q294 612 279.50 626.50Q265 641 240 641Q209 641 189.50 617.50Q170 594 170 561Q170 537 184 522.50Q198 508 223 508Q254 508 274 531.50Q294 555 294 589Z"  horiz-adv-x="380" vert-adv-y="1000"  />

      
      <glyph glyph-name="unibb" unicode="&#xbb;" d="M506 250L305 20L220 84L370 258L285 428L385 483L506 250M281 255L80 25L-5 89L145 262L61 428L162 483L281 255Z"  horiz-adv-x="544" vert-adv-y="1000"  />

      
      <glyph glyph-name="unibc" unicode="&#xbc;" d="M762 695L240-34L168 11L690 740L762 695M362 708L285 273L171 273L226 581L142 526L100 607L260 708L362 708M852 174L836 85L777 85L762 0L660 0L675 85L474 85L490 175L708 435L837 435L792 174L852 174M715 315L712 315L599 174L690 174L715 315Z"  horiz-adv-x="940" vert-adv-y="1000"  />

      
      <glyph glyph-name="unibd" unicode="&#xbd;" d="M884 322Q884 273 860 241.50Q836 210 782 170L681 97L847 97L830 0L516 0L532 92L723 239Q773 276 773 308Q773 349 726 349Q679 349 663 292L562 314Q581 375 627.50 409Q674 443 736 443Q801 443 842.50 411Q884 379 884 322M762 695L240-34L168 11L690 740L762 695M362 708L285 273L171 273L226 581L142 526L100 607L260 708L362 708Z"  horiz-adv-x="940" vert-adv-y="1000"  />

      
      <glyph glyph-name="unibe" unicode="&#xbe;" d="M762 695L240-34L168 11L690 740L762 695M852 174L836 85L777 85L762 0L660 0L675 85L474 85L490 175L708 435L837 435L792 174L852 174M715 315L712 315L599 174L690 174L715 315M209 541Q285 541 285 595Q285 630 244 630Q201 630 182 590L92 626Q139 720 251 720Q313 720 353.50 688.50Q394 657 394 604Q394 566 370.50 539Q347 512 313 503Q375 481 375 416Q375 345 324.50 307Q274 269 204 269Q142 269 99.50 298Q57 327 42 381L143 408Q154 362 206 362Q233 362 249 375.50Q265 389 265 412Q265 461 193 461L163 461L176 541L209 541Z"  horiz-adv-x="940" vert-adv-y="1000"  />

      
      <glyph glyph-name="unibf" unicode="&#xbf;" d="M115 164Q153 190 168 208.50Q183 227 188 258L192 284L344 284L338 246Q330 196 306 164Q282 132 233 95L193 65Q136 23 136-20Q136-81 206-81Q246-81 272-54Q298-27 306 14L454-12Q433-107 359.50-162.50Q286-218 186-218Q91-218 30.50-175Q-30-132-30-37Q-30 28 4 71.50Q38 115 115 164M187 417Q187 458 215 487Q243 516 284 516Q324 516 349.50 492.50Q375 469 375 432Q375 391 346 362Q317 333 276 333Q237 333 212 357Q187 381 187 417Z"  horiz-adv-x="543" vert-adv-y="1000"  />

      
      <glyph glyph-name="unic0" unicode="&#xc0;" d="M664 0L489 0L465 141L192 141L107 0L-83 0L368 708L530 708L664 0M448 275L411 526L263 275L448 275M415 908L524 764L404 764L252 908L415 908Z"  horiz-adv-x="710" vert-adv-y="1000"  />

      
      <glyph glyph-name="unic1" unicode="&#xc1;" d="M664 0L489 0L465 141L192 141L107 0L-83 0L368 708L530 708L664 0M448 275L411 526L263 275L448 275M678 908L508 764L386 764L515 908L678 908Z"  horiz-adv-x="710" vert-adv-y="1000"  />

      
      <glyph glyph-name="unic2" unicode="&#xc2;" d="M664 0L489 0L465 141L192 141L107 0L-83 0L368 708L530 708L664 0M448 275L411 526L263 275L448 275M650 764L525 764L470 846L387 764L260 764L408 908L554 908L650 764Z"  horiz-adv-x="710" vert-adv-y="1000"  />

      
      <glyph glyph-name="unic3" unicode="&#xc3;" d="M664 0L489 0L465 141L192 141L107 0L-83 0L368 708L530 708L664 0M448 275L411 526L263 275L448 275M656 900Q639 842 605 805.50Q571 769 520 769Q483 769 448 788Q406 810 383 810Q352 810 333 768L262 768Q279 825 313 861Q347 897 398 897Q434 897 474 877Q512 857 536 857Q567 857 585 900L656 900Z"  horiz-adv-x="710" vert-adv-y="1000"  />

      
      <glyph glyph-name="unic4" unicode="&#xc4;" d="M664 0L489 0L465 141L192 141L107 0L-83 0L368 708L530 708L664 0M448 275L411 526L263 275L448 275M439 856Q439 820 415 795Q391 770 355 770Q321 770 299 790.50Q277 811 277 843Q277 880 301.50 904.50Q326 929 362 929Q396 929 417.50 908.50Q439 888 439 856M658 856Q658 820 634 795Q610 770 574 770Q540 770 518 790.50Q496 811 496 843Q496 880 520.50 904.50Q545 929 582 929Q615 929 636.50 908.50Q658 888 658 856Z"  horiz-adv-x="710" vert-adv-y="1000"  />

      
      <glyph glyph-name="unic5" unicode="&#xc5;" d="M664 0L489 0L465 141L192 141L107 0L-83 0L368 708L530 708L664 0M448 275L411 526L263 275L448 275M456 749Q415 749 389 774Q363 799 363 838Q363 890 397 925.50Q431 961 482 961Q523 961 549 936Q575 911 575 873Q575 821 541 785Q507 749 456 749M526 866Q526 887 512.50 901.50Q499 916 477 916Q449 916 430.50 895Q412 874 412 844Q412 822 425 808Q438 794 460 794Q489 794 507.50 815Q526 836 526 866Z"  horiz-adv-x="710" vert-adv-y="1000"  />

      
      <glyph glyph-name="unic6" unicode="&#xc6;" d="M1033 708L1008 566L714 566L690 429L971 429L946 295L667 295L640 143L962 143L937 0L459 0L485 156L261 156L147 0L-42 0L483 708L1033 708M509 288L558 566L547 566L347 288L509 288Z"  horiz-adv-x="1025" vert-adv-y="1000"  />

      
      <glyph glyph-name="unic7" unicode="&#xc7;" d="M448-135Q448-189 402-214.50Q356-240 296-240Q226-240 176-215L208-156Q242-174 289-174Q344-174 344-141Q344-112 302-112Q280-112 261-118L236-89L304-15Q182 2 111.50 83.50Q41 165 41 289Q41 473 162 600Q283 727 462 727Q544 727 611.50 698Q679 669 714 622L591 512Q548 578 457 578Q354 578 286.50 497.50Q219 417 219 309Q219 233 265 182.50Q311 132 393 132Q488 132 556 209L649 99Q548-14 380-19L340-61Q348-59 359-59Q392-59 420-77Q448-95 448-135Z"  horiz-adv-x="684" vert-adv-y="1000"  />

      
      <glyph glyph-name="unic8" unicode="&#xc8;" d="M500 0L18 0L143 708L596 708L571 566L277 566L253 429L533 429L509 295L229 295L203 143L525 143L500 0M368 908L477 764L357 764L205 908L368 908Z"  horiz-adv-x="587" vert-adv-y="1000"  />

      
      <glyph glyph-name="unic9" unicode="&#xc9;" d="M500 0L18 0L143 708L596 708L571 566L277 566L253 429L533 429L509 295L229 295L203 143L525 143L500 0M576 908L406 764L284 764L413 908L576 908Z"  horiz-adv-x="587" vert-adv-y="1000"  />

      
      <glyph glyph-name="unica" unicode="&#xca;" d="M500 0L18 0L143 708L596 708L571 566L277 566L253 429L533 429L509 295L229 295L203 143L525 143L500 0M572 764L447 764L392 846L309 764L182 764L330 908L476 908L572 764Z"  horiz-adv-x="587" vert-adv-y="1000"  />

      
      <glyph glyph-name="unicb" unicode="&#xcb;" d="M500 0L18 0L143 708L596 708L571 566L277 566L253 429L533 429L509 295L229 295L203 143L525 143L500 0M362 856Q362 820 338 795Q314 770 278 770Q244 770 222 790.50Q200 811 200 843Q200 880 224.50 904.50Q249 929 285 929Q319 929 340.50 908.50Q362 888 362 856M581 856Q581 820 557 795Q533 770 497 770Q463 770 441 790.50Q419 811 419 843Q419 880 443.50 904.50Q468 929 505 929Q538 929 559.50 908.50Q581 888 581 856Z"  horiz-adv-x="587" vert-adv-y="1000"  />

      
      <glyph glyph-name="unicc" unicode="&#xcc;" d="M185 0L18 0L143 708L310 708L185 0M195 908L304 764L184 764L32 908L195 908Z"  horiz-adv-x="315" vert-adv-y="1000"  />

      
      <glyph glyph-name="unicd" unicode="&#xcd;" d="M185 0L18 0L143 708L310 708L185 0M442 908L272 764L150 764L279 908L442 908Z"  horiz-adv-x="315" vert-adv-y="1000"  />

      
      <glyph glyph-name="unice" unicode="&#xce;" d="M185 0L18 0L143 708L310 708L185 0M424 764L299 764L244 846L161 764L34 764L182 908L328 908L424 764Z"  horiz-adv-x="315" vert-adv-y="1000"  />

      
      <glyph glyph-name="unicf" unicode="&#xcf;" d="M185 0L18 0L143 708L310 708L185 0M211 856Q211 820 187 795Q163 770 127 770Q93 770 71 790.50Q49 811 49 843Q49 880 73.50 904.50Q98 929 134 929Q168 929 189.50 908.50Q211 888 211 856M430 856Q430 820 406 795Q382 770 346 770Q312 770 290 790.50Q268 811 268 843Q268 880 292.50 904.50Q317 929 354 929Q387 929 408.50 908.50Q430 888 430 856Z"  horiz-adv-x="315" vert-adv-y="1000"  />

      
      <glyph glyph-name="unid0" unicode="&#xd0;" d="M72 309L15 309L34 416L91 416L143 708L405 708Q467 708 524.50 691Q582 674 631 640Q680 606 709.50 546.50Q739 487 739 410Q739 226 617.50 113Q496 0 307 0L18 0L72 309M255 416L426 416L407 309L236 309L207 144L314 144Q432 144 499 216.50Q566 289 566 390Q566 468 517 517.50Q468 567 372 567L281 567L255 416Z"  horiz-adv-x="769" vert-adv-y="1000"  />

      
      <glyph glyph-name="unid1" unicode="&#xd1;" d="M645 0L460 0L265 470L262 470L182 0L18 0L143 708L330 708L524 241L526 241L606 708L770 708L645 0M669 900Q652 842 618 805.50Q584 769 533 769Q496 769 461 788Q419 810 396 810Q365 810 346 768L275 768Q292 825 326 861Q360 897 411 897Q447 897 487 877Q525 857 549 857Q580 857 598 900L669 900Z"  horiz-adv-x="789" vert-adv-y="1000"  />

      
      <glyph glyph-name="unid2" unicode="&#xd2;" d="M460 726Q619 726 710.50 641Q802 556 802 413Q802 231 684.50 106.50Q567-18 386-18Q226-18 133.50 67Q41 152 41 295Q41 476 160 601Q279 726 460 726M395 132Q501 132 565 212Q629 292 629 400Q629 477 581 527.50Q533 578 449 578Q345 578 279.50 497.50Q214 417 214 310Q214 233 262 182.50Q310 132 395 132M482 908L591 764L471 764L319 908L482 908Z"  horiz-adv-x="831" vert-adv-y="1000"  />

      
      <glyph glyph-name="unid3" unicode="&#xd3;" d="M460 726Q619 726 710.50 641Q802 556 802 413Q802 231 684.50 106.50Q567-18 386-18Q226-18 133.50 67Q41 152 41 295Q41 476 160 601Q279 726 460 726M395 132Q501 132 565 212Q629 292 629 400Q629 477 581 527.50Q533 578 449 578Q345 578 279.50 497.50Q214 417 214 310Q214 233 262 182.50Q310 132 395 132M681 908L511 764L389 764L518 908L681 908Z"  horiz-adv-x="831" vert-adv-y="1000"  />

      
      <glyph glyph-name="unid4" unicode="&#xd4;" d="M460 726Q619 726 710.50 641Q802 556 802 413Q802 231 684.50 106.50Q567-18 386-18Q226-18 133.50 67Q41 152 41 295Q41 476 160 601Q279 726 460 726M395 132Q501 132 565 212Q629 292 629 400Q629 477 581 527.50Q533 578 449 578Q345 578 279.50 497.50Q214 417 214 310Q214 233 262 182.50Q310 132 395 132M689 764L564 764L509 846L426 764L299 764L447 908L593 908L689 764Z"  horiz-adv-x="831" vert-adv-y="1000"  />

      
      <glyph glyph-name="unid5" unicode="&#xd5;" d="M460 726Q619 726 710.50 641Q802 556 802 413Q802 231 684.50 106.50Q567-18 386-18Q226-18 133.50 67Q41 152 41 295Q41 476 160 601Q279 726 460 726M395 132Q501 132 565 212Q629 292 629 400Q629 477 581 527.50Q533 578 449 578Q345 578 279.50 497.50Q214 417 214 310Q214 233 262 182.50Q310 132 395 132M695 900Q678 842 644 805.50Q610 769 559 769Q522 769 487 788Q445 810 422 810Q391 810 372 768L301 768Q318 825 352 861Q386 897 437 897Q473 897 513 877Q551 857 575 857Q606 857 624 900L695 900Z"  horiz-adv-x="831" vert-adv-y="1000"  />

      
      <glyph glyph-name="unid6" unicode="&#xd6;" d="M460 726Q619 726 710.50 641Q802 556 802 413Q802 231 684.50 106.50Q567-18 386-18Q226-18 133.50 67Q41 152 41 295Q41 476 160 601Q279 726 460 726M395 132Q501 132 565 212Q629 292 629 400Q629 477 581 527.50Q533 578 449 578Q345 578 279.50 497.50Q214 417 214 310Q214 233 262 182.50Q310 132 395 132M473 856Q473 820 449 795Q425 770 389 770Q355 770 333 790.50Q311 811 311 843Q311 880 335.50 904.50Q360 929 396 929Q430 929 451.50 908.50Q473 888 473 856M692 856Q692 820 668 795Q644 770 608 770Q574 770 552 790.50Q530 811 530 843Q530 880 554.50 904.50Q579 929 616 929Q649 929 670.50 908.50Q692 888 692 856Z"  horiz-adv-x="831" vert-adv-y="1000"  />

      
      <glyph glyph-name="unid7" unicode="&#xd7;" d="M604 130L510 37L333 210L157 37L64 126L241 301L63 475L157 566L334 393L508 565L599 478L425 305L604 130Z"  horiz-adv-x="666" vert-adv-y="1000"  />

      
      <glyph glyph-name="unid8" unicode="&#xd8;" d="M841 694L742 605Q802 527 802 413Q802 231 684.50 106.50Q567-18 386-18Q237-18 145 58L45-33L-12 25L89 118Q41 192 41 295Q41 476 160 601Q279 726 460 726Q595 726 686 661L783 752L841 694M564 549Q519 583 452 583Q341 583 274 500Q207 417 207 307Q207 269 221 236L564 549M633 401Q633 444 614 484L270 169Q314 127 390 127Q503 127 568 208.50Q633 290 633 401Z"  horiz-adv-x="831" vert-adv-y="1000"  />

      
      <glyph glyph-name="unid9" unicode="&#xd9;" d="M658 260Q635 129 553.50 55.50Q472-18 331-18Q203-18 127.50 41.50Q52 101 52 203Q52 231 57 264L135 708L300 708L224 279Q221 260 221 238Q221 190 250 158.50Q279 127 340 127Q415 127 449 169Q483 211 495 277L572 708L736 708L658 260M413 908L522 764L402 764L250 908L413 908Z"  horiz-adv-x="737" vert-adv-y="1000"  />

      
      <glyph glyph-name="unida" unicode="&#xda;" d="M658 260Q635 129 553.50 55.50Q472-18 331-18Q203-18 127.50 41.50Q52 101 52 203Q52 231 57 264L135 708L300 708L224 279Q221 260 221 238Q221 190 250 158.50Q279 127 340 127Q415 127 449 169Q483 211 495 277L572 708L736 708L658 260M641 908L471 764L349 764L478 908L641 908Z"  horiz-adv-x="737" vert-adv-y="1000"  />

      
      <glyph glyph-name="unidb" unicode="&#xdb;" d="M658 260Q635 129 553.50 55.50Q472-18 331-18Q203-18 127.50 41.50Q52 101 52 203Q52 231 57 264L135 708L300 708L224 279Q221 260 221 238Q221 190 250 158.50Q279 127 340 127Q415 127 449 169Q483 211 495 277L572 708L736 708L658 260M639 764L514 764L459 846L376 764L249 764L397 908L543 908L639 764Z"  horiz-adv-x="737" vert-adv-y="1000"  />

      
      <glyph glyph-name="unidc" unicode="&#xdc;" d="M658 260Q635 129 553.50 55.50Q472-18 331-18Q203-18 127.50 41.50Q52 101 52 203Q52 231 57 264L135 708L300 708L224 279Q221 260 221 238Q221 190 250 158.50Q279 127 340 127Q415 127 449 169Q483 211 495 277L572 708L736 708L658 260M429 856Q429 820 405 795Q381 770 345 770Q311 770 289 790.50Q267 811 267 843Q267 880 291.50 904.50Q316 929 352 929Q386 929 407.50 908.50Q429 888 429 856M648 856Q648 820 624 795Q600 770 564 770Q530 770 508 790.50Q486 811 486 843Q486 880 510.50 904.50Q535 929 572 929Q605 929 626.50 908.50Q648 888 648 856Z"  horiz-adv-x="737" vert-adv-y="1000"  />

      
      <glyph glyph-name="unidd" unicode="&#xdd;" d="M727 708L383 301L329 0L163 0L216 301L35 708L221 708L322 440L525 708L727 708M602 908L432 764L310 764L439 908L602 908Z"  horiz-adv-x="613" vert-adv-y="1000"  />

      
      <glyph glyph-name="unide" unicode="&#xde;" d="M355 584Q478 584 545 531.50Q612 479 612 386Q612 267 529.50 206Q447 145 301 145L209 145L183 0L18 0L143 708L308 708L287 584L355 584M303 277Q446 277 446 370Q446 449 331 449L263 449L232 277L303 277Z"  horiz-adv-x="637" vert-adv-y="1000"  />

      
      <glyph glyph-name="unidf" unicode="&#xdf;" d="M317-12Q264-12 223-1L245 124Q270 115 306 115Q370 115 407.50 150Q445 185 445 246Q445 292 411 319Q377 346 328 346L317 346L338 471L351 471Q394 471 425.50 494.50Q457 518 457 566Q457 598 435 619Q413 640 377 640Q284 640 260 503L171 0L9 0L99 509Q109 564 127 607.50Q145 651 177 689Q209 727 262 747.50Q315 768 386 768Q479 768 546 721Q613 674 613 587Q613 518 574.50 475Q536 432 476 417L476 415Q533 400 570 354Q607 308 607 243Q607 127 529 57.50Q451-12 317-12Z"  horiz-adv-x="661" vert-adv-y="1000"  />

      
      <glyph glyph-name="unie0" unicode="&#xe0;" d="M503 352Q503 321 497 291L463 97Q453 40 453 0L311 0Q311 19 315 53L313 53Q258-12 161-12Q99-12 53 20Q7 52 7 120Q7 314 349 314Q351 326 351 337Q351 393 273 393Q204 393 142 346L76 438Q120 473 178.50 493Q237 513 295 513Q389 513 446 472.50Q503 432 503 352M340 218L326 218Q153 218 153 146Q153 95 219 95Q264 95 295.50 123Q327 151 335 194L340 218M284 716L393 572L273 572L121 716L284 716Z"  horiz-adv-x="559" vert-adv-y="1000"  />

      
      <glyph glyph-name="unie1" unicode="&#xe1;" d="M503 352Q503 321 497 291L463 97Q453 40 453 0L311 0Q311 19 315 53L313 53Q258-12 161-12Q99-12 53 20Q7 52 7 120Q7 314 349 314Q351 326 351 337Q351 393 273 393Q204 393 142 346L76 438Q120 473 178.50 493Q237 513 295 513Q389 513 446 472.50Q503 432 503 352M340 218L326 218Q153 218 153 146Q153 95 219 95Q264 95 295.50 123Q327 151 335 194L340 218M533 716L363 572L241 572L370 716L533 716Z"  horiz-adv-x="559" vert-adv-y="1000"  />

      
      <glyph glyph-name="unie2" unicode="&#xe2;" d="M503 352Q503 321 497 291L463 97Q453 40 453 0L311 0Q311 19 315 53L313 53Q258-12 161-12Q99-12 53 20Q7 52 7 120Q7 314 349 314Q351 326 351 337Q351 393 273 393Q204 393 142 346L76 438Q120 473 178.50 493Q237 513 295 513Q389 513 446 472.50Q503 432 503 352M340 218L326 218Q153 218 153 146Q153 95 219 95Q264 95 295.50 123Q327 151 335 194L340 218M517 572L392 572L337 654L254 572L127 572L275 716L421 716L517 572Z"  horiz-adv-x="559" vert-adv-y="1000"  />

      
      <glyph glyph-name="unie3" unicode="&#xe3;" d="M503 352Q503 321 497 291L463 97Q453 40 453 0L311 0Q311 19 315 53L313 53Q258-12 161-12Q99-12 53 20Q7 52 7 120Q7 314 349 314Q351 326 351 337Q351 393 273 393Q204 393 142 346L76 438Q120 473 178.50 493Q237 513 295 513Q389 513 446 472.50Q503 432 503 352M340 218L326 218Q153 218 153 146Q153 95 219 95Q264 95 295.50 123Q327 151 335 194L340 218M529 708Q512 650 478 613.50Q444 577 393 577Q356 577 321 596Q279 618 256 618Q225 618 206 576L135 576Q152 633 186 669Q220 705 271 705Q307 705 347 685Q385 665 409 665Q440 665 458 708L529 708Z"  horiz-adv-x="559" vert-adv-y="1000"  />

      
      <glyph glyph-name="unie4" unicode="&#xe4;" d="M503 352Q503 321 497 291L463 97Q453 40 453 0L311 0Q311 19 315 53L313 53Q258-12 161-12Q99-12 53 20Q7 52 7 120Q7 314 349 314Q351 326 351 337Q351 393 273 393Q204 393 142 346L76 438Q120 473 178.50 493Q237 513 295 513Q389 513 446 472.50Q503 432 503 352M340 218L326 218Q153 218 153 146Q153 95 219 95Q264 95 295.50 123Q327 151 335 194L340 218M308 664Q308 628 284 603Q260 578 224 578Q190 578 168 598.50Q146 619 146 651Q146 688 170.50 712.50Q195 737 231 737Q265 737 286.50 716.50Q308 696 308 664M527 664Q527 628 503 603Q479 578 443 578Q409 578 387 598.50Q365 619 365 651Q365 688 389.50 712.50Q414 737 451 737Q484 737 505.50 716.50Q527 696 527 664Z"  horiz-adv-x="559" vert-adv-y="1000"  />

      
      <glyph glyph-name="unie5" unicode="&#xe5;" d="M503 352Q503 321 497 291L463 97Q453 40 453 0L311 0Q311 19 315 53L313 53Q258-12 161-12Q99-12 53 20Q7 52 7 120Q7 314 349 314Q351 326 351 337Q351 393 273 393Q204 393 142 346L76 438Q120 473 178.50 493Q237 513 295 513Q389 513 446 472.50Q503 432 503 352M340 218L326 218Q153 218 153 146Q153 95 219 95Q264 95 295.50 123Q327 151 335 194L340 218M322 557Q281 557 255 582Q229 607 229 646Q229 698 263 733.50Q297 769 348 769Q389 769 415 744Q441 719 441 681Q441 629 407 593Q373 557 322 557M392 674Q392 695 378.50 709.50Q365 724 343 724Q315 724 296.50 703Q278 682 278 652Q278 630 291 616Q304 602 326 602Q355 602 373.50 623Q392 644 392 674Z"  horiz-adv-x="559" vert-adv-y="1000"  />

      
      <glyph glyph-name="unie6" unicode="&#xe6;" d="M849 303Q849 254 837 206L480 206Q479 202 479 197Q479 157 512 132.50Q545 108 589 108Q658 108 708 160L808 81Q718-15 575-15Q511-15 460.50 8Q410 31 387 76Q326-12 187-12Q153-12 122.50-5.50Q92 1 64 16Q36 31 20 58Q4 85 4 122Q4 168 24 201.50Q44 235 75.50 254.50Q107 274 154.50 285.50Q202 297 247 300.50Q292 304 350 304Q354 320 354 336Q354 393 276 393Q206 393 146 346L79 438Q123 473 181.50 493Q240 513 298 513Q423 513 455 439Q518 513 630 513Q729 513 789 457.50Q849 402 849 303M708 324Q708 358 683.50 379.50Q659 401 617 401Q568 401 534 370.50Q500 340 491 304L707 304Q708 311 708 324M340 208L315 208Q151 208 151 145Q151 96 218 96Q267 96 298 121.50Q329 147 337 191L340 208Z"  horiz-adv-x="897" vert-adv-y="1000"  />

      
      <glyph glyph-name="unie7" unicode="&#xe7;" d="M344-135Q344-189 298-214.50Q252-240 192-240Q122-240 72-215L104-156Q138-174 185-174Q240-174 240-141Q240-112 198-112Q176-112 157-118L132-89L205-9Q120 5 70 62.50Q20 120 20 205Q20 331 106 422Q192 513 326 513Q385 513 434 493.50Q483 474 510 436L409 340Q398 358 374 370.50Q350 383 322 383Q259 383 217 336.50Q175 290 175 226Q175 180 202.50 149.50Q230 119 283 119Q344 119 387 164L463 62Q385-8 281-13L236-61Q244-59 255-59Q288-59 316-77Q344-95 344-135Z"  horiz-adv-x="500" vert-adv-y="1000"  />

      
      <glyph glyph-name="unie8" unicode="&#xe8;" d="M527 206L170 206Q169 202 169 197Q169 157 202 132.50Q235 108 279 108Q349 108 398 160L499 81Q409-15 265-15Q158-15 89 44.50Q20 104 20 209Q20 338 105 425.50Q190 513 320 513Q420 513 480 457.50Q540 402 540 303Q540 258 527 206M397 304Q398 311 398 324Q398 358 373.50 379.50Q349 401 307 401Q258 401 224 370.50Q190 340 181 304L397 304M288 716L397 572L277 572L125 716L288 716Z"  horiz-adv-x="587" vert-adv-y="1000"  />

      
      <glyph glyph-name="unie9" unicode="&#xe9;" d="M527 206L170 206Q169 202 169 197Q169 157 202 132.50Q235 108 279 108Q349 108 398 160L499 81Q409-15 265-15Q158-15 89 44.50Q20 104 20 209Q20 338 105 425.50Q190 513 320 513Q420 513 480 457.50Q540 402 540 303Q540 258 527 206M397 304Q398 311 398 324Q398 358 373.50 379.50Q349 401 307 401Q258 401 224 370.50Q190 340 181 304L397 304M536 716L366 572L244 572L373 716L536 716Z"  horiz-adv-x="587" vert-adv-y="1000"  />

      
      <glyph glyph-name="uniea" unicode="&#xea;" d="M527 206L170 206Q169 202 169 197Q169 157 202 132.50Q235 108 279 108Q349 108 398 160L499 81Q409-15 265-15Q158-15 89 44.50Q20 104 20 209Q20 338 105 425.50Q190 513 320 513Q420 513 480 457.50Q540 402 540 303Q540 258 527 206M397 304Q398 311 398 324Q398 358 373.50 379.50Q349 401 307 401Q258 401 224 370.50Q190 340 181 304L397 304M540 572L415 572L360 654L277 572L150 572L298 716L444 716L540 572Z"  horiz-adv-x="587" vert-adv-y="1000"  />

      
      <glyph glyph-name="unieb" unicode="&#xeb;" d="M527 206L170 206Q169 202 169 197Q169 157 202 132.50Q235 108 279 108Q349 108 398 160L499 81Q409-15 265-15Q158-15 89 44.50Q20 104 20 209Q20 338 105 425.50Q190 513 320 513Q420 513 480 457.50Q540 402 540 303Q540 258 527 206M397 304Q398 311 398 324Q398 358 373.50 379.50Q349 401 307 401Q258 401 224 370.50Q190 340 181 304L397 304M329 664Q329 628 305 603Q281 578 245 578Q211 578 189 598.50Q167 619 167 651Q167 688 191.50 712.50Q216 737 252 737Q286 737 307.50 716.50Q329 696 329 664M548 664Q548 628 524 603Q500 578 464 578Q430 578 408 598.50Q386 619 386 651Q386 688 410.50 712.50Q435 737 472 737Q505 737 526.50 716.50Q548 696 548 664Z"  horiz-adv-x="587" vert-adv-y="1000"  />

      
      <glyph glyph-name="uniec" unicode="&#xec;" d="M170 0L11 0L98 498L259 498L170 0M152 716L261 572L141 572L-11 716L152 716Z"  horiz-adv-x="294" vert-adv-y="1000"  />

      
      <glyph glyph-name="unied" unicode="&#xed;" d="M170 0L11 0L98 498L259 498L170 0M399 716L229 572L107 572L236 716L399 716Z"  horiz-adv-x="294" vert-adv-y="1000"  />

      
      <glyph glyph-name="uniee" unicode="&#xee;" d="M170 0L11 0L98 498L259 498L170 0M389 572L264 572L209 654L126 572L-1 572L147 716L293 716L389 572Z"  horiz-adv-x="294" vert-adv-y="1000"  />

      
      <glyph glyph-name="unief" unicode="&#xef;" d="M170 0L11 0L98 498L259 498L170 0M172 664Q172 628 148 603Q124 578 88 578Q54 578 32 598.50Q10 619 10 651Q10 688 34.50 712.50Q59 737 95 737Q129 737 150.50 716.50Q172 696 172 664M391 664Q391 628 367 603Q343 578 307 578Q273 578 251 598.50Q229 619 229 651Q229 688 253.50 712.50Q278 737 315 737Q348 737 369.50 716.50Q391 696 391 664Z"  horiz-adv-x="294" vert-adv-y="1000"  />

      
      <glyph glyph-name="unif0" unicode="&#xf0;" d="M582 316Q582 177 501.50 81.50Q421-14 273-14Q163-14 91.50 46Q20 106 20 205Q20 332 100 420.50Q180 509 318 509Q371 509 401 488L403 490Q368 561 327 600L211 552L144 622L261 669Q242 692 197 728L336 797Q372 766 407 726L526 775L600 704L470 652Q582 512 582 316M422 277Q422 323 393.50 352.50Q365 382 317 382Q255 382 216 335Q177 288 177 222Q177 176 205 147Q233 118 281 118Q344 118 383 164.50Q422 211 422 277Z"  horiz-adv-x="626" vert-adv-y="1000"  />

      
      <glyph glyph-name="unif1" unicode="&#xf1;" d="M239 426L241 426Q297 511 397 511Q476 511 516 468Q556 425 556 360Q556 327 551 306L497 0L337 0L384 270Q389 293 389 312Q389 379 323 379Q281 379 253.50 348Q226 317 218 270L170 0L10 0L79 395Q89 445 94 498L247 498Q246 489 243 462Q240 435 239 426M553 708Q536 650 502 613.50Q468 577 417 577Q380 577 345 596Q303 618 280 618Q249 618 230 576L159 576Q176 633 210 669Q244 705 295 705Q331 705 371 685Q409 665 433 665Q464 665 482 708L553 708Z"  horiz-adv-x="615" vert-adv-y="1000"  />

      
      <glyph glyph-name="unif2" unicode="&#xf2;" d="M273-14Q163-14 91.50 46Q20 106 20 205Q20 333 103.50 423Q187 513 324 513Q436 513 508 453.50Q580 394 580 294Q580 164 496 75Q412-14 273-14M422 277Q422 323 393.50 352.50Q365 382 317 382Q255 382 216 335Q177 288 177 222Q177 176 205 147Q233 118 281 118Q344 118 383 164.50Q422 211 422 277M326 716L435 572L315 572L163 716L326 716Z"  horiz-adv-x="626" vert-adv-y="1000"  />

      
      <glyph glyph-name="unif3" unicode="&#xf3;" d="M273-14Q163-14 91.50 46Q20 106 20 205Q20 333 103.50 423Q187 513 324 513Q436 513 508 453.50Q580 394 580 294Q580 164 496 75Q412-14 273-14M422 277Q422 323 393.50 352.50Q365 382 317 382Q255 382 216 335Q177 288 177 222Q177 176 205 147Q233 118 281 118Q344 118 383 164.50Q422 211 422 277M543 716L373 572L251 572L380 716L543 716Z"  horiz-adv-x="626" vert-adv-y="1000"  />

      
      <glyph glyph-name="unif4" unicode="&#xf4;" d="M273-14Q163-14 91.50 46Q20 106 20 205Q20 333 103.50 423Q187 513 324 513Q436 513 508 453.50Q580 394 580 294Q580 164 496 75Q412-14 273-14M422 277Q422 323 393.50 352.50Q365 382 317 382Q255 382 216 335Q177 288 177 222Q177 176 205 147Q233 118 281 118Q344 118 383 164.50Q422 211 422 277M554 572L429 572L374 654L291 572L164 572L312 716L458 716L554 572Z"  horiz-adv-x="626" vert-adv-y="1000"  />

      
      <glyph glyph-name="unif5" unicode="&#xf5;" d="M273-14Q163-14 91.50 46Q20 106 20 205Q20 333 103.50 423Q187 513 324 513Q436 513 508 453.50Q580 394 580 294Q580 164 496 75Q412-14 273-14M422 277Q422 323 393.50 352.50Q365 382 317 382Q255 382 216 335Q177 288 177 222Q177 176 205 147Q233 118 281 118Q344 118 383 164.50Q422 211 422 277M560 708Q543 650 509 613.50Q475 577 424 577Q387 577 352 596Q310 618 287 618Q256 618 237 576L166 576Q183 633 217 669Q251 705 302 705Q338 705 378 685Q416 665 440 665Q471 665 489 708L560 708Z"  horiz-adv-x="626" vert-adv-y="1000"  />

      
      <glyph glyph-name="unif6" unicode="&#xf6;" d="M273-14Q163-14 91.50 46Q20 106 20 205Q20 333 103.50 423Q187 513 324 513Q436 513 508 453.50Q580 394 580 294Q580 164 496 75Q412-14 273-14M422 277Q422 323 393.50 352.50Q365 382 317 382Q255 382 216 335Q177 288 177 222Q177 176 205 147Q233 118 281 118Q344 118 383 164.50Q422 211 422 277M339 664Q339 628 315 603Q291 578 255 578Q221 578 199 598.50Q177 619 177 651Q177 688 201.50 712.50Q226 737 262 737Q296 737 317.50 716.50Q339 696 339 664M558 664Q558 628 534 603Q510 578 474 578Q440 578 418 598.50Q396 619 396 651Q396 688 420.50 712.50Q445 737 482 737Q515 737 536.50 716.50Q558 696 558 664Z"  horiz-adv-x="626" vert-adv-y="1000"  />

      
      <glyph glyph-name="unif7" unicode="&#xf7;" d="M246 489Q246 523 272 548Q298 573 333 573Q368 573 393.50 548Q419 523 419 489Q419 454 393.50 429Q368 404 333 404Q298 404 272 429Q246 454 246 489M272 57.50Q272 57.50 259 70.25Q246 83 246 117Q246 151 272 176Q298 201 333 201Q368 201 393.50 176Q419 151 419 117Q419 82 393.50 57Q368 32 333 32Q298 32 272 57.50M586 240L79 240L79 367L586 367L586 240Z"  horiz-adv-x="666" vert-adv-y="1000"  />

      
      <glyph glyph-name="unif8" unicode="&#xf8;" d="M621 477L544 411Q580 361 580 294Q580 164 496 75Q412-14 273-14Q174-14 108 35L23-38L-24 20L56 88Q20 138 20 207Q20 333 104 423Q188 513 324 513Q423 513 491 464L572 533L621 477M378 366Q354 385 317 385Q253 385 214 339Q175 293 175 230Q175 206 180 194L378 366M424 271Q424 293 418 308L219 137Q243 115 283 115Q347 115 385.50 160.50Q424 206 424 271Z"  horiz-adv-x="626" vert-adv-y="1000"  />

      
      <glyph glyph-name="unif9" unicode="&#xf9;" d="M345 72L342 72Q318 34 277 10.50Q236-13 186-13Q108-13 68 30Q28 73 28 139Q28 170 33 193L86 498L247 498L199 228Q195 200 195 186Q195 119 261 119Q302 119 329.50 150.50Q357 182 366 229L414 498L574 498L504 103Q494 53 489 0L337 0Q338 9 341 37Q344 65 345 72M292 716L401 572L281 572L129 716L292 716Z"  horiz-adv-x="614" vert-adv-y="1000"  />

      
      <glyph glyph-name="unifa" unicode="&#xfa;" d="M345 72L342 72Q318 34 277 10.50Q236-13 186-13Q108-13 68 30Q28 73 28 139Q28 170 33 193L86 498L247 498L199 228Q195 200 195 186Q195 119 261 119Q302 119 329.50 150.50Q357 182 366 229L414 498L574 498L504 103Q494 53 489 0L337 0Q338 9 341 37Q344 65 345 72M545 716L375 572L253 572L382 716L545 716Z"  horiz-adv-x="614" vert-adv-y="1000"  />

      
      <glyph glyph-name="unifb" unicode="&#xfb;" d="M345 72L342 72Q318 34 277 10.50Q236-13 186-13Q108-13 68 30Q28 73 28 139Q28 170 33 193L86 498L247 498L199 228Q195 200 195 186Q195 119 261 119Q302 119 329.50 150.50Q357 182 366 229L414 498L574 498L504 103Q494 53 489 0L337 0Q338 9 341 37Q344 65 345 72M538 572L413 572L358 654L275 572L148 572L296 716L442 716L538 572Z"  horiz-adv-x="614" vert-adv-y="1000"  />

      
      <glyph glyph-name="unifc" unicode="&#xfc;" d="M345 72L342 72Q318 34 277 10.50Q236-13 186-13Q108-13 68 30Q28 73 28 139Q28 170 33 193L86 498L247 498L199 228Q195 200 195 186Q195 119 261 119Q302 119 329.50 150.50Q357 182 366 229L414 498L574 498L504 103Q494 53 489 0L337 0Q338 9 341 37Q344 65 345 72M326 664Q326 628 302 603Q278 578 242 578Q208 578 186 598.50Q164 619 164 651Q164 688 188.50 712.50Q213 737 249 737Q283 737 304.50 716.50Q326 696 326 664M545 664Q545 628 521 603Q497 578 461 578Q427 578 405 598.50Q383 619 383 651Q383 688 407.50 712.50Q432 737 469 737Q502 737 523.50 716.50Q545 696 545 664Z"  horiz-adv-x="614" vert-adv-y="1000"  />

      
      <glyph glyph-name="unifd" unicode="&#xfd;" d="M594 498L268-75Q220-162 172.50-201Q125-240 42-240Q-5-240-40-229L-16-97Q6-106 31-106Q63-106 83-90Q103-74 123-39L147 2L32 498L207 498L257 172L259 172L424 498L594 498M540 716L370 572L248 572L377 716L540 716Z"  horiz-adv-x="556" vert-adv-y="1000"  />

      
      <glyph glyph-name="unife" unicode="&#xfe;" d="M611 296Q611 166 532.50 76Q454-14 335-14Q224-14 180 62L178 62L126-240L-34-240L142 756L302 756L244 434L246 434Q272 469 314.50 489.50Q357 510 404 510Q499 510 555 450Q611 390 611 296M451 275Q451 321 424 351Q397 381 349 381Q289 381 248 333.50Q207 286 207 221Q207 175 235.50 145.50Q264 116 312 116Q374 116 412.50 161.50Q451 207 451 275Z"  horiz-adv-x="659" vert-adv-y="1000"  />

      
      <glyph glyph-name="uniff" unicode="&#xff;" d="M594 498L268-75Q220-162 172.50-201Q125-240 42-240Q-5-240-40-229L-16-97Q6-106 31-106Q63-106 83-90Q103-74 123-39L147 2L32 498L207 498L257 172L259 172L424 498L594 498M309 664Q309 628 285 603Q261 578 225 578Q191 578 169 598.50Q147 619 147 651Q147 688 171.50 712.50Q196 737 232 737Q266 737 287.50 716.50Q309 696 309 664M528 664Q528 628 504 603Q480 578 444 578Q410 578 388 598.50Q366 619 366 651Q366 688 390.50 712.50Q415 737 452 737Q485 737 506.50 716.50Q528 696 528 664Z"  horiz-adv-x="556" vert-adv-y="1000"  />

      
      <glyph glyph-name="uni0100" unicode="&#x0100;" d="M664 0L489 0L465 141L192 141L107 0L-83 0L368 708L530 708L664 0M448 275L411 526L263 275L448 275M625 793L292 793L306 877L640 877L625 793Z"  horiz-adv-x="710" vert-adv-y="1000"  />

      
      <glyph glyph-name="uni0101" unicode="&#x0101;" d="M503 352Q503 321 497 291L463 97Q453 40 453 0L311 0Q311 19 315 53L313 53Q258-12 161-12Q99-12 53 20Q7 52 7 120Q7 314 349 314Q351 326 351 337Q351 393 273 393Q204 393 142 346L76 438Q120 473 178.50 493Q237 513 295 513Q389 513 446 472.50Q503 432 503 352M340 218L326 218Q153 218 153 146Q153 95 219 95Q264 95 295.50 123Q327 151 335 194L340 218M491 601L158 601L172 685L506 685L491 601Z"  horiz-adv-x="559" vert-adv-y="1000"  />

      
      <glyph glyph-name="uni0102" unicode="&#x0102;" d="M664 0L489 0L465 141L192 141L107 0L-83 0L368 708L530 708L664 0M448 275L411 526L263 275L448 275M642 908Q626 834 575.50 799Q525 764 453 764Q296 764 296 908L378 908Q378 851 458 851Q544 851 560 908L642 908Z"  horiz-adv-x="710" vert-adv-y="1000"  />

      
      <glyph glyph-name="uni0103" unicode="&#x0103;" d="M503 352Q503 321 497 291L463 97Q453 40 453 0L311 0Q311 19 315 53L313 53Q258-12 161-12Q99-12 53 20Q7 52 7 120Q7 314 349 314Q351 326 351 337Q351 393 273 393Q204 393 142 346L76 438Q120 473 178.50 493Q237 513 295 513Q389 513 446 472.50Q503 432 503 352M340 218L326 218Q153 218 153 146Q153 95 219 95Q264 95 295.50 123Q327 151 335 194L340 218M505 716Q489 642 438.50 607Q388 572 316 572Q159 572 159 716L241 716Q241 686 266 671Q288 659 321 659Q407 659 423 716L505 716Z"  horiz-adv-x="559" vert-adv-y="1000"  />

      
      <glyph glyph-name="uni0104" unicode="&#x0104;" d="M578-196Q520-236 459-236Q363-236 363-153Q363-82 489 0L465 141L192 141L107 0L-83 0L368 708L530 708L664 0L577 0Q467-79 467-127Q467-154 500-154Q528-154 557-135L578-196M448 275L411 526L263 275L448 275Z"  horiz-adv-x="710" vert-adv-y="1000"  />

      
      <glyph glyph-name="uni0105" unicode="&#x0105;" d="M398-196Q340-236 279-236Q183-236 183-153Q183-83 311 2Q311 19 315 53L313 53Q258-12 161-12Q99-12 53 20Q7 52 7 120Q7 314 349 314Q351 326 351 337Q351 393 273 393Q204 393 142 346L76 438Q120 473 178.50 493Q237 513 295 513Q389 513 446 472.50Q503 432 503 352Q503 321 497 291L463 97Q453 40 453 0L397 0Q287-79 287-127Q287-154 320-154Q348-154 377-135L398-196M340 218L326 218Q153 218 153 146Q153 95 219 95Q264 95 295.50 123Q327 151 335 194L340 218Z"  horiz-adv-x="559" vert-adv-y="1000"  />

      
      <glyph glyph-name="uni0106" unicode="&#x0106;" d="M556 209L649 99Q542-19 366-19Q217-19 129 65.50Q41 150 41 289Q41 473 162 600Q283 727 462 727Q544 727 611.50 698Q679 669 714 622L591 512Q548 578 457 578Q354 578 286.50 497.50Q219 417 219 309Q219 233 265 182.50Q311 132 393 132Q488 132 556 209M674 908L504 764L382 764L511 908L674 908Z"  horiz-adv-x="684" vert-adv-y="1000"  />

      
      <glyph glyph-name="uni0107" unicode="&#x0107;" d="M510 436L409 340Q398 358 374 370.50Q350 383 322 383Q259 383 217 336.50Q175 290 175 226Q175 180 202.50 149.50Q230 119 283 119Q344 119 387 164L463 62Q377-14 262-14Q153-14 86.50 46Q20 106 20 205Q20 331 106 422Q192 513 326 513Q385 513 434 493.50Q483 474 510 436M537 716L367 572L245 572L374 716L537 716Z"  horiz-adv-x="500" vert-adv-y="1000"  />

      
      <glyph glyph-name="uni0108" unicode="&#x0108;" d="M556 209L649 99Q542-19 366-19Q217-19 129 65.50Q41 150 41 289Q41 473 162 600Q283 727 462 727Q544 727 611.50 698Q679 669 714 622L591 512Q548 578 457 578Q354 578 286.50 497.50Q219 417 219 309Q219 233 265 182.50Q311 132 393 132Q488 132 556 209M682 764L557 764L502 846L419 764L292 764L440 908L586 908L682 764Z"  horiz-adv-x="684" vert-adv-y="1000"  />

      
      <glyph glyph-name="uni0109" unicode="&#x0109;" d="M510 436L409 340Q398 358 374 370.50Q350 383 322 383Q259 383 217 336.50Q175 290 175 226Q175 180 202.50 149.50Q230 119 283 119Q344 119 387 164L463 62Q377-14 262-14Q153-14 86.50 46Q20 106 20 205Q20 331 106 422Q192 513 326 513Q385 513 434 493.50Q483 474 510 436M541 572L416 572L361 654L278 572L151 572L299 716L445 716L541 572Z"  horiz-adv-x="500" vert-adv-y="1000"  />

      
      <glyph glyph-name="uni010A" unicode="&#x010A;" d="M556 209L649 99Q542-19 366-19Q217-19 129 65.50Q41 150 41 289Q41 473 162 600Q283 727 462 727Q544 727 611.50 698Q679 669 714 622L591 512Q548 578 457 578Q354 578 286.50 497.50Q219 417 219 309Q219 233 265 182.50Q311 132 393 132Q488 132 556 209M576 856Q576 819 551 792.50Q526 766 488 766Q452 766 429 787.50Q406 809 406 842Q406 880 432 906Q458 932 496 932Q530 932 553 910Q576 888 576 856Z"  horiz-adv-x="684" vert-adv-y="1000"  />

      
      <glyph glyph-name="uni010B" unicode="&#x010B;" d="M510 436L409 340Q398 358 374 370.50Q350 383 322 383Q259 383 217 336.50Q175 290 175 226Q175 180 202.50 149.50Q230 119 283 119Q344 119 387 164L463 62Q377-14 262-14Q153-14 86.50 46Q20 106 20 205Q20 331 106 422Q192 513 326 513Q385 513 434 493.50Q483 474 510 436M439 664Q439 627 414 600.50Q389 574 351 574Q315 574 292 595.50Q269 617 269 650Q269 688 295 714Q321 740 359 740Q393 740 416 718Q439 696 439 664Z"  horiz-adv-x="500" vert-adv-y="1000"  />

      
      <glyph glyph-name="uni010C" unicode="&#x010C;" d="M556 209L649 99Q542-19 366-19Q217-19 129 65.50Q41 150 41 289Q41 473 162 600Q283 727 462 727Q544 727 611.50 698Q679 669 714 622L591 512Q548 578 457 578Q354 578 286.50 497.50Q219 417 219 309Q219 233 265 182.50Q311 132 393 132Q488 132 556 209M699 908L552 764L407 764L309 908L435 908L489 825L572 908L699 908Z"  horiz-adv-x="684" vert-adv-y="1000"  />

      
      <glyph glyph-name="uni010D" unicode="&#x010D;" d="M510 436L409 340Q398 358 374 370.50Q350 383 322 383Q259 383 217 336.50Q175 290 175 226Q175 180 202.50 149.50Q230 119 283 119Q344 119 387 164L463 62Q377-14 262-14Q153-14 86.50 46Q20 106 20 205Q20 331 106 422Q192 513 326 513Q385 513 434 493.50Q483 474 510 436M557 716L410 572L265 572L167 716L293 716L347 633L430 716L557 716Z"  horiz-adv-x="500" vert-adv-y="1000"  />

      
      <glyph glyph-name="uni010E" unicode="&#x010E;" d="M18 0L143 708L405 708Q467 708 524.50 691Q582 674 631 640Q680 606 709.50 546.50Q739 487 739 410Q739 226 617.50 113Q496 0 307 0L18 0M281 567L207 144L314 144Q432 144 499 216.50Q566 289 566 390Q566 468 517 517.50Q468 567 372 567L281 567M639 908L492 764L347 764L249 908L375 908L429 825L512 908L639 908Z"  horiz-adv-x="769" vert-adv-y="1000"  />

      
      <glyph glyph-name="uni010F" unicode="&#x010F;" d="M452 434L507 756L667 756L533 0L386 0L398 68L395 68Q339-12 226-12Q131-12 75.50 47.50Q20 107 20 202Q20 331 98.50 421Q177 511 295 511Q406 511 450 434L452 434M179 223Q179 177 206 147.50Q233 118 282 118Q342 118 382.50 165Q423 212 423 277Q423 323 394.50 352.50Q366 382 319 382Q257 382 218 336.50Q179 291 179 223M903 708L773 513L650 513L761 708L903 708Z"  horiz-adv-x="776" vert-adv-y="1000"  />

      
      <glyph glyph-name="uni0110" unicode="&#x0110;" d="M72 309L15 309L34 416L91 416L143 708L405 708Q467 708 524.50 691Q582 674 631 640Q680 606 709.50 546.50Q739 487 739 410Q739 226 617.50 113Q496 0 307 0L18 0L72 309M255 416L426 416L407 309L236 309L207 144L314 144Q432 144 499 216.50Q566 289 566 390Q566 468 517 517.50Q468 567 372 567L281 567L255 416Z"  horiz-adv-x="769" vert-adv-y="1000"  />

      
      <glyph glyph-name="uni0111" unicode="&#x0111;" d="M686 570L634 570L533 0L386 0L398 68L395 68Q339-12 226-12Q131-12 75.50 47.50Q20 107 20 202Q20 331 98.50 421Q177 511 295 511Q406 511 450 434L452 434L475 570L327 570L343 659L490 659L507 756L667 756L650 659L702 659L686 570M179 223Q179 177 206 147.50Q233 118 282 118Q342 118 382.50 165Q423 212 423 277Q423 323 394.50 352.50Q366 382 319 382Q257 382 218 336.50Q179 291 179 223Z"  horiz-adv-x="656" vert-adv-y="1000"  />

      
      <glyph glyph-name="uni0112" unicode="&#x0112;" d="M500 0L18 0L143 708L596 708L571 566L277 566L253 429L533 429L509 295L229 295L203 143L525 143L500 0M547 793L214 793L228 877L562 877L547 793Z"  horiz-adv-x="587" vert-adv-y="1000"  />

      
      <glyph glyph-name="uni0113" unicode="&#x0113;" d="M527 206L170 206Q169 202 169 197Q169 157 202 132.50Q235 108 279 108Q349 108 398 160L499 81Q409-15 265-15Q158-15 89 44.50Q20 104 20 209Q20 338 105 425.50Q190 513 320 513Q420 513 480 457.50Q540 402 540 303Q540 258 527 206M397 304Q398 311 398 324Q398 358 373.50 379.50Q349 401 307 401Q258 401 224 370.50Q190 340 181 304L397 304M514 601L181 601L195 685L529 685L514 601Z"  horiz-adv-x="587" vert-adv-y="1000"  />

      
      <glyph glyph-name="uni0114" unicode="&#x0114;" d="M500 0L18 0L143 708L596 708L571 566L277 566L253 429L533 429L509 295L229 295L203 143L525 143L500 0M565 908Q549 834 498.50 799Q448 764 376 764Q219 764 219 908L301 908Q301 851 381 851Q467 851 483 908L565 908Z"  horiz-adv-x="587" vert-adv-y="1000"  />

      
      <glyph glyph-name="uni0115" unicode="&#x0115;" d="M527 206L170 206Q169 202 169 197Q169 157 202 132.50Q235 108 279 108Q349 108 398 160L499 81Q409-15 265-15Q158-15 89 44.50Q20 104 20 209Q20 338 105 425.50Q190 513 320 513Q420 513 480 457.50Q540 402 540 303Q540 258 527 206M397 304Q398 311 398 324Q398 358 373.50 379.50Q349 401 307 401Q258 401 224 370.50Q190 340 181 304L397 304M527 716Q511 642 460.50 607Q410 572 338 572Q181 572 181 716L263 716Q263 686 288 671Q311 659 343 659Q429 659 445 716L527 716Z"  horiz-adv-x="587" vert-adv-y="1000"  />

      
      <glyph glyph-name="uni0116" unicode="&#x0116;" d="M500 0L18 0L143 708L596 708L571 566L277 566L253 429L533 429L509 295L229 295L203 143L525 143L500 0M474 856Q474 819 449 792.50Q424 766 386 766Q350 766 327 787.50Q304 809 304 842Q304 880 330 906Q356 932 394 932Q428 932 451 910Q474 888 474 856Z"  horiz-adv-x="587" vert-adv-y="1000"  />

      
      <glyph glyph-name="uni0117" unicode="&#x0117;" d="M527 206L170 206Q169 202 169 197Q169 157 202 132.50Q235 108 279 108Q349 108 398 160L499 81Q409-15 265-15Q158-15 89 44.50Q20 104 20 209Q20 338 105 425.50Q190 513 320 513Q420 513 480 457.50Q540 402 540 303Q540 258 527 206M397 304Q398 311 398 324Q398 358 373.50 379.50Q349 401 307 401Q258 401 224 370.50Q190 340 181 304L397 304M440 664Q440 627 415 600.50Q390 574 352 574Q316 574 293 595.50Q270 617 270 650Q270 688 296 714Q322 740 360 740Q394 740 417 718Q440 696 440 664Z"  horiz-adv-x="587" vert-adv-y="1000"  />

      
      <glyph glyph-name="uni0118" unicode="&#x0118;" d="M472-196Q414-236 353-236Q257-236 257-153Q257-85 382 0L18 0L143 708L596 708L571 566L277 566L253 429L533 429L509 295L229 295L203 143L525 143L500 0L471 0Q361-79 361-127Q361-154 394-154Q422-154 451-135L472-196Z"  horiz-adv-x="587" vert-adv-y="1000"  />

      
      <glyph glyph-name="uni0119" unicode="&#x0119;" d="M349-196Q291-236 230-236Q134-236 134-153Q134-87 238-14Q141-6 80.50 52Q20 110 20 209Q20 338 105 425.50Q190 513 320 513Q420 513 480 457.50Q540 402 540 303Q540 258 527 206L170 206Q169 202 169 197Q169 157 202 132.50Q235 108 279 108Q349 108 398 160L499 81Q433 11 337-8Q238-80 238-127Q238-154 271-154Q300-154 328-135L349-196M397 304Q398 311 398 324Q398 358 373.50 379.50Q349 401 307 401Q258 401 224 370.50Q190 340 181 304L397 304Z"  horiz-adv-x="587" vert-adv-y="1000"  />

      
      <glyph glyph-name="uni011A" unicode="&#x011A;" d="M500 0L18 0L143 708L596 708L571 566L277 566L253 429L533 429L509 295L229 295L203 143L525 143L500 0M592 908L445 764L300 764L202 908L328 908L382 825L465 908L592 908Z"  horiz-adv-x="587" vert-adv-y="1000"  />

      
      <glyph glyph-name="uni011B" unicode="&#x011B;" d="M527 206L170 206Q169 202 169 197Q169 157 202 132.50Q235 108 279 108Q349 108 398 160L499 81Q409-15 265-15Q158-15 89 44.50Q20 104 20 209Q20 338 105 425.50Q190 513 320 513Q420 513 480 457.50Q540 402 540 303Q540 258 527 206M397 304Q398 311 398 324Q398 358 373.50 379.50Q349 401 307 401Q258 401 224 370.50Q190 340 181 304L397 304M562 716L415 572L270 572L172 716L298 716L352 633L435 716L562 716Z"  horiz-adv-x="587" vert-adv-y="1000"  />

      
      <glyph glyph-name="uni011C" unicode="&#x011C;" d="M401 126Q464 128 504 147L527 280L389 280L414 417L705 417L640 43Q521-19 379-19Q226-19 133.50 64.50Q41 148 41 289Q41 473 161 600Q281 727 460 727Q545 727 613.50 700Q682 673 720 622L599 513Q552 581 457 581Q355 581 284.50 500.50Q214 420 214 308Q214 227 263.50 176.50Q313 126 401 126M666 764L541 764L486 846L403 764L276 764L424 908L570 908L666 764Z"  horiz-adv-x="749" vert-adv-y="1000"  />

      
      <glyph glyph-name="uni011D" unicode="&#x011D;" d="M456 432L459 432L470 498L621 498L542 46Q517-97 441.50-168.50Q366-240 223-240Q154-240 85-218Q16-196-25-156L65-43Q126-110 222-110Q296-110 333-73.50Q370-37 383 29L390 62L387 62Q365 33 324 14Q283-5 234-5Q137-5 80.50 52.50Q24 110 24 203Q24 332 102 421.50Q180 511 300 511Q412 511 456 432M182 223Q182 178 208.50 148Q235 118 285 118Q346 118 387 165.50Q428 213 428 278Q428 325 399.50 354Q371 383 323 383Q260 383 221 336Q182 289 182 223M568 572L443 572L388 654L305 572L178 572L326 716L472 716L568 572Z"  horiz-adv-x="656" vert-adv-y="1000"  />

      
      <glyph glyph-name="uni011E" unicode="&#x011E;" d="M401 126Q464 128 504 147L527 280L389 280L414 417L705 417L640 43Q521-19 379-19Q226-19 133.50 64.50Q41 148 41 289Q41 473 161 600Q281 727 460 727Q545 727 613.50 700Q682 673 720 622L599 513Q552 581 457 581Q355 581 284.50 500.50Q214 420 214 308Q214 227 263.50 176.50Q313 126 401 126M657 908Q641 834 590.50 799Q540 764 468 764Q311 764 311 908L393 908Q393 851 473 851Q559 851 575 908L657 908Z"  horiz-adv-x="749" vert-adv-y="1000"  />

      
      <glyph glyph-name="uni011F" unicode="&#x011F;" d="M456 432L459 432L470 498L621 498L542 46Q517-97 441.50-168.50Q366-240 223-240Q154-240 85-218Q16-196-25-156L65-43Q126-110 222-110Q296-110 333-73.50Q370-37 383 29L390 62L387 62Q365 33 324 14Q283-5 234-5Q137-5 80.50 52.50Q24 110 24 203Q24 332 102 421.50Q180 511 300 511Q412 511 456 432M182 223Q182 178 208.50 148Q235 118 285 118Q346 118 387 165.50Q428 213 428 278Q428 325 399.50 354Q371 383 323 383Q260 383 221 336Q182 289 182 223M560 716Q544 642 493.50 607Q443 572 371 572Q214 572 214 716L296 716Q296 686 321 671Q344 659 376 659Q462 659 478 716L560 716Z"  horiz-adv-x="656" vert-adv-y="1000"  />

      
      <glyph glyph-name="uni0120" unicode="&#x0120;" d="M401 126Q464 128 504 147L527 280L389 280L414 417L705 417L640 43Q521-19 379-19Q226-19 133.50 64.50Q41 148 41 289Q41 473 161 600Q281 727 460 727Q545 727 613.50 700Q682 673 720 622L599 513Q552 581 457 581Q355 581 284.50 500.50Q214 420 214 308Q214 227 263.50 176.50Q313 126 401 126M574 856Q574 819 549 792.50Q524 766 486 766Q450 766 427 787.50Q404 809 404 842Q404 880 430 906Q456 932 494 932Q528 932 551 910Q574 888 574 856Z"  horiz-adv-x="749" vert-adv-y="1000"  />

      
      <glyph glyph-name="uni0121" unicode="&#x0121;" d="M456 432L459 432L470 498L621 498L542 46Q517-97 441.50-168.50Q366-240 223-240Q154-240 85-218Q16-196-25-156L65-43Q126-110 222-110Q296-110 333-73.50Q370-37 383 29L390 62L387 62Q365 33 324 14Q283-5 234-5Q137-5 80.50 52.50Q24 110 24 203Q24 332 102 421.50Q180 511 300 511Q412 511 456 432M182 223Q182 178 208.50 148Q235 118 285 118Q346 118 387 165.50Q428 213 428 278Q428 325 399.50 354Q371 383 323 383Q260 383 221 336Q182 289 182 223M467 664Q467 627 442 600.50Q417 574 379 574Q343 574 320 595.50Q297 617 297 650Q297 688 323 714Q349 740 387 740Q421 740 444 718Q467 696 467 664Z"  horiz-adv-x="656" vert-adv-y="1000"  />

      
      <glyph glyph-name="uni0122" unicode="&#x0122;" d="M401 126Q464 128 504 147L527 280L389 280L414 417L705 417L640 43Q521-19 379-19Q226-19 133.50 64.50Q41 148 41 289Q41 473 161 600Q281 727 460 727Q545 727 613.50 700Q682 673 720 622L599 513Q552 581 457 581Q355 581 284.50 500.50Q214 420 214 308Q214 227 263.50 176.50Q313 126 401 126M437-45L307-240L184-240L295-45L437-45Z"  horiz-adv-x="749" vert-adv-y="1000"  />

      
      <glyph glyph-name="uni0123" unicode="&#x0123;" d="M456 432L459 432L470 498L621 498L542 46Q517-97 441.50-168.50Q366-240 223-240Q154-240 85-218Q16-196-25-156L65-43Q126-110 222-110Q296-110 333-73.50Q370-37 383 29L390 62L387 62Q365 33 324 14Q283-5 234-5Q137-5 80.50 52.50Q24 110 24 203Q24 332 102 421.50Q180 511 300 511Q412 511 456 432M182 223Q182 178 208.50 148Q235 118 285 118Q346 118 387 165.50Q428 213 428 278Q428 325 399.50 354Q371 383 323 383Q260 383 221 336Q182 289 182 223M290 572L420 767L543 767L432 572L290 572Z"  horiz-adv-x="656" vert-adv-y="1000"  />

      
      <glyph glyph-name="uni0124" unicode="&#x0124;" d="M626 0L460 0L512 298L237 298L184 0L18 0L143 708L309 708L261 439L537 439L584 708L751 708L626 0M649 764L524 764L469 846L386 764L259 764L407 908L553 908L649 764Z"  horiz-adv-x="757" vert-adv-y="1000"  />

      
      <glyph glyph-name="uni0125" unicode="&#x0125;" d="M497 0L337 0L384 270Q389 293 389 312Q389 379 323 379Q281 379 253.50 347.50Q226 316 218 268L170 0L10 0L143 756L304 756L247 433L249 433Q272 466 311 488.50Q350 511 397 511Q476 511 516 468Q556 425 556 360Q556 327 551 306L497 0M575 796L450 796L395 878L312 796L185 796L333 940L479 940L575 796Z"  horiz-adv-x="615" vert-adv-y="1000"  />

      
      <glyph glyph-name="uni0126" unicode="&#x0126;" d="M626 0L460 0L512 298L237 298L184 0L18 0L143 708L309 708L288 589L563 589L584 708L751 708L626 0M261 439L537 439L547 500L272 500L261 439Z"  horiz-adv-x="757" vert-adv-y="1000"  />

      
      <glyph glyph-name="uni0127" unicode="&#x0127;" d="M410 570L271 570L247 433L249 433Q272 466 311 488.50Q350 511 397 511Q476 511 516 468Q556 425 556 360Q556 327 551 306L497 0L337 0L384 270Q389 293 389 312Q389 379 323 379Q281 379 253.50 347.50Q226 316 218 268L170 0L10 0L110 570L51 570L67 659L126 659L143 756L304 756L287 659L426 659L410 570Z"  horiz-adv-x="615" vert-adv-y="1000"  />

      
      <glyph glyph-name="uni0128" unicode="&#x0128;" d="M185 0L18 0L143 708L310 708L185 0M441 900Q424 842 390 805.50Q356 769 305 769Q268 769 233 788Q191 810 168 810Q137 810 118 768L47 768Q64 825 98 861Q132 897 183 897Q219 897 259 877Q297 857 321 857Q352 857 370 900L441 900Z"  horiz-adv-x="315" vert-adv-y="1000"  />

      
      <glyph glyph-name="uni0129" unicode="&#x0129;" d="M170 0L11 0L98 498L259 498L170 0M396 708Q379 650 345 613.50Q311 577 260 577Q223 577 188 596Q146 618 123 618Q92 618 73 576L2 576Q19 633 53 669Q87 705 138 705Q174 705 214 685Q252 665 276 665Q307 665 325 708L396 708Z"  horiz-adv-x="294" vert-adv-y="1000"  />

      
      <glyph glyph-name="uni012A" unicode="&#x012A;" d="M185 0L18 0L143 708L310 708L185 0M402 793L69 793L83 877L417 877L402 793Z"  horiz-adv-x="315" vert-adv-y="1000"  />

      
      <glyph glyph-name="uni012B" unicode="&#x012B;" d="M170 0L11 0L98 498L259 498L170 0M358 601L25 601L39 685L373 685L358 601Z"  horiz-adv-x="294" vert-adv-y="1000"  />

      
      <glyph glyph-name="uni012C" unicode="&#x012C;" d="M185 0L18 0L143 708L310 708L185 0M434 908Q418 834 367.50 799Q317 764 245 764Q88 764 88 908L170 908Q170 851 250 851Q336 851 352 908L434 908Z"  horiz-adv-x="315" vert-adv-y="1000"  />

      
      <glyph glyph-name="uni012D" unicode="&#x012D;" d="M170 0L11 0L98 498L259 498L170 0M389 716Q373 642 322.50 607Q272 572 200 572Q43 572 43 716L125 716Q125 686 150 671Q172 659 205 659Q291 659 307 716L389 716Z"  horiz-adv-x="294" vert-adv-y="1000"  />

      
      <glyph glyph-name="uni012E" unicode="&#x012E;" d="M178-196Q120-236 59-236Q-37-236-37-153Q-37-85 88 0L18 0L143 708L310 708L185 0L177 0Q67-79 67-127Q67-154 100-154Q128-154 157-135L178-196Z"  horiz-adv-x="315" vert-adv-y="1000"  />

      
      <glyph glyph-name="uni012F" unicode="&#x012F;" d="M161-196Q103-236 42-236Q-54-236-54-153Q-54-85 71 0L11 0L98 498L259 498L170 0L160 0Q50-79 50-127Q50-154 83-154Q112-154 140-135L161-196M293 665Q293 625 266.50 597Q240 569 200 569Q162 569 137.50 592Q113 615 113 649Q113 689 140.50 717Q168 745 208 745Q245 745 269 722Q293 699 293 665Z"  horiz-adv-x="294" vert-adv-y="1000"  />

      
      <glyph glyph-name="uni0130" unicode="&#x0130;" d="M185 0L18 0L143 708L310 708L185 0M330 856Q330 819 305 792.50Q280 766 242 766Q206 766 183 787.50Q160 809 160 842Q160 880 186 906Q212 932 250 932Q284 932 307 910Q330 888 330 856Z"  horiz-adv-x="315" vert-adv-y="1000"  />

      
      <glyph glyph-name="uni0131" unicode="&#x0131;" d="M170 0L11 0L98 498L259 498L170 0Z"  horiz-adv-x="294" vert-adv-y="1000"  />

      
      <glyph glyph-name="uni0132" unicode="&#x0132;" d="M185 0L18 0L143 708L310 708L185 0M749 239Q742 199 733 167.50Q724 136 705 99Q686 62 660 38Q634 14 591-2.50Q548-19 494-19Q405-19 347 25Q289 69 273 146L427 196Q431 168 448.50 149.50Q466 131 493 131Q534 131 554 159Q574 187 583 240L665 708L833 708L749 239Z"  horiz-adv-x="832" vert-adv-y="1000"  />

      
      <glyph glyph-name="uni0133" unicode="&#x0133;" d="M170 0L11 0L98 498L259 498L170 0M293 665Q293 625 266.50 597Q240 569 200 569Q162 569 137.50 592Q113 615 113 649Q113 689 140.50 717Q168 745 208 745Q245 745 269 722Q293 699 293 665M468-19Q459-70 445-106.50Q431-143 406-176Q381-209 338.50-226.50Q296-244 238-244Q201-244 169-235L198-102Q213-107 232-107Q266-107 283-84.50Q300-62 307-19L398 498L559 498L468-19M593 665Q593 625 566.50 597Q540 569 500 569Q462 569 437.50 592Q413 615 413 649Q413 689 440.50 717Q468 745 508 745Q545 745 569 722Q593 699 593 665Z"  horiz-adv-x="594" vert-adv-y="1000"  />

      
      <glyph glyph-name="uni0134" unicode="&#x0134;" d="M442 239Q435 199 426 167.50Q417 136 398 99Q379 62 353 38Q327 14 284-2.50Q241-19 187-19Q98-19 40 25Q-18 69-34 146L120 196Q124 168 141.50 149.50Q159 131 186 131Q227 131 247 159Q267 187 276 240L358 708L526 708L442 239M640 764L515 764L460 846L377 764L250 764L398 908L544 908L640 764Z"  horiz-adv-x="525" vert-adv-y="1000"  />

      
      <glyph glyph-name="uni0135" unicode="&#x0135;" d="M171-19Q162-70 148-106.50Q134-143 109-176Q84-209 41.50-226.50Q-1-244-59-244Q-96-244-128-235L-99-102Q-84-107-65-107Q-31-107-14-84.50Q3-62 10-19L101 498L262 498L171-19M393 572L268 572L213 654L130 572L3 572L151 716L297 716L393 572Z"  horiz-adv-x="297" vert-adv-y="1000"  />

      
      <glyph glyph-name="uni0136" unicode="&#x0136;" d="M654 0L447 0L242 333L239 333L181 0L18 0L143 708L306 708L253 411L256 411L537 708L749 708L402 371L654 0M370-45L240-240L117-240L228-45L370-45Z"  horiz-adv-x="679" vert-adv-y="1000"  />

      
      <glyph glyph-name="uni0137" unicode="&#x0137;" d="M533 0L342 0L215 239L212 239L170 0L10 0L143 756L304 756L222 296L225 296L414 498L616 498L376 265L533 0M316-45L186-240L63-240L174-45L316-45Z"  horiz-adv-x="572" vert-adv-y="1000"  />

      
      <glyph glyph-name="uni0138" unicode="&#x0138;" d="M533 0L342 0L215 239L212 239L170 0L10 0L97 498L258 498L222 296L225 296L414 498L616 498L376 265L533 0Z"  horiz-adv-x="572" vert-adv-y="1000"  />

      
      <glyph glyph-name="uni0139" unicode="&#x0139;" d="M462 0L18 0L143 708L310 708L210 145L488 145L462 0M461 908L291 764L169 764L298 908L461 908Z"  horiz-adv-x="525" vert-adv-y="1000"  />

      
      <glyph glyph-name="uni013A" unicode="&#x013A;" d="M172 0L10 0L143 756L306 756L172 0M441 936L271 792L149 792L278 936L441 936Z"  horiz-adv-x="295" vert-adv-y="1000"  />

      
      <glyph glyph-name="uni013B" unicode="&#x013B;" d="M462 0L18 0L143 708L310 708L210 145L488 145L462 0M303-45L173-240L50-240L161-45L303-45Z"  horiz-adv-x="525" vert-adv-y="1000"  />

      
      <glyph glyph-name="uni013C" unicode="&#x013C;" d="M172 0L10 0L143 756L306 756L172 0M158-46L28-241L-95-241L16-46L158-46Z"  horiz-adv-x="295" vert-adv-y="1000"  />

      
      <glyph glyph-name="uni013D" unicode="&#x013D;" d="M462 0L18 0L143 708L310 708L210 145L488 145L462 0M568 708L438 513L315 513L426 708L568 708Z"  horiz-adv-x="525" vert-adv-y="1000"  />

      
      <glyph glyph-name="uni013E" unicode="&#x013E;" d="M172 0L10 0L143 756L306 756L172 0M547 708L417 513L294 513L405 708L547 708Z"  horiz-adv-x="410" vert-adv-y="1000"  />

      
      <glyph glyph-name="uni013F" unicode="&#x013F;" d="M462 0L18 0L143 708L310 708L210 145L488 145L462 0M504 444Q504 407 479 380.50Q454 354 416 354Q380 354 357 375.50Q334 397 334 430Q334 468 360 494Q386 520 424 520Q458 520 481 498Q504 476 504 444Z"  horiz-adv-x="525" vert-adv-y="1000"  />

      
      <glyph glyph-name="uni0140" unicode="&#x0140;" d="M172 0L10 0L143 756L306 756L172 0M471 474Q471 437 446 410.50Q421 384 383 384Q347 384 324 405.50Q301 427 301 460Q301 498 327 524Q353 550 391 550Q425 550 448 528Q471 506 471 474Z"  horiz-adv-x="451" vert-adv-y="1000"  />

      
      <glyph glyph-name="uni0141" unicode="&#x0141;" d="M462 0L17 0L49 179L-25 122L-1 263L74 319L142 708L310 708L264 445L485 612L460 472L239 305L210 146L488 146L462 0Z"  horiz-adv-x="525" vert-adv-y="1000"  />

      
      <glyph glyph-name="uni0142" unicode="&#x0142;" d="M313 454L245 398L174 0L10 0L57 268L-11 211L14 353L82 411L143 756L308 756L269 538L338 595L313 454Z"  horiz-adv-x="295" vert-adv-y="1000"  />

      
      <glyph glyph-name="uni0143" unicode="&#x0143;" d="M645 0L460 0L265 470L262 470L182 0L18 0L143 708L330 708L524 241L526 241L606 708L770 708L645 0M658 908L488 764L366 764L495 908L658 908Z"  horiz-adv-x="789" vert-adv-y="1000"  />

      
      <glyph glyph-name="uni0144" unicode="&#x0144;" d="M239 426L241 426Q297 511 397 511Q476 511 516 468Q556 425 556 360Q556 327 551 306L497 0L337 0L384 270Q389 293 389 312Q389 379 323 379Q281 379 253.50 348Q226 317 218 270L170 0L10 0L79 395Q89 445 94 498L247 498Q246 489 243 462Q240 435 239 426M539 716L369 572L247 572L376 716L539 716Z"  horiz-adv-x="615" vert-adv-y="1000"  />

      
      <glyph glyph-name="uni0145" unicode="&#x0145;" d="M645 0L460 0L265 470L262 470L182 0L18 0L143 708L330 708L524 241L526 241L606 708L770 708L645 0M408-45L278-240L155-240L266-45L408-45Z"  horiz-adv-x="789" vert-adv-y="1000"  />

      
      <glyph glyph-name="uni0146" unicode="&#x0146;" d="M239 426L241 426Q297 511 397 511Q476 511 516 468Q556 425 556 360Q556 327 551 306L497 0L337 0L384 270Q389 293 389 312Q389 379 323 379Q281 379 253.50 348Q226 317 218 270L170 0L10 0L79 395Q89 445 94 498L247 498Q246 489 243 462Q240 435 239 426M317-45L187-240L64-240L175-45L317-45Z"  horiz-adv-x="615" vert-adv-y="1000"  />

      
      <glyph glyph-name="uni0147" unicode="&#x0147;" d="M645 0L460 0L265 470L262 470L182 0L18 0L143 708L330 708L524 241L526 241L606 708L770 708L645 0M677 908L530 764L385 764L287 908L413 908L467 825L550 908L677 908Z"  horiz-adv-x="789" vert-adv-y="1000"  />

      
      <glyph glyph-name="uni0148" unicode="&#x0148;" d="M239 426L241 426Q297 511 397 511Q476 511 516 468Q556 425 556 360Q556 327 551 306L497 0L337 0L384 270Q389 293 389 312Q389 379 323 379Q281 379 253.50 348Q226 317 218 270L170 0L10 0L79 395Q89 445 94 498L247 498Q246 489 243 462Q240 435 239 426M560 716L413 572L268 572L170 716L296 716L350 633L433 716L560 716Z"  horiz-adv-x="615" vert-adv-y="1000"  />

      
      <glyph glyph-name="uni0149" unicode="&#x0149;" d="M325 426L327 426Q383 511 483 511Q562 511 602 468Q642 425 642 360Q642 327 637 306L583 0L423 0L470 270Q475 293 475 312Q475 379 409 379Q367 379 339.50 348Q312 317 304 270L256 0L96 0L165 395Q175 445 180 498L333 498Q332 489 329 462Q326 435 325 426M290 708L160 513L37 513L148 708L290 708Z"  horiz-adv-x="701" vert-adv-y="1000"  />

      
      <glyph glyph-name="uni014A" unicode="&#x014A;" d="M642-19Q633-70 619-106.50Q605-143 580-176Q555-209 512.50-226.50Q470-244 412-244Q375-244 343-235L372-102Q387-107 406-107Q440-107 457-84.50Q474-62 481-19L482-10L265 470L262 470L182 0L18 0L143 708L330 708L527 261L529 261L606 708L770 708L642-19Z"  horiz-adv-x="789" vert-adv-y="1000"  />

      
      <glyph glyph-name="uni014B" unicode="&#x014B;" d="M494-19Q485-70 471-106.50Q457-143 432-176Q407-209 364.50-226.50Q322-244 264-244Q227-244 195-235L224-102Q239-107 258-107Q292-107 309-84.50Q326-62 333-19L384 270Q389 293 389 312Q389 379 323 379Q281 379 253.50 348Q226 317 218 270L170 0L10 0L79 395Q89 445 94 498L247 498Q246 489 243 462Q240 435 239 426L241 426Q297 511 397 511Q476 511 516 468Q556 425 556 360Q556 327 551 306L494-19Z"  horiz-adv-x="615" vert-adv-y="1000"  />

      
      <glyph glyph-name="uni014C" unicode="&#x014C;" d="M460 726Q619 726 710.50 641Q802 556 802 413Q802 231 684.50 106.50Q567-18 386-18Q226-18 133.50 67Q41 152 41 295Q41 476 160 601Q279 726 460 726M395 132Q501 132 565 212Q629 292 629 400Q629 477 581 527.50Q533 578 449 578Q345 578 279.50 497.50Q214 417 214 310Q214 233 262 182.50Q310 132 395 132M661 793L328 793L342 877L676 877L661 793Z"  horiz-adv-x="831" vert-adv-y="1000"  />

      
      <glyph glyph-name="uni014D" unicode="&#x014D;" d="M273-14Q163-14 91.50 46Q20 106 20 205Q20 333 103.50 423Q187 513 324 513Q436 513 508 453.50Q580 394 580 294Q580 164 496 75Q412-14 273-14M422 277Q422 323 393.50 352.50Q365 382 317 382Q255 382 216 335Q177 288 177 222Q177 176 205 147Q233 118 281 118Q344 118 383 164.50Q422 211 422 277M525 601L192 601L206 685L540 685L525 601Z"  horiz-adv-x="626" vert-adv-y="1000"  />

      
      <glyph glyph-name="uni014E" unicode="&#x014E;" d="M460 726Q619 726 710.50 641Q802 556 802 413Q802 231 684.50 106.50Q567-18 386-18Q226-18 133.50 67Q41 152 41 295Q41 476 160 601Q279 726 460 726M395 132Q501 132 565 212Q629 292 629 400Q629 477 581 527.50Q533 578 449 578Q345 578 279.50 497.50Q214 417 214 310Q214 233 262 182.50Q310 132 395 132M675 908Q659 834 608.50 799Q558 764 486 764Q329 764 329 908L411 908Q411 851 491 851Q577 851 593 908L675 908Z"  horiz-adv-x="831" vert-adv-y="1000"  />

      
      <glyph glyph-name="uni014F" unicode="&#x014F;" d="M273-14Q163-14 91.50 46Q20 106 20 205Q20 333 103.50 423Q187 513 324 513Q436 513 508 453.50Q580 394 580 294Q580 164 496 75Q412-14 273-14M422 277Q422 323 393.50 352.50Q365 382 317 382Q255 382 216 335Q177 288 177 222Q177 176 205 147Q233 118 281 118Q344 118 383 164.50Q422 211 422 277M540 716Q524 642 473.50 607Q423 572 351 572Q194 572 194 716L276 716Q276 686 301 671Q323 659 356 659Q442 659 458 716L540 716Z"  horiz-adv-x="626" vert-adv-y="1000"  />

      
      <glyph glyph-name="uni0150" unicode="&#x0150;" d="M460 726Q619 726 710.50 641Q802 556 802 413Q802 231 684.50 106.50Q567-18 386-18Q226-18 133.50 67Q41 152 41 295Q41 476 160 601Q279 726 460 726M395 132Q501 132 565 212Q629 292 629 400Q629 477 581 527.50Q533 578 449 578Q345 578 279.50 497.50Q214 417 214 310Q214 233 262 182.50Q310 132 395 132M827 908L656 764L535 764L664 908L827 908M608 908L437 764L316 764L444 908L608 908Z"  horiz-adv-x="831" vert-adv-y="1000"  />

      
      <glyph glyph-name="uni0151" unicode="&#x0151;" d="M273-14Q163-14 91.50 46Q20 106 20 205Q20 333 103.50 423Q187 513 324 513Q436 513 508 453.50Q580 394 580 294Q580 164 496 75Q412-14 273-14M422 277Q422 323 393.50 352.50Q365 382 317 382Q255 382 216 335Q177 288 177 222Q177 176 205 147Q233 118 281 118Q344 118 383 164.50Q422 211 422 277M690 716L519 572L398 572L527 716L690 716M471 716L300 572L179 572L307 716L471 716Z"  horiz-adv-x="626" vert-adv-y="1000"  />

      
      <glyph glyph-name="uni0152" unicode="&#x0152;" d="M1009 708L984 566L690 566L666 429L946 429L922 295L642 295L616 143L938 143L913 0L375 0Q313 0 255.50 17Q198 34 149 68Q100 102 70.50 161.50Q41 221 41 298Q41 482 162.50 595Q284 708 473 708L1009 708M534 565L466 565Q348 565 281 493Q214 421 214 320Q214 242 263.50 192.50Q313 143 409 143L460 143L534 565Z"  horiz-adv-x="1000" vert-adv-y="1000"  />

      
      <glyph glyph-name="uni0153" unicode="&#x0153;" d="M931 303Q931 258 918 206L561 206Q560 202 560 197Q560 157 593 132.50Q626 108 670 108Q740 108 789 160L890 81Q800-15 656-15Q594-15 543.50 6Q493 27 467 68Q404-14 271-14Q161-14 90.50 45.50Q20 105 20 205Q20 334 105.50 423.50Q191 513 327 513Q456 513 512 426Q582 513 711 513Q811 513 871 457.50Q931 402 931 303M789 324Q789 358 764.50 379.50Q740 401 698 401Q649 401 615 370.50Q581 340 572 304L788 304Q789 311 789 324M422 277Q422 323 393.50 352.50Q365 382 317 382Q257 382 217 335Q177 288 177 222Q177 176 205 147Q233 118 281 118Q343 118 382.50 164.50Q422 211 422 277Z"  horiz-adv-x="978" vert-adv-y="1000"  />

      
      </font>
</defs>
</svg>
